<svg fill="currentColor"
    height="50"
    width="50"
    viewBox="0 0 50 50"
    xmlns="http://www.w3.org/2000/svg">
    <path d="M39.5833,0H10.4167A10.4178,10.4178,0,0,0,0,10.4167V39.5833A10.4178,10.4178,0,0,0,10.4167,50H39.5833A10.4165,10.4165,0,0,0,50,39.5833V10.4167A10.4165,10.4165,0,0,0,39.5833,0ZM16.6667,39.5833h-6.25V16.6667h6.25ZM13.5417,14.025a3.6751,3.6751,0,1,1,3.6458-3.675A3.6615,3.6615,0,0,1,13.5417,14.025Zm28.125,25.5583h-6.25V27.9083c0-7.0166-8.3334-6.4854-8.3334,0v11.675h-6.25V16.6667h6.25v3.6771c2.9084-5.3875,14.5834-5.7855,14.5834,5.1583Z" />
</svg>
