<?xml version="1.0" encoding="utf-8"?>
<svg version="1.1"
	id="fd59ce54-f850-4dfc-bc34-dd7d379d600e"
	xmlns="http://www.w3.org/2000/svg"
	xmlns:xlink="http://www.w3.org/1999/xlink"
	x="0px"
	y="0px"
	viewBox="0 0 1074.4 428.7"
	style="enable-background:new 0 0 1074.4 428.7;"
	xml:space="preserve">
	<style type="text/css">
	.st0{fill:#F2F2F2;}
	.st1{fill:#2F2E41;}
	.st2{fill:#2980B9;}
	.st3{fill:none;stroke:#3F3D56;stroke-miterlimit:10;}
	.st4{fill:#27AE60;}
	.st5{fill:#FFFFFF;}
	.st6{opacity:0.3;fill:#2980B9;enable-background:new    ;}
	</style>
	<ellipse class="st0"
		cx="540.6"
		cy="393.8"
		rx="527.5"
		ry="34.9" />
	<path class="st1"
		d="M520.4,11.5c-85.9,0-147.7,55.1-147.7,183.8c0,145.8,61.7,184.4,147.7,184.4s151.3-42.3,151.3-184.4
	C671.8,43.4,606.4,11.5,520.4,11.5z M521,331.3c-59.5,0-90.6-34.9-90.6-135.9c0-89.1,32.4-136.1,91.9-136.1s91.9,30.9,91.9,136.1
	C614.2,293.9,580.5,331.3,521,331.3z" />
	<path class="st2"
		d="M321.3,278h-35.5V173.4c0-11.6-9.4-21-21-21h-8.3c-11.6,0-21,9.4-21,21l0,0V278H135.3c-6.6,0-12-5.4-12-12
	c0-1.9,0.5-3.9,1.4-5.6L230.8,59.7c5.4-10.2,1.5-22.9-8.7-28.3c-0.3-0.1-0.6-0.3-0.8-0.4l-6.3-3c-10.1-4.8-22.2-0.8-27.4,9.1
	l-129.4,242c-2.2,4.1-3.4,8.7-3.4,13.4l0,0c0,15.7,12.7,28.4,28.4,28.4c0,0,0,0,0,0h152.3v66.2c0,13.9,11.2,25.1,25.1,25.1l0,0h0
	c13.9,0,25.1-11.2,25.1-25.1l0,0v-66.2h35.5c11.8,0,21.4-9.6,21.4-21.4l0,0C342.8,287.6,333.2,278,321.3,278L321.3,278z" />
	<path class="st2"
		d="M979.3,278h-35.5V173.4c0-11.6-9.4-21-21-21h-8.3c-11.6,0-21,9.4-21,21l0,0V278H793.3c-6.6,0-12-5.4-12-12
	c0-1.9,0.5-3.9,1.4-5.6L888.8,59.7c5.4-10.2,1.5-22.9-8.7-28.3c-0.3-0.1-0.6-0.3-0.8-0.4l-6.3-3c-10.1-4.8-22.2-0.8-27.4,9.1
	l-129.4,242c-2.2,4.1-3.4,8.7-3.4,13.4l0,0c0,15.7,12.7,28.4,28.4,28.4l0,0h152.3v66.2c0,13.9,11.2,25.1,25.1,25.1c0,0,0,0,0,0l0,0
	c13.9,0,25.1-11.2,25.1-25.1c0,0,0,0,0,0v-66.2h35.5c11.8,0,21.4-9.6,21.4-21.4l0,0l0,0C1000.8,287.6,991.2,278,979.3,278L979.3,278
	z" />
	<path class="st3"
		d="M331.1,265.8h-35.5V161.1c0-11.6-9.4-21-21-21l0,0h-8.3c-11.6,0-21,9.4-21,21v0v104.6H145.1
	c-6.6,0-12-5.4-12-12c0-1.9,0.5-3.9,1.4-5.6L240.6,47.4c5.4-10.2,1.5-22.9-8.7-28.3c-0.3-0.1-0.6-0.3-0.8-0.4l-6.3-3
	c-10.1-4.8-22.2-0.8-27.4,9.1L68,266.9c-2.2,4.1-3.4,8.7-3.4,13.4l0,0c0,15.7,12.7,28.4,28.4,28.4h152.3v66.2
	c0,13.9,11.2,25.1,25.1,25.1l0,0h0c13.9,0,25.1-11.2,25.1-25.1l0,0v-66.2h35.5c11.8,0,21.4-9.6,21.4-21.4l0,0
	C352.6,275.4,343,265.8,331.1,265.8z" />
	<path class="st3"
		d="M997.7,265.8h-35.5V161.1c0-11.6-9.4-21-21-21l0,0h-8.3c-11.6,0-21,9.4-21,21v0v104.6H811.7
	c-6.6,0-12-5.4-12-12c0-1.9,0.5-3.9,1.4-5.6L907.2,47.4c5.4-10.2,1.5-22.9-8.7-28.3c-0.3-0.1-0.6-0.3-0.8-0.4l-6.3-3
	c-10.1-4.8-22.2-0.8-27.4,9.1l-129.4,242c-2.2,4.1-3.4,8.7-3.4,13.4l0,0c0,15.7,12.7,28.4,28.4,28.4l0,0h152.3v66.2
	c0,13.9,11.2,25.1,25.1,25.1c0,0,0,0,0,0l0,0c13.9,0,25.1-11.2,25.1-25.1c0,0,0,0,0,0v-66.2h35.5c11.8,0,21.4-9.6,21.4-21.4l0,0l0,0
	C1019.1,275.4,1009.5,265.8,997.7,265.8C997.7,265.8,997.7,265.8,997.7,265.8z" />
	<path class="st3"
		d="M540,0.5c-85.9,0-147.7,55.1-147.7,183.8c0,145.8,61.7,184.4,147.7,184.4s151.3-42.3,151.3-184.4
	C691.4,32.4,626,0.5,540,0.5z M540.6,320.3c-59.5,0-90.6-34.9-90.6-135.9c0-89.1,32.4-136.1,91.9-136.1s91.9,30.9,91.9,136.1
	C633.8,282.8,600.1,320.3,540.6,320.3L540.6,320.3z" />
	<path class="st4"
		d="M1006.9,264.1c10.8,3.9,22.7-1.6,26.7-12.4c3.9-10.8-1.6-22.7-12.4-26.7c-3.7-1.3-7.6-1.6-11.5-0.8l0.5,10.7
	l-5.1-9.2c-5,2.3-8.8,6.6-10.7,11.7c-0.7,1.8-1.1,3.7-1.2,5.6C992.5,252.3,998.1,260.9,1006.9,264.1z" />
	<path class="st3"
		d="M1031.9,388.3c-1.8-9.1,6-17.2,13.6-22.4s16.6-10.4,19.2-19.3c3.8-12.8-7.4-24.5-16.1-34.6
	c-6.5-7.5-12-15.7-16.5-24.6c-1.8-3.5-3.5-7.2-4-11.2c-0.7-5.7,1.1-11.3,3-16.7c6.1-18,12.7-35.9,19.6-53.7" />
	<path class="st3"
		d="M1007.7,261.3c10.8,3.9,22.7-1.6,26.7-12.4c3.9-10.8-1.6-22.7-12.4-26.7c-3.7-1.3-7.6-1.6-11.5-0.8l0.5,10.7
	l-5.1-9.2c-5,2.3-8.8,6.6-10.7,11.7c-0.7,1.8-1.1,3.7-1.2,5.6C993.4,249.6,999,258.1,1007.7,261.3z" />
	<path class="st4"
		d="M1029.4,202.1c2.4-6.7,8.1-11.6,15-13.2l1.7,10.2l3.2-10.7c11.5,0.2,20.7,9.6,20.5,21.1
	c-0.2,11.5-9.6,20.7-21.1,20.5c-11.5-0.2-20.7-9.6-20.5-21.1C1028.2,206.6,1028.6,204.3,1029.4,202.1z" />
	<path class="st3"
		d="M1030.5,198.4c2.4-6.7,8.1-11.6,15-13.2l1.7,10.2l3.2-10.7c11.5,0.2,20.7,9.6,20.5,21.1
	c-0.2,11.5-9.6,20.7-21.1,20.5c-11.5-0.2-20.7-9.6-20.5-21.1C1029.3,202.9,1029.7,200.6,1030.5,198.4z" />
	<path class="st4"
		d="M1045,312.1c10.8,3.9,22.7-1.7,26.7-12.5c3.3-9.1-0.1-19.3-8.2-24.6l-2.4,8.2l-1.7-10.3c0,0,0,0-0.1,0
	c-10.8-3.9-22.7,1.7-26.7,12.5C1028.6,296.3,1034.2,308.2,1045,312.1C1045,312.1,1045,312.1,1045,312.1L1045,312.1z" />
	<path class="st3"
		d="M1046,308.4c10.8,3.9,22.7-1.7,26.7-12.5c3.3-9.1-0.1-19.3-8.2-24.6l-2.4,8.2l-1.7-10.3c0,0,0,0-0.1,0
	c-10.8-3.9-22.7,1.7-26.7,12.5C1029.6,292.5,1035.2,304.5,1046,308.4C1046,308.4,1046,308.4,1046,308.4L1046,308.4z" />
	<path class="st4"
		d="M1023.3,346.7c2,11.3,12.8,18.9,24.1,16.9s18.9-12.8,16.9-24.1c-2-11.3-12.8-18.9-24.1-16.9
	c-5.1,0.9-9.7,3.7-12.9,7.8l9.3,14l-12.7-7.4C1023,340.1,1022.7,343.4,1023.3,346.7z" />
	<path class="st3"
		d="M1024.2,343.9c2,11.3,12.8,18.9,24.1,16.9s18.9-12.8,16.9-24.1c-2-11.3-12.8-18.9-24.1-16.9
	c-5.1,0.9-9.7,3.7-12.9,7.8l9.3,14l-12.7-7.4C1023.8,337.3,1023.6,340.7,1024.2,343.9z" />
	<path class="st4"
		d="M9,314.8c7.1,2.6,14.9-1.1,17.5-8.2c2.6-7.1-1.1-14.9-8.2-17.5c-2.4-0.9-5-1.1-7.5-0.5l0.3,7l-3.3-6
	c-3.3,1.5-5.8,4.3-7,7.7c-0.4,1.2-0.7,2.4-0.8,3.7C-0.4,307,3.3,312.7,9,314.8z" />
	<path class="st3"
		d="M25.5,396.4c-1.2-6,3.9-11.3,8.9-14.7s10.9-6.8,12.6-12.7c2.5-8.4-4.9-16.1-10.6-22.8
	c-4.2-4.9-7.9-10.3-10.9-16.1c-1.3-2.3-2.2-4.8-2.6-7.3c-0.5-3.7,0.7-7.4,2-11c4-11.8,8.3-23.6,12.9-35.2" />
	<path class="st3"
		d="M9.6,313c7.1,2.6,14.9-1.1,17.5-8.2c2.6-7.1-1.1-14.9-8.2-17.5c-2.4-0.9-5-1.1-7.5-0.5l0.3,7l-3.3-6
	c-3.3,1.5-5.8,4.3-7,7.7c-0.4,1.2-0.7,2.4-0.8,3.7C0.2,305.2,3.8,310.9,9.6,313z" />
	<path class="st4"
		d="M23.8,274.1c1.6-4.4,5.3-7.6,9.8-8.7l1.1,6.7l2.1-7c7.6,0.1,13.6,6.3,13.5,13.9s-6.3,13.6-13.9,13.5
	s-13.6-6.3-13.5-13.9C23,277,23.3,275.5,23.8,274.1z" />
	<path class="st3"
		d="M24.6,271.6c1.6-4.4,5.3-7.6,9.8-8.7l1.1,6.7l2.1-7c7.6,0.1,13.6,6.3,13.5,13.9s-6.3,13.6-13.9,13.5
	s-13.6-6.3-13.5-13.9C23.8,274.6,24,273.1,24.6,271.6z" />
	<path class="st4"
		d="M34.1,346.3c7.1,2.6,14.9-1.1,17.5-8.2c2.2-6-0.1-12.7-5.4-16.1l-1.6,5.4l-1.1-6.8c0,0,0,0,0,0
	c-7.1-2.6-14.9,1.1-17.5,8.2C23.3,335.9,26.9,343.7,34.1,346.3C34,346.3,34,346.3,34.1,346.3z" />
	<path class="st3"
		d="M34.7,343.9c7.1,2.6,14.9-1.1,17.5-8.2c2.2-6-0.1-12.7-5.4-16.1l-1.6,5.4l-1.1-6.8c0,0,0,0,0,0
	c-7.1-2.6-14.9,1.1-17.5,8.2C23.9,333.5,27.6,341.3,34.7,343.9L34.7,343.9L34.7,343.9z" />
	<path class="st4"
		d="M19.8,369c1.3,7.4,8.4,12.4,15.8,11.1c7.4-1.3,12.4-8.4,11.1-15.8c-1.3-7.4-8.4-12.4-15.8-11.1
	c-3.4,0.6-6.4,2.4-8.5,5.1l6.1,9.2l-8.3-4.9C19.6,364.7,19.4,366.9,19.8,369z" />
	<path class="st3"
		d="M20.4,367.2c1.3,7.4,8.4,12.4,15.8,11.1c7.4-1.3,12.4-8.4,11.1-15.8c-1.3-7.4-8.4-12.4-15.8-11.1
	c-3.4,0.6-6.4,2.4-8.5,5.1l6.1,9.2l-8.3-4.9C20.1,362.9,20,365.1,20.4,367.2z" />
	<ellipse class="st1"
		cx="480.9"
		cy="163.6"
		rx="17"
		ry="22" />
	<ellipse class="st1"
		cx="573.4"
		cy="164.1"
		rx="17"
		ry="22" />
	<path class="st1"
		d="M560.4,229.1c0,9.9-13.9,18-31,18s-31-8.1-31-18c0-8.6,10.4-15.8,24.3-17.6c2.2-0.3,4.4-0.4,6.7-0.4
	c3.7,0,7.5,0.4,11.1,1.2C552.2,214.9,560.4,221.5,560.4,229.1z" />
	<ellipse class="st3"
		cx="484.9"
		cy="158.6"
		rx="17"
		ry="22" />
	<ellipse class="st3"
		cx="577.4"
		cy="159.1"
		rx="17"
		ry="22" />
	<ellipse class="st3"
		cx="533.4"
		cy="224.1"
		rx="31"
		ry="18" />
	<path class="st5"
		d="M540.9,213.8c0,1.3-0.5,2.5-1.3,3.4c-0.8,0.9-2,1.4-3.2,1.4h-10c-2.6-0.1-4.6-2.2-4.5-4.8c0-1,0.3-1.9,0.8-2.7
	c2.2-0.3,4.4-0.5,6.7-0.5c3.7,0,7.5,0.4,11.1,1.3C540.8,212.5,540.9,213.2,540.9,213.8z" />
	<circle class="st5"
		cx="484.9"
		cy="152.6"
		r="5" />
	<circle class="st5"
		cx="577.9"
		cy="152.6"
		r="5" />
	<circle class="st6"
		cx="582.9"
		cy="199.6"
		r="5" />
	<circle class="st6"
		cx="460.9"
		cy="199.6"
		r="5" />
</svg>
