<svg fill="currentColor" 
	height="50" 
	width="50" 
	viewBox="0 0 50 50" 
	xmlns="http://www.w3.org/2000/svg">
	<g>
		<path d="M50,17c0-0.1,0-0.1,0-0.2c0,0,0-0.1,0-0.1c0-0.1,0-0.1-0.1-0.2c0,0,0-0.1,0-0.1c0,0,0-0.1-0.1-0.1c0,0,0-0.1-0.1-0.1
		c0-0.1-0.1-0.2-0.2-0.2c0,0-0.1-0.1-0.1-0.1c0,0-0.1-0.1-0.1-0.1c0,0-0.1-0.1-0.1-0.1c0,0-0.1-0.1-0.1-0.1c0,0,0,0,0,0L26.2,0.4
		c-0.7-0.5-1.7-0.5-2.4,0L1,15.6c0,0,0,0,0,0c0,0-0.1,0-0.1,0.1c0,0-0.1,0.1-0.1,0.1c0,0-0.1,0.1-0.1,0.1c0,0-0.1,0.1-0.1,0.1
		c0,0,0,0.1-0.1,0.1c0,0-0.1,0.1-0.1,0.1c0,0,0,0.1-0.1,0.1c0,0-0.1,0.1-0.1,0.1c0,0,0,0.1,0,0.1c0,0.1,0,0.1-0.1,0.2
		c0,0,0,0.1,0,0.1c0,0.1,0,0.1,0,0.2c0,0,0,0.1,0,0.1c0,0.1,0,0.2,0,0.3v15.2c0,0.1,0,0.2,0,0.3c0,0,0,0.1,0,0.1c0,0.1,0,0.1,0,0.2
		c0,0,0,0.1,0,0.1c0,0.1,0,0.1,0.1,0.2c0,0,0,0.1,0,0.1c0,0,0,0.1,0.1,0.1c0,0,0,0.1,0.1,0.1c0,0,0.1,0.1,0.1,0.1c0,0,0,0.1,0.1,0.1
		c0,0,0.1,0.1,0.1,0.1c0,0,0.1,0.1,0.1,0.1c0,0,0.1,0.1,0.1,0.1c0,0,0.1,0,0.1,0.1c0,0,0,0,0,0l22.8,15.2c0.4,0.2,0.8,0.4,1.2,0.4
		c0.4,0,0.8-0.1,1.2-0.4L49,34.4c0,0,0,0,0,0c0,0,0.1,0,0.1-0.1c0,0,0.1-0.1,0.1-0.1c0,0,0.1-0.1,0.1-0.1c0.1-0.1,0.1-0.1,0.2-0.2
		c0,0,0.1-0.1,0.1-0.1c0,0,0-0.1,0.1-0.1c0,0,0.1-0.1,0.1-0.1c0,0,0-0.1,0-0.1c0-0.1,0-0.1,0.1-0.2c0,0,0-0.1,0-0.1
		c0-0.1,0-0.1,0-0.2c0,0,0-0.1,0-0.1c0-0.1,0-0.2,0-0.3V17.4C50,17.3,50,17.2,50,17C50,17.1,50,17,50,17L50,17L50,17z M25,30.1
		L17.4,25l7.6-5.1l7.6,5.1L25,30.1z M22.9,16.2l-9.3,6.2l-7.5-5L22.9,6.2L22.9,16.2L22.9,16.2z M9.7,25l-5.4,3.6v-7.2L9.7,25z
		 M13.5,27.6l9.3,6.2v10L6,32.6L13.5,27.6L13.5,27.6L13.5,27.6z M27.1,33.8l9.3-6.2l7.5,5L27.1,43.8V33.8L27.1,33.8z M40.3,25
		l5.4-3.6v7.2L40.3,25L40.3,25L40.3,25z M36.5,22.4l-9.3-6.2v-10L44,17.4L36.5,22.4L36.5,22.4z" />
	</g>
</svg>
