<svg fill="currentColor"
    height="50"
    width="50"
    viewBox="0 0 50 50"
    xmlns="http://www.w3.org/2000/svg">
    <path class="cls-1"
        d="M25,.1358C11.1948.1358,0,11.58,0,25.6991A25.5248,25.5248,0,0,0,17.0966,49.956c1.2492.2365,1.7081-.5548,1.7081-1.23,0-.6093-.0231-2.6234-.0339-4.7594-6.955,1.5465-8.4226-3.0161-8.4226-3.0161C9.2109,37.996,7.5724,37.21,7.5724,37.21c-2.2685-1.5866.1709-1.5539.1709-1.5539a5.2688,5.2688,0,0,1,3.8323,2.6346c2.23,3.9078,5.8484,2.778,7.2752,2.1248a5.4906,5.4906,0,0,1,1.5872-3.4184c-5.5529-.6461-11.39-2.8383-11.39-12.6334a10.0176,10.0176,0,0,1,2.5761-6.8615,9.3779,9.3779,0,0,1,.2422-6.7653s2.0994-.6867,6.8765,2.6207a23.2049,23.2049,0,0,1,12.52,0c4.7718-3.3074,6.868-2.6207,6.868-2.6207a9.3673,9.3673,0,0,1,.2454,6.7653,9.998,9.998,0,0,1,2.5729,6.8615c0,9.8186-5.8484,11.98-11.4155,12.6132a6.1843,6.1843,0,0,1,1.6956,4.7338c0,3.42-.0287,6.1733-.0287,7.0153,0,.68.45,1.4775,1.717,1.2266A25.5223,25.5223,0,0,0,50,25.6991C50,11.58,38.8069.1358,25,.1358Z" />
    <path class="cls-2"
        d="M9.4689,36.8389c-.055.1274-.2507.1654-.4286.0781-.1815-.0834-.283-.2567-.2243-.384.0537-.1306.2494-.167.43-.08.1815.0835.285.2584.2224.3857Zm-.3077-.2331" />
    <path class="cls-2"
        d="M10.4816,37.994c-.1193.1128-.3525.06-.5106-.1183a.3967.3967,0,0,1-.0732-.5312c.1229-.1129.3489-.06.5126.1182.1638.18.1957.4167.0712.5313Zm-.2385-.2617" />
    <path class="cls-2"
        d="M11.4673,39.466c-.1533.1092-.4039.0071-.5587-.22-.1533-.2274-.1533-.5.0036-.6093.1548-.1092.4018-.0108.5587.2145a.4588.4588,0,0,1-.0036.6151Zm0,0" />
    <path class="cls-2"
        d="M12.8176,40.8886c-.1371.1546-.429.1128-.6424-.098a.4989.4989,0,0,1-.1423-.6532c.139-.1546.4326-.1112.6476.098.2171.2058.283.5.1371.6532Zm0,0" />
    <path class="cls-2"
        d="M14.6806,41.7145c-.0607.2-.3417.291-.6247.2059-.283-.0877-.4677-.3221-.4107-.5242.0586-.2017.3412-.2964.6262-.2055.2826.0873.4678.32.4092.5238Zm0,0" />
    <path class="cls-2"
        d="M16.7267,41.8675c.0068.2108-.2333.3857-.53.3894-.2988.007-.5409-.1637-.5441-.3713,0-.2128.2348-.3856.5336-.391.2972-.0058.541.1637.541.3729Zm0,0" />
    <path class="cls-2"
        d="M18.63,41.5363c.0356.2055-.171.4167-.4661.473-.29.0545-.5587-.0728-.5959-.2766-.036-.2108.1742-.4221.4641-.4767.2955-.0524.56.0712.5979.28Zm0,0" />
</svg>
