<svg height="50" 
	width="50" 
	viewBox="0 0 50 50" 
	xmlns="http://www.w3.org/2000/svg">
	<style type="text/css">
	.st0{fill:#5CE400;}
	</style>
	<g>
		<g>
			<path class="st0" 
				d="M12.2,7.2c2.6-1.5,5-2.9,7.4-4.3c1.5-0.8,2.9-1.7,4.4-2.5c0.8-0.5,1.6-0.5,2.5,0c7.3,4.2,14.6,8.4,22,12.7
			c0.1,0,0.2,0.1,0.3,0.2c0,1,0,2,0,3.1c0,7.5,0,15,0,22.5c0,1-0.3,1.7-1.2,2.1c-3.8,2.2-7.5,4.3-11.3,6.5c-0.2,0.1-0.3,0.2-0.6,0.3
			c0-0.3,0-0.6,0-0.9c0-8.5,0-17,0-25.4c0-0.5-0.2-0.8-0.6-1.1c-7.4-4.2-14.7-8.5-22.1-12.7C12.7,7.5,12.5,7.4,12.2,7.2z" />
			<path class="st0" 
				d="M1.8,20.7c3.7-2.1,7.2-4.2,10.8-6.2c0.7-0.4,1.4-0.3,2.1,0.1c4.1,2.4,8.2,4.7,12.3,7.1c1,0.6,2,1.2,3,1.7
			c0.4,0.2,0.5,0.4,0.5,0.9c0,5.9,0,11.8,0,17.6c0,0.8-0.3,1.5-1,1.9c-3.4,2-6.8,3.9-10.2,5.9c-0.1,0.1-0.2,0.1-0.5,0.2
			c0-0.4,0-0.7,0-0.9c0-5.9,0-11.9,0-17.8c0-0.6-0.2-0.9-0.7-1.2c-5.3-3-10.6-6.1-15.9-9.2C2.1,20.9,2,20.8,1.8,20.7z" />
			<path class="st0" 
				d="M1.8,40.2c4-2.3,7.8-4.5,11.7-6.8c0,4.5,0,9,0,13.5C9.6,44.8,5.7,42.5,1.8,40.2z" />
		</g>
	</g>
</svg>
