<svg height="50" 
	width="50" 
	viewBox="0 0 50 50" 
	xmlns="http://www.w3.org/2000/svg">
	<style type="text/css">
	.st0{fill:#744C9E;}
	</style>
	<g>
		<path class="st0" 
			d="M25,0C11.2,0,0,11.2,0,25s11.2,25,25,25s25-11.2,25-25S38.8,0,25,0z M5.4,25.3l19.4,19.4
		C14.1,44.5,5.5,35.9,5.4,25.3L5.4,25.3z M29.4,44.1L5.9,20.6c2-8.7,9.8-15.2,19.1-15.2c6.5,0,12.3,3.2,15.9,8.1l-2.7,2.4
		C35.3,11.7,30.5,9,25,9C18.1,9,12.2,13.4,10,19.5l20.5,20.5c5-1.8,8.8-6,10.1-11.2h-8.5V25h12.6C44.6,34.3,38.1,42.1,29.4,44.1
		L29.4,44.1z" />
	</g>
</svg>
