<svg height="50" 
	width="50" 
	viewBox="0 0 50 50" 
	xmlns="http://www.w3.org/2000/svg">
	<style type="text/css">
	.st0{fill:#E1251B;}
	</style>
	<g>
		<path class="st0" 
			d="M6.4,32c-0.9-2.2-1.3-4.6-1.3-7C5.1,14.1,14,5.3,25,5.4c0,0,0.2,0,0.2,0c0.9,0,1.8,0.1,2.6,0.2l-2.1,2.1
		l-0.4,0c-3.4,0-6.8,0.9-9.7,2.7c-6.7,4.3-9.5,12.2-7.4,19.4h15.3l-6.9,12.5L32.9,26H11.3L35.4,2.2C32.2,0.8,28.6,0,25.1,0
		C11.2,0,0,11.2,0,24.9c0,8.6,4.6,16.7,12,21.2l7.5-14L6.4,32z M37.9,3.4l-7.6,14.2h13.2c3.9,10.2-1.2,21.6-11.5,25.5
		c-2.3,0.9-4.7,1.3-7.1,1.3c-1,0-1.9-0.1-2.9-0.2l2.2-2.2l0.4,0c2.4,0,4.8-0.4,7-1.3c6.8-2.9,10.8-9.2,10.8-16.1
		c0-1.6-0.2-3.2-0.7-4.7H26.6L33.5,7L16.6,23.7h21.9L14.2,47.8c14.3,6.3,31.3-1.5,35.1-17.3c1.9-8-0.7-16.4-6.6-22.3L37.9,3.4z" />
	</g>
</svg>
