<svg height="50" 
	width="50" 
	viewBox="0 0 50 50" 
	xmlns="http://www.w3.org/2000/svg">
	<style type="text/css">
	.st0{fill:#235CA7;}
	</style>
	<g>
		<g>
			<path class="st0" 
				d="M27.4,22.2c-0.9,0-1.7,0-2.5,0c-0.1-0.3-0.2-0.6-0.3-0.9c-0.3-0.7-0.8-1.1-1.4-1.2c-0.9-0.2-1.7-0.2-2.6,0
			c-0.9,0.3-1.5,1.1-1.5,2.1c0,1.8,0,3.7,0,5.5c0,0.9,0.6,1.7,1.4,2c0.9,0.3,1.9,0.3,2.8,0c0.9-0.3,1.5-1.1,1.5-2.1
			c0-0.3,0-0.5,0-0.9c-0.3,0-0.6,0-0.9,0c-0.6,0-1.3,0-1.9,0c-0.1,0-0.2,0-0.2-0.1c-0.2-0.7-0.4-1.4-0.6-2.2c2.1,0,4.1,0,6.2,0
			c0,0.4,0,0.7,0,1.1c0,0.9,0,1.7-0.1,2.6c-0.2,1.9-1.2,3.3-3,3.9c-1.6,0.6-3.3,0.6-4.9-0.1c-1.8-0.8-2.7-2.3-2.7-4.2
			c-0.1-1.8-0.1-3.6,0-5.4c0.1-2.2,1.4-4.1,3.6-4.6c1.7-0.4,3.4-0.4,4.9,0.6c1.3,0.8,1.9,2,2.1,3.5C27.4,21.9,27.4,22,27.4,22.2z" />
			<path class="st0" 
				d="M10.8,22.2c-0.9,0-1.7,0-2.5,0c-0.1-0.3-0.1-0.6-0.2-0.8c-0.3-0.7-0.8-1.1-1.5-1.3c-0.7-0.2-1.5-0.2-2.2,0
			c-1.2,0.3-1.7,1.1-1.8,2.3c-0.1,1.8,0,3.5,0,5.3c0,1,0.6,1.8,1.5,2.1c0.9,0.3,1.8,0.3,2.7,0c0.9-0.3,1.4-1,1.5-2c0-0.3,0-0.6,0-1
			c-1,0-2,0-3,0C5,26,4.8,25.2,4.6,24.5c2,0,4.1,0,6.1,0c0,0.1,0,0.1,0,0.2c0,1,0,2,0,2.9c0,1.7-0.7,3-2.1,4
			c-0.7,0.5-1.6,0.7-2.5,0.8c-1.2,0.1-2.4,0-3.5-0.5c-1.6-0.8-2.5-2.2-2.6-4C0,25.9,0,24,0,22.1c0-2.1,1.4-3.9,3.4-4.4
			c1.8-0.5,3.5-0.4,5.1,0.6c1.2,0.7,1.9,1.9,2.1,3.3C10.7,21.7,10.7,22,10.8,22.2z" />
			<path class="st0" 
				d="M49.4,26.7c0.2,0.8,0.4,1.5,0.6,2.3c-1.1,0-2.1,0-3.2,0c0.4,1,0.7,2.1,1.1,3.1c-0.6,0-1.2,0-1.8,0
			c-0.3,0-0.6,0.1-0.8,0C45.1,32,45,31.6,45,31.4c-0.3-0.7-0.5-1.4-0.8-2.1c-0.1-0.2-0.1-0.3-0.3-0.3c-1.6,0-3.3,0-4.9,0
			c-0.2,0-0.2,0.1-0.3,0.2c-0.3,0.9-0.7,1.8-1,2.7c-0.1,0.2-0.2,0.2-0.3,0.2c-0.8,0-1.6,0-2.4,0c0.1-0.2,0.1-0.3,0.2-0.5
			c1.7-4.6,3.3-9.1,5-13.7c0.1-0.3,0.2-0.3,0.5-0.3c0.6,0,1.2,0,1.8,0c0.2,0,0.3,0.1,0.4,0.3c1,2.9,2.1,5.7,3.1,8.6
			c0.1,0.2,0.2,0.3,0.4,0.3C47.3,26.7,48.3,26.7,49.4,26.7z M39.6,26.7c1.2,0,2.4,0,3.7,0c-0.6-1.7-1.2-3.3-1.8-5.1
			C40.8,23.4,40.2,25.1,39.6,26.7z" />
			<path class="st0" 
				d="M29,32.1c0-0.9,0-1.7,0-2.6c0.4,0,0.9,0,1.3,0c0.4,0,0.7-0.1,0.8-0.5c0.2-0.3,0.3-0.6,0.5-1
			c0-0.1,0-0.2,0-0.3c-1.2-3.2-2.4-6.5-3.6-9.7c0-0.1-0.1-0.3-0.2-0.4c0.9,0,1.7,0,2.5,0c0.1,0,0.2,0.1,0.2,0.2
			c0.8,2,1.5,4.1,2.3,6.1c0,0.1,0.1,0.1,0.1,0.2c0.7-2.2,1.5-4.4,2.2-6.6c0.9,0,1.7,0,2.6,0c-0.1,0.3-0.2,0.6-0.3,0.9
			c-1.1,3.3-2.2,6.7-3.4,10c-0.2,0.6-0.5,1.3-0.9,1.9c-0.6,1.1-1.6,1.6-2.8,1.7C30,32.1,29.5,32.1,29,32.1z" />
			<path class="st0" 
				d="M12.5,17.7c0.8,0,1.6,0,2.5,0c0,4.8,0,9.6,0,14.5c-0.8,0-1.6,0-2.5,0C12.5,27.3,12.5,22.5,12.5,17.7z" />
		</g>
	</g>
</svg>
