<svg height="50" 
	width="50" 
	viewBox="0 0 50 50" 
	xmlns="http://www.w3.org/2000/svg">
	<style type="text/css">
	.st0{fill:#764ABC;}
	</style>
	<g>
		<path class="st0" 
			d="M34.6,34.4c1.8-0.2,3.2-1.8,3.2-3.7c-0.1-1.9-1.7-3.4-3.6-3.4h-0.1c-2,0.1-3.5,1.7-3.4,3.7
		c0.1,1,0.4,1.8,1,2.4c-2.2,4.3-5.5,7.4-10.4,10c-3.4,1.8-6.9,2.4-10.4,2c-2.9-0.4-5.1-1.7-6.5-3.8c-2-3.1-2.2-6.5-0.5-9.9
		c1.2-2.4,3.1-4.2,4.3-5.1c-0.3-0.8-0.6-2.2-0.8-3.2C-1.8,30-0.9,39,1.9,43.3C4,46.5,8.3,48.4,13,48.4c1.3,0,2.5-0.1,3.8-0.4
		C25,46.4,31.1,41.6,34.6,34.4L34.6,34.4z M45.8,26.5c-4.8-5.7-12-8.8-20.1-8.8h-1c-0.6-1.1-1.8-1.9-3.1-1.9h-0.1
		c-2,0.1-3.5,1.7-3.4,3.7c0.1,1.9,1.7,3.4,3.6,3.4h0.1c1.4-0.1,2.6-1,3.1-2.2H26c4.8,0,9.4,1.4,13.6,4.1c3.2,2.1,5.5,4.8,6.8,8.2
		c1.1,2.7,1,5.3-0.1,7.5c-1.8,3.4-4.8,5.2-8.7,5.2c-2.5,0-5-0.8-6.2-1.3c-0.7,0.6-2,1.7-2.9,2.3c2.7,1.3,5.5,2,8.2,2
		c6.1,0,10.6-3.4,12.4-6.8C50.7,38.3,50.6,31.9,45.8,26.5L45.8,26.5z M13.5,35.4c0.1,1.9,1.7,3.4,3.6,3.4h0.1c2-0.1,3.5-1.7,3.4-3.7
		c-0.1-1.9-1.7-3.4-3.6-3.4h-0.1c-0.1,0-0.3,0-0.4,0.1c-2.6-4.3-3.7-9-3.3-14.1c0.3-3.8,1.5-7.1,3.7-9.8c1.8-2.4,5.4-3.5,7.8-3.6
		c6.7-0.1,9.6,8.3,9.8,11.6c0.8,0.2,2.2,0.6,3.2,1C37,6.6,30.6,1.3,24.5,1.3c-5.7,0-11,4.1-13.1,10.2c-2.9,8.1-1,15.9,2.5,22.1
		C13.6,34,13.4,34.7,13.5,35.4L13.5,35.4z" />
	</g>
</svg>
