<svg height="50" 
	width="50" 
	viewBox="0 0 50 50" 
	xmlns="http://www.w3.org/2000/svg">
	<style type="text/css">
	.st0{fill:#5D87A1;}
	.st1{fill:#F8981D;}
	</style>
	<g>
		<path class="st0" 
			d="M12,39h-1.9c-0.1-3.3-0.3-6.3-0.6-9.2h0L6.6,39H5.1l-2.9-9.2h0C2,32.5,1.8,35.6,1.8,39H0
		c0.1-4.1,0.4-7.9,0.9-11.5h2.4L6,35.9h0l2.8-8.5h2.3C11.6,31.6,11.9,35.5,12,39 M20.4,30.5c-0.8,4.3-1.8,7.4-3.1,9.3
		c-1,1.5-2.1,2.2-3.3,2.2c-0.3,0-0.7-0.1-1.2-0.3v-1c0.2,0,0.5,0.1,0.8,0.1c0.6,0,1-0.2,1.3-0.5c0.4-0.4,0.6-0.8,0.6-1.3
		c0-0.3-0.2-1-0.5-2L13,30.4h1.9l1.5,4.9c0.3,1.1,0.5,1.9,0.4,2.3c0.8-2.2,1.4-4.6,1.7-7.3L20.4,30.5L20.4,30.5L20.4,30.5z" />
		<path class="st1" 
			d="M46.1,39h-5.5V27.4h1.8v10.1h3.6V39z M39.2,39.2l-2.1-1c0.2-0.2,0.4-0.3,0.5-0.5c0.9-1.1,1.4-2.6,1.4-4.7
		c0-3.8-1.5-5.7-4.5-5.7c-1.5,0-2.6,0.5-3.4,1.5c-0.9,1.1-1.3,2.6-1.3,4.7c0,2,0.4,3.5,1.2,4.5c0.7,0.9,1.8,1.3,3.3,1.3
		c0.5,0,1.1-0.1,1.5-0.2l2.8,1.6L39.2,39.2z M32.3,36.7c-0.5-0.8-0.7-2-0.7-3.6c0-2.9,0.9-4.4,2.6-4.4c0.9,0,1.6,0.3,2,1
		c0.5,0.8,0.7,1.9,0.7,3.6c0,2.9-0.9,4.4-2.6,4.4C33.4,37.7,32.7,37.4,32.3,36.7 M28.8,35.8c0,1-0.4,1.8-1.1,2.4
		c-0.7,0.6-1.7,0.9-2.9,0.9c-1.1,0-2.2-0.4-3.3-1.1l0.5-1c0.9,0.5,1.7,0.7,2.5,0.7c0.7,0,1.2-0.2,1.6-0.5c0.4-0.3,0.6-0.7,0.6-1.3
		c0-0.7-0.5-1.3-1.4-1.8c-0.8-0.4-2.4-1.4-2.4-1.4c-0.9-0.6-1.3-1.3-1.3-2.5c0-0.9,0.3-1.7,1-2.3c0.7-0.6,1.5-0.9,2.5-0.9
		c1.1,0,2,0.3,2.9,0.9l-0.4,1c-0.7-0.3-1.5-0.5-2.2-0.5c-0.6,0-1,0.1-1.4,0.4c-0.3,0.3-0.5,0.6-0.5,1.1c0,0.7,0.5,1.3,1.4,1.8
		c0.8,0.4,2.5,1.4,2.5,1.4C28.4,34,28.8,34.6,28.8,35.8" />
		<path class="st0" 
			d="M48.4,23.6c-1.1,0-2,0.1-2.7,0.4c-0.2,0.1-0.5,0.1-0.6,0.3c0.1,0.1,0.1,0.3,0.2,0.4c0.2,0.3,0.5,0.7,0.7,0.8
		c0.3,0.2,0.6,0.4,0.9,0.6c0.5,0.3,1.2,0.5,1.7,0.9c0.3,0.2,0.6,0.4,0.9,0.7c0.2,0.1,0.2,0.3,0.4,0.4V28c-0.1-0.1-0.1-0.3-0.2-0.4
		l-0.4-0.4c-0.4-0.5-0.9-1-1.4-1.4c-0.4-0.3-1.4-0.7-1.6-1.2l0,0c0.3,0,0.7-0.1,0.9-0.2c0.5-0.1,0.9-0.1,1.4-0.2
		c0.2-0.1,0.4-0.1,0.7-0.2v-0.2c-0.3-0.3-0.4-0.6-0.7-0.8c-0.7-0.6-1.5-1.2-2.3-1.7c-0.4-0.3-1-0.5-1.5-0.7
		c-0.2-0.1-0.4-0.1-0.5-0.3c-0.3-0.3-0.4-0.7-0.6-1.1c-0.4-0.8-0.8-1.6-1.1-2.4c-0.3-0.5-0.4-1.1-0.7-1.6c-1.4-2.4-3-3.8-5.4-5.2
		c-0.5-0.3-1.1-0.4-1.8-0.6l-1-0.1C33.4,9.3,33.2,9,33,8.9c-0.8-0.5-2.8-1.6-3.4-0.2c-0.4,0.9,0.6,1.8,0.9,2.3
		c0.2,0.3,0.5,0.7,0.7,1c0.1,0.2,0.1,0.5,0.2,0.7c0.2,0.6,0.4,1.3,0.7,1.9c0.2,0.3,0.3,0.6,0.5,0.9c0.1,0.2,0.3,0.2,0.3,0.5
		c-0.2,0.3-0.2,0.7-0.3,1c-0.5,1.6-0.3,3.5,0.4,4.7c0.2,0.3,0.8,1.1,1.5,0.8c0.6-0.3,0.5-1,0.7-1.7c0-0.2,0-0.3,0.1-0.4v0
		c0.2,0.4,0.4,0.8,0.6,1.2c0.4,0.7,1.2,1.4,1.8,1.9c0.3,0.3,0.6,0.7,1,0.8v0h0c-0.1-0.1-0.2-0.2-0.3-0.3c-0.3-0.3-0.5-0.6-0.7-0.8
		c-0.6-0.8-1.1-1.6-1.6-2.5c-0.2-0.4-0.4-0.9-0.6-1.3c-0.1-0.2-0.1-0.4-0.2-0.5c-0.2,0.3-0.5,0.6-0.7,0.9c-0.3,0.6-0.3,1.3-0.4,2.1
		l-0.1,0c-0.4-0.1-0.6-0.6-0.8-1c-0.4-1-0.5-2.6-0.1-3.7c0.1-0.3,0.5-1.2,0.3-1.5c-0.1-0.3-0.4-0.4-0.5-0.6
		c-0.2-0.3-0.4-0.6-0.5-0.9c-0.3-0.8-0.5-1.6-0.9-2.4c-0.2-0.4-0.5-0.7-0.7-1.1c-0.3-0.4-0.6-0.6-0.8-1.1c-0.1-0.2-0.2-0.4-0.1-0.6
		c0-0.1,0.1-0.2,0.2-0.2c0.2-0.2,0.7,0,0.9,0.1c0.5,0.2,0.9,0.4,1.4,0.7c0.2,0.1,0.4,0.4,0.7,0.5h0.3c0.4,0.1,0.9,0,1.4,0.2
		c0.7,0.2,1.4,0.6,2,1c1.8,1.2,3.3,2.8,4.3,4.8c0.2,0.3,0.2,0.6,0.4,0.9c0.3,0.7,0.7,1.4,0.9,2c0.3,0.7,0.6,1.3,1,1.9
		c0.2,0.3,1,0.4,1.4,0.6c0.3,0.1,0.7,0.2,1,0.4c0.5,0.3,0.9,0.6,1.4,0.9C47.6,22.9,48.3,23.3,48.4,23.6 M34.2,11.5
		c-0.2,0-0.4,0-0.6,0.1v0h0c0.1,0.2,0.3,0.4,0.4,0.6c0.1,0.2,0.2,0.4,0.3,0.7l0,0c0.2-0.1,0.3-0.4,0.3-0.7c-0.1-0.1-0.1-0.2-0.2-0.3
		C34.5,11.6,34.3,11.6,34.2,11.5" />
		<path class="st1" 
			d="M49.7,39H50v-1.4h-0.4l-0.4,1l-0.4-1h-0.4V39h0.3v-1.1h0l0.4,1.1h0.2l0.4-1.1L49.7,39L49.7,39z M47.4,39h0.3
		v-1.2h0.4v-0.2H47v0.2h0.4L47.4,39L47.4,39z" />
	</g>
</svg>
