<svg height="50" 
	width="50" 
	viewBox="0 0 50 50" 
	xmlns="http://www.w3.org/2000/svg">
	<style type="text/css">
	.st0{fill:#8A4182;}
	</style>
	<g>
		<g>
			<path class="st0" 
				d="M23.1,20.7h3.9l1-1.3V9h-5.8v10.4L23.1,20.7 M20.6,25.3l1.2-3.7l-1-1.3l-9.9-3.2l-1.8,5.5l9.9,3.2L20.6,25.3
			 M24.2,29.1l-3.1-2.3l-1.6,0.5l-6.1,8.4l4.7,3.4l6.1-8.4V29.1 M28.9,26.9l-3.1,2.3l0,1.6l6.1,8.4l4.7-3.4l-6.1-8.4L28.9,26.9
			 M28.2,21.7l1.2,3.7l1.6,0.5l9.9-3.2l-1.8-5.5l-9.9,3.2L28.2,21.7" />
			<path class="st0" 
				d="M25,0C11.2,0,0,11.2,0,25c0,13.8,11.2,25,25,25c13.8,0,25-11.2,25-25C50,11.2,38.8,0,25,0L25,0z M25,5.1
			C36,5.1,44.9,14,44.9,25c0,11-8.9,19.9-19.9,19.9C14,44.9,5.1,36,5.1,25C5.1,14,14,5.1,25,5.1L25,5.1z" />
			<path class="st0" 
				d="M40.1,30.6l-7.5-2.4l0.5-1.5l7.5,2.4L40.1,30.6 M30.6,18.5l-1.3-0.9l4.6-6.4l1.3,0.9L30.6,18.5 M19.5,18.5
			l-4.6-6.4l1.3-0.9l4.6,6.4L19.5,18.5 M9.8,30.5l-0.5-1.5l7.5-2.4l0.5,1.5L9.8,30.5 M24.1,40.9h1.6v-7.9h-1.6L24.1,40.9L24.1,40.9z
			" />
		</g>
	</g>
</svg>
