<svg height="50" 
	width="50" 
	viewBox="0 0 50 50" 
	xmlns="http://www.w3.org/2000/svg">
	<g>
		<path d="M23.8,0c-0.1,0-0.5,0-0.8,0.1C18.6,0.4,14.1,2,10.5,4.6C9.3,5.5,8.4,6.3,7.3,7.3c-6.1,6.1-8.6,14.8-6.7,23.3
		c0.8,3.5,2.4,7,4.6,9.8c3.5,4.4,8.2,7.5,13.5,8.9c2.2,0.6,4,0.8,6.2,0.8c2.2,0,3.9-0.2,6-0.7c3.1-0.8,5.8-2,8.4-3.9
		c2.6-1.8,5-4.3,6.7-7.1c2.2-3.5,3.5-7.4,3.8-11.7c0.1-0.9,0-3.1-0.1-4c-0.2-1.8-0.7-4.2-1-4.7c-0.1-0.2-0.4-0.5-0.7-0.5
		c-0.1,0-0.3,0-0.4,0c-0.7,0-1.2,0.5-1.2,1.2c0,0.2,0.1,0.5,0.2,0.9c0.9,3.4,0.9,7.1,0.2,10.4c-0.9,4.3-3.1,8.1-6.2,11.3
		c-1.5,1.5-2.9,2.5-4.8,3.6c-4.3,2.5-9.7,3.4-14.7,2.6c-3.8-0.6-7.1-2.1-10.3-4.6c-1.5-1.2-3.3-3.1-4.4-4.6c-1.9-2.7-3.1-5.6-3.8-9
		c-0.3-1.7-0.4-4-0.3-5.8c0.2-2.8,0.9-5.4,2.1-7.9c0.6-1.1,0.9-1.7,1.6-2.7c1.3-2,3.1-3.9,5.1-5.5c2.3-1.8,5.1-3.1,7.8-3.9
		c1.5-0.4,2.7-0.6,4.2-0.7c5.5-0.4,10.9,1.2,15.2,4.5c0.3,0.2,0.7,0.5,0.8,0.6l0.2,0.1L39.5,8c-0.3,0.9-0.1,2.1,0.6,2.9
		c0.4,0.4,1,0.8,1.6,0.9c0.4,0.1,1,0.1,1.4,0c1-0.2,1.9-1.1,2.2-2c0.3-1,0.1-2.1-0.5-2.9c-0.7-0.9-2-1.3-3.2-1L41.3,6l-0.4-0.3
		c-1.5-1.2-3.2-2.3-5.1-3.2c-3-1.5-6-2.2-9.5-2.4C25.7,0,24.2,0,23.8,0L23.8,0z" />
		<path d="M21.2,14.4c-0.5,1.2-1.5,3.8-2.2,5.8c-0.8,2-2.4,6.1-3.5,9.2c-1.2,3-2.1,5.5-2.1,5.5c0,0,1.2,0,2.7,0h2.7l0.2-0.5
		c0.1-0.2,0.4-1.1,0.7-1.9l0.6-1.5h4.1c3.3,0,4.1,0,4.1-0.1c0-0.1-0.7-2-1.1-3.1l-0.4-1.1l-2.7,0l-2.7,0l1.8-4.9
		c1.1-2.9,1.8-4.9,1.8-4.8c0,0,0.7,2.1,1.6,4.5c0.9,2.4,2.3,6.4,3.1,8.9l1.6,4.5l2.7,0c1.5,0,2.7,0,2.7,0c0,0-0.4-0.9-0.8-2.1
		c-0.4-1.1-1.4-3.6-2.1-5.4c-0.7-1.8-1.5-3.9-1.8-4.6c-0.3-0.7-0.7-1.9-1-2.6c-0.3-0.8-1.1-2.8-1.7-4.5c-0.7-1.7-1.2-3.2-1.3-3.3
		l-0.1-0.2H22L21.2,14.4z" />
	</g>
</svg>
