<svg height="50" 
	width="50" 
	viewBox="0 0 50 50" 
	xmlns="http://www.w3.org/2000/svg">
	<style type="text/css">
	.st0{fill:#4E8EF7;}
	</style>
	<g>
		<g>

			<ellipse transform="matrix(1 -1.508053e-03 1.508053e-03 1 -3.767268e-02 3.772996e-02)" 
				class="st0" 
				cx="25" 
				cy="25" 
				rx="10.2" 
				ry="10.2" />
			<path class="st0" 
				d="M45.8,7.7c0-1.9-1.6-3.5-3.5-3.5c-0.8,0-1.7,0.3-2.3,0.9c-4.2-3.2-9.4-5-15-5C11.2,0,0,11.2,0,25
			c0,13.8,11.2,25,25,25s25-11.2,25-25c0-5.6-1.9-10.8-5-15C45.5,9.3,45.8,8.5,45.8,7.7L45.8,7.7z M25,49.2
			c-14.8,0-26.6-13.4-23.7-28.8C2.9,11.6,11.5,2.9,20.4,1.3c7.2-1.3,13.9,0.5,19.1,4.4c-0.4,0.6-0.6,1.3-0.6,2
			c0,1.9,1.6,3.5,3.5,3.5c0.8,0,1.5-0.2,2-0.6c3,4,4.8,9,4.8,14.5C49.1,38.3,38.3,49.2,25,49.2L25,49.2z" />
		</g>
	</g>
</svg>
