<svg height="50" 
	width="50" 
	viewBox="0 0 50 50" 
	xmlns="http://www.w3.org/2000/svg">
	<style type="text/css">
	.st0{fill:#99425B;stroke:#FFFFFF;stroke-width:2;}
	.st1{fill:none;stroke:#FFFFFF;stroke-width:2;}
	.st2{fill:#99425B;}
	</style>
	<g>
		<path class="st0" 
			d="M40.7,24.8c-0.1,0-2.1-0.3-4.6-0.5c-2.1-0.1-4.5-0.1-6.5,0c-1.6,0.1-3.7-0.7-4,0.3c-0.9,3.6-3,6.7-5.5,9.1
		c-1.9,1.8-4.2,3.2-6.6,4.1c-2.9-1.5-4.2-4.7-3-7.6c1-2.3,2.1-4.8,0-5.3c-1.5-0.4-2.3,1-2.9,2.6c-1.1,3-3.2,6-3.8,9.6
		c-0.6,3.8,0,7.9,3.3,10.2c7.7,5.3,16.1-3.3,24.9-5.5c3.2-0.8,6.7-0.7,9.5-2.3c2.1-1.2,3.5-3.3,3.9-5.5
		C46.2,30.3,44.2,26.6,40.7,24.8z" />
		<path class="st1" 
			d="M25.7,24.6c-0.9,3.6-3,6.7-5.5,9.1c-1.9,1.8-4.2,3.2-6.6,4.1c-2.9-1.5-4.2-4.7-3-7.6c1-2.3,2.1-4.8,0-5.3
		c-1.5-0.4-2.3,1-2.9,2.6c-1.1,3-3.2,6-3.8,9.6c-0.6,3.8,0,7.9,3.3,10.2c7.7,5.3,16.1-3.3,24.9-5.5c3.2-0.8,6.7-0.7,9.5-2.3
		c2.1-1.2,3.5-3.3,3.9-5.5c0.6-3.7-1.3-7.3-4.8-9.1" />
		<path class="st2" 
			d="M32.7,10.3l6.2,12.7L46.4,1H19.1l7.4,21.9L32.7,10.3z" />
		<path class="st1" 
			d="M32.7,10.3l6.2,12.7L46.4,1H19.1l7.4,21.9L32.7,10.3z" />
		<circle class="st2" 
			cx="25.2" 
			cy="24.6" 
			r="4.7" />
		<g>
			<circle class="st1" 
				cx="25.2" 
				cy="24.6" 
				r="4.7" />
			<circle class="st0" 
				cx="40.4" 
				cy="24.6" 
				r="4.7" />
			<circle class="st1" 
				cx="40.4" 
				cy="24.6" 
				r="4.7" />
		</g>
		<circle class="st2" 
			cx="9.9" 
			cy="24.7" 
			r="4.7" />
		<circle class="st1" 
			cx="9.9" 
			cy="24.7" 
			r="4.7" />
	</g>
</svg>
