<svg height="50" 
	width="50" 
	viewBox="0 0 50 50" 
	xmlns="http://www.w3.org/2000/svg">
	<style type="text/css">
	.st0{fill:#063A4A;}
	.st1{fill:#00D8FE;}
	.st2{fill:#00A1BE;}
	</style>
	<g>
		<g>
			<path class="st0" 
				d="M18.4,25.5c-0.1-0.1-0.3-0.2-0.4-0.4c-0.7-0.6-1.1-1.4-1.2-2.3c0-0.2-0.1-0.5-0.1-0.7c0-2,0-4,0-6
			c0-1.9,0.6-3.5,1.7-5c1.2-1.5,2.8-2.5,4.7-2.9C23.7,8,24.4,8,25.1,8c3.6,0.1,6.6,2.6,7.5,5.9c0.2,0.7,0.3,1.4,0.3,2.1
			c0,2.1,0,4.1,0,6.2c0,1-0.3,2-1,2.7c-0.2,0.2-0.4,0.4-0.7,0.6c0,0,0,0-0.1,0.1c0.2,0.2,0.3,0.4,0.4,0.7c0.6,1.4-0.1,3-1.4,3.6
			C30,29.9,30,30,30,30.1c0,0.7,0,1.3,0,2c0,0.2,0,0.5-0.1,0.7c0,0,0,0.1,0,0.1c0.1,0.8,0.2,1.7,0.6,2.4c0.1,0.2,0.2,0.4,0.4,0.6
			c0,0,0.1,0.1,0.1,0.1c0.3,0,0.5,0.1,0.8,0c0.3-0.1,0.5-0.2,0.7-0.5c0.2-0.2,0.3-0.5,0.4-0.8c0.1-0.4,0.2-0.7,0.3-1.1
			c0.1-0.5,0.1-1,0.2-1.4c0.1-0.4,0.1-0.8,0.2-1.3c0.1-0.5,0.1-1,0.2-1.4c0.1-0.5,0.1-1,0.2-1.4c0.1-0.9,0.2-1.7,0.5-2.6
			c0.3-1,0.8-2,1.4-2.9c0.8-1.1,1.9-1.9,3.1-2.4c0.5-0.2,1.1-0.4,1.6-0.5c1.4-0.4,2.8-0.7,4.2-1.1c0.2-0.1,0.4,0,0.6,0.1
			c0.4,0.2,0.5,0.5,0.6,0.9c0,0.4,0,0.7-0.1,1.1c-0.2,0.6-0.5,1-1.1,1.3c-0.4,0.2-0.9,0.4-1.4,0.6c-0.7,0.2-1.4,0.4-2.1,0.6
			c-0.8,0.2-1.5,0.7-2,1.3c-0.5,0.5-0.8,1.1-1,1.8c0,0,0,0,0,0.1c0,0,0,0,0.1,0c0.9-0.9,1.9-1.5,3.1-1.9c0.4-0.1,0.7-0.2,1.1-0.3
			c0.5-0.1,0.9-0.2,1.4-0.3c0.9-0.2,1.8-0.5,2.7-0.7c0.1,0,0.2,0,0.3,0c0.2,0.1,0.4,0.2,0.6,0.4c0.3,0.4,0.4,0.8,0.3,1.3
			c-0.1,0.5-0.3,1-0.7,1.4c-0.2,0.3-0.5,0.5-0.9,0.7c-0.4,0.2-0.9,0.4-1.4,0.5c-0.5,0.1-0.9,0.2-1.4,0.3c-0.2,0-0.4,0.1-0.5,0.2
			c-0.7,0.3-1.3,0.7-1.8,1.1c0,0-0.1,0.1-0.1,0.1c0,0,0,0,0.1,0c0.5-0.3,1.1-0.4,1.7-0.5c0.5-0.1,1-0.1,1.5-0.1c1.5,0,3,0,4.5,0
			c0.6,0,1.1,0.5,1.1,1.1c0,1.2-0.9,2.4-2.1,2.6c-0.2,0-0.4,0.1-0.6,0.1c-0.9,0-1.8,0-2.7,0c-0.4,0-0.7,0.1-1,0.4
			c-0.3,0.2-0.6,0.5-0.8,0.9c-0.4,0.6-0.7,1.2-1,1.8c-0.3,0.6-0.5,1.2-0.8,1.8c-0.4,0.9-0.9,1.8-1.6,2.6c-1.1,1.2-2.4,2-4,2.4
			c-0.9,0.2-1.7,0.2-2.6,0.2c-1.8-0.2-3.4-0.7-4.9-1.8c-1.1-0.8-1.9-1.7-2.5-2.8c-0.1-0.2-0.2-0.4-0.3-0.7c0,0,0,0.1,0,0.1
			c-0.5,1.3-1.4,2.3-2.5,3.2c-1.2,0.9-2.5,1.5-4,1.8c-0.8,0.2-1.5,0.2-2.3,0.2c-1.3,0-2.5-0.3-3.6-1c-0.9-0.5-1.6-1.2-2.2-2
			c-0.6-0.8-1-1.6-1.4-2.5c-0.3-0.7-0.6-1.5-1-2.2c-0.3-0.5-0.5-1-0.9-1.4c-0.2-0.3-0.5-0.5-0.8-0.7c-0.2-0.1-0.5-0.2-0.8-0.2
			c-0.9,0-1.9,0-2.8,0c-0.6,0-1.1-0.2-1.6-0.5C0.4,31.1,0,30.3,0,29.4c0-0.5,0.5-1,1-1c1.6,0,3.2,0,4.8,0c0.7,0,1.4,0.1,2.1,0.3
			c0.3,0.1,0.5,0.2,0.8,0.3c0,0,0.1,0,0.1,0c-0.1-0.1-0.2-0.2-0.3-0.3c-0.6-0.5-1.3-0.9-2-1.1c-0.2-0.1-0.4-0.1-0.6-0.1
			c-0.5-0.1-0.9-0.2-1.4-0.3c-0.4-0.1-0.7-0.2-1-0.4C3,26.5,2.7,26,2.4,25.5c-0.2-0.3-0.3-0.7-0.3-1.1c0-0.4,0.1-0.8,0.4-1.1
			C2.7,23.1,2.8,23,3,23c0.1,0,0.2,0,0.3,0c1.3,0.3,2.6,0.7,3.9,1c0.4,0.1,0.8,0.2,1.2,0.3c1,0.3,2,0.8,2.8,1.5
			c0.1,0.1,0.3,0.3,0.4,0.4c0,0,0.1,0.1,0.1,0.1c0-0.1,0-0.1,0-0.1c-0.4-1.3-1.2-2.3-2.5-2.9c-0.3-0.1-0.6-0.2-0.9-0.3
			c-0.9-0.2-1.7-0.5-2.5-0.9c-0.2-0.1-0.4-0.2-0.6-0.3c-0.6-0.3-0.9-0.8-1.1-1.4c-0.1-0.3-0.1-0.7-0.1-1c0-0.5,0.4-0.9,0.8-0.9
			c0.1,0,0.2,0,0.3,0c1.4,0.4,2.8,0.7,4.2,1.1c0.5,0.1,1.1,0.3,1.6,0.5c1.7,0.7,2.9,1.9,3.8,3.5c0.5,0.9,0.8,1.8,1,2.7
			c0.1,0.5,0.2,1.1,0.3,1.6c0.1,0.5,0.1,1,0.2,1.4c0.1,0.5,0.1,1,0.2,1.4c0.1,0.5,0.1,1,0.2,1.4c0.1,0.5,0.1,1,0.2,1.5
			c0.1,0.5,0.2,0.9,0.4,1.4c0.1,0.2,0.2,0.4,0.4,0.6c0.3,0.3,0.6,0.5,1,0.4c0.1,0,0.3,0,0.4,0c0.1,0,0.1,0,0.2-0.1
			c0.3-0.3,0.5-0.7,0.6-1.1c0.2-0.5,0.3-0.9,0.3-1.4c0-0.1,0-0.1-0.1-0.2c-0.3-0.3-0.4-0.6-0.4-1c0-0.7,0-1.4,0-2c0,0,0-0.1,0-0.1
			c-0.9-0.4-1.5-1-1.7-1.9C17.6,27.1,17.8,26.3,18.4,25.5z M23.1,25.6C23.1,25.6,23.1,25.6,23.1,25.6C23.2,25.6,23.2,25.6,23.1,25.6
			c0.3,0,0.4,0.1,0.6,0.1c0.3,0,0.7,0.1,1,0.1c0.4,0,0.8,0,1.1-0.1c0.6-0.1,1.3-0.2,1.9-0.3c0.2,0,0.3-0.1,0.5-0.1
			c0.5,0,1-0.1,1.5-0.3c0.6-0.2,1.1-0.6,1.5-1.1c0.4-0.5,0.6-1.2,0.6-1.8c0-2,0-4.1,0-6.1c0-0.5,0-0.9-0.1-1.4
			c-0.3-1.5-1-2.7-2.1-3.7c-1.2-1.1-2.7-1.8-4.4-1.9c-0.5,0-0.9,0-1.4,0.1c-0.9,0.1-1.7,0.4-2.4,0.9c-0.2,0.1-0.4,0.2-0.6,0.4
			c0,0,0,0,0,0c-0.5,0.4-0.9,0.8-1.3,1.2c-0.5,0.6-0.9,1.4-1.2,2.2c-0.3,0.8-0.4,1.6-0.4,2.4c0,1.9,0,3.9,0,5.8c0,0.2,0,0.3,0,0.5
			c0,0.3,0.1,0.5,0.2,0.7c0.1,0.3,0.2,0.5,0.4,0.7l0,0c0,0,0,0,0,0c0,0.1,0.1,0.1,0.1,0.2c0.5,0.5,1,0.8,1.7,1
			c0.4,0.1,0.8,0.2,1.2,0.2c0,0,0.1,0,0.1,0c0.2,0,0.4,0.1,0.6,0.1c0.2,0,0.3,0,0.5,0.1c0,0,0,0,0,0c0,0,0,0,0.1,0c0,0,0,0,0.1,0
			c0,0,0,0,0.1,0c0,0,0.1,0,0.1,0c0,0,0,0,0.1,0c0,0,0,0,0,0C23,25.6,23.1,25.6,23.1,25.6z M22.1,29.7
			C22.1,29.8,22.1,29.8,22.1,29.7c-0.4,0.2-0.8,0.4-1.1,0.4c-0.1,0-0.2,0-0.3,0c0,0,0,0.1,0,0.1c0,0.4,0,0.8,0,1.3
			c0,0.2,0,0.4,0,0.6c0,0.2,0.1,0.3,0.3,0.4c0.1,0,0.1,0,0.2,0.1c0.2,0,0.3,0.1,0.5,0.1c0,0,0.1,0,0.1,0c0.7,0.2,1.4,0.3,2,0.4
			c0.4,0.1,0.7,0.1,1.1,0.1c0.3,0,0.6,0,0.9-0.1c0.7-0.1,1.3-0.2,2-0.4c0.2-0.1,0.5-0.1,0.7-0.2c0.2,0,0.3-0.2,0.3-0.4
			c0-0.6,0-1.2,0-1.9c0,0,0-0.1,0-0.1c-0.2,0-0.4,0-0.6-0.1c-1.5-0.3-2.4-1.7-2.3-3.1c0-0.1,0-0.1,0-0.2c-0.1,0-0.1,0-0.1,0
			c-0.4,0-0.7,0.1-1.1,0.1c-0.4,0-0.9,0-1.3-0.1c-0.1,0-0.1,0-0.2,0c0,0.1,0,0.1,0,0.1c0,0.2,0,0.5,0,0.7c-0.1,0.6-0.3,1.1-0.7,1.6
			C22.5,29.4,22.3,29.6,22.1,29.7z M36.4,31.3c0-0.1,0-0.1,0-0.2c0.1-0.6,0.2-1.2,0.4-1.8c0.1-0.7,0.3-1.5,0.4-2.2
			c0.1-0.3,0.1-0.6,0.2-0.9c0.2-0.9,0.6-1.8,1.3-2.5c0.7-0.7,1.5-1.2,2.4-1.5c0.7-0.2,1.4-0.4,2.1-0.6c0.4-0.1,0.8-0.3,1.1-0.5
			c0.1-0.1,0.2-0.1,0.3-0.2c0.2-0.2,0.3-0.5,0.4-0.8c0-0.2,0-0.4,0-0.6c0,0,0-0.1,0-0.1c-0.2,0-0.3,0.1-0.4,0.1c0,0,0,0-0.1,0
			c-0.3,0.1-0.5,0.1-0.8,0.2c-1,0.3-2,0.5-2.9,0.8c-0.7,0.2-1.4,0.4-2.1,0.8c-0.8,0.4-1.5,1-2,1.7c-0.4,0.6-0.8,1.2-1,1.8
			c-0.3,0.8-0.5,1.5-0.6,2.4c0,0.3-0.1,0.5-0.1,0.8c0,0.2-0.1,0.5-0.1,0.7c0,0.3-0.1,0.5-0.1,0.8c0,0.3-0.1,0.6-0.1,0.9
			c0,0.3-0.1,0.5-0.1,0.8c0,0.3-0.1,0.5-0.1,0.8c0,0.3-0.1,0.5-0.1,0.8c0,0.2-0.1,0.5-0.1,0.7c0,0.3-0.1,0.6-0.1,0.9
			c-0.1,0.5-0.3,1-0.6,1.5c-0.3,0.5-0.6,0.8-1.1,1c0,0,0,0-0.1,0c0.4,0.1,0.8,0.2,1.2,0.2c0.1,0,0.3,0,0.4,0
			c0.8-0.1,1.5-0.3,2.1-0.8c0.5-0.4,0.9-0.8,1.3-1.3c0.2-0.2,0.3-0.5,0.4-0.8c0.5-1.3,1.1-2.5,1.6-3.8c0.1-0.3,0.2-0.5,0.3-0.8
			c0.2-0.4,0.4-0.7,0.7-1c0.6-0.7,1.4-1.2,2.3-1.6c0.2-0.1,0.5-0.2,0.7-0.3c0.5-0.1,1.1-0.2,1.6-0.4c0.4-0.1,0.9-0.3,1.2-0.5
			c0.1-0.1,0.2-0.2,0.3-0.3c0.3-0.3,0.4-0.7,0.5-1.1c0-0.2,0-0.4-0.1-0.6c0-0.1,0-0.1-0.1,0c0,0-0.1,0-0.1,0c-0.3,0.1-0.7,0.2-1,0.3
			c-0.8,0.2-1.6,0.4-2.5,0.6c-0.4,0.1-0.8,0.2-1.1,0.3c-0.6,0.2-1.2,0.4-1.8,0.8c-0.6,0.4-1,0.8-1.4,1.3c-0.3,0.4-0.6,0.7-0.8,1.1
			c-0.3,0.6-0.6,1.2-0.9,1.8C36.8,30.5,36.7,30.8,36.4,31.3C36.4,31.2,36.4,31.3,36.4,31.3z M16.6,37c0.4,0,0.8,0,1.1-0.2
			c0,0,0,0,0,0c0,0,0,0-0.1,0c-0.3-0.1-0.5-0.3-0.7-0.5c-0.3-0.3-0.5-0.7-0.7-1.1c-0.2-0.6-0.3-1.2-0.4-1.8c0-0.3-0.1-0.5-0.1-0.8
			c0-0.3-0.1-0.6-0.1-0.9c0-0.3-0.1-0.6-0.1-0.9c0-0.3-0.1-0.6-0.1-0.9c0-0.3-0.1-0.6-0.1-0.9c0-0.4-0.1-0.7-0.2-1.1
			c-0.1-0.4-0.1-0.9-0.2-1.3c-0.2-0.9-0.5-1.7-0.9-2.5c-0.3-0.6-0.8-1.2-1.3-1.7c-0.5-0.5-1-0.8-1.6-1.1c-0.5-0.3-1.1-0.5-1.7-0.6
			c-1.1-0.3-2.2-0.6-3.4-0.9c-0.2,0-0.3-0.1-0.5-0.1c-0.1-0.1-0.3-0.1-0.4-0.1c0,0.1,0,0.1,0,0.2c0,0.1,0,0.3,0,0.4
			c0,0.1,0,0.3,0.1,0.4c0.1,0.3,0.3,0.6,0.6,0.7c0.2,0.1,0.3,0.2,0.5,0.2c0.8,0.3,1.6,0.6,2.5,0.8c0.4,0.1,0.7,0.2,1.1,0.4
			c1.4,0.7,2.3,1.9,2.8,3.4c0.1,0.2,0.1,0.5,0.2,0.8c0.1,0.5,0.2,1.1,0.3,1.6c0.2,0.9,0.4,1.8,0.5,2.7c0,0.1,0,0.2,0.1,0.3
			c0,0,0-0.1-0.1-0.1c-0.1-0.2-0.2-0.4-0.3-0.6c-0.3-0.7-0.7-1.3-1-2c-0.2-0.4-0.4-0.7-0.6-1c-0.5-0.6-1-1.2-1.7-1.6
			c-0.6-0.4-1.3-0.7-2-0.9C7.6,25,7.3,25,7,24.9c-1.1-0.3-2.2-0.6-3.2-0.8c-0.1,0-0.3-0.1-0.4-0.1c0,0-0.1,0-0.1,0
			C3.1,24.1,3,24.2,3,24.4c0,0.2,0.1,0.4,0.2,0.6c0.2,0.4,0.4,0.7,0.8,0.9c0.3,0.2,0.6,0.3,0.9,0.4c0.4,0.1,0.8,0.2,1.3,0.3
			c0.2,0.1,0.5,0.1,0.7,0.2c0.4,0.1,0.8,0.3,1.2,0.5c0.7,0.4,1.4,0.9,1.9,1.6c0.2,0.3,0.4,0.5,0.5,0.8c0.5,1.3,1.1,2.6,1.6,3.9
			c0.1,0.2,0.2,0.4,0.3,0.7c0.1,0.2,0.2,0.4,0.4,0.6c0.4,0.6,0.9,1.1,1.6,1.5C15,36.8,15.8,37,16.6,37z M21.9,33.9
			c-0.3-0.1-0.6-0.2-0.9-0.2c0,0,0,0.1,0,0.1c-0.1,0.3-0.1,0.6-0.2,0.9c-0.2,0.6-0.4,1.2-0.8,1.7c-0.3,0.4-0.7,0.8-1.2,1
			c-0.6,0.3-1.2,0.5-1.9,0.5c-0.4,0-0.7,0-1.1-0.1c-0.4-0.1-0.9-0.2-1.3-0.4c-0.7-0.3-1.3-0.8-1.9-1.4c-0.6-0.7-1.1-1.5-1.4-2.4
			c-0.2-0.4-0.3-0.8-0.5-1.2c-0.2-0.5-0.5-1-0.9-1.5c-0.5-0.6-1.1-1.1-1.9-1.4c-0.7-0.2-1.3-0.3-2-0.3c-1.6,0-3.1,0-4.7,0
			c0,0,0,0-0.1,0c-0.1,0-0.1,0-0.1,0.1c0,0,0,0.1,0,0.1c0,0.6,0.3,1.1,0.9,1.5c0.3,0.2,0.6,0.2,0.9,0.2c0.9,0,1.9,0,2.8,0
			c0.5,0,0.9,0.1,1.3,0.4c0.4,0.2,0.7,0.6,1,1c0.4,0.5,0.7,1.1,1,1.7c0.4,0.7,0.7,1.5,1,2.2c0.4,0.9,0.8,1.7,1.5,2.4
			c0.6,0.6,1.2,1.2,2,1.5c0.9,0.5,1.9,0.7,3,0.7c0.4,0,0.7,0,1.1,0c0.6-0.1,1.1-0.2,1.7-0.3c1.4-0.4,2.6-1.1,3.6-2.1
			c0.9-0.9,1.6-2,1.8-3.3c0-0.1,0.1-0.2,0-0.3c0-0.2,0-0.4-0.1-0.7c0,0-0.1,0-0.1,0c-0.6,0-1.1-0.1-1.7-0.2
			C22.4,34,22.1,33.9,21.9,33.9z M49,29.3c0-0.1-0.1,0-0.1,0c-1.5,0-2.9,0-4.4,0c-0.3,0-0.6,0-1,0c-0.3,0-0.6,0.1-0.9,0.1
			c-0.4,0.1-0.9,0.3-1.3,0.5c-0.5,0.3-1,0.7-1.3,1.2c-0.3,0.5-0.6,1-0.8,1.6c-0.2,0.5-0.4,0.9-0.6,1.4c-0.3,0.7-0.8,1.4-1.3,2
			c-0.5,0.6-1.1,1.1-1.9,1.4c-0.6,0.2-1.1,0.4-1.7,0.4c-0.5,0-0.9,0-1.4-0.1c-0.8-0.2-1.4-0.5-2-1.1c-0.3-0.4-0.6-0.8-0.8-1.3
			c-0.2-0.5-0.4-1.1-0.5-1.6c0-0.1,0-0.1,0-0.2c-0.1,0-0.2,0-0.3,0.1c-0.2,0.1-0.5,0.1-0.7,0.2c0,0-0.1,0-0.1,0
			c-0.8,0.2-1.5,0.3-2.3,0.4c-0.1,0-0.2,0-0.3,0c0,0,0,0,0,0c0,0.1,0,0.1,0,0.2c0,0.5,0.2,1,0.3,1.5c0.4,1.2,1.1,2.1,2,2.9
			c1.5,1.3,3.4,2,5.4,2.1c0.7,0,1.4,0,2.1-0.2c1.1-0.3,2.2-0.8,3-1.6c0.8-0.7,1.3-1.6,1.8-2.5c0.2-0.5,0.5-1.1,0.7-1.6
			c0.3-0.7,0.6-1.4,1-2c0.3-0.5,0.6-0.9,1.1-1.3c0.5-0.4,1.1-0.7,1.8-0.7c0.9,0,1.8,0,2.7,0c0.5,0,0.9-0.1,1.2-0.4
			c0.4-0.3,0.6-0.8,0.6-1.3C49.1,29.4,49.1,29.4,49,29.3z M22.2,26.6c-0.1,0-0.2,0-0.2,0c-0.2,0-0.5-0.1-0.7-0.1c-0.1,0-0.3,0-0.4,0
			c-0.5,0-0.9-0.2-1.4-0.3c0,0-0.1,0-0.1,0c-0.6,0.5-0.7,1.5-0.2,2.3c0.5,0.7,1.6,0.9,2.3,0.4C22.4,28.3,22.5,27.3,22.2,26.6z
			 M30.2,26.1C30.2,26.1,30.1,26.1,30.2,26.1c-0.6,0.2-1.2,0.3-1.7,0.4c-0.1,0-0.2,0-0.3,0c-0.3,0-0.5,0.1-0.8,0.1
			c-0.1,0-0.1,0-0.1,0.1c-0.1,0.3-0.1,0.6-0.1,0.9c0.1,1,1.1,1.7,2.1,1.4c0.9-0.2,1.5-1.1,1.3-2C30.6,26.6,30.4,26.4,30.2,26.1z" />
			<path class="st1" 
				d="M22.9,25.6C22.9,25.6,22.8,25.6,22.9,25.6c-0.1,0-0.1-0.1-0.1,0c0,0,0,0-0.1,0c0,0,0,0-0.1,0c0,0,0,0,0,0
			c0,0,0,0-0.1,0c-0.3-0.1-0.6-0.2-0.8-0.3c-0.4-0.2-0.8-0.5-1.1-0.9c-0.3-0.3-0.5-0.6-0.6-1c-0.2-0.4-0.3-0.9-0.3-1.3
			c0-2.5,0-5,0-7.6c0-0.3,0-0.5,0-0.8c0-0.2,0-0.3,0-0.5c0-0.2,0.1-0.5,0.1-0.7c0.1-0.3,0.2-0.6,0.3-0.9c0.1-0.3,0.3-0.6,0.4-0.8
			c0-0.1,0.1-0.2,0.1-0.3c0.2-0.1,0.4-0.3,0.6-0.4c0.8-0.4,1.6-0.7,2.4-0.9c0.5-0.1,0.9-0.1,1.4-0.1c1.7,0.1,3.2,0.7,4.4,1.9
			c1.1,1,1.8,2.3,2.1,3.7c0.1,0.5,0.1,0.9,0.1,1.4c0,2,0,4.1,0,6.1c0,0.7-0.2,1.3-0.6,1.8c-0.4,0.5-0.9,0.9-1.5,1.1
			c-0.5,0.2-1,0.3-1.5,0.3c-0.2,0-0.3,0-0.5,0.1c-0.6,0.1-1.2,0.2-1.9,0.3c-0.4,0-0.8,0.1-1.1,0.1c-0.3,0-0.7,0-1-0.1
			c-0.2,0-0.3,0-0.5-0.1c0,0,0,0,0,0c-0.1,0-0.1,0-0.2,0C23,25.6,23,25.6,22.9,25.6C22.9,25.6,22.9,25.6,22.9,25.6z M22.1,17.3
			c-0.4,0-0.7,0.3-0.7,0.7c0,0.4,0.3,0.7,0.7,0.7c0.4,0,0.7-0.3,0.7-0.7C22.8,17.7,22.5,17.3,22.1,17.3z M28.2,18.2
			c0-0.4-0.3-0.7-0.7-0.7c-0.4,0-0.7,0.3-0.7,0.7c0,0.4,0.3,0.7,0.7,0.7C27.9,19,28.2,18.6,28.2,18.2z M24.8,21.8
			c0-0.4-0.3-0.7-0.7-0.7c-0.4,0-0.7,0.3-0.7,0.7c0,0.4,0.3,0.7,0.7,0.7C24.5,22.6,24.8,22.2,24.8,21.8z M24.8,13.8
			c-0.4,0-0.7,0.3-0.7,0.7c0,0.4,0.3,0.7,0.7,0.7c0.4,0,0.7-0.3,0.7-0.7C25.5,14.1,25.2,13.8,24.8,13.8z" />
			<path class="st1" 
				d="M49,29.3c0.1,0,0,0.1,0,0.1c0,0.5-0.2,0.9-0.6,1.3c-0.3,0.3-0.8,0.5-1.2,0.4c-0.9,0-1.8,0-2.7,0
			c-0.7,0-1.3,0.2-1.8,0.7c-0.4,0.4-0.8,0.8-1.1,1.3c-0.4,0.6-0.7,1.3-1,2c-0.2,0.5-0.4,1.1-0.7,1.6c-0.4,1-1,1.8-1.8,2.5
			c-0.9,0.8-1.9,1.3-3,1.6c-0.7,0.2-1.4,0.2-2.1,0.2c-2-0.1-3.8-0.8-5.4-2.1c-0.9-0.8-1.6-1.8-2-2.9c-0.2-0.5-0.3-1-0.3-1.5
			c0-0.1,0-0.1,0-0.2c0,0,0,0,0,0c0.1,0,0.2,0,0.3,0c0.8-0.1,1.5-0.3,2.3-0.4c0,0,0.1,0,0.1,0c0,0,0,0.1,0,0.1
			c0.1,0.3,0.1,0.7,0.2,1c0.1,0.4,0.3,0.9,0.5,1.3c0.2,0.4,0.5,0.8,0.9,1.2c0.1,0.1,0.2,0.2,0.4,0.3c0.3,0.3,0.7,0.5,1.1,0.7
			c0.3,0.1,0.6,0.2,1,0.3c0.3,0,0.5,0.1,0.8,0.1c0.3,0,0.7,0,1,0c0.2,0,0.4,0,0.6-0.1c0.3-0.1,0.7-0.2,1-0.3
			c0.4-0.1,0.8-0.3,1.2-0.6c0.5-0.3,0.9-0.7,1.3-1.2c0.3-0.4,0.6-0.8,0.8-1.3c0.2-0.3,0.3-0.7,0.5-1c0.1-0.3,0.3-0.6,0.4-0.9
			c0.2-0.5,0.5-0.9,0.8-1.4c0.2-0.3,0.4-0.5,0.6-0.8c0.2-0.3,0.5-0.5,0.8-0.7c0.5-0.3,1-0.4,1.5-0.4c1.2,0,2.5,0,3.7,0
			c0.1,0,0.3,0,0.4,0c0.2,0,0.3-0.1,0.5-0.1c0.2-0.1,0.4-0.3,0.6-0.4C48.9,29.5,49,29.4,49,29.3z" />
			<path class="st1" 
				d="M21.9,33.9c0.3,0.1,0.5,0.1,0.8,0.2c0.6,0.1,1.1,0.2,1.7,0.2c0,0,0.1,0,0.1,0c0,0.2,0.1,0.4,0.1,0.7
			c0,0.1,0,0.2,0,0.3c-0.3,1.3-0.9,2.4-1.8,3.3c-1,1-2.3,1.7-3.6,2.1c-0.5,0.2-1.1,0.3-1.7,0.3c-0.4,0-0.7,0.1-1.1,0
			c-1,0-2-0.2-3-0.7c-0.8-0.4-1.4-0.9-2-1.5c-0.6-0.7-1.1-1.5-1.5-2.4c-0.3-0.8-0.6-1.5-1-2.2c-0.3-0.6-0.6-1.2-1-1.7
			c-0.3-0.4-0.6-0.7-1-1c-0.4-0.2-0.8-0.4-1.3-0.4c-0.9,0-1.9,0-2.8,0c-0.3,0-0.7-0.1-0.9-0.2c-0.5-0.3-0.8-0.8-0.9-1.5
			c0,0,0-0.1,0-0.1c0,0,0.1,0,0.1,0.1c0.1,0.1,0.2,0.2,0.4,0.3c0.3,0.3,0.7,0.4,1.1,0.4c1.2,0,2.4,0,3.5,0c0.2,0,0.4,0,0.6,0
			c0.3,0,0.5,0.1,0.8,0.2c0.4,0.1,0.8,0.4,1.1,0.7c0.2,0.2,0.4,0.4,0.6,0.7c0.4,0.5,0.7,1,1,1.5c0.2,0.3,0.3,0.7,0.5,1
			c0.1,0.3,0.2,0.5,0.4,0.8c0.1,0.3,0.3,0.6,0.5,0.9c0.2,0.4,0.5,0.7,0.8,1c0.2,0.2,0.5,0.4,0.7,0.6c0.5,0.4,1,0.7,1.6,0.9
			c0.3,0.1,0.7,0.2,1,0.3c0.4,0.1,0.7,0.1,1.1,0.1c0.2,0,0.5,0,0.7,0c0.2,0,0.3,0,0.5-0.1c0.4-0.1,0.7-0.2,1.1-0.3
			c0.4-0.2,0.8-0.5,1.2-0.8c0.3-0.3,0.6-0.6,0.8-0.9c0.3-0.5,0.6-1,0.8-1.6C21.7,34.6,21.8,34.3,21.9,33.9z" />
			<path class="st1" 
				d="M13.6,31.3c0-0.1,0-0.2-0.1-0.3c-0.2-0.9-0.3-1.8-0.5-2.7c-0.1-0.5-0.2-1.1-0.3-1.6c0-0.3-0.1-0.5-0.2-0.8
			c-0.4-1.5-1.4-2.7-2.8-3.4c-0.3-0.2-0.7-0.3-1.1-0.4c-0.8-0.2-1.7-0.5-2.5-0.8c-0.2-0.1-0.3-0.2-0.5-0.2c-0.3-0.2-0.5-0.4-0.6-0.7
			C5,20.2,5,20.1,5,19.9c0-0.1,0-0.3,0-0.4c0,0,0-0.1,0-0.2c0.2,0,0.3,0.1,0.4,0.1c0.1,0.1,0.1,0.2,0.2,0.3C5.8,19.9,6,20,6.2,20.1
			c0.4,0.1,0.8,0.3,1.2,0.4c0.5,0.1,0.9,0.3,1.4,0.4C9,21,9.3,21,9.6,21.1c0.4,0.1,0.8,0.3,1.2,0.5c0.4,0.3,0.8,0.6,1.2,1
			c0.2,0.2,0.4,0.4,0.5,0.6c0.3,0.4,0.6,0.8,0.8,1.3c0.2,0.4,0.4,0.8,0.5,1.3c0.1,0.2,0.1,0.4,0.1,0.6c0,0.2,0.1,0.4,0.1,0.5
			c0,0.2,0.1,0.4,0.1,0.6c0,0.2,0.1,0.4,0.1,0.6c0,0.2,0.1,0.5,0.1,0.7c0,0.2,0.1,0.4,0.1,0.6c0,0.2,0.1,0.4,0.1,0.5
			c0,0.2,0,0.4,0.1,0.5c0,0.2,0.1,0.5,0.1,0.7c0,0.2,0.1,0.5,0.1,0.7c0,0.2,0.1,0.5,0.1,0.7c0,0.2,0.1,0.5,0.1,0.7
			c0,0.3,0.1,0.6,0.2,0.9c0.1,0.3,0.2,0.6,0.3,0.9c0.1,0.2,0.1,0.4,0.2,0.5c0.2,0.4,0.4,0.7,0.6,1c0.1,0.1,0.2,0.2,0.3,0.3
			c-0.8,0-1.5-0.2-2.2-0.6c-0.6-0.4-1.1-0.9-1.6-1.5c-0.1-0.2-0.3-0.4-0.4-0.6c-0.1-0.2-0.2-0.4-0.3-0.7c-0.5-1.3-1.1-2.6-1.6-3.9
			c-0.1-0.3-0.3-0.6-0.5-0.8c-0.5-0.7-1.2-1.2-1.9-1.6c-0.4-0.2-0.8-0.4-1.2-0.5c-0.2-0.1-0.5-0.1-0.7-0.2c-0.4-0.1-0.8-0.2-1.3-0.3
			c-0.3-0.1-0.6-0.2-0.9-0.4c-0.4-0.2-0.6-0.5-0.8-0.9C3.1,24.8,3,24.6,3,24.4c0-0.2,0.1-0.3,0.2-0.5c0,0,0.1,0,0.1,0c0,0,0,0,0,0
			c0.1,0.2,0.2,0.3,0.4,0.4c0.3,0.2,0.7,0.4,1.1,0.5c0.4,0.1,0.8,0.2,1.2,0.3c0.3,0.1,0.6,0.1,0.9,0.2c0.4,0.1,0.8,0.3,1.2,0.5
			c0.3,0.1,0.6,0.3,0.8,0.5c0.4,0.2,0.7,0.5,1.1,0.8c0.2,0.2,0.5,0.5,0.7,0.7c0.1,0.2,0.3,0.4,0.4,0.6c0.2,0.4,0.4,0.8,0.5,1.2
			c0.1,0.2,0.2,0.3,0.2,0.5c0.2,0.4,0.3,0.7,0.5,1.1c0.1,0.3,0.3,0.6,0.4,0.9c0.2,0.4,0.4,0.9,0.6,1.3c0.2,0.5,0.5,1,0.8,1.4
			c0.1,0.1,0.1,0.2,0.2,0.3c0,0,0,0,0-0.1c0-0.2-0.1-0.5-0.1-0.7C14.1,33.9,14,33.4,14,33c-0.1-0.4-0.2-0.9-0.3-1.3
			C13.7,31.6,13.6,31.4,13.6,31.3C13.6,31.3,13.6,31.3,13.6,31.3C13.6,31.3,13.6,31.3,13.6,31.3z" />
			<path class="st1" 
				d="M46.7,23.9c0.1,0,0.1,0,0.1,0c0.1,0.2,0.2,0.4,0.1,0.6c-0.1,0.4-0.2,0.7-0.5,1.1c-0.1,0.1-0.2,0.2-0.3,0.3
			c-0.4,0.3-0.8,0.4-1.2,0.5c-0.5,0.1-1.1,0.2-1.6,0.4c-0.3,0.1-0.5,0.2-0.7,0.3c-0.9,0.4-1.6,0.9-2.3,1.6c-0.3,0.3-0.5,0.6-0.7,1
			c-0.1,0.2-0.2,0.5-0.3,0.8c-0.5,1.3-1.1,2.5-1.6,3.8c-0.1,0.3-0.3,0.5-0.4,0.8c-0.3,0.5-0.8,1-1.3,1.3c-0.6,0.5-1.3,0.7-2.1,0.8
			c-0.1,0-0.3,0-0.4,0c0.1-0.1,0.1-0.1,0.2-0.2c0.2-0.2,0.4-0.5,0.6-0.8c0.3-0.5,0.5-1.1,0.6-1.6c0.1-0.3,0.1-0.6,0.2-0.9
			c0-0.2,0.1-0.5,0.1-0.7c0-0.2,0.1-0.4,0.1-0.5c0-0.2,0.1-0.5,0.1-0.7c0-0.2,0.1-0.4,0.1-0.6c0-0.2,0.1-0.4,0.1-0.5
			c0-0.2,0-0.4,0.1-0.6c0-0.2,0.1-0.4,0.1-0.6c0-0.2,0.1-0.4,0.1-0.6c0-0.2,0.1-0.4,0.1-0.6c0-0.2,0.1-0.4,0.1-0.6
			c0-0.2,0.1-0.5,0.1-0.7c0-0.2,0.1-0.5,0.1-0.7c0.1-0.5,0.3-1,0.5-1.5c0.2-0.4,0.5-0.8,0.7-1.2c0.2-0.3,0.4-0.5,0.6-0.8
			c0.3-0.3,0.6-0.6,1-0.9c0.3-0.2,0.6-0.4,0.9-0.5c0.2-0.1,0.5-0.2,0.7-0.2c0.4-0.1,0.8-0.2,1.1-0.3c0.7-0.2,1.3-0.4,2-0.6
			c0.2-0.1,0.5-0.2,0.7-0.3c0.1-0.1,0.2-0.2,0.2-0.3c0.1,0,0.3-0.1,0.4-0.1c0,0,0,0.1,0,0.1c0,0.2,0,0.4,0,0.6
			c-0.1,0.3-0.2,0.5-0.4,0.8c-0.1,0.1-0.2,0.1-0.3,0.2c-0.4,0.2-0.7,0.3-1.1,0.5c-0.7,0.2-1.4,0.5-2.1,0.6c-1,0.3-1.8,0.8-2.4,1.5
			c-0.7,0.7-1.1,1.5-1.3,2.5c-0.1,0.3-0.1,0.6-0.2,0.9c-0.1,0.7-0.3,1.5-0.4,2.2c-0.1,0.6-0.2,1.2-0.4,1.8c0,0.1,0,0.1,0,0.2
			c0,0,0,0.1,0,0.1c0,0.1,0,0.2-0.1,0.3c0,0.3-0.1,0.5-0.1,0.8c-0.1,0.4-0.2,0.8-0.2,1.3c0,0.2-0.1,0.3-0.1,0.5
			c0,0.2-0.1,0.4-0.1,0.7c0,0.1,0,0.1,0,0.2c0,0,0,0,0,0c0.2-0.4,0.5-0.8,0.7-1.2c0.1-0.3,0.3-0.5,0.4-0.8c0.1-0.2,0.2-0.5,0.3-0.8
			c0.2-0.4,0.3-0.8,0.5-1.2c0.1-0.3,0.3-0.6,0.4-0.8c0.2-0.4,0.4-0.8,0.5-1.2c0.1-0.2,0.2-0.4,0.3-0.6c0.1-0.2,0.2-0.3,0.3-0.5
			c0.2-0.4,0.5-0.7,0.9-1c0.2-0.2,0.5-0.4,0.7-0.6c0.5-0.3,1-0.6,1.5-0.8c0.3-0.1,0.6-0.2,0.9-0.3c0.3-0.1,0.7-0.1,1-0.2
			c0.4-0.1,0.8-0.2,1.2-0.3c0.4-0.1,0.7-0.3,1.1-0.5C46.4,24.3,46.6,24.2,46.7,23.9C46.7,24,46.7,24,46.7,23.9z" />
			<path class="st1" 
				d="M22.1,29.7c0.2-0.1,0.4-0.3,0.6-0.5c0.4-0.4,0.7-1,0.7-1.6c0-0.2,0-0.5,0-0.7c0,0,0-0.1,0-0.1
			c0.1,0,0.1,0,0.2,0c0.4,0.1,0.8,0.1,1.3,0.1c0.4,0,0.7-0.1,1.1-0.1c0,0,0.1,0,0.1,0c0,0.1,0,0.1,0,0.2c-0.2,1.5,0.8,2.8,2.3,3.1
			c0.2,0,0.4,0,0.6,0.1c0,0,0,0.1,0,0.1c0,0.6,0,1.2,0,1.9c0,0.2-0.1,0.3-0.3,0.4c-0.3,0.1-0.5,0.1-0.7,0.2c-0.7,0.2-1.3,0.3-2,0.4
			c-0.3,0-0.6,0.1-0.9,0.1c-0.4,0-0.7,0-1.1-0.1c-0.7-0.1-1.4-0.2-2-0.4c0,0-0.1,0-0.1,0c0-0.2,0.1-0.5,0.1-0.7
			c0-0.2,0.1-0.5,0.1-0.7c0-0.2,0.1-0.5,0.1-0.7C22.1,30.3,22.1,30,22.1,29.7z" />
			<path class="st2" 
				d="M20.8,10.4c0,0.1-0.1,0.2-0.1,0.3c-0.1,0.3-0.3,0.5-0.4,0.8c-0.1,0.3-0.2,0.6-0.3,0.9
			c-0.1,0.2-0.1,0.5-0.1,0.7c0,0.2,0,0.3,0,0.5c0,0.3,0,0.5,0,0.8c0,2.5,0,5,0,7.6c0,0.5,0.1,0.9,0.3,1.3c0.1,0.4,0.3,0.7,0.6,1
			c0.3,0.4,0.7,0.7,1.1,0.9c0.3,0.1,0.5,0.3,0.8,0.3c0,0,0,0,0.1,0c-0.2,0-0.3,0-0.5-0.1c-0.2,0-0.4-0.1-0.6-0.1c0,0-0.1,0-0.1,0
			c-0.4,0-0.8-0.1-1.2-0.2c-0.7-0.2-1.2-0.5-1.7-1c0,0-0.1-0.1-0.1-0.2c0,0,0,0,0,0c0,0,0,0,0,0c0,0,0-0.1,0-0.1
			c0-0.1-0.1-0.1-0.1-0.2c-0.2-0.3-0.3-0.7-0.4-1.1c0,0,0,0,0-0.1c0-0.2,0-0.3,0-0.5c0-1.9,0-3.9,0-5.8c0-0.8,0.1-1.6,0.4-2.4
			c0.3-0.8,0.7-1.5,1.2-2.2C19.8,11.2,20.2,10.8,20.8,10.4C20.7,10.4,20.7,10.4,20.8,10.4z" />
			<path class="st2" 
				d="M49,29.3c-0.1,0.1-0.1,0.1-0.2,0.2c-0.2,0.2-0.4,0.3-0.6,0.4c-0.2,0.1-0.3,0.1-0.5,0.1c-0.1,0-0.3,0-0.4,0
			c-1.2,0-2.5,0-3.7,0c-0.5,0-1.1,0.2-1.5,0.4c-0.3,0.2-0.6,0.4-0.8,0.7c-0.2,0.2-0.4,0.5-0.6,0.8c-0.3,0.4-0.6,0.9-0.8,1.4
			c-0.1,0.3-0.3,0.6-0.4,0.9c-0.2,0.3-0.3,0.7-0.5,1c-0.2,0.5-0.5,0.9-0.8,1.3c-0.4,0.5-0.8,0.9-1.3,1.2c-0.4,0.2-0.8,0.4-1.2,0.6
			c-0.3,0.1-0.6,0.2-1,0.3c-0.2,0-0.4,0.1-0.6,0.1c-0.3,0-0.7,0.1-1,0c-0.3,0-0.5,0-0.8-0.1c-0.3-0.1-0.7-0.2-1-0.3
			c-0.4-0.2-0.8-0.4-1.1-0.7c-0.1-0.1-0.3-0.2-0.4-0.3c-0.3-0.3-0.6-0.7-0.9-1.2c-0.2-0.4-0.4-0.8-0.5-1.3c-0.1-0.3-0.2-0.7-0.2-1
			c0,0,0-0.1,0-0.1c0.2-0.1,0.5-0.1,0.7-0.2c0.1,0,0.2,0,0.3-0.1c0,0.1,0,0.2,0,0.2c0.1,0.6,0.2,1.1,0.5,1.6
			c0.2,0.5,0.5,0.9,0.8,1.3c0.5,0.6,1.2,0.9,2,1.1c0.5,0.1,0.9,0.1,1.4,0.1c0.6,0,1.2-0.2,1.7-0.4c0.7-0.3,1.3-0.8,1.9-1.4
			c0.5-0.6,0.9-1.2,1.3-2c0.2-0.4,0.4-0.9,0.6-1.4c0.2-0.6,0.5-1.1,0.8-1.6c0.4-0.5,0.8-0.9,1.3-1.2c0.4-0.2,0.8-0.4,1.3-0.5
			c0.3-0.1,0.6-0.1,0.9-0.1c0.3,0,0.6,0,1,0c1.5,0,2.9,0,4.4,0C48.9,29.3,49,29.3,49,29.3z" />
			<path class="st2" 
				d="M21.9,33.9c-0.1,0.4-0.2,0.8-0.3,1.1c-0.2,0.6-0.4,1.1-0.8,1.6c-0.2,0.3-0.5,0.7-0.8,0.9
			c-0.4,0.3-0.8,0.6-1.2,0.8c-0.4,0.2-0.7,0.3-1.1,0.3c-0.2,0-0.3,0-0.5,0.1c-0.2,0-0.5,0-0.7,0c-0.4,0-0.7,0-1.1-0.1
			c-0.3-0.1-0.7-0.1-1-0.3c-0.6-0.2-1.1-0.5-1.6-0.9c-0.3-0.2-0.5-0.4-0.7-0.6c-0.3-0.3-0.6-0.7-0.8-1c-0.2-0.3-0.3-0.6-0.5-0.9
			c-0.1-0.3-0.2-0.5-0.4-0.8c-0.2-0.3-0.3-0.7-0.5-1c-0.3-0.5-0.6-1-1-1.5c-0.2-0.2-0.4-0.5-0.6-0.7c-0.3-0.3-0.7-0.5-1.1-0.7
			c-0.2-0.1-0.5-0.1-0.8-0.2c-0.2,0-0.4,0-0.6,0c-1.2,0-2.4,0-3.5,0c-0.4,0-0.8-0.1-1.1-0.4c-0.1-0.1-0.2-0.2-0.4-0.3
			c0,0-0.1,0-0.1-0.1c0-0.1,0.1-0.1,0.1-0.1c0,0,0,0,0.1,0c1.6,0,3.1,0,4.7,0c0.7,0,1.4,0.1,2,0.3c0.8,0.3,1.4,0.7,1.9,1.4
			c0.4,0.5,0.6,1,0.9,1.5c0.2,0.4,0.3,0.8,0.5,1.2c0.4,0.9,0.8,1.7,1.4,2.4c0.5,0.6,1.1,1.1,1.9,1.4c0.4,0.2,0.8,0.3,1.3,0.4
			c0.4,0.1,0.7,0.1,1.1,0.1c0.7,0,1.3-0.2,1.9-0.5c0.5-0.3,0.9-0.6,1.2-1c0.4-0.5,0.7-1.1,0.8-1.7c0.1-0.3,0.1-0.6,0.2-0.9
			c0,0,0-0.1,0-0.1C21.3,33.7,21.6,33.8,21.9,33.9z" />
			<path class="st2" 
				d="M16.6,37c-0.1-0.1-0.2-0.2-0.3-0.3c-0.3-0.3-0.5-0.6-0.6-1c-0.1-0.2-0.2-0.4-0.2-0.5
			c-0.1-0.3-0.2-0.6-0.3-0.9c-0.1-0.3-0.1-0.6-0.2-0.9c0-0.2-0.1-0.5-0.1-0.7c0-0.2-0.1-0.5-0.1-0.7c0-0.2-0.1-0.5-0.1-0.7
			c0-0.2-0.1-0.5-0.1-0.7c0-0.2-0.1-0.4-0.1-0.5c0-0.2-0.1-0.4-0.1-0.5c0-0.2-0.1-0.4-0.1-0.6c0-0.2-0.1-0.5-0.1-0.7
			c0-0.2-0.1-0.4-0.1-0.6c0-0.2-0.1-0.4-0.1-0.6c0-0.2,0-0.4-0.1-0.5c0-0.2-0.1-0.4-0.1-0.6c-0.1-0.5-0.3-0.9-0.5-1.3
			c-0.2-0.5-0.5-0.9-0.8-1.3c-0.2-0.2-0.4-0.4-0.5-0.6c-0.4-0.4-0.8-0.7-1.2-1c-0.4-0.2-0.8-0.4-1.2-0.5C9.3,21,9,21,8.7,20.9
			c-0.5-0.1-0.9-0.3-1.4-0.4c-0.4-0.1-0.8-0.2-1.2-0.4C6,20,5.8,19.9,5.7,19.8c-0.1-0.1-0.2-0.2-0.2-0.3c0.2,0,0.3,0.1,0.5,0.1
			c1.1,0.3,2.2,0.6,3.4,0.9c0.6,0.2,1.2,0.3,1.7,0.6c0.6,0.3,1.1,0.7,1.6,1.1c0.5,0.5,0.9,1.1,1.3,1.7c0.4,0.8,0.7,1.7,0.9,2.5
			c0.1,0.4,0.1,0.9,0.2,1.3c0,0.4,0.1,0.7,0.2,1.1c0,0.3,0.1,0.6,0.1,0.9c0,0.3,0.1,0.6,0.1,0.9c0,0.3,0.1,0.6,0.1,0.9
			c0,0.3,0.1,0.6,0.1,0.9c0,0.3,0.1,0.5,0.1,0.8c0.1,0.6,0.2,1.2,0.4,1.8c0.2,0.4,0.4,0.8,0.7,1.1c0.2,0.2,0.5,0.4,0.7,0.5
			c0,0,0,0,0.1,0c0,0,0,0,0,0C17.3,37,16.9,37,16.6,37z" />
			<path class="st2" 
				d="M44.5,19.5c0,0.1-0.1,0.2-0.2,0.3c-0.2,0.1-0.4,0.3-0.7,0.3c-0.7,0.2-1.3,0.4-2,0.6c-0.4,0.1-0.8,0.2-1.1,0.3
			c-0.2,0.1-0.5,0.1-0.7,0.2c-0.3,0.1-0.6,0.3-0.9,0.5c-0.4,0.3-0.7,0.5-1,0.9c-0.2,0.2-0.4,0.5-0.6,0.8c-0.3,0.4-0.5,0.8-0.7,1.2
			c-0.2,0.5-0.4,1-0.5,1.5c0,0.2-0.1,0.5-0.1,0.7c0,0.2-0.1,0.5-0.1,0.7c0,0.2-0.1,0.4-0.1,0.6c0,0.2-0.1,0.4-0.1,0.6
			c0,0.2-0.1,0.4-0.1,0.6c0,0.2-0.1,0.4-0.1,0.6c0,0.2-0.1,0.4-0.1,0.6c0,0.2-0.1,0.4-0.1,0.5c0,0.2-0.1,0.4-0.1,0.6
			c0,0.2-0.1,0.5-0.1,0.7c0,0.2-0.1,0.4-0.1,0.5c0,0.2-0.1,0.5-0.1,0.7c-0.1,0.3-0.1,0.6-0.2,0.9c-0.1,0.6-0.3,1.1-0.6,1.6
			c-0.2,0.3-0.3,0.6-0.6,0.8c-0.1,0.1-0.1,0.1-0.2,0.2c-0.4,0-0.8,0-1.2-0.2c0,0,0,0,0.1,0c0.5-0.2,0.9-0.6,1.1-1
			c0.3-0.5,0.5-1,0.6-1.5c0.1-0.3,0.1-0.6,0.1-0.9c0-0.2,0.1-0.5,0.1-0.7c0-0.3,0.1-0.5,0.1-0.8c0-0.3,0.1-0.5,0.1-0.8
			c0-0.3,0.1-0.5,0.1-0.8c0-0.3,0.1-0.6,0.1-0.9c0-0.3,0.1-0.5,0.1-0.8c0-0.2,0.1-0.5,0.1-0.7c0-0.3,0.1-0.5,0.1-0.8
			c0.1-0.8,0.3-1.6,0.6-2.4c0.3-0.6,0.6-1.3,1-1.8c0.5-0.7,1.2-1.3,2-1.7c0.7-0.4,1.4-0.6,2.1-0.8c1-0.2,2-0.5,2.9-0.8
			C43.9,19.7,44.2,19.6,44.5,19.5C44.5,19.5,44.5,19.5,44.5,19.5z" />
			<path class="st2" 
				d="M46.7,23.9C46.7,24,46.7,24,46.7,23.9c-0.1,0.2-0.2,0.4-0.4,0.5c-0.3,0.2-0.7,0.4-1.1,0.5
			c-0.4,0.1-0.8,0.2-1.2,0.3c-0.3,0.1-0.7,0.1-1,0.2c-0.3,0.1-0.6,0.2-0.9,0.3c-0.5,0.2-1,0.5-1.5,0.8c-0.3,0.2-0.5,0.4-0.7,0.6
			c-0.3,0.3-0.6,0.7-0.9,1c-0.1,0.2-0.2,0.3-0.3,0.5c-0.1,0.2-0.2,0.4-0.3,0.6c-0.2,0.4-0.3,0.8-0.5,1.2c-0.1,0.3-0.3,0.6-0.4,0.8
			c-0.2,0.4-0.3,0.8-0.5,1.2c-0.1,0.3-0.2,0.5-0.3,0.8c-0.1,0.3-0.3,0.5-0.4,0.8c-0.2,0.4-0.4,0.8-0.7,1.2c0,0,0,0,0,0
			c0-0.1,0-0.1,0-0.2c0-0.2,0.1-0.4,0.1-0.7c0-0.2,0.1-0.3,0.1-0.5c0.1-0.4,0.2-0.8,0.2-1.3c0-0.3,0.1-0.5,0.1-0.8
			c0-0.1,0-0.2,0.1-0.3c0,0,0-0.1,0-0.1c0,0,0.1-0.1,0.1-0.1c0.2-0.4,0.4-0.7,0.6-1.1c0.3-0.6,0.6-1.2,0.9-1.8
			c0.2-0.4,0.5-0.8,0.8-1.1c0.4-0.5,0.9-0.9,1.4-1.3c0.6-0.4,1.1-0.6,1.8-0.8c0.4-0.1,0.8-0.2,1.1-0.3c0.8-0.2,1.6-0.4,2.5-0.6
			c0.3-0.1,0.7-0.2,1-0.3C46.6,23.9,46.6,23.9,46.7,23.9z" />
			<path class="st2" 
				d="M13.6,31.3c0,0.1,0.1,0.2,0.1,0.4c0.1,0.4,0.2,0.9,0.3,1.3c0.1,0.4,0.2,0.8,0.2,1.3c0,0.2,0.1,0.5,0.1,0.7
			c0,0,0,0,0,0.1c-0.1-0.1-0.1-0.2-0.2-0.3c-0.3-0.5-0.5-1-0.8-1.4c-0.2-0.4-0.4-0.9-0.6-1.3c-0.1-0.3-0.3-0.6-0.4-0.9
			c-0.2-0.4-0.3-0.7-0.5-1.1c-0.1-0.2-0.2-0.3-0.2-0.5c-0.2-0.4-0.3-0.8-0.5-1.2c-0.1-0.2-0.2-0.4-0.4-0.6c-0.2-0.3-0.4-0.5-0.7-0.7
			c-0.3-0.3-0.7-0.6-1.1-0.8c-0.3-0.2-0.6-0.3-0.8-0.5c-0.4-0.2-0.8-0.3-1.2-0.5c-0.3-0.1-0.6-0.1-0.9-0.2c-0.4-0.1-0.8-0.2-1.2-0.3
			c-0.4-0.1-0.8-0.3-1.1-0.5c-0.2-0.1-0.3-0.3-0.4-0.4c0,0,0,0,0,0C3.4,24,3.6,24,3.7,24c1.1,0.3,2.2,0.6,3.2,0.8
			C7.3,25,7.6,25,7.9,25.1c0.7,0.2,1.4,0.5,2,0.9c0.7,0.4,1.2,1,1.7,1.6c0.2,0.3,0.4,0.7,0.6,1c0.3,0.7,0.7,1.3,1,2
			c0.1,0.2,0.2,0.4,0.3,0.6C13.5,31.2,13.6,31.2,13.6,31.3C13.6,31.3,13.6,31.3,13.6,31.3C13.6,31.3,13.6,31.3,13.6,31.3z" />
			<path class="st2" 
				d="M22.1,29.7c0,0.3-0.1,0.5-0.1,0.8c0,0.2-0.1,0.5-0.1,0.7c0,0.2-0.1,0.5-0.1,0.7c0,0.2-0.1,0.5-0.1,0.7
			c-0.2,0-0.3-0.1-0.5-0.1c-0.1,0-0.1,0-0.2-0.1c-0.2,0-0.3-0.2-0.3-0.4c0-0.2,0-0.4,0-0.6c0-0.4,0-0.8,0-1.3c0,0,0-0.1,0-0.1
			c0.1,0,0.2,0,0.3,0C21.4,30.1,21.7,30,22.1,29.7C22.1,29.8,22.1,29.8,22.1,29.7z" />
			<path class="st1" 
				d="M17.8,22.5C17.8,22.5,17.9,22.5,17.8,22.5c0.1,0.4,0.2,0.8,0.4,1.1c0,0.1,0.1,0.1,0.1,0.2c0,0,0,0.1,0,0.1
			c-0.2-0.2-0.3-0.5-0.4-0.7C17.9,23,17.9,22.7,17.8,22.5z" />
			<path class="st2" 
				d="M23,25.6c0.1,0,0.1,0,0.2,0c0,0,0,0,0,0c0,0,0,0-0.1,0c0,0,0,0,0,0C23.1,25.6,23,25.6,23,25.6z" />
			<path class="st2" 
				d="M22.6,25.5C22.6,25.5,22.7,25.5,22.6,25.5C22.7,25.6,22.6,25.6,22.6,25.5z" />
			<path class="st2" 
				d="M22.9,25.6C22.9,25.6,22.9,25.6,22.9,25.6C22.9,25.6,22.9,25.6,22.9,25.6z" />
			<path class="st1" 
				d="M18.4,24C18.4,24,18.5,24,18.4,24C18.4,24,18.4,24,18.4,24z" />
			<path class="st2" 
				d="M22.8,25.6C22.8,25.5,22.8,25.6,22.8,25.6C22.8,25.6,22.8,25.6,22.8,25.6z" />
			<path class="st1" 
				d="M23.1,25.6C23.1,25.6,23.1,25.6,23.1,25.6C23.1,25.6,23.1,25.6,23.1,25.6z" />
			<path class="st2" 
				d="M22.1,17.3c0.4,0,0.7,0.3,0.7,0.7c0,0.4-0.3,0.7-0.7,0.7c-0.4,0-0.7-0.3-0.7-0.7
			C21.4,17.7,21.7,17.3,22.1,17.3z" />
			<path class="st2" 
				d="M28.2,18.2c0,0.4-0.3,0.7-0.7,0.7c-0.4,0-0.7-0.3-0.7-0.7c0-0.4,0.3-0.7,0.7-0.7
			C27.9,17.5,28.2,17.8,28.2,18.2z" />
			<path class="st2" 
				d="M24.8,21.8c0,0.4-0.3,0.7-0.7,0.7c-0.4,0-0.7-0.3-0.7-0.7c0-0.4,0.3-0.7,0.7-0.7
			C24.5,21.1,24.8,21.4,24.8,21.8z" />
			<path class="st2" 
				d="M24.8,13.8c0.4,0,0.7,0.3,0.7,0.7c0,0.4-0.3,0.7-0.7,0.7c-0.4,0-0.7-0.3-0.7-0.7
			C24.1,14.1,24.4,13.8,24.8,13.8z" />
			<path class="st0" 
				d="M13.6,31.3C13.6,31.3,13.6,31.3,13.6,31.3C13.6,31.3,13.6,31.3,13.6,31.3z" />
			<path class="st0" 
				d="M19.9,27.3c0-0.4,0.3-0.7,0.7-0.7c0.4,0,0.7,0.3,0.7,0.7c0,0.4-0.3,0.7-0.7,0.7C20.2,28,19.9,27.7,19.9,27.3z
			" />
			<path class="st0" 
				d="M29.6,27.3c0,0.4-0.3,0.7-0.7,0.7c-0.4,0-0.7-0.3-0.7-0.7c0-0.4,0.3-0.7,0.7-0.7
			C29.3,26.6,29.6,26.9,29.6,27.3z" />
		</g>
	</g>
</svg>
