<svg height="50"
	width="50"
	viewBox="0 0 50 50"
	xmlns="http://www.w3.org/2000/svg">
	<style type="text/css">
	.st0{fill:url(#SVGID_1_);}
	.st1{fill:#2684FF;}
	</style>
	<g>

		<linearGradient id="SVGID_1_"
			gradientUnits="userSpaceOnUse"
			x1="27.9247"
			y1="-208.1646"
			x2="26.7431"
			y2="-206.1181"
			gradientTransform="matrix(10.9488 0 0 10.9488 -284.1901 2306.0217)">
			<stop offset="0"
				style="stop-color:#0052CC" />
			<stop offset="0.92"
				style="stop-color:#2684FF" />
		</linearGradient>
		<path class="st0"
			d="M14.8,23.1c-0.5-0.6-1.4-0.7-2-0.3c-0.2,0.1-0.3,0.3-0.4,0.5L0.2,47.9c-0.4,0.7-0.1,1.6,0.7,2
		C1,49.9,1.2,50,1.5,50h17.1c0.6,0,1.1-0.3,1.3-0.8C23.5,41.6,21.3,30,14.8,23.1z" />
		<path class="st1"
			d="M23.8,0.8c-6.2,9.6-6.9,21.7-1.9,31.9l8.2,16.5c0.2,0.5,0.8,0.8,1.3,0.8h17.1c0.8,0,1.5-0.7,1.5-1.5
		c0,0,0,0,0,0c0-0.2-0.1-0.5-0.2-0.7L26.3,0.8c-0.3-0.7-1.1-1-1.8-0.7C24.2,0.3,23.9,0.5,23.8,0.8L23.8,0.8z" />
	</g>
</svg>
