<svg height="50" 
	width="50" 
	viewBox="0 0 50 50" 
	xmlns="http://www.w3.org/2000/svg">
	<style type="text/css">
	.st0{fill:url(#SVGID_1_);}
	.st1{fill:#31C5F0;}
	</style>
	<g>

		<radialGradient id="SVGID_1_" 
			cx="-184.102" 
			cy="-278.5783" 
			r="0.7601" 
			gradientTransform="matrix(45.8334 0 0 -45.5036 8455.2021 -12663.9365)" 
			gradientUnits="userSpaceOnUse">
			<stop offset="0" 
				style="stop-color:#34364E;stop-opacity:0.98" />
			<stop offset="1" 
				style="stop-color:#0C0824" />
		</radialGradient>
		<path class="st0" 
			d="M2.1,2.1h45.8v45.7H2.1V2.1z" />
		<path class="st1" 
			d="M2.1,2.1h45.8v45.7H2.1V2.1z M0,50h50V0H0V50z M33.7,20.5c-1.6,0-2.2,0.9-2.2,1.6c0,0.8,0.4,1.3,2.6,2.5
		c3.3,1.6,4.3,3.2,4.3,5.5c0,3.4-2.5,5.3-6,5.3c-1.8,0-3.4-0.4-4.3-0.9C28,34.3,28,34.2,28,34v-3.1c0-0.2,0.1-0.3,0.2-0.2
		c1.3,0.9,2.8,1.3,4.2,1.3c1.6,0,2.3-0.7,2.3-1.7c0-0.8-0.5-1.5-2.6-2.6c-3-1.5-4.2-2.9-4.2-5.4c0-2.8,2.1-5,5.7-5
		c1.8,0,3,0.3,3.7,0.6c0.2,0.1,0.2,0.3,0.2,0.4v2.9c0,0.2-0.1,0.3-0.3,0.2C36.4,20.9,35.1,20.5,33.7,20.5L33.7,20.5z M15.8,23.1
		c0.5,0,0.9,0,1.7,0c2.4,0,4.7-0.9,4.7-4.3c0-2.7-1.6-4.1-4.4-4.1c-0.8,0-1.6,0-2,0.1V23.1z M12.1,11.7c0-0.1,0.3-0.3,0.5-0.3
		c1.3-0.1,3.3-0.1,5.4-0.1c5.8,0,8,3.2,8,7.4c0,5.4-3.8,7.8-8.5,7.8c-0.8,0-1.1,0-1.6,0v8.2c0,0.2-0.1,0.3-0.2,0.3h-3.2
		c-0.2,0-0.2-0.1-0.2-0.3L12.1,11.7L12.1,11.7z" />
	</g>
</svg>
