<svg height="50" 
	width="50" 
	viewBox="0 0 50 50" 
	xmlns="http://www.w3.org/2000/svg">
	<style type="text/css">
	.st0{fill:#DC395F;}
	</style>
	<path class="st0" 
		d="M45.5,0h-41C2,0,0,2,0,4.5v40.9C0,48,2,50,4.5,50h40.9c2.5,0,4.5-2,4.5-4.5v-41C50,2,48,0,45.5,0z M16.7,9.7
	c1.7,0,3.1,1.3,3.1,3s-1.4,3-3.1,3s-3-1.3-3.1-3C13.6,11,15,9.7,16.7,9.7z M37.2,38.5c-3.1,0-4.6-1.9-4.6-4.4c0-0.7,0.1-1.4,0.3-2.2
	l1.5-5.3c0.2-0.6,0.2-1.1,0.2-1.6c0-1.7-1-2.7-2.7-2.7c-2.1,0-3.5,1.5-4.2,4.4l-2.9,11.5h-5l0.9-3.6c-1.5,2.4-3.6,3.9-6.1,3.9
	c-3.1,0-4.5-1.7-4.5-4.4c0-0.7,0.1-1.5,0.3-2.3l2.3-9.4H9.1l1.1-4h8.5l-3.4,13.4c-0.2,0.9-0.3,1.6-0.3,2.1c0,0.9,0.5,1.1,1.1,1.2
	c0.4,0.1,3.6,0.1,5.3-3.8l2.2-8.9H20l1.1-4h7.7l-1,4.5c1.4-2.5,4-4.9,6.7-4.9c2.9,0,5.2,2,5.2,5.9c0,1-0.1,2.1-0.5,3.3l-1.4,5.2
	c-0.1,0.5-0.2,1-0.2,1.4c0,0.9,0.3,1.3,1,1.3c0.7,0,1.5-0.5,2.5-3.2l2,0.8C42,36.8,39.9,38.5,37.2,38.5z" />
</svg>
