<svg height="50" 
	width="50" 
	viewBox="0 0 50 50" 
	xmlns="http://www.w3.org/2000/svg">
	<style type="text/css">
	.st0{fill:#85EA2D;}
	.st1{fill:#173647;}
	</style>
	<g>
		<g>
			<g>
				<g>
					<g>
						<path class="st0" 
							d="M25,48.8C11.9,48.8,1.2,38.1,1.2,25S11.9,1.2,25,1.2S48.8,11.9,48.8,25S38.1,48.8,25,48.8z" />
					</g>
					<g>
						<g>
							<path class="st1" 
								d="M25,2.4c12.5,0,22.6,10.1,22.6,22.6c0,12.5-10.1,22.6-22.6,22.6C12.5,47.6,2.4,37.5,2.4,25
							C2.4,12.5,12.5,2.4,25,2.4 M25,0C11.2,0,0,11.2,0,25s11.2,25,25,25s25-11.2,25-25S38.8,0,25,0L25,0z" />
						</g>
					</g>
				</g>
			</g>
		</g>
		<path class="st1" 
			d="M15.7,16.9c-0.1,0.9,0,1.7,0,2.6c-0.1,0.9-0.2,1.7-0.3,2.6c-0.2,1.2-1,2.1-2,2.9c2,1.3,2.3,3.4,2.4,5.5
		c0.1,1.1,0,2.3,0.2,3.4c0.1,0.9,0.4,1.1,1.3,1.1c0.4,0,0.7,0,1.2,0v2.7c-2.6,0.5-4.8-0.3-5.4-2.5c-0.2-0.8-0.3-1.7-0.3-2.5
		c-0.1-0.9,0-1.8,0-2.7c-0.2-2.5-0.5-3.3-2.9-3.4v-3c0.2,0,0.3-0.1,0.5-0.1c1.3-0.1,1.8-0.5,2.1-1.7c0.1-0.7,0.2-1.4,0.2-2.2
		c0.1-1.4,0.1-2.8,0.3-4.2c0.3-2,1.6-3,3.6-3.1c0.6,0,1.2,0,1.8,0V15c-0.3,0-0.5,0.1-0.8,0.1C16,15,15.9,15.5,15.7,16.9z M18.9,23.2
		L18.9,23.2c-1,0-1.8,0.7-1.9,1.7c0,1,0.7,1.8,1.7,1.8h0.1c1,0.1,1.8-0.7,1.8-1.6V25C20.7,24.1,19.9,23.3,18.9,23.2z M25,23.2
		c-0.9,0-1.7,0.7-1.7,1.6c0,0.1,0,0.1,0,0.2c0,1,0.7,1.7,1.8,1.7c1.1,0,1.7-0.7,1.7-1.8C26.7,23.9,26,23.2,25,23.2z M31.1,23.2
		c-1,0-1.8,0.8-1.8,1.7c0,1,0.8,1.8,1.8,1.8h0c0.9,0.2,1.8-0.7,1.8-1.7C33,24.1,32.1,23.2,31.1,23.2z M39.6,23.4
		c-1.1,0-1.7-0.4-2-1.5c-0.2-0.7-0.3-1.4-0.3-2.1c-0.1-1.3-0.1-2.6-0.2-3.9c-0.2-3.1-2.4-4.1-5.6-3.6V15c0.5,0,0.9,0,1.3,0
		c0.7,0,1.2,0.3,1.3,1c0.1,0.7,0.1,1.4,0.1,2.1c0.1,1.4,0.2,2.8,0.5,4.2c0.2,1.1,1,2,2,2.7c-1.7,1.1-2.2,2.8-2.3,4.6
		c0,1.3-0.1,2.5-0.1,3.8c-0.1,1.2-0.5,1.5-1.6,1.6c-0.3,0-0.6,0-1,0.1v2.7c0.7,0,1.3,0,1.9,0c1.9-0.1,3.1-1.1,3.5-2.9
		c0.2-1,0.3-2.1,0.3-3.1c0.1-1,0.1-1.9,0.2-2.9c0.1-1.5,0.8-2.1,2.3-2.2c0.1,0,0.3,0,0.4-0.1v-3C40,23.4,39.8,23.4,39.6,23.4z" />
	</g>
</svg>
