<svg height="50" 
	width="50" 
	viewBox="0 0 50 50" 
	xmlns="http://www.w3.org/2000/svg">
	<style type="text/css">
	.st0{fill:#75BB43;}
	.st1{fill:url(#Path_1_);}
	.st2{fill:#EB2385;}
	</style>
	<g>
		<title>axure_icon_125</title>
		<desc>Created with Sketch.</desc>
		<g id="axure_icon_125_1_">
			<g id="Asset-1_1_" 
				transform="translate(56.000000, 41.500000)">
				<path id="Path_5_" 
					class="st0" 
					d="M-11.3-40.2L-11.3-40.2c-0.4-0.8-1.3-1.4-2.3-1.3h-3.9c-1.1,0-2,0.5-2.5,1.3l-5.8,8.4l5.1,6.9
				l8.9-12.7C-10.8-38.7-11.1-39.8-11.3-40.2z" />

				<linearGradient id="Path_1_" 
					gradientUnits="userSpaceOnUse" 
					x1="-53.4248" 
					y1="6.6582" 
					x2="-53.1176" 
					y2="6.6582" 
					gradientTransform="matrix(88.5327 0 0 -164.7423 4676.8423 1080.382)">
					<stop offset="0" 
						style="stop-color:#6764AD" />
					<stop offset="4.000000e-02" 
						style="stop-color:#5F69B1" />
					<stop offset="0.21" 
						style="stop-color:#407BBF" />
					<stop offset="0.38" 
						style="stop-color:#2789CA" />
					<stop offset="0.57" 
						style="stop-color:#1693D2" />
					<stop offset="0.76" 
						style="stop-color:#0B99D6" />
					<stop offset="1" 
						style="stop-color:#089BD8" />
				</linearGradient>
				<path id="Path_4_" 
					class="st1" 
					d="M-42.1-40.3L-42.1-40.3c-0.6-0.8-1.5-1.2-2.5-1.2h-3.9c-0.9,0-1.8,0.4-2.2,1.2
				c-0.4,0.8-0.3,1.8,0.3,2.7L-36.1-18L-52.5,4.7c-0.6,0.8-0.7,1.8-0.2,2.6c0.4,0.8,1.3,1.3,2.2,1.2h3.9c1,0,1.9-0.5,2.4-1.3
				l18.4-25.1L-42.1-40.3z" />
				<path id="Path_3_" 
					class="st2" 
					d="M-9.3,4.9l-11.4-15.5l-5,6.9l9.1,12l0.2,0.1c0.4,0.2,0.7,0.2,1.1,0.2h3.9
				c0.9,0,1.7-0.4,2.2-1.1C-8.9,6.6-8.9,5.6-9.3,4.9L-9.3,4.9z" />
			</g>
		</g>
	</g>
</svg>
