<svg height="50" 
	width="50" 
	viewBox="0 0 50 50" 
	xmlns="http://www.w3.org/2000/svg">
	<style type="text/css">
	.st0{fill:#FF4785;}
	</style>
	<path class="st0" 
		d="M45.1,2.4C45,1,43.8-0.1,42.4,0l-2.8,0.2l0.2,5.8c0,0.2-0.2,0.4-0.4,0.4c-0.1,0-0.2,0-0.2-0.1l-1.9-1.5
	l-2.2,1.7c-0.2,0.1-0.4,0.1-0.5-0.1c-0.1-0.1-0.1-0.2-0.1-0.2l0.2-5.7L7.3,2.2C5.9,2.3,4.9,3.4,4.9,4.8l1.5,41.3
	c0,1.3,1.1,2.4,2.4,2.4L42.4,50c0,0,0.1,0,0.1,0c1.4,0,2.5-1.1,2.5-2.5v-45C45.1,2.5,45.1,2.4,45.1,2.4z M25.9,40.5
	c-6,0-11.2-2.4-10.6-10.8c0.2-1,7.8-0.8,7.8,0c-0.1,3.5,0.7,4.5,2.7,4.5c1.5,0,2.2-0.8,2.2-2.3c0-5.1-12.5-5.2-12.5-14.5
	c0-5.3,3.7-8.9,10.2-8.9c6.5,0,10.1,3.5,10.1,10.2c-0.9,0.7-7.5,1.2-7.5,0.2c0.1-3.7-1.5-3.9-2.5-3.9c-0.9,0-2.4,0.3-2.4,2.3
	c0,4.9,12.7,4.7,12.7,14.6C36.3,37.4,31.7,40.5,25.9,40.5z" />
</svg>
