<svg height="50" 
	width="50" 
	viewBox="0 0 50 50" 
	xmlns="http://www.w3.org/2000/svg">
	<style type="text/css">
	.st0{fill:url(#SVGID_1_);}
	.st1{fill:url(#SVGID_2_);}
	.st2{fill:url(#SVGID_3_);}
	.st3{fill:url(#SVGID_4_);}
	.st4{fill:url(#SVGID_5_);}
	</style>
	<title>Bootstrap</title>
	<g>
		<path d="M20.4,40.5L2,28.1l-0.1,0.1c-2.5,1.7-2.5,4.5,0,6.2l18.5,12.4c2.5,1.7,6.7,1.7,9.2,0l18.5-12.4c2.5-1.7,2.5-4.5,0-6.2
		L48,28.1L29.6,40.5C27.1,42.2,22.9,42.2,20.4,40.5z" />

		<linearGradient id="SVGID_1_" 
			gradientUnits="userSpaceOnUse" 
			x1="-74.3846" 
			y1="23.7301" 
			x2="-74.3846" 
			y2="23.8449" 
			gradientTransform="matrix(435.7063 0 0 292.809 32434.8496 -6933.8604)">
			<stop offset="0" 
				style="stop-color:#5C24AE" />
			<stop offset="1" 
				style="stop-color:#30135A" />
		</linearGradient>
		<path class="st0" 
			d="M20.4,40.5L2,28.1l-0.1,0.1c-2.5,1.7-2.5,4.5,0,6.2l18.5,12.4c2.5,1.7,6.7,1.7,9.2,0l18.5-12.4
		c2.5-1.7,2.5-4.5,0-6.2L48,28.1L29.6,40.5C27.1,42.2,22.9,42.2,20.4,40.5z" />
		<path d="M48.1,21.9L48.1,21.9L29.6,34.2c-2.5,1.7-6.7,1.7-9.2,0L2,21.8l-0.1,0.1c-2.5,1.7-2.5,4.5,0,6.2l0.1,0l18.4,12.4
		c2.5,1.7,6.7,1.7,9.2,0L48,28.1l0.1,0C50.6,26.4,50.6,23.6,48.1,21.9z" />

		<linearGradient id="SVGID_2_" 
			gradientUnits="userSpaceOnUse" 
			x1="-74.3846" 
			y1="23.8765" 
			x2="-74.3846" 
			y2="24.0111" 
			gradientTransform="matrix(435.7063 0 0 292.809 32434.8496 -6988.8613)">
			<stop offset="0" 
				style="stop-color:#7331D4" />
			<stop offset="1" 
				style="stop-color:#461B84" />
		</linearGradient>
		<path class="st1" 
			d="M48.1,21.9L48.1,21.9L29.6,34.2c-2.5,1.7-6.7,1.7-9.2,0L2,21.8l-0.1,0.1c-2.5,1.7-2.5,4.5,0,6.2l0.1,0
		l18.4,12.4c2.5,1.7,6.7,1.7,9.2,0L48,28.1l0.1,0C50.6,26.4,50.6,23.6,48.1,21.9z" />
		<path d="M20.4,34.2c2.5,1.7,6.7,1.7,9.2,0L48,21.8l0.1,0c2.5-1.7,2.5-4.5,0-6.2L29.6,3.2c-2.5-1.7-6.7-1.7-9.2,0L1.9,15.6
		c-2.5,1.7-2.5,4.5,0,6.2l0.1,0L20.4,34.2z M33.3,22.5l-5.6,3.7l-14.4-9.6l5.6-3.8c2.5-1.7,5.6-1.8,7.7-0.4c1.5,1,1.8,2.7,0.7,3.8
		l0.1,0.1c2.2-1.1,4.8-1.1,6.7,0.2C36.6,18.2,36.3,20.4,33.3,22.5z" />

		<linearGradient id="SVGID_3_" 
			gradientUnits="userSpaceOnUse" 
			x1="-74.3846" 
			y1="24.0626" 
			x2="-74.3846" 
			y2="24.1774" 
			gradientTransform="matrix(435.7063 0 0 292.809 32434.8496 -7043.8613)">
			<stop offset="0" 
				style="stop-color:#905BDD" />
			<stop offset="1" 
				style="stop-color:#5521A0" />
		</linearGradient>
		<path class="st2" 
			d="M20.4,34.2c2.5,1.7,6.7,1.7,9.2,0L48,21.8l0.1,0c2.5-1.7,2.5-4.5,0-6.2L29.6,3.2c-2.5-1.7-6.7-1.7-9.2,0
		L1.9,15.6c-2.5,1.7-2.5,4.5,0,6.2l0.1,0L20.4,34.2z M33.3,22.5l-5.6,3.7l-14.4-9.6l5.6-3.8c2.5-1.7,5.6-1.8,7.7-0.4
		c1.5,1,1.8,2.7,0.7,3.8l0.1,0.1c2.2-1.1,4.8-1.1,6.7,0.2C36.6,18.2,36.3,20.4,33.3,22.5z" />
		<path d="M25.1,13.8c-1.4-1-3.2-0.8-4.9,0.3l-3.4,2.3l4.5,3.1l2.9-1.9C26.3,16.2,26.6,14.8,25.1,13.8z" />

		<linearGradient id="SVGID_4_" 
			gradientUnits="userSpaceOnUse" 
			x1="-74.3928" 
			y1="24.0626" 
			x2="-74.3928" 
			y2="24.1774" 
			gradientTransform="matrix(435.7063 0 0 292.809 32434.8496 -7043.8613)">
			<stop offset="0" 
				style="stop-color:#905BDD" />
			<stop offset="1" 
				style="stop-color:#5521A0" />
		</linearGradient>
		<path class="st3" 
			d="M25.1,13.8c-1.4-1-3.2-0.8-4.9,0.3l-3.4,2.3l4.5,3.1l2.9-1.9C26.3,16.2,26.6,14.8,25.1,13.8z" />
		<path d="M32.2,17.7c-1.7-1.1-3.7-0.9-6,0.6l-3.4,2.3l5,3.4l3.6-2.4C33.6,20.1,33.8,18.8,32.2,17.7z" />

		<linearGradient id="SVGID_5_" 
			gradientUnits="userSpaceOnUse" 
			x1="-74.3777" 
			y1="24.0626" 
			x2="-74.3777" 
			y2="24.1774" 
			gradientTransform="matrix(435.7063 0 0 292.809 32434.8496 -7043.8613)">
			<stop offset="0" 
				style="stop-color:#905BDD" />
			<stop offset="1" 
				style="stop-color:#5521A0" />
		</linearGradient>
		<path class="st4" 
			d="M32.2,17.7c-1.7-1.1-3.7-0.9-6,0.6l-3.4,2.3l5,3.4l3.6-2.4C33.6,20.1,33.8,18.8,32.2,17.7z" />
	</g>
</svg>
