<svg height="50"
	width="50"
	viewBox="0 0 50 50"
	xmlns="http://www.w3.org/2000/svg">
	<style type="text/css">
	.st0{fill:#5781C2;}
	.st1{fill:#6C7179;}
	.st2{fill:#4B6A97;}
	</style>
	<path class="st0"
		d="M16.8,4.2c2-0.5,4.1-0.3,5.9,0.7c1.8,1,3.1,2.7,3.7,4.6c1.5,0.3,2.9,0.8,4.2,1.4c-0.1-0.8-0.2-1.5-0.4-2.3
	c-1.7-6.3-8.1-10-14.4-8.3c-6.3,1.7-10,8.1-8.3,14.4c0.2,0.7,0.5,1.5,0.8,2.1c0.8-1.2,1.8-2.3,2.9-3.3c-0.5-2-0.2-4.1,0.9-5.9
	C13.1,6,14.8,4.7,16.8,4.2z" />
	<path class="st1"
		d="M21.9,23.1c1.9-0.5,3.7-1.5,5.1-2.9c1.4-1.4,2.5-3.1,3.1-5c-1.1-0.7-2.4-1.2-3.6-1.5c-0.3,1.4-1,2.6-2,3.6
	c-1,1-2.2,1.7-3.6,2.1c-1.4,0.4-2.8,0.4-4.1,0c-1.4-0.4-2.6-1.1-3.5-2.1c-0.9,0.9-1.7,2-2.4,3.1c1.5,1.4,3.2,2.3,5.2,2.8
	C17.9,23.7,19.9,23.6,21.9,23.1z" />
	<path class="st2"
		d="M20.1,16.3c2.5-0.7,4-3.3,3.3-5.8c-0.7-2.5-3.3-4-5.8-3.3s-4,3.3-3.3,5.8C15,15.5,17.6,17,20.1,16.3z" />
	<path class="st0"
		d="M13.8,45.8c-1.6,0.4-3.4,0.3-5-0.3c-1.6-0.6-2.9-1.8-3.8-3.3c-0.9-1.5-1.2-3.2-1.1-4.9c0.2-1.7,0.9-3.3,2.1-4.5
	c-0.1-0.4-0.2-0.7-0.3-1.1c-0.3-1.1-0.5-2.1-0.6-3.2c-4,2.7-6.1,7.8-4.8,12.8c1.7,6.3,8.1,10,14.4,8.3c2.7-0.7,5.1-2.4,6.6-4.7
	c-1.5-0.1-2.9-0.4-4.3-0.9C16.2,44.8,15,45.5,13.8,45.8z" />
	<path class="st1"
		d="M9,26.8c0,1.3,0.1,2.6,0.5,3.9l0,0c0.1,0,0.1,0,0.2-0.1c1.3-0.4,2.8-0.4,4.1,0c1.3,0.4,2.6,1.1,3.5,2.1
	c1,1,1.7,2.3,2,3.6c0.3,1.4,0.3,2.8-0.1,4.1c1.3,0.4,2.6,0.5,3.9,0.5c0.5-1.9,0.4-3.9-0.1-5.8C21.4,29,15.2,25.3,9,26.8z" />
	<path class="st2"
		d="M13,42.8c2.5-0.7,4-3.3,3.3-5.8c-0.7-2.5-3.3-4-5.8-3.3c-2.5,0.7-4,3.3-3.3,5.8C7.9,42,10.5,43.5,13,42.8z" />
	<path class="st1"
		d="M36.2,23.6l0.2,0c0,0,0-0.1,0-0.1c-0.3-1.2-0.8-2.4-1.5-3.5c-6,1.8-9.6,8.2-8,14.3c0.5,1.9,1.5,3.6,2.8,5
	c1.2-0.6,2.2-1.5,3.1-2.4c-1-1-1.7-2.2-2.1-3.5c-0.4-1.3-0.4-2.8-0.1-4.1c0.3-1.3,1-2.6,2-3.6C33.7,24.7,34.9,24,36.2,23.6
	L36.2,23.6z" />
	<path class="st0"
		d="M39,19.5c0.5,1,0.8,2,1.1,3c0.1,0.4,0.2,0.8,0.3,1.2c2,0.6,3.6,1.9,4.6,3.7c1,1.8,1.3,3.9,0.7,5.9
	c-0.5,2-1.8,3.7-3.6,4.7s-3.8,1.4-5.8,0.9c-1,1.1-2.1,2.1-3.3,2.9c2.5,1.3,5.5,1.5,8.2,0.8c6.3-1.7,10-8.1,8.3-14.4
	C48.3,23.2,43.9,19.8,39,19.5z" />
	<path class="st2"
		d="M39.5,35.8c2.5-0.7,4-3.3,3.3-5.8c-0.7-2.5-3.3-4-5.8-3.3c-2.5,0.7-4,3.3-3.3,5.8C34.4,34.9,37,36.4,39.5,35.8z
	" />
</svg>
