<svg height="50" 
	width="50" 
	viewBox="0 0 50 50" 
	xmlns="http://www.w3.org/2000/svg">
	<style type="text/css">
	.st0{fill:#8080F2;}
	.st1{fill:#4B32C3;}
	</style>
	<g>
		<g transform="matrix(1.2548929 0 0 1.2548929 -22.9868 -19.949332)">
			<path class="st0" 
				d="M30.4,31.1l7.5-4.4c0.2-0.1,0.4-0.1,0.6,0l7.5,4.4c0.2,0.1,0.3,0.3,0.3,0.5v8.7c0,0.2-0.1,0.4-0.3,0.5
			l-7.5,4.4c-0.2,0.1-0.4,0.1-0.6,0l-7.5-4.4c-0.2-0.1-0.3-0.3-0.3-0.5v-8.7C30.1,31.4,30.3,31.2,30.4,31.1" />
			<path class="st1" 
				d="M57.9,35l-9-15.7c-0.3-0.6-0.9-1-1.6-1H29.2c-0.7,0-1.3,0.4-1.6,1l-9,15.7c-0.3,0.6-0.3,1.3,0,1.9l9,15.6
			c0.3,0.6,0.9,0.9,1.6,0.9h18.1c0.7,0,1.3-0.3,1.6-0.9l9-15.6C58.2,36.3,58.2,35.6,57.9,35 M50.4,42.7c0,0.2-0.1,0.4-0.3,0.6
			l-11.5,6.7c-0.2,0.1-0.5,0.1-0.7,0l-11.5-6.7c-0.2-0.1-0.3-0.3-0.3-0.6V29.3c0-0.2,0.1-0.4,0.3-0.6l11.5-6.7
			c0.2-0.1,0.5-0.1,0.7,0l11.5,6.7c0.2,0.1,0.3,0.3,0.3,0.6V42.7z" />
		</g>
	</g>
</svg>
