<svg height="50" 
	width="50" 
	viewBox="0 0 50 50" 
	xmlns="http://www.w3.org/2000/svg">
	<style type="text/css">
	.st0{fill:#161614;}
	</style>
	<g>
		<g>
			<path class="st0" 
				d="M25,0.6c-13.8,0-25,11.2-25,25c0,11,7.2,20.4,17.1,23.7c1.2,0.2,1.7-0.5,1.7-1.2c0-0.6,0-2.6,0-4.7
			c-7,1.5-8.4-2.9-8.4-2.9c-1.1-2.9-2.8-3.7-2.8-3.7c-2.3-1.6,0.2-1.5,0.2-1.5c2.5,0.2,3.8,2.6,3.8,2.6c2.2,3.8,5.8,2.7,7.3,2.1
			c0.2-1.6,0.9-2.7,1.6-3.3C14.9,36,9,33.9,9,24.3c0-2.7,1-5,2.6-6.7c-0.3-0.6-1.1-3.2,0.2-6.6c0,0,2.1-0.7,6.9,2.6
			c2-0.6,4.1-0.8,6.3-0.8c2.1,0,4.3,0.3,6.3,0.8c4.8-3.2,6.9-2.6,6.9-2.6c1.4,3.4,0.5,6,0.2,6.6c1.6,1.8,2.6,4,2.6,6.7
			c0,9.6-5.8,11.7-11.4,12.3c0.9,0.8,1.7,2.3,1.7,4.6c0,3.3,0,6,0,6.9c0,0.7,0.4,1.4,1.7,1.2C42.8,46,50,36.7,50,25.6
			C50,11.8,38.8,0.6,25,0.6" />
			<path class="st0" 
				d="M9.4,36.2c-0.1,0.1-0.3,0.2-0.4,0.1c-0.2-0.1-0.3-0.3-0.2-0.4c0.1-0.1,0.2-0.2,0.4-0.1
			C9.3,35.9,9.4,36.1,9.4,36.2 M10.6,37.3c-0.1,0.1-0.4,0.1-0.5-0.1C9.9,37,9.9,36.8,10,36.7c0.1-0.1,0.3-0.1,0.5,0.1
			C10.7,37,10.7,37.2,10.6,37.3 M11.4,38.7c-0.2,0.1-0.4,0-0.6-0.2c-0.2-0.2-0.2-0.5,0-0.6c0.2-0.1,0.4,0,0.6,0.2
			C11.6,38.4,11.6,38.6,11.4,38.7 M12.9,40.4c-0.1,0.2-0.4,0.1-0.6-0.1c-0.2-0.2-0.3-0.5-0.1-0.6c0.1-0.2,0.4-0.1,0.6,0.1
			C12.9,39.9,13,40.2,12.9,40.4 M14.7,40.9c-0.1,0.2-0.3,0.3-0.6,0.2c-0.3-0.1-0.5-0.3-0.4-0.5c0.1-0.2,0.3-0.3,0.6-0.2
			C14.6,40.5,14.8,40.7,14.7,40.9 M16.8,41.1c0,0.2-0.2,0.4-0.5,0.4c-0.3,0-0.5-0.2-0.5-0.4c0-0.2,0.2-0.4,0.5-0.4
			C16.6,40.8,16.8,40.9,16.8,41.1 M18.9,41.1c0,0.2-0.2,0.4-0.5,0.5c-0.3,0.1-0.6-0.1-0.6-0.3c0-0.2,0.2-0.4,0.5-0.5
			C18.6,40.7,18.8,40.9,18.9,41.1" />
		</g>
	</g>
</svg>
