<svg height="50" 
	width="50" 
	viewBox="0 0 50 50" 
	xmlns="http://www.w3.org/2000/svg">
	<style type="text/css">
	.st0{fill:#D34A47;}
	.st1{fill:#FFFFFF;}
	</style>
	<g>
		<path class="st0" 
			d="M31.1,48.5l0.5-8l1.3-2.3c0,0-3,1.2-8.1,1.2c-5,0-8-1.2-8-1.2l1.5,2.5l0.5,7.8c0,0.8,2.7,1.5,6.1,1.5
		C28.4,50,31.1,49.3,31.1,48.5 M29.6,11.2l1-4l5.6-5.9l-1.5-1.3l-5.9,6.3l-1.2,4.8c-0.9,0-1.8,0-2.6,0c-6.2,0-11.3,0.7-11.3,1.6
		c0,0.9,5,1.6,11.3,1.6c6.2,0,11.3-0.7,11.3-1.6C36.3,12,33.5,11.4,29.6,11.2" />
		<path class="st1" 
			d="M29,13.4c0,0-0.2,0-0.9,0.1c-0.6,0-1.1,0-1.3-0.2c0,0-0.1-0.1-0.1-0.2c0-0.1,0.1-0.2,0.2-0.2l0.1,0.2
		c0,0-0.1,0-0.1,0.1c0,0.1,0.7,0.1,1.2,0.1c0.5,0,1.1,0,1.1-0.1c0,0,0,0-0.1-0.1l0.1-0.2c0.1,0,0.2,0.1,0.2,0.3
		C29.5,13.3,29.2,13.4,29,13.4" />
		<path class="st0" 
			d="M36.2,1.3c0.1-0.2-0.1-0.6-0.5-0.9c-0.4-0.3-0.8-0.5-1-0.3c-0.1,0.2,0.1,0.6,0.5,0.9C35.6,1.3,36,1.5,36.2,1.3
		 M30.8,29c-0.1-1.3,2.8-3.1,2-3.2c-1.6,0.1-2.4,1.9-3.2,3.8c-0.3,0.7-1.3,3.6-2,3.3C27,32.5,28.5,30,29,28.6
		c-0.5,0.4-2.3,1.8-2.8,0.5c-0.8,0.6-2.4,1-2.2-0.7c-0.4,0.7-1.3,1.7-2.4,1.3c-1.4-0.5,0.8-5,1.4-4.8c0.6,0.2-0.1,1.3-0.3,1.7
		c-0.4,0.9-0.8,2-0.5,2.2c0.5,0.4,1.9-1.5,1.9-1.5c0.3-0.3,1-2.6,1.6-2.3c0.6,0.3-1.5,3.2-0.7,3.8c0.2,0.1,0.8-0.1,1.2-0.5
		c0.3-0.3,0.2-0.9,1-2.9c0.8-2,1.6-4.5,2.2-4.3c0.6,0.2,0.1,1.5-0.1,1.9c-1,2.2-2.6,5.9-1.9,5.7c0.8-0.3,1.2-0.3,2-1.2
		c0.8-0.9,0.7-2.4,1.3-2.4c0.5,0,0.4,0.5,0.3,0.9c0.5-0.6,2.4-1.8,2.9-0.6c0.5,1.4-2.7,3.5-1.9,3.4c0.8-0.1,2.1-0.9,2.6-1.7L36,13.5
		c0,0-1.5,1.3-11.2,1.3c-9.7,0-11-1.2-11-1.2l1.3,12.4c0.7-1.9,2.3-5.9,4.9-5.7c1.2,0.1,2.7,2.3,1.4,2.4c-0.6,0-0.6-1.1-1.3-1.3
		c-0.5-0.1-1.1,0.3-1.6,0.7c-0.9,0.8-2.7,4.2-2.5,5.8c0.3,2.1,2.9-0.7,3.4-1.6c0.3-0.6,0.5-2.4,1.2-2.2c0.7,0.2-0.1,2-0.6,3.6
		c-0.6,1.8-0.8,3.7-1.5,3.5c-0.7-0.2,0.4-2.6,0.4-3c-0.7,0.6-1.9,2.1-3.4,1.4l0.8,7.7c0,0,2.1,1.7,8.5,1.7s8.6-1.7,8.6-1.7l1-8.9
		C33.6,29.1,31,30.5,30.8,29" />
	</g>
</svg>
