<svg height="50" 
	width="50" 
	viewBox="0 0 50 50" 
	xmlns="http://www.w3.org/2000/svg">
	<style type="text/css">
	.st0{fill:#063A4A;}
	.st1{fill:#00A1BE;}
	.st2{fill:#00D8FD;}
	.st3{fill:#FFFFFF;}
	</style>
	<g>
		<g>
			<path class="st0" 
				d="M15.8,42c-1-0.1-1.9-0.3-2.8-0.7c-1-0.5-1.9-1.2-2.6-2c-0.7-0.8-1.1-1.7-1.5-2.6c-0.3-0.7-0.6-1.5-1-2.2
			c-0.2-0.5-0.5-0.9-0.9-1.4c-0.2-0.2-0.4-0.5-0.7-0.6c-0.3-0.2-0.6-0.3-0.9-0.3c-0.9,0-1.9,0-2.8,0c-0.8,0-1.5-0.3-2.1-1
			C0.2,30.6,0,30,0,29.4c0-0.5,0.3-0.9,0.8-1c0.1,0,0.2,0,0.2,0c1.6,0,3.2,0,4.8,0c0.7,0,1.3,0.1,1.9,0.2c0.3,0.1,0.7,0.2,1,0.4
			c0,0,0.1,0,0.1,0c0,0,0,0,0,0c0,0,0,0,0,0c-0.2-0.2-0.5-0.4-0.7-0.6c-0.5-0.3-1-0.6-1.6-0.8c-0.2-0.1-0.4-0.1-0.6-0.1
			c-0.5-0.1-0.9-0.2-1.4-0.3c-0.4-0.1-0.7-0.2-1-0.4c-0.4-0.3-0.8-0.6-1-1c-0.2-0.4-0.4-0.9-0.4-1.4c0-0.5,0.2-0.9,0.7-1.2
			C2.9,23,3,23,3.1,23c0.1,0,0.2,0,0.3,0c1.3,0.3,2.6,0.7,3.9,1c0.3,0.1,0.7,0.1,1,0.2c0.9,0.3,1.8,0.6,2.5,1.2
			c0.3,0.2,0.6,0.5,0.9,0.8c0,0,0.1,0.1,0.1,0.1c0,0,0,0,0,0c0,0,0,0,0-0.1c-0.4-1.3-1.1-2.2-2.3-2.8c-0.3-0.2-0.6-0.2-1-0.3
			c-0.8-0.2-1.7-0.5-2.5-0.8c-0.2-0.1-0.4-0.2-0.7-0.3c-0.6-0.3-0.9-0.8-1.1-1.5c-0.1-0.3-0.1-0.6-0.1-1c0-0.5,0.4-0.9,0.9-0.9
			c0.1,0,0.2,0,0.3,0c1.4,0.4,2.8,0.7,4.2,1.1c0.5,0.1,0.9,0.2,1.4,0.4c1.8,0.7,3.2,2,4.1,3.7c0.4,0.8,0.7,1.7,0.9,2.6
			c0.1,0.5,0.2,1,0.2,1.5c0.1,0.5,0.1,1,0.2,1.4c0.1,0.4,0.1,0.9,0.2,1.3c0.1,0.5,0.1,1,0.2,1.4c0.1,0.4,0.1,0.8,0.2,1.3
			c0.1,0.5,0.1,1,0.3,1.5c0.1,0.3,0.2,0.6,0.4,0.8c0.2,0.3,0.5,0.4,0.8,0.5c0.2,0,0.5,0,0.7,0c0.1,0,0.1,0,0.1-0.1
			c0.2-0.3,0.4-0.6,0.5-1c0.2-0.5,0.3-0.9,0.4-1.4c0-0.1,0.1-0.2,0-0.3c0-0.1-0.1-0.1-0.2-0.2c-0.2-0.3-0.3-0.6-0.3-0.9
			c0-0.2,0-0.5,0-0.7c0-0.4,0-0.9,0-1.3c0,0,0-0.1,0-0.1c-1.8-0.7-2.4-2.9-1.2-4.5c-0.1-0.1-0.2-0.1-0.3-0.2
			c-0.7-0.6-1.2-1.4-1.3-2.4c0-0.3-0.1-0.5-0.1-0.8c0-2,0-4,0-6c0-2.1,0.7-3.9,2.1-5.4c1.2-1.3,2.6-2.2,4.3-2.5
			c0.8-0.2,1.6-0.2,2.3-0.2c3.5,0.3,6.4,2.8,7.2,6.1c0.2,0.7,0.2,1.3,0.2,2c0,2,0,4,0,6c0,0.7-0.1,1.3-0.4,1.9
			c-0.3,0.6-0.7,1.1-1.3,1.6c0,0,0,0-0.1,0.1c0.5,0.7,0.7,1.6,0.5,2.5c-0.2,0.9-0.8,1.5-1.7,1.9c0,0,0,0.1,0,0.1c0,0.7,0,1.3,0,2
			c0,0.2,0,0.4-0.1,0.6c0,0.1,0,0.2,0,0.2c0.1,0.7,0.2,1.4,0.5,2c0.1,0.3,0.3,0.6,0.5,0.9c0,0,0.1,0.1,0.1,0.1c0.2,0,0.5,0.1,0.7,0
			c0.3,0,0.5-0.2,0.7-0.4c0.2-0.3,0.4-0.6,0.5-0.9c0.1-0.4,0.2-0.8,0.3-1.2c0.1-0.5,0.1-1,0.2-1.5c0.1-0.5,0.1-1,0.2-1.4
			c0.1-0.5,0.1-1,0.2-1.4c0.1-0.5,0.1-1,0.2-1.4c0.1-1,0.3-2,0.6-2.9c0.4-1,0.8-1.9,1.5-2.6c0.8-0.9,1.7-1.6,2.8-2.1
			c0.5-0.2,1.1-0.4,1.6-0.5c1.4-0.4,2.8-0.7,4.2-1.1c0.2,0,0.3,0,0.4,0c0.4,0.1,0.7,0.5,0.7,0.9c0,0.4,0,0.8-0.1,1.2
			c-0.2,0.5-0.5,1-1,1.2c-0.5,0.2-0.9,0.4-1.4,0.6c-0.6,0.2-1.3,0.4-2,0.6c-0.8,0.2-1.5,0.7-2.1,1.3c-0.5,0.5-0.8,1.1-1,1.8
			c0,0,0,0.1,0,0.1c0,0,0,0,0,0c0,0,0,0,0,0c0,0,0,0,0,0c0,0,0,0,0.1,0c0.9-1,2.1-1.6,3.4-2c0.3-0.1,0.6-0.1,0.9-0.2
			c0.5-0.1,0.9-0.2,1.4-0.3c0.9-0.2,1.8-0.5,2.7-0.7c0.1,0,0.2,0,0.3,0c0.2,0.1,0.4,0.2,0.6,0.4c0.3,0.4,0.4,0.8,0.3,1.2
			c-0.1,0.6-0.3,1.1-0.7,1.5c-0.2,0.3-0.5,0.5-0.9,0.7c-0.4,0.2-0.9,0.4-1.3,0.5c-0.5,0.1-0.9,0.2-1.4,0.3c-0.2,0-0.3,0.1-0.5,0.2
			c-0.7,0.3-1.3,0.7-1.8,1.2c0,0-0.1,0.1-0.1,0.1c0,0,0.1,0,0.1,0c0.6-0.3,1.1-0.4,1.7-0.5c0.5-0.1,1-0.1,1.5-0.1c1.5,0,3,0,4.6,0
			c0.5,0,0.9,0.3,1,0.8c0,0.2,0,0.3,0,0.5c-0.1,1.1-0.7,1.8-1.7,2.2c-0.3,0.1-0.7,0.2-1,0.2c-0.9,0-1.8,0-2.7,0
			c-0.4,0-0.7,0.1-1.1,0.4c-0.3,0.2-0.5,0.5-0.8,0.8c-0.4,0.6-0.7,1.2-1,1.8c-0.3,0.6-0.5,1.2-0.8,1.8c-0.4,0.9-0.8,1.7-1.5,2.4
			c-1.1,1.3-2.5,2.2-4.2,2.5C35,41.9,34.6,42,34.2,42c-0.1,0-0.3,0-0.4,0c-0.2,0-0.4,0-0.6,0c-0.1,0-0.2,0-0.4,0
			c-0.3,0-0.7-0.1-1-0.1c-1.4-0.3-2.7-0.8-3.9-1.6c-1.3-0.9-2.2-2-2.8-3.4c0,0,0,0,0-0.1c-0.2,0.4-0.3,0.7-0.5,1
			c-0.7,1.1-1.6,2-2.7,2.7c-1,0.7-2.2,1.1-3.4,1.4C18,41.9,17.6,42,17.2,42c-0.1,0-0.3,0-0.4,0c-0.2,0-0.4,0-0.6,0
			C16.1,42,15.9,42,15.8,42z M18.4,23.9c0,0,0.1,0.1,0.1,0.1c0,0,0,0,0,0c0.4,0.4,0.8,0.7,1.3,0.9c0.4,0.2,0.9,0.3,1.4,0.3
			c0.1,0,0.3,0,0.4,0c0.2,0,0.4,0.1,0.7,0.1c0.1,0,0.2,0,0.3,0c0.3,0.1,0.6,0.1,1,0.2c0.5,0.1,1,0.1,1.5,0.1c0.3,0,0.6,0,1-0.1
			c0.5-0.1,1.1-0.2,1.6-0.2c0.3,0,0.6-0.1,0.9-0.1c0.5,0,1-0.1,1.5-0.4c0.7-0.3,1.2-0.8,1.5-1.4c0.2-0.5,0.3-1,0.3-1.5c0-2,0-4,0-6
			c0-0.4,0-0.9-0.1-1.3c-0.3-1.6-1.1-3-2.3-4c-1.6-1.3-3.4-1.9-5.5-1.6C23,9.2,22.1,9.5,21.3,10c-0.2,0.1-0.4,0.2-0.6,0.4
			c0,0,0,0,0,0c0,0,0,0,0,0c0,0-0.1,0-0.1,0.1c-0.4,0.3-0.7,0.6-1.1,1c-0.2,0.2-0.4,0.5-0.6,0.8c-0.3,0.4-0.5,0.9-0.7,1.4
			c-0.3,0.7-0.4,1.4-0.4,2.2c0,1.3,0,2.6,0,3.9c0,0.8,0,1.7,0,2.5c0,0.1,0,0.1,0,0.2c0,0.4,0.1,0.7,0.3,1
			C18.2,23.6,18.2,23.7,18.4,23.9L18.4,23.9z M22.1,29.7C22.1,29.7,22.1,29.8,22.1,29.7c-0.4,0.2-0.7,0.3-1.1,0.4
			c-0.1,0-0.2,0-0.3,0c0,0,0,0,0,0.1c0,0.6,0,1.3,0,1.9c0,0.2,0.1,0.3,0.3,0.4c0,0,0.1,0,0.1,0c0.2,0,0.3,0.1,0.5,0.1
			c0,0,0.1,0,0.1,0c0.6,0.1,1.2,0.3,1.7,0.4c0.3,0.1,0.6,0.1,1,0.1c0.4,0,0.8,0,1.2-0.1c0.7-0.1,1.4-0.3,2.1-0.4
			c0.2-0.1,0.5-0.1,0.7-0.2c0.2,0,0.4-0.2,0.4-0.4c0-0.6,0-1.2,0-1.8c0,0,0-0.1,0-0.1c-0.9,0-1.6-0.3-2.2-1
			c-0.6-0.7-0.8-1.5-0.6-2.3c-0.5,0.1-0.9,0.1-1.3,0.1c-0.4,0-0.9-0.1-1.3-0.1c0,0,0,0,0,0.1c0,0.3,0,0.5,0,0.8
			C23.3,28.5,22.9,29.2,22.1,29.7C22.2,29.7,22.1,29.7,22.1,29.7z M16.5,37c0.4,0,1-0.1,1.1-0.2c-0.1-0.1-0.3-0.1-0.4-0.2
			c-0.4-0.3-0.7-0.7-0.9-1.1c-0.3-0.6-0.4-1.2-0.5-1.8c0-0.3-0.1-0.6-0.1-0.9c0-0.3-0.1-0.6-0.1-1c0-0.3-0.1-0.6-0.1-0.9
			c0-0.3-0.1-0.6-0.1-1c0-0.3-0.1-0.5-0.1-0.8c0-0.4-0.1-0.7-0.2-1.1c0-0.3-0.1-0.6-0.1-0.9c-0.1-0.5-0.2-1.1-0.4-1.6
			c-0.3-0.9-0.7-1.8-1.3-2.6c-0.4-0.5-0.8-0.9-1.3-1.3c-0.8-0.6-1.6-0.9-2.5-1.2c-1.2-0.3-2.3-0.6-3.5-0.9c-0.2,0-0.4-0.1-0.6-0.1
			c-0.1,0-0.3-0.1-0.4-0.1c0,0.1,0,0.1,0,0.1c0,0.2,0,0.4,0,0.6c0.1,0.4,0.3,0.7,0.7,0.9c0.2,0.1,0.4,0.2,0.6,0.3
			c0.8,0.3,1.6,0.6,2.4,0.8c0.3,0.1,0.6,0.2,0.9,0.3c0.7,0.3,1.3,0.7,1.7,1.3c0.7,0.7,1.1,1.6,1.3,2.5c0.1,0.4,0.1,0.8,0.2,1.2
			c0.2,0.8,0.3,1.6,0.5,2.4c0.1,0.5,0.2,1,0.3,1.5c0,0-0.1-0.1-0.1-0.1c-0.1-0.2-0.2-0.3-0.2-0.5c-0.3-0.7-0.7-1.3-1-2
			c-0.3-0.5-0.5-1-0.9-1.4C11,26.8,10.5,26.4,10,26c-0.7-0.5-1.4-0.8-2.2-1c-0.6-0.1-1.1-0.3-1.7-0.4c-0.8-0.2-1.7-0.4-2.5-0.6
			c-0.1,0-0.2-0.1-0.3-0.1c-0.1,0-0.1,0-0.1,0C3.1,24.1,3,24.3,3,24.5c0.1,0.4,0.2,0.7,0.4,1c0.1,0.1,0.2,0.3,0.4,0.4
			c0.3,0.2,0.7,0.4,1.1,0.5c0.4,0.1,0.9,0.2,1.3,0.3c0.2,0,0.4,0.1,0.6,0.2c0.3,0.1,0.6,0.2,0.9,0.4c0.9,0.4,1.6,1,2.3,1.8
			c0.2,0.2,0.4,0.5,0.5,0.8c0.5,1.3,1.1,2.5,1.6,3.8c0.2,0.5,0.4,0.9,0.7,1.3c0.4,0.6,0.9,1.1,1.4,1.5C14.9,36.8,15.7,37,16.5,37z
			 M44.6,19.5C44.5,19.5,44.5,19.5,44.6,19.5c-0.5,0.1-1,0.3-1.5,0.4c-0.8,0.2-1.5,0.4-2.3,0.6c-0.8,0.2-1.5,0.5-2.2,0.9
			c-0.6,0.4-1.2,0.9-1.7,1.4c-0.4,0.4-0.7,0.9-0.9,1.5c-0.4,0.7-0.6,1.5-0.8,2.3c-0.1,0.3-0.1,0.6-0.2,1c0,0.3-0.1,0.6-0.1,0.9
			c0,0.3-0.1,0.5-0.1,0.8c0,0.3-0.1,0.6-0.1,1c0,0.3-0.1,0.5-0.1,0.8c0,0.3-0.1,0.6-0.1,0.9c0,0.3-0.1,0.5-0.1,0.8
			c0,0.3-0.1,0.6-0.1,0.9c0,0.4-0.1,0.7-0.2,1.1c-0.1,0.5-0.3,1-0.6,1.4c-0.2,0.3-0.4,0.5-0.7,0.7c-0.1,0.1-0.2,0.1-0.4,0.2
			c0.4,0.1,0.8,0.2,1.2,0.2c0.2,0,0.5,0,0.7,0c0.7-0.1,1.4-0.4,2-0.9c0.4-0.3,0.8-0.8,1.1-1.2c0.2-0.3,0.3-0.5,0.5-0.8
			c0.5-1.3,1.1-2.5,1.6-3.8c0.1-0.2,0.2-0.4,0.3-0.6c0.2-0.4,0.5-0.7,0.8-1.1c0.6-0.7,1.4-1.2,2.3-1.6c0.2-0.1,0.5-0.2,0.7-0.3
			c0.5-0.1,1-0.2,1.4-0.3c0.4-0.1,0.8-0.2,1.2-0.4c0.2-0.1,0.4-0.2,0.5-0.4c0.3-0.3,0.4-0.6,0.5-1c0.1-0.2,0-0.4-0.1-0.6
			c0-0.1-0.1-0.1-0.1,0c0,0-0.1,0-0.1,0c-1.1,0.3-2.2,0.6-3.3,0.9c-0.4,0.1-0.9,0.2-1.3,0.3c-0.6,0.2-1.2,0.4-1.8,0.8
			c-0.5,0.3-1,0.7-1.4,1.2c-0.3,0.4-0.6,0.8-0.8,1.2c-0.2,0.4-0.4,0.8-0.6,1.2c-0.3,0.5-0.5,1.1-0.8,1.6c0,0-0.1,0.1-0.1,0.1
			c0,0,0-0.1,0-0.1c0.1-0.5,0.2-1,0.3-1.6c0.2-0.9,0.3-1.7,0.5-2.6c0.1-0.3,0.1-0.6,0.2-0.9c0.2-0.9,0.6-1.7,1.2-2.3
			c0.7-0.8,1.5-1.3,2.5-1.6c0.7-0.2,1.5-0.4,2.2-0.7c0.3-0.1,0.7-0.3,1-0.4c0.1-0.1,0.2-0.1,0.3-0.2c0.2-0.2,0.3-0.4,0.4-0.7
			c0.1-0.2,0-0.5,0.1-0.7c0,0,0-0.1,0-0.1C44.8,19.4,44.7,19.4,44.6,19.5z M21.9,33.8c-0.2,0-0.4-0.1-0.6-0.1
			c-0.1,0-0.2-0.1-0.4-0.1c-0.1,0.4-0.2,0.7-0.3,1.1c-0.2,0.7-0.5,1.3-0.9,1.8c-0.4,0.5-0.9,0.8-1.4,1.1c-0.5,0.2-0.9,0.3-1.4,0.3
			c-0.4,0-0.9,0-1.3-0.1c-0.9-0.2-1.8-0.6-2.5-1.2c-0.5-0.4-0.8-0.9-1.2-1.4c-0.4-0.6-0.7-1.3-1-1.9c-0.2-0.5-0.4-0.9-0.6-1.3
			c-0.3-0.6-0.7-1.1-1.2-1.6c-0.4-0.3-0.9-0.6-1.4-0.8c-0.7-0.2-1.4-0.3-2.1-0.3c-1.5,0-3.1,0-4.6,0c0,0,0,0-0.1,0
			c0,0-0.1,0-0.1,0.1c0,0.1,0,0.1,0,0.2c0,0.3,0.1,0.6,0.3,0.9c0.4,0.5,0.9,0.8,1.5,0.8c0.9,0,1.9,0,2.8,0c0.4,0,0.8,0.1,1.2,0.3
			c0.4,0.2,0.7,0.6,1,0.9c0.4,0.5,0.8,1.1,1.1,1.8c0.4,0.7,0.7,1.5,1,2.2c0.4,0.9,0.9,1.7,1.5,2.5c0.6,0.6,1.2,1.1,1.9,1.5
			c0.9,0.4,1.8,0.7,2.8,0.7c0.4,0,0.9,0,1.3,0c0.6-0.1,1.2-0.2,1.8-0.4c1.4-0.5,2.7-1.2,3.7-2.4c0.8-0.9,1.4-1.9,1.6-3.1
			c0-0.1,0-0.2,0-0.4c0-0.1,0-0.3,0-0.4c0,0,0-0.1,0-0.1c-0.1,0-0.1,0-0.1,0c-0.6,0-1.1-0.1-1.7-0.3C22.4,34,22.1,33.9,21.9,33.8z
			 M28.1,33.8c0,0-0.1,0-0.1,0c-0.8,0.2-1.5,0.3-2.3,0.4c-0.1,0-0.2,0-0.3,0c0,0.1,0,0.2,0,0.3c0.1,0.7,0.3,1.4,0.6,2
			c0.5,1.1,1.2,1.9,2.2,2.6c1.4,1.1,3.1,1.7,4.9,1.8c0.8,0,1.6,0,2.3-0.2c1.2-0.3,2.3-0.9,3.2-1.8c0.6-0.7,1.1-1.5,1.5-2.3
			c0.3-0.6,0.5-1.2,0.8-1.8c0.3-0.7,0.6-1.4,1.1-2c0.3-0.4,0.6-0.8,1-1.1c0.5-0.4,1.1-0.7,1.7-0.6c0.9,0,1.8,0,2.7,0
			c0.1,0,0.2,0,0.3,0c0.7-0.1,1.3-0.6,1.5-1.3c0.1-0.2,0.1-0.4,0.1-0.6c0-0.1-0.1-0.1-0.2-0.1c-1.3,0-2.6,0-4,0c-0.3,0-0.6,0-0.9,0
			c-0.2,0-0.4,0-0.6,0c-0.5,0-0.9,0.2-1.4,0.3c-0.5,0.2-0.9,0.4-1.2,0.7c-0.4,0.4-0.8,0.9-1,1.4c-0.2,0.5-0.4,0.9-0.6,1.4
			c-0.3,0.7-0.6,1.4-1,2c-0.5,0.7-1,1.3-1.7,1.8c-0.8,0.6-1.6,0.9-2.6,0.9c-0.3,0-0.6,0-0.9,0c-0.3,0-0.7-0.1-1-0.2
			c-0.5-0.1-0.9-0.4-1.3-0.7c-0.4-0.3-0.7-0.8-0.9-1.2c-0.3-0.6-0.5-1.2-0.6-1.8c0-0.1-0.1-0.3-0.1-0.4c-0.1,0-0.2,0-0.2,0.1
			C28.6,33.6,28.3,33.7,28.1,33.8z M19.4,26C19.3,26.1,19.3,26.1,19.4,26c-0.4,0.5-0.6,1-0.5,1.5c0.1,0.7,0.7,1.3,1.4,1.5
			c0.7,0.1,1.5-0.2,1.9-0.8c0.3-0.5,0.3-1,0.1-1.5c0-0.1-0.1-0.1-0.1-0.1c-0.1,0-0.2,0-0.3-0.1c-0.2,0-0.4-0.1-0.6-0.1
			c-0.3,0-0.5,0-0.8-0.1C20.1,26.3,19.7,26.2,19.4,26z M30.2,26.1C30.2,26.1,30.2,26.1,30.2,26.1c-0.6,0.2-1.1,0.3-1.7,0.4
			c-0.1,0-0.2,0-0.3,0c-0.2,0-0.3,0.1-0.5,0.1c-0.1,0-0.3,0-0.4,0.1c-0.3,0.8,0,1.8,0.7,2.2c0.8,0.4,1.8,0.2,2.3-0.5
			C30.9,27.6,30.7,26.6,30.2,26.1z" />
			<path class="st1" 
				d="M33.8,42c0.1,0,0.3,0,0.4,0c0,0,0,0,0,0C34.1,42,33.9,42,33.8,42z" />
			<path class="st1" 
				d="M15.8,42c0.1,0,0.3,0,0.4,0C16.1,42,15.9,42,15.8,42C15.8,42,15.8,42,15.8,42z" />
			<path class="st1" 
				d="M17.2,42C17.2,42,17.2,42,17.2,42c-0.1,0-0.3,0-0.4,0C17,42,17.1,42,17.2,42z" />
			<path class="st1" 
				d="M32.8,42C32.8,42,32.8,42,32.8,42c0.1,0,0.3,0,0.4,0C33,42,32.9,42,32.8,42z" />
			<path class="st2" 
				d="M20.8,10.3c0.2-0.1,0.4-0.3,0.6-0.4c0.8-0.5,1.6-0.7,2.5-0.9c2.1-0.2,3.9,0.3,5.5,1.6c1.2,1.1,2,2.4,2.3,4
			c0.1,0.4,0.1,0.9,0.1,1.3c0,2,0,4,0,6c0,0.5-0.1,1-0.3,1.5c-0.3,0.7-0.9,1.1-1.5,1.4c-0.5,0.2-1,0.3-1.5,0.4
			c-0.3,0-0.6,0.1-0.9,0.1c-0.5,0.1-1.1,0.2-1.6,0.2c-0.3,0-0.6,0.1-1,0.1c-0.5,0-1,0-1.5-0.1c-0.3,0-0.6-0.1-1-0.2c0,0,0,0-0.1,0
			c-0.6-0.2-1.1-0.4-1.5-0.8c-0.4-0.3-0.7-0.8-0.9-1.2c-0.2-0.5-0.3-1-0.3-1.6c0-2.4,0-4.9,0-7.3c0-0.4,0-0.7,0-1.1
			c0-0.2,0-0.3,0.1-0.5c0.1-0.4,0.1-0.7,0.3-1.1c0.1-0.4,0.3-0.8,0.5-1.2C20.7,10.5,20.7,10.5,20.8,10.3
			C20.7,10.4,20.7,10.4,20.8,10.3C20.8,10.3,20.8,10.3,20.8,10.3z M25.5,14.5c0-0.3-0.3-0.7-0.7-0.7c-0.4,0-0.7,0.3-0.7,0.7
			c0,0.4,0.3,0.7,0.7,0.7C25.2,15.2,25.5,14.8,25.5,14.5z M22.8,18c0-0.4-0.3-0.7-0.7-0.7c-0.4,0-0.7,0.3-0.7,0.7
			c0,0.4,0.3,0.7,0.7,0.7C22.5,18.7,22.9,18.4,22.8,18z M28.2,18.2c0-0.4-0.3-0.7-0.7-0.7c-0.4,0-0.7,0.3-0.7,0.7
			c0,0.4,0.3,0.7,0.7,0.7C27.8,18.9,28.2,18.6,28.2,18.2z M24.8,21.8c0-0.4-0.3-0.7-0.7-0.7c-0.4,0-0.7,0.3-0.7,0.7
			c0,0.4,0.3,0.7,0.7,0.7C24.4,22.5,24.8,22.2,24.8,21.8z" />
			<path class="st2" 
				d="M49.1,29.3c0,0.2,0,0.4-0.1,0.6c-0.2,0.7-0.8,1.2-1.5,1.3c-0.1,0-0.2,0-0.3,0c-0.9,0-1.8,0-2.7,0
			c-0.7,0-1.2,0.2-1.7,0.6c-0.4,0.3-0.7,0.7-1,1.1c-0.4,0.6-0.8,1.3-1.1,2c-0.3,0.6-0.5,1.2-0.8,1.8c-0.4,0.8-0.9,1.6-1.5,2.3
			c-0.9,0.9-1.9,1.5-3.2,1.8c-0.8,0.2-1.5,0.2-2.3,0.2c-1.8-0.1-3.4-0.7-4.9-1.8c-0.9-0.7-1.7-1.6-2.2-2.6c-0.3-0.6-0.5-1.3-0.6-2
			c0-0.1,0-0.2,0-0.3c0.1,0,0.2,0,0.3,0c0.8-0.1,1.5-0.3,2.3-0.4c0,0,0.1,0,0.1,0c0,0.1,0,0.2,0,0.3c0.1,0.6,0.3,1.3,0.6,1.9
			c0.3,0.7,0.8,1.2,1.3,1.7c0.2,0.2,0.4,0.3,0.6,0.5c0.7,0.4,1.4,0.6,2.1,0.6c0.3,0,0.6,0,1,0c0.2,0,0.4,0,0.6-0.1
			c0.3,0,0.6-0.1,0.9-0.2c0.4-0.1,0.7-0.3,1.1-0.5c0.4-0.2,0.7-0.5,1.1-0.8c0.2-0.2,0.4-0.4,0.6-0.7c0.3-0.4,0.6-0.8,0.8-1.2
			c0.2-0.4,0.3-0.7,0.5-1.1c0.2-0.4,0.4-0.8,0.6-1.1c0.2-0.3,0.3-0.6,0.5-0.8c0.3-0.5,0.7-1,1.1-1.3c0.2-0.2,0.5-0.3,0.7-0.5
			c0.4-0.2,0.9-0.3,1.3-0.3c1.3,0,2.6,0,3.9,0c0.1,0,0.2,0,0.3,0c0.3,0,0.5-0.2,0.8-0.3c0.1-0.1,0.3-0.2,0.4-0.3
			C49,29.4,49,29.4,49.1,29.3z" />
			<path class="st2" 
				d="M21.9,33.8c0.3,0.1,0.5,0.1,0.8,0.2c0.5,0.1,1.1,0.2,1.7,0.3c0,0,0.1,0,0.1,0c0,0,0,0.1,0,0.1
			c0,0.1,0,0.3,0,0.4c0,0.1,0,0.2,0,0.4c-0.3,1.2-0.8,2.2-1.6,3.1c-1,1.1-2.3,1.9-3.7,2.4C18.6,40.9,18,41,17.4,41
			c-0.4,0-0.9,0.1-1.3,0c-1,0-1.9-0.3-2.8-0.7c-0.7-0.4-1.4-0.9-1.9-1.5c-0.6-0.7-1.1-1.6-1.5-2.5c-0.3-0.7-0.6-1.5-1-2.2
			c-0.3-0.6-0.6-1.2-1.1-1.8c-0.3-0.4-0.6-0.7-1-0.9c-0.4-0.2-0.8-0.3-1.2-0.3c-0.9,0-1.9,0-2.8,0c-0.6,0-1.1-0.3-1.5-0.8
			c-0.2-0.3-0.3-0.6-0.3-0.9c0-0.1,0-0.1,0-0.2c0,0,0,0,0,0c0.1,0.1,0.2,0.2,0.4,0.3C1.7,30,2,30.1,2.5,30.1c1.1,0,2.1,0,3.2,0
			c0.3,0,0.6,0,0.9,0c0.1,0,0.3,0,0.4,0.1c0.5,0.1,1,0.4,1.4,0.7c0.3,0.3,0.6,0.7,0.9,1c0.2,0.4,0.5,0.7,0.7,1.1
			c0.2,0.5,0.5,1,0.7,1.5c0.2,0.4,0.4,0.8,0.6,1.2c0.3,0.5,0.7,1,1.2,1.4c0.3,0.2,0.6,0.5,0.9,0.7c0.3,0.2,0.6,0.4,1,0.5
			c0.4,0.1,0.8,0.2,1.2,0.3c0.3,0,0.5,0.1,0.8,0.1c0.3,0,0.7,0,1,0c0.2,0,0.5-0.1,0.7-0.1c0.5-0.1,1-0.3,1.5-0.6
			c0.3-0.2,0.6-0.5,0.9-0.8c0.3-0.3,0.5-0.7,0.7-1c0.3-0.5,0.5-1,0.6-1.6C21.8,34.3,21.8,34.1,21.9,33.8z" />
			<path class="st2" 
				d="M46.7,23.9c0.1,0,0.1,0,0.1,0c0.1,0.2,0.2,0.4,0.1,0.6c-0.1,0.4-0.3,0.7-0.5,1c-0.1,0.2-0.3,0.3-0.5,0.4
			c-0.4,0.2-0.8,0.3-1.2,0.4c-0.5,0.1-1,0.2-1.4,0.3c-0.3,0.1-0.5,0.2-0.7,0.3c-0.9,0.4-1.6,0.9-2.3,1.6c-0.3,0.3-0.6,0.7-0.8,1.1
			c-0.1,0.2-0.2,0.4-0.3,0.6c-0.5,1.3-1.1,2.5-1.6,3.8c-0.1,0.3-0.3,0.5-0.5,0.8c-0.3,0.5-0.7,0.9-1.1,1.2c-0.6,0.5-1.2,0.8-2,0.9
			c-0.2,0-0.5,0.1-0.7,0c0-0.1,0.1-0.1,0.1-0.2c0.1-0.1,0.2-0.2,0.3-0.4c0.3-0.4,0.5-0.9,0.7-1.4c0.1-0.3,0.2-0.7,0.3-1
			c0.1-0.3,0.1-0.5,0.1-0.8c0-0.2,0.1-0.4,0.1-0.6c0-0.2,0.1-0.4,0.1-0.6c0-0.2,0.1-0.4,0.1-0.6c0-0.2,0.1-0.4,0.1-0.5
			c0-0.2,0.1-0.4,0.1-0.6c0-0.2,0.1-0.4,0.1-0.5c0-0.2,0.1-0.4,0.1-0.5c0-0.2,0.1-0.4,0.1-0.6c0-0.2,0.1-0.4,0.1-0.5
			c0-0.2,0.1-0.4,0.1-0.6c0-0.2,0.1-0.4,0.1-0.6c0-0.2,0.1-0.5,0.1-0.7c0-0.3,0.1-0.5,0.2-0.8c0.2-0.5,0.4-1,0.6-1.4
			c0.3-0.5,0.6-1,1-1.4c0.4-0.5,0.9-0.9,1.4-1.2c0.3-0.2,0.6-0.4,1-0.5c0.4-0.1,0.8-0.2,1.2-0.4c0.6-0.2,1.2-0.4,1.8-0.6
			c0.3-0.1,0.6-0.2,0.9-0.3c0.2-0.1,0.3-0.2,0.4-0.4c0.1,0,0.3-0.1,0.4-0.1c0,0.1,0,0.1,0,0.1c0,0.2,0,0.5-0.1,0.7
			c-0.1,0.3-0.2,0.5-0.4,0.7c-0.1,0.1-0.2,0.1-0.3,0.2c-0.3,0.2-0.6,0.3-1,0.4c-0.7,0.3-1.4,0.5-2.2,0.7c-1,0.3-1.8,0.8-2.5,1.6
			c-0.6,0.7-1,1.5-1.2,2.3c-0.1,0.3-0.1,0.6-0.2,0.9c-0.2,0.9-0.3,1.7-0.5,2.6c-0.1,0.5-0.2,1-0.3,1.6c0,0,0,0.1,0,0.1
			c0,0,0,0,0,0.1c0,0.2-0.1,0.4-0.1,0.6c0,0.2-0.1,0.5-0.1,0.7C36,33,36,33.4,35.9,33.8c0,0.2-0.1,0.3-0.1,0.5
			c0,0.2-0.1,0.5-0.1,0.7c0,0,0,0.1,0,0.1c0,0,0,0,0.1-0.1c0.2-0.3,0.4-0.7,0.6-1c0.3-0.5,0.5-1,0.7-1.5c0.2-0.4,0.3-0.7,0.5-1.1
			c0.1-0.3,0.3-0.6,0.4-0.9c0.2-0.4,0.4-0.8,0.5-1.2c0.1-0.2,0.2-0.4,0.2-0.6c0.1-0.2,0.2-0.4,0.3-0.6c0.2-0.3,0.4-0.6,0.6-0.8
			c0.2-0.3,0.5-0.5,0.8-0.7c0.4-0.3,0.9-0.6,1.4-0.8c0.5-0.2,1-0.4,1.5-0.5c0.5-0.1,1-0.2,1.4-0.3c0.4-0.1,0.8-0.2,1.2-0.4
			c0.3-0.1,0.5-0.3,0.6-0.5C46.7,24,46.7,23.9,46.7,23.9z" />
			<path class="st2" 
				d="M13.6,31.3c-0.1-0.5-0.2-1-0.3-1.5c-0.2-0.8-0.3-1.6-0.5-2.4c-0.1-0.4-0.1-0.8-0.2-1.2
			c-0.2-1-0.6-1.8-1.3-2.5c-0.5-0.5-1.1-1-1.7-1.3c-0.3-0.1-0.6-0.2-0.9-0.3c-0.8-0.2-1.6-0.5-2.4-0.8c-0.2-0.1-0.4-0.2-0.6-0.3
			c-0.4-0.2-0.6-0.5-0.7-0.9c0-0.2,0-0.4,0-0.6c0,0,0-0.1,0-0.1c0.2,0,0.3,0.1,0.4,0.1c0,0.1,0.1,0.2,0.2,0.3C5.8,19.9,6,20,6.2,20
			c0.3,0.1,0.6,0.2,1,0.3c0.5,0.1,1,0.3,1.4,0.4c0.3,0.1,0.7,0.2,1,0.3c0.2,0.1,0.4,0.1,0.6,0.2c0.6,0.3,1.1,0.7,1.6,1.1
			c0.1,0.1,0.2,0.2,0.3,0.4c0.3,0.3,0.5,0.6,0.7,0.9c0.2,0.3,0.4,0.7,0.6,1.1c0.2,0.4,0.3,0.8,0.4,1.2c0.1,0.3,0.1,0.6,0.1,0.9
			c0,0.2,0.1,0.4,0.1,0.6c0,0.2,0.1,0.4,0.1,0.5c0,0.2,0.1,0.4,0.1,0.6c0,0.2,0.1,0.4,0.1,0.6c0,0.2,0.1,0.4,0.1,0.5
			c0,0.2,0.1,0.4,0.1,0.6c0,0.2,0,0.4,0.1,0.6c0,0.2,0.1,0.5,0.1,0.7c0,0.3,0.1,0.6,0.1,0.9c0,0.3,0.1,0.7,0.2,1
			c0.1,0.3,0.1,0.7,0.2,1c0.1,0.6,0.3,1.2,0.6,1.7c0.1,0.2,0.2,0.4,0.4,0.6c0.1,0.1,0.2,0.3,0.3,0.4c-0.8,0-1.6-0.2-2.3-0.7
			c-0.6-0.4-1-0.9-1.4-1.5c-0.3-0.4-0.5-0.9-0.7-1.3c-0.5-1.3-1-2.5-1.6-3.8c-0.1-0.3-0.3-0.5-0.5-0.8c-0.6-0.8-1.4-1.4-2.3-1.8
			c-0.3-0.1-0.6-0.3-0.9-0.4c-0.2-0.1-0.4-0.1-0.6-0.2c-0.4-0.1-0.9-0.2-1.3-0.3c-0.4-0.1-0.8-0.2-1.1-0.5c-0.1-0.1-0.3-0.2-0.4-0.4
			c-0.2-0.3-0.3-0.6-0.4-1c0-0.2,0-0.4,0.1-0.6c0,0,0.1-0.1,0.1,0c0.1,0.2,0.2,0.3,0.3,0.4c0.4,0.3,0.8,0.5,1.3,0.6
			c0.5,0.1,0.9,0.2,1.4,0.3c0.3,0.1,0.7,0.1,1,0.2c0.6,0.2,1.1,0.5,1.7,0.8c0.5,0.3,0.9,0.7,1.3,1.1c0.1,0.1,0.2,0.2,0.3,0.4
			c0.2,0.2,0.4,0.5,0.5,0.8c0.2,0.4,0.3,0.8,0.5,1.1c0.1,0.3,0.3,0.6,0.4,0.8c0.2,0.4,0.3,0.8,0.5,1.2c0.1,0.2,0.2,0.4,0.3,0.6
			c0.2,0.4,0.3,0.8,0.5,1.1c0.2,0.5,0.5,0.9,0.7,1.4c0.1,0.1,0.2,0.3,0.3,0.4c0-0.1,0-0.2,0-0.3c0-0.2-0.1-0.4-0.1-0.7
			c-0.1-0.3-0.1-0.6-0.2-0.9c-0.1-0.6-0.2-1.2-0.3-1.7C13.6,31.4,13.6,31.3,13.6,31.3z" />
			<path class="st2" 
				d="M22.1,29.7C22.1,29.7,22.2,29.7,22.1,29.7c0.8-0.6,1.2-1.2,1.3-2.1c0-0.3,0-0.5,0-0.8c0,0,0,0,0-0.1
			c0.4,0,0.9,0.1,1.3,0.1c0.4,0,0.9,0,1.3-0.1c-0.1,0.9,0.1,1.7,0.6,2.3c0.6,0.7,1.3,1,2.2,1c0,0,0,0.1,0,0.1c0,0.6,0,1.2,0,1.8
			c0,0.2-0.2,0.4-0.4,0.4c-0.2,0-0.5,0.1-0.7,0.2c-0.7,0.2-1.4,0.3-2.1,0.4c-0.4,0.1-0.8,0.1-1.2,0.1c-0.3,0-0.6-0.1-1-0.1
			c-0.6-0.1-1.2-0.2-1.7-0.4c0,0-0.1,0-0.1,0c0-0.1,0-0.2,0-0.4c0-0.2,0.1-0.5,0.1-0.7c0-0.2,0.1-0.5,0.1-0.7c0-0.3,0.1-0.6,0.1-0.9
			C22.1,29.9,22.1,29.8,22.1,29.7z" />
			<path class="st1" 
				d="M20.7,10.4c0,0.1-0.1,0.2-0.1,0.3c-0.2,0.4-0.4,0.8-0.5,1.2c-0.1,0.4-0.2,0.7-0.3,1.1c0,0.2,0,0.3-0.1,0.5
			c0,0.4,0,0.7,0,1.1c0,2.4,0,4.9,0,7.3c0,0.6,0.1,1.1,0.3,1.6c0.2,0.5,0.5,0.9,0.9,1.2c0.4,0.4,0.9,0.6,1.5,0.8c0,0,0,0,0.1,0
			c-0.1,0-0.2,0-0.3,0c-0.2,0-0.4-0.1-0.7-0.1c-0.1,0-0.3,0-0.4,0c-0.5,0-1-0.1-1.4-0.3c-0.5-0.2-1-0.5-1.3-0.9c0,0,0,0,0,0
			c0-0.1,0-0.1-0.1-0.1c0,0,0,0,0,0c0,0,0-0.1,0-0.1c-0.2-0.4-0.4-0.9-0.5-1.4c0,0,0,0,0,0c0-0.1,0-0.1,0-0.2c0-0.8,0-1.7,0-2.5
			c0-1.3,0-2.6,0-3.9c0-0.8,0.2-1.5,0.4-2.2c0.2-0.5,0.4-1,0.7-1.4c0.2-0.3,0.4-0.5,0.6-0.8c0.3-0.4,0.7-0.7,1.1-1
			C20.7,10.4,20.7,10.4,20.7,10.4z" />
			<path class="st1" 
				d="M49.1,29.3c0,0-0.1,0-0.1,0.1c-0.1,0.1-0.2,0.2-0.4,0.3c-0.2,0.2-0.5,0.3-0.8,0.3c-0.1,0-0.2,0-0.3,0
			c-1.3,0-2.6,0-3.9,0c-0.5,0-0.9,0.1-1.3,0.3c-0.3,0.1-0.5,0.3-0.7,0.5c-0.5,0.4-0.8,0.8-1.1,1.3c-0.2,0.3-0.3,0.6-0.5,0.8
			c-0.2,0.4-0.4,0.8-0.6,1.1c-0.2,0.4-0.3,0.7-0.5,1.1c-0.2,0.4-0.5,0.8-0.8,1.2c-0.2,0.2-0.4,0.5-0.6,0.7c-0.3,0.3-0.7,0.5-1.1,0.8
			c-0.3,0.2-0.7,0.3-1.1,0.5c-0.3,0.1-0.6,0.2-0.9,0.2c-0.2,0-0.4,0-0.6,0.1c-0.3,0-0.6,0-1,0c-0.7,0-1.5-0.2-2.1-0.6
			c-0.2-0.1-0.4-0.3-0.6-0.5c-0.6-0.5-1-1.1-1.3-1.7c-0.3-0.6-0.5-1.2-0.6-1.9c0-0.1,0-0.2,0-0.3c0.2-0.1,0.5-0.1,0.7-0.2
			c0.1,0,0.2,0,0.2-0.1c0,0.2,0.1,0.3,0.1,0.4c0.1,0.6,0.3,1.2,0.6,1.8c0.2,0.5,0.5,0.9,0.9,1.2c0.4,0.3,0.8,0.6,1.3,0.7
			c0.3,0.1,0.7,0.2,1,0.2c0.3,0,0.6,0,0.9,0c0.9-0.1,1.8-0.4,2.6-0.9c0.7-0.5,1.2-1.1,1.7-1.8c0.4-0.6,0.7-1.3,1-2
			c0.2-0.5,0.4-1,0.6-1.4c0.3-0.5,0.6-1,1-1.4c0.4-0.3,0.8-0.6,1.2-0.7c0.4-0.2,0.9-0.3,1.4-0.3c0.2,0,0.4,0,0.6,0
			c0.3,0,0.6,0,0.9,0c1.3,0,2.6,0,4,0C49,29.3,49,29.3,49.1,29.3z" />
			<path class="st1" 
				d="M21.9,33.8c0,0.2-0.1,0.4-0.1,0.7c-0.1,0.6-0.3,1.1-0.6,1.6c-0.2,0.4-0.4,0.7-0.7,1c-0.3,0.3-0.6,0.6-0.9,0.8
			c-0.4,0.3-0.9,0.5-1.5,0.6c-0.2,0.1-0.5,0.1-0.7,0.1c-0.3,0-0.7,0-1,0c-0.3,0-0.5-0.1-0.8-0.1c-0.4-0.1-0.8-0.2-1.2-0.3
			c-0.3-0.1-0.7-0.3-1-0.5c-0.3-0.2-0.6-0.4-0.9-0.7c-0.5-0.4-0.8-0.9-1.2-1.4c-0.2-0.4-0.4-0.8-0.6-1.2c-0.2-0.5-0.5-1-0.7-1.5
			c-0.2-0.4-0.4-0.8-0.7-1.1c-0.3-0.4-0.6-0.7-0.9-1C8,30.5,7.5,30.3,7,30.2c-0.1,0-0.3,0-0.4-0.1c-0.3,0-0.6,0-0.9,0
			c-1.1,0-2.1,0-3.2,0c-0.4,0-0.8-0.1-1.1-0.4c-0.1-0.1-0.2-0.2-0.4-0.3c0,0,0,0,0,0c0,0,0.1-0.1,0.1-0.1c0,0,0,0,0.1,0
			c1.5,0,3.1,0,4.6,0c0.7,0,1.4,0.1,2.1,0.3c0.5,0.2,1,0.4,1.4,0.8c0.5,0.4,0.9,1,1.2,1.6c0.2,0.4,0.4,0.9,0.6,1.3
			c0.3,0.7,0.6,1.3,1,1.9c0.3,0.5,0.7,1,1.2,1.4c0.7,0.6,1.5,1.1,2.5,1.2c0.4,0.1,0.9,0.1,1.3,0.1c0.5,0,1-0.1,1.4-0.3
			c0.6-0.2,1-0.6,1.4-1.1c0.4-0.5,0.7-1.2,0.9-1.8c0.1-0.3,0.2-0.7,0.3-1.1c0.1,0,0.2,0.1,0.4,0.1C21.5,33.8,21.7,33.8,21.9,33.8z" />
			<path class="st1" 
				d="M16.5,37c-0.1-0.1-0.2-0.3-0.3-0.4c-0.2-0.2-0.3-0.4-0.4-0.6c-0.3-0.5-0.5-1.1-0.6-1.7
			c-0.1-0.3-0.1-0.7-0.2-1c-0.1-0.3-0.1-0.7-0.2-1c0-0.3-0.1-0.6-0.1-0.9c0-0.2-0.1-0.5-0.1-0.7c0-0.2,0-0.4-0.1-0.6
			c0-0.2-0.1-0.4-0.1-0.6c0-0.2-0.1-0.4-0.1-0.5c0-0.2-0.1-0.4-0.1-0.6c0-0.2-0.1-0.4-0.1-0.6c0-0.2-0.1-0.4-0.1-0.5
			c0-0.2-0.1-0.4-0.1-0.6c0-0.3-0.1-0.6-0.1-0.9c-0.1-0.4-0.3-0.8-0.4-1.2c-0.2-0.4-0.4-0.7-0.6-1.1c-0.2-0.3-0.4-0.6-0.7-0.9
			c-0.1-0.1-0.2-0.2-0.3-0.4c-0.5-0.5-1-0.8-1.6-1.1c-0.2-0.1-0.4-0.1-0.6-0.2c-0.3-0.1-0.7-0.2-1-0.3c-0.5-0.1-1-0.3-1.4-0.4
			c-0.3-0.1-0.6-0.2-1-0.3C6,20,5.8,19.9,5.7,19.8c-0.1-0.1-0.2-0.2-0.2-0.3c0.2,0,0.4,0.1,0.6,0.1c1.2,0.3,2.3,0.6,3.5,0.9
			c0.9,0.2,1.7,0.6,2.5,1.2c0.5,0.4,0.9,0.8,1.3,1.3c0.6,0.8,1,1.6,1.3,2.6c0.2,0.5,0.3,1,0.4,1.6c0,0.3,0.1,0.6,0.1,0.9
			c0,0.4,0.1,0.7,0.2,1.1c0,0.3,0.1,0.5,0.1,0.8c0,0.3,0.1,0.6,0.1,1c0,0.3,0.1,0.6,0.1,0.9c0,0.3,0.1,0.6,0.1,1
			c0,0.3,0.1,0.6,0.1,0.9c0.1,0.6,0.2,1.3,0.5,1.8c0.2,0.4,0.5,0.8,0.9,1.1c0.1,0.1,0.3,0.2,0.4,0.2C17.6,36.9,17,37,16.5,37z" />
			<path class="st1" 
				d="M44.6,19.5c-0.1,0.2-0.3,0.3-0.4,0.4c-0.3,0.2-0.6,0.2-0.9,0.3c-0.6,0.2-1.2,0.4-1.8,0.6
			c-0.4,0.1-0.8,0.2-1.2,0.4c-0.3,0.1-0.7,0.3-1,0.5c-0.5,0.3-1,0.7-1.4,1.2c-0.4,0.4-0.7,0.9-1,1.4c-0.3,0.5-0.5,0.9-0.6,1.4
			c-0.1,0.3-0.1,0.5-0.2,0.8c0,0.2-0.1,0.5-0.1,0.7c0,0.2-0.1,0.4-0.1,0.6c0,0.2-0.1,0.4-0.1,0.6c0,0.2-0.1,0.4-0.1,0.5
			c0,0.2-0.1,0.4-0.1,0.6c0,0.2-0.1,0.4-0.1,0.5c0,0.2-0.1,0.4-0.1,0.5c0,0.2-0.1,0.4-0.1,0.6c0,0.2-0.1,0.4-0.1,0.5
			c0,0.2-0.1,0.4-0.1,0.6c0,0.2-0.1,0.4-0.1,0.6c0,0.2,0,0.4-0.1,0.6c0,0.3-0.1,0.5-0.1,0.8c-0.1,0.3-0.2,0.7-0.3,1
			c-0.2,0.5-0.4,0.9-0.7,1.4c-0.1,0.1-0.2,0.2-0.3,0.4c0,0.1-0.1,0.1-0.1,0.2c-0.4,0-0.8,0-1.2-0.2c0.1-0.1,0.2-0.1,0.4-0.2
			c0.3-0.2,0.5-0.4,0.7-0.7c0.3-0.4,0.5-0.9,0.6-1.4c0.1-0.3,0.1-0.7,0.2-1.1c0-0.3,0.1-0.6,0.1-0.9c0-0.3,0.1-0.5,0.1-0.8
			c0-0.3,0.1-0.6,0.1-0.9c0-0.3,0.1-0.5,0.1-0.8c0-0.3,0.1-0.6,0.1-1c0-0.3,0.1-0.5,0.1-0.8c0-0.3,0.1-0.6,0.1-0.9
			c0-0.3,0.1-0.7,0.2-1c0.2-0.8,0.4-1.6,0.8-2.3c0.3-0.5,0.6-1,0.9-1.5c0.5-0.6,1-1.1,1.7-1.4c0.7-0.4,1.4-0.7,2.2-0.9
			c0.8-0.2,1.5-0.4,2.3-0.6C43.5,19.7,44,19.6,44.6,19.5C44.5,19.5,44.5,19.5,44.6,19.5z" />
			<path class="st1" 
				d="M46.7,23.9c0,0,0,0.1-0.1,0.1c-0.2,0.2-0.4,0.4-0.6,0.5c-0.4,0.2-0.8,0.3-1.2,0.4c-0.5,0.1-1,0.2-1.4,0.3
			c-0.5,0.1-1,0.3-1.5,0.5c-0.5,0.2-1,0.5-1.4,0.8c-0.3,0.2-0.5,0.4-0.8,0.7c-0.2,0.3-0.5,0.5-0.6,0.8c-0.1,0.2-0.2,0.4-0.3,0.6
			c-0.1,0.2-0.2,0.4-0.2,0.6c-0.2,0.4-0.4,0.8-0.5,1.2c-0.1,0.3-0.3,0.6-0.4,0.9c-0.2,0.4-0.3,0.7-0.5,1.1c-0.2,0.5-0.5,1-0.7,1.5
			c-0.2,0.3-0.4,0.7-0.6,1c0,0,0,0-0.1,0.1c0,0,0-0.1,0-0.1c0-0.2,0.1-0.5,0.1-0.7c0-0.2,0.1-0.3,0.1-0.5c0.1-0.4,0.2-0.8,0.2-1.2
			c0-0.2,0.1-0.5,0.1-0.7c0-0.2,0.1-0.4,0.1-0.6c0,0,0,0,0-0.1c0,0,0.1-0.1,0.1-0.1c0.3-0.5,0.5-1.1,0.8-1.6
			c0.2-0.4,0.4-0.8,0.6-1.2c0.2-0.4,0.5-0.8,0.8-1.2c0.4-0.5,0.9-0.9,1.4-1.2c0.6-0.4,1.2-0.6,1.8-0.8c0.4-0.1,0.9-0.2,1.3-0.3
			C44.4,24.5,45.5,24.2,46.7,23.9C46.6,23.9,46.7,23.9,46.7,23.9z" />
			<path class="st1" 
				d="M13.6,31.3c0,0.1,0,0.1,0,0.2c0.1,0.6,0.2,1.2,0.3,1.7c0.1,0.3,0.1,0.6,0.2,0.9c0,0.2,0.1,0.4,0.1,0.7
			c0,0.1,0,0.2,0,0.3c-0.1-0.1-0.2-0.3-0.3-0.4c-0.3-0.4-0.5-0.9-0.7-1.4c-0.2-0.4-0.3-0.7-0.5-1.1c-0.1-0.2-0.2-0.4-0.3-0.6
			c-0.2-0.4-0.3-0.8-0.5-1.2c-0.1-0.3-0.3-0.6-0.4-0.8c-0.2-0.4-0.3-0.8-0.5-1.1c-0.1-0.3-0.3-0.5-0.5-0.8c-0.1-0.1-0.2-0.3-0.3-0.4
			c-0.4-0.4-0.8-0.8-1.3-1.1c-0.5-0.3-1.1-0.6-1.7-0.8c-0.3-0.1-0.7-0.2-1-0.2c-0.5-0.1-0.9-0.2-1.4-0.3c-0.5-0.1-0.9-0.3-1.3-0.6
			c-0.1-0.1-0.3-0.2-0.3-0.4c0.1,0,0.2,0,0.3,0.1c0.8,0.2,1.7,0.4,2.5,0.6c0.6,0.1,1.1,0.3,1.7,0.4c0.8,0.2,1.5,0.5,2.2,1
			c0.5,0.4,1,0.8,1.4,1.3c0.4,0.4,0.6,0.9,0.9,1.4c0.3,0.7,0.7,1.3,1,2C13.4,30.9,13.5,31,13.6,31.3C13.6,31.2,13.6,31.3,13.6,31.3z
			" />
			<path class="st1" 
				d="M22.1,29.7c0,0.1,0,0.2,0,0.2c0,0.3-0.1,0.6-0.1,0.9c0,0.2-0.1,0.5-0.1,0.7c0,0.2-0.1,0.5-0.1,0.7
			c0,0.1,0,0.2,0,0.4c-0.2,0-0.3-0.1-0.5-0.1c0,0-0.1,0-0.1,0c-0.2,0-0.3-0.2-0.3-0.4c0-0.6,0-1.3,0-1.9c0,0,0,0,0-0.1
			c0.1,0,0.2,0,0.3,0C21.4,30.1,21.7,29.9,22.1,29.7C22.1,29.8,22.1,29.7,22.1,29.7z" />
			<path class="st2" 
				d="M17.8,22.4C17.8,22.4,17.9,22.4,17.8,22.4c0.1,0.5,0.2,0.9,0.5,1.4c0,0,0,0.1,0,0.1c-0.1-0.1-0.2-0.3-0.3-0.5
			C17.9,23.1,17.8,22.7,17.8,22.4z" />
			<path class="st2" 
				d="M18.4,23.9c0.1,0,0.1,0.1,0.1,0.1C18.4,24,18.4,23.9,18.4,23.9z" />
			<path class="st1" 
				d="M20.8,10.3C20.8,10.3,20.8,10.3,20.8,10.3C20.8,10.3,20.8,10.3,20.8,10.3z" />
			<path class="st3" 
				d="M38.3,26.2C38.3,26.2,38.3,26.2,38.3,26.2C38.3,26.2,38.3,26.2,38.3,26.2C38.3,26.2,38.3,26.2,38.3,26.2
			C38.3,26.2,38.3,26.2,38.3,26.2z" />
			<path class="st1" 
				d="M25.5,14.5c0,0.4-0.3,0.7-0.7,0.7c-0.4,0-0.7-0.3-0.7-0.7c0-0.4,0.3-0.7,0.7-0.7
			C25.3,13.8,25.5,14.2,25.5,14.5z" />
			<path class="st1" 
				d="M22.8,18c0,0.4-0.3,0.7-0.7,0.7c-0.4,0-0.7-0.3-0.7-0.7c0-0.4,0.3-0.7,0.7-0.7C22.5,17.3,22.9,17.6,22.8,18z" />
			<path class="st1" 
				d="M28.2,18.2c0,0.4-0.3,0.7-0.7,0.7c-0.4,0-0.7-0.3-0.7-0.7c0-0.4,0.3-0.7,0.7-0.7
			C27.9,17.5,28.2,17.8,28.2,18.2z" />
			<path class="st1" 
				d="M24.8,21.8c0,0.4-0.3,0.7-0.7,0.7c-0.4,0-0.7-0.3-0.7-0.7c0-0.4,0.3-0.7,0.7-0.7
			C24.5,21.1,24.8,21.4,24.8,21.8z" />
			<path class="st0" 
				d="M21.3,27.3c0,0.4-0.3,0.7-0.7,0.7c-0.4,0-0.7-0.3-0.7-0.7c0-0.4,0.3-0.7,0.7-0.7C21,26.6,21.3,26.9,21.3,27.3
			z" />
			<path class="st0" 
				d="M29.6,27.3c0,0.4-0.3,0.7-0.7,0.7c-0.4,0-0.7-0.3-0.7-0.7c0-0.4,0.3-0.7,0.7-0.7
			C29.3,26.6,29.6,26.9,29.6,27.3z" />
		</g>
	</g>
</svg>
