<svg height="50" 
	width="50" 
	viewBox="0 0 50 50" 
	xmlns="http://www.w3.org/2000/svg">
	<style type="text/css">
	.st0{fill:#F5BB60;}
	.st1{fill:#E86F32;}
	.st2{fill:#E53D42;}
	.st3{fill:#BFD141;}
	.st4{fill:#6DB64C;}
	.st5{fill:#AFDBE7;}
	.st6{fill:#57BADF;}
	.st7{fill:#02B2D6;}
	.st8{fill:url(#SVGID_1_);}
	.st9{fill:#231F20;}
	.st10{fill:#FFFFFF;}
	</style>
	<g>
		<circle class="st0" 
			cx="25" 
			cy="25" 
			r="25" />
		<circle class="st1" 
			cx="22.5" 
			cy="22.5" 
			r="22.5" />
		<circle class="st2" 
			cx="25.5" 
			cy="19.5" 
			r="19.5" />
		<circle class="st3" 
			cx="27" 
			cy="21.1" 
			r="17.9" />
		<circle class="st4" 
			cx="25.7" 
			cy="22.4" 
			r="16.6" />
		<circle class="st5" 
			cx="23.1" 
			cy="19.8" 
			r="14" />
		<circle class="st6" 
			cx="25.4" 
			cy="17.4" 
			r="11.7" />
		<circle class="st7" 
			cx="26.8" 
			cy="18.9" 
			r="10.3" />

		<radialGradient id="SVGID_1_" 
			cx="-0.5941" 
			cy="50.2805" 
			r="1.006004e-02" 
			gradientTransform="matrix(874.375 0 0 -874.375 544.8104 43984.3633)" 
			gradientUnits="userSpaceOnUse">
			<stop offset="0" 
				style="stop-color:#797979" />
			<stop offset="1" 
				style="stop-color:#4C4C4C" />
		</radialGradient>
		<circle class="st8" 
			cx="25.3" 
			cy="20.4" 
			r="8.8" />
		<circle class="st9" 
			cx="25.3" 
			cy="20.4" 
			r="8.8" />
		<path class="st10" 
			d="M27.6,19.2c0.9,0.4,2.1-0.4,2.7-1.8c0.6-1.4,0.4-2.8-0.5-3.2c-0.9-0.4-2.1,0.4-2.7,1.8
		C26.5,17.4,26.7,18.8,27.6,19.2L27.6,19.2z" />
	</g>
</svg>
