<svg height="50" 
	width="50" 
	viewBox="0 0 50 50" 
	xmlns="http://www.w3.org/2000/svg">
	<style type="text/css">
	.st0{fill:#8ED6FB;}
	.st1{fill:#1C78C0;}
	</style>
	<g>
		<path class="st0" 
			d="M46.2,38.5L25.9,50v-8.9l12.6-6.9L46.2,38.5z M47.5,37.3v-24l-7.4,4.3V33L47.5,37.3L47.5,37.3z M3.9,38.5
		L24.1,50v-8.9l-12.6-6.9L3.9,38.5L3.9,38.5z M2.5,37.3v-24l7.4,4.3V33L2.5,37.3L2.5,37.3z M3.3,11.8L24.1,0v8.6L10.8,16L10.7,16
		L3.3,11.8z M46.7,11.8L25.9,0v8.6L39.2,16l0.1,0.1L46.7,11.8z" />
		<path class="st1" 
			d="M24.1,39l-12.4-6.8V18.6l12.4,7.2V39 M25.9,39l12.4-6.8V18.6l-12.4,7.2V39 M12.5,17.1L25,10.2l12.5,6.9
		L25,24.3L12.5,17.1" />
	</g>
</svg>
