<svg height="50" 
	width="50" 
	viewBox="0 0 50 50" 
	xmlns="http://www.w3.org/2000/svg">
	<g>
		<path d="M25.3,48.7c5.5-19.6,5.3-19.6,9.3-33.6l1,0.6c0.5,0.3,0.9,0.1,0.9-0.5V8.5c1.1-3.7,1.9-6.5,2.1-7.4h4.3L50,7.7l-4.7,4
		l3.5,3.8L25.6,48.7C25.5,48.9,25.3,48.9,25.3,48.7L25.3,48.7z M27.9,6.6c0.2,0,0.4,0.1,0.4,0.3v3.4c0,0.1-0.2,0.3-0.4,0.3h-5.8
		c-0.2,0-0.4-0.1-0.4-0.3V6.8c0-0.1,0.2-0.3,0.4-0.3L27.9,6.6L27.9,6.6L27.9,6.6z M35,2.8l-6.3,3.7c0.1,0.1,0.1,0.2,0.1,0.4v3.4
		c0,0.2-0.1,0.3-0.2,0.5l6.4,3.7c0.4,0.3,0.8,0,0.8-0.5V3.3C35.8,2.8,35.4,2.6,35,2.8L35,2.8z M21.2,10.3V6.8c0-0.1,0-0.3,0.1-0.4
		L15,2.8c-0.4-0.2-0.8,0-0.8,0.5v10.7c0,0.5,0.4,0.7,0.8,0.5l6.4-3.7C21.3,10.6,21.3,10.4,21.2,10.3L21.2,10.3L21.2,10.3z
		 M24.4,48.7h0.2c-5.5-19.6-5.3-19.6-9.3-33.6l-1,0.6c-0.5,0.3-0.9,0.1-0.9-0.5V8.5c-1.1-3.7-1.9-6.5-2.1-7.4H7.1L0,7.7l4.7,4
		l-3.5,3.8L24.4,48.7L24.4,48.7z M24.8,17.6c1,0,1.7-0.8,1.7-1.7s-0.8-1.7-1.7-1.7c-1,0-1.7,0.8-1.7,1.7S23.9,17.6,24.8,17.6
		L24.8,17.6z M24.8,27.9c1,0,1.7-0.8,1.7-1.7s-0.8-1.7-1.7-1.7c-1,0-1.7,0.8-1.7,1.7S23.9,27.9,24.8,27.9L24.8,27.9z M24.8,38.2
		c1,0,1.7-0.8,1.7-1.7c0-1-0.8-1.7-1.7-1.7c-1,0-1.7,0.8-1.7,1.7C23.1,37.4,23.9,38.2,24.8,38.2L24.8,38.2z" />
	</g>
</svg>
