<svg height="50" 
	width="50" 
	viewBox="0 0 50 50" 
	xmlns="http://www.w3.org/2000/svg">
	<style type="text/css">
	.st0{fill:#E44D26;}
	.st1{fill:#F16529;}
	.st2{fill:#EBEBEB;}
	.st3{fill:#FFFFFF;}
	</style>
	<g>
		<path class="st0" 
			d="M42.7,9.8L39.5,46L25,50l-14.5-4L7.3,9.8H42.7L42.7,9.8z" />
		<path class="st1" 
			d="M25,46.9l11.7-3.2l2.8-30.9H25V46.9z" />
		<path class="st2" 
			d="M18.7,21.7H25v-4.5H13.9l0.1,1.2l1.1,12.2H25v-4.4h-5.9L18.7,21.7z M19.7,32.8h-4.5l0.6,7l9.1,2.5l0,0v-4.6
		l0,0L20,36.4L19.7,32.8L19.7,32.8z" />
		<path d="M10.6,0h2.2v2.2h2.1V0h2.2v6.7h-2.2V4.5h-2.1v2.3h-2.2L10.6,0L10.6,0z M20.1,2.2h-2V0h6.2v2.2h-2v4.5h-2.2L20.1,2.2
		L20.1,2.2L20.1,2.2z M25.3,0h2.4l1.4,2.4L30.6,0h2.4v6.7h-2.2V3.4l-1.6,2.4h0l-1.6-2.4v3.3h-2.2V0z M34.1,0h2.3v4.5h3.1v2.2H34
		L34.1,0L34.1,0z" />
		<path class="st3" 
			d="M25,30.6h5.5l-0.5,5.8l-5,1.3v4.6l9.1-2.5l0.1-0.7l1-11.7l0.1-1.2H25V30.6L25,30.6z M25,21.6L25,21.6l10.7,0
		l0.1-1l0.2-2.2l0.1-1.2H25V21.6L25,21.6z" />
	</g>
</svg>
