<svg height="50" 
	width="50" 
	viewBox="0 0 50 50" 
	xmlns="http://www.w3.org/2000/svg">
	<style type="text/css">
	.st0{fill:#007ACC;}
	</style>
	<path class="st0" 
		d="M0,0v25v25h50V0H0z M28.6,27.1h-6.5v18.5h-4.6V27.1H11v-2l0,0V23l8.8,0c4.8,0,8.8,0,8.8,0.1c0,0,0,0.9,0,2.1
	V27.1z M45.5,41.8c-0.8,2.1-2.8,3.5-5.5,4c-0.9,0.2-2.9,0.1-3.8,0c-2-0.4-3.9-1.4-5.1-2.7c-0.5-0.5-1.3-1.8-1.3-1.9l0.5-0.3l1.9-1.1
	l1.4-0.8l0.3,0.4c0.4,0.6,1.3,1.5,1.9,1.8c1.6,0.8,3.8,0.7,4.9-0.3c0.5-0.4,0.7-0.9,0.7-1.5c0-0.6-0.1-0.8-0.4-1.3
	c-0.4-0.5-1.2-1-3.5-2c-2.6-1.1-3.7-1.8-4.7-2.9c-0.6-0.7-1.1-1.7-1.4-2.5c-0.2-0.7-0.3-2.5-0.1-3.2c0.5-2.5,2.4-4.3,5.1-4.8
	c0.9-0.2,2.9-0.1,3.8,0.1l0,0c1.3,0.3,2.3,0.9,3.1,1.8c0.5,0.5,1.2,1.4,1.2,1.6c0,0.1-2.2,1.5-3.5,2.4c0,0-0.3-0.2-0.4-0.5
	c-0.7-0.9-1.3-1.3-2.4-1.4c-1.5-0.1-2.5,0.7-2.5,2c0,0.4,0.1,0.6,0.2,1c0.3,0.7,1,1.1,2.9,2c3.6,1.5,5.1,2.5,6.1,4
	C46,37.4,46.2,39.9,45.5,41.8z" />
</svg>
