<svg height="50" 
	width="50" 
	viewBox="0 0 50 50" 
	xmlns="http://www.w3.org/2000/svg">
	<style type="text/css">
	.st0{fill:#0B63CE;}
	.st1{fill:#FFFFFF;}
	</style>
	<path class="st0" 
		d="M0,3.7C0,1.6,1.7,0,3.7,0h42.6C48.4,0,50,1.7,50,3.7v42.6c0,2.1-1.7,3.7-3.7,3.7H3.7C1.6,50,0,48.3,0,46.3
	C0,46.3,0,3.7,0,3.7z" />
	<path class="st1" 
		d="M7.4,8.3c0-0.5,0.4-0.9,0.9-0.9h5.6c0.5,0,0.9,0.4,0.9,0.9v5.6c0,0.5-0.4,0.9-0.9,0.9H8.3
	c-0.5,0-0.9-0.4-0.9-0.9V8.3z" />
	<path class="st1" 
		d="M17.6,7.4c-0.5,0-0.9,0.4-0.9,0.9v5.6c0,0.5,0.4,0.9,0.9,0.9h5.6c0.5,0,0.9-0.4,0.9-0.9V8.3
	c0-0.5-0.4-0.9-0.9-0.9H17.6z" />
	<path class="st1" 
		d="M25.9,8.3c0-0.5,0.4-0.9,0.9-0.9h5.6c0.5,0,0.9,0.4,0.9,0.9v5.6c0,0.5-0.4,0.9-0.9,0.9h-5.6
	c-0.5,0-0.9-0.4-0.9-0.9V8.3z" />
	<path class="st1" 
		d="M8.3,16.7c-0.5,0-0.9,0.4-0.9,0.9v5.6c0,0.5,0.4,0.9,0.9,0.9h5.6c0.5,0,0.9-0.4,0.9-0.9v-5.6
	c0-0.5-0.4-0.9-0.9-0.9H8.3z" />
	<path class="st1" 
		d="M16.7,17.6c0-0.5,0.4-0.9,0.9-0.9h5.6c0.5,0,0.9,0.4,0.9,0.9v5.6c0,0.5-0.4,0.9-0.9,0.9h-5.6
	c-0.5,0-0.9-0.4-0.9-0.9V17.6z" />
	<path class="st1" 
		d="M36.1,16.7c-0.5,0-0.9,0.4-0.9,0.9v5.6c0,0.5,0.4,0.9,0.9,0.9h5.6c0.5,0,0.9-0.4,0.9-0.9v-5.6
	c0-0.5-0.4-0.9-0.9-0.9H36.1z" />
	<path class="st1" 
		d="M7.4,26.9c0-0.5,0.4-0.9,0.9-0.9h5.6c0.5,0,0.9,0.4,0.9,0.9v5.6c0,0.5-0.4,0.9-0.9,0.9H8.3
	c-0.5,0-0.9-0.4-0.9-0.9V26.9z" />
	<path class="st1" 
		d="M26.9,25.9c-0.5,0-0.9,0.4-0.9,0.9v5.6c0,0.5,0.4,0.9,0.9,0.9h5.6c0.5,0,0.9-0.4,0.9-0.9v-5.6
	c0-0.5-0.4-0.9-0.9-0.9H26.9z" />
	<path class="st1" 
		d="M35.2,26.9c0-0.5,0.4-0.9,0.9-0.9h5.6c0.5,0,0.9,0.4,0.9,0.9v5.6c0,0.5-0.4,0.9-0.9,0.9h-5.6
	c-0.5,0-0.9-0.4-0.9-0.9V26.9z" />
	<path class="st1" 
		d="M17.6,35.2c-0.5,0-0.9,0.4-0.9,0.9v5.6c0,0.5,0.4,0.9,0.9,0.9h5.6c0.5,0,0.9-0.4,0.9-0.9v-5.6
	c0-0.5-0.4-0.9-0.9-0.9H17.6z" />
	<path class="st1" 
		d="M25.9,36.1c0-0.5,0.4-0.9,0.9-0.9h5.6c0.5,0,0.9,0.4,0.9,0.9v5.6c0,0.5-0.4,0.9-0.9,0.9h-5.6
	c-0.5,0-0.9-0.4-0.9-0.9V36.1z" />
	<path class="st1" 
		d="M36.1,35.2c-0.5,0-0.9,0.4-0.9,0.9v5.6c0,0.5,0.4,0.9,0.9,0.9h5.6c0.5,0,0.9-0.4,0.9-0.9v-5.6
	c0-0.5-0.4-0.9-0.9-0.9H36.1z" />
</svg>
