<svg height="50" 
	width="50" 
	viewBox="0 0 50 50" 
	xmlns="http://www.w3.org/2000/svg">
	<style type="text/css">
	.st0{fill:#809CC8;}
	</style>
	<g>
		<path class="st0" 
			d="M0,6.9V20c6.8-2.8,15.8-5.6,27.1-8.5c7.3-1.8,14.3-3.4,21.1-4.6H0z M50,9.7c-6.6,1-12.5,2.1-17.7,3.4
		c-6,1.5-10.7,3-14.4,4.5c-3.6,1.5-5.3,2.7-5.1,3.7c0.2,0.8,1.7,1.2,4.6,1.1c1.5,0,3.8-0.2,7.1-0.5s7.5-0.7,12.7-1.3
		c5.1-0.5,9.4-0.9,12.8-1.1V9.7L50,9.7z M35.4,26.3c-1.5,0-3.5,0.1-6,0.3c-2.6,0.2-5.8,0.5-9.6,0.9c-5.9,0.6-10.9,1.1-14.8,1.5
		c-1.9,0.2-3.5,0.3-4.9,0.3v10.6c7.8-1.1,14.8-2.5,21.1-4.1c6.2-1.5,10.9-3.1,14.2-4.5c3.3-1.5,4.9-2.7,4.6-3.7
		C39.8,26.8,38.2,26.3,35.4,26.3L35.4,26.3z M50,30.1c-6.8,2.7-15.3,5.3-25.5,7.9C15.1,40.3,6.9,42,0,43v0.1h50V30.1L50,30.1z
		 M2.1,32.3C2.1,32.3,2.1,32.3,2.1,32.3c0.2,0,0.3,0,0.4,0.1c0.1,0.1,0.2,0.4,0.1,0.5c-0.1,0.2-0.3,0.3-0.5,0.3
		c-0.2,0-0.4-0.3-0.4-0.5C1.7,32.5,1.9,32.3,2.1,32.3z M3.9,32.3c0.1,0,0.2,0,0.3,0.1c0.2,0.1,0.2,0.4,0.1,0.5
		c-0.1,0.2-0.3,0.3-0.5,0.3c-0.2,0-0.4-0.1-0.4-0.3c-0.1-0.2,0-0.5,0.2-0.6C3.7,32.3,3.8,32.3,3.9,32.3L3.9,32.3z M2.2,35.4
		c0.2,0,0.4,0.1,0.5,0.3c0.1,0.2,0,0.5-0.2,0.6c-0.2,0.1-0.5,0-0.6-0.2c-0.1-0.2-0.1-0.5,0.1-0.6C1.9,35.5,2,35.4,2.2,35.4L2.2,35.4
		z M3.9,35.4c0.2,0,0.3,0.1,0.4,0.2c0.1,0.2,0.1,0.5-0.1,0.6c-0.2,0.2-0.5,0.1-0.7-0.1c-0.2-0.2-0.2-0.5,0.1-0.7
		C3.6,35.4,3.7,35.4,3.9,35.4L3.9,35.4z" />
	</g>
</svg>
