<svg height="50" 
	width="50" 
	viewBox="0 0 50 50" 
	xmlns="http://www.w3.org/2000/svg">
	<style type="text/css">
	.st0{fill:#FB7418;}
	.st1{fill:#F8DAC5;}
	</style>
	<g>
		<g>
			<path class="st0" 
				d="M0,25C0,11.1,11.2,0,25,0c13.8,0,25,11.2,25,25c0,13.8-11.3,25-25.1,25C11.1,49.9,0,38.8,0,25z M2.6,25
			c0,12.3,9.9,22.4,22.3,22.4c12.4,0.1,22.5-9.9,22.6-22.3c0-12.4-10-22.5-22.3-22.5C12.7,2.6,2.6,12.6,2.6,25z" />
			<path class="st1" 
				d="M20,12.4c2.4-4.1,7.7-3.9,9.9,0c5.1-1.8,9.5,2.9,7.7,7.7c4,2.3,3.9,7.7,0,9.9c0.8,2.4,0.5,4.6-1.3,6.4
			c-1.8,1.8-4,2.1-6.4,1.3c-2.2,3.9-7.5,4.1-9.9,0c-2.4,0.8-4.6,0.5-6.4-1.3c-1.8-1.8-2.1-4-1.3-6.4c-4-2.3-4-7.6,0-9.9
			C10.6,15,15.2,10.6,20,12.4z M20.4,14.5c-0.2,3.8-2.2,5.7-6,6c1.4,1.3,2.1,2.8,2.1,4.6c0,1.8-0.8,3.3-2.1,4.6c3.8,0.2,5.8,2.2,6,6
			c1.3-1.4,2.8-2.1,4.6-2.1c1.8,0,3.3,0.8,4.6,2.1c0.2-3.8,2.2-5.8,6-6c-1.4-1.3-2.2-2.8-2.2-4.6c0-1.8,0.8-3.3,2.2-4.6
			c-1.8,0-3.2-0.5-4.4-1.7c-1.2-1.2-1.6-2.6-1.6-4.3C25.8,17.3,24.3,17.3,20.4,14.5z M29.2,12.7c-1-1.8-2.5-2.7-4.5-2.5
			c-1.7,0.1-3,1-3.8,2.5c0.5,0.4,1,0.8,1.4,1.2c1.2,0.9,2.5,1.2,3.9,0.8C27.4,14.5,28.2,13.4,29.2,12.7z M37.3,29.2
			c1.7-1,2.6-2.4,2.5-4.4c-0.1-1.8-1-3.1-2.6-4c-0.4,0.5-0.8,0.9-1.2,1.4c-1.3,1.6-1.4,3.9-0.1,5.4C36.4,28.2,36.8,28.7,37.3,29.2z
			 M29.2,37.3c-0.5-0.5-1-0.9-1.5-1.3c-1.5-1.2-3.7-1.3-5.3-0.1c-0.5,0.4-1,0.9-1.6,1.4c0.9,1.5,2.2,2.4,3.9,2.5
			C26.7,39.9,28.2,39,29.2,37.3z M12.7,20.8c-1.7,1-2.6,2.4-2.5,4.4c0.1,1.8,1,3.1,2.5,4c0.4-0.5,0.8-1,1.2-1.4
			c1.4-1.7,1.3-3.9,0-5.6C13.5,21.8,13.1,21.3,12.7,20.8z M30.4,36.1c1.8,0.7,3.6,0.3,4.8-1c1-1.1,1.7-3.1,0.8-4.7
			C32.3,30.2,30.2,32.8,30.4,36.1z M36.1,19.6c0.9-1.8,0.2-3.9-1.1-5c-1.1-0.9-3.2-1.5-4.6-0.6C30.2,17.2,32.1,19.7,36.1,19.6z
			 M19.6,36c0.1-4.2-2.7-5.8-5.7-5.6c-0.7,1.7-0.4,3.5,0.9,4.8C15.9,36.4,18,36.9,19.6,36z M19.6,14c-1.5-0.8-3.7-0.4-4.9,0.9
			c-1.2,1.3-1.5,3.2-0.7,4.7C17.4,19.7,19.7,17.7,19.6,14z" />
		</g>
	</g>
</svg>
