<svg height="50" 
	width="50" 
	viewBox="0 0 50 50" 
	xmlns="http://www.w3.org/2000/svg">
	<style type="text/css">
	.st0{fill:#222222;}
	</style>
	<g>
		<path class="st0" 
			d="M0.3,29.1v-5.6h6.9v-0.3H0.3v-5.1h7.4v-0.3H0v11.6h7.8v-0.3H0.3L0.3,29.1z M14.1,21l-2.9,3.8L8.4,21H7.9l3,4
		l-3.3,4.3H8l3.1-4.1l3.2,4.1h0.4L11.4,25l3.1-4L14.1,21L14.1,21z M15.7,32.2V27h0c0.2,0.8,0.6,1.4,1.2,1.8c0.6,0.5,1.3,0.7,2.2,0.7
		c0.6,0,1.1-0.1,1.5-0.4s0.8-0.6,1.1-1c0.3-0.4,0.5-0.9,0.7-1.4c0.2-0.5,0.2-1.1,0.2-1.7c0-0.6-0.1-1.2-0.2-1.7
		c-0.2-0.5-0.4-1-0.7-1.4c-0.3-0.4-0.7-0.7-1.1-0.9c-0.4-0.2-0.9-0.3-1.5-0.3c-0.4,0-0.8,0.1-1.2,0.2c-0.4,0.1-0.7,0.3-1,0.5
		c-0.3,0.2-0.5,0.5-0.7,0.8c-0.2,0.3-0.4,0.6-0.5,1h0V21h-0.3v11.2H15.7L15.7,32.2z M19.1,29.2c-1,0-1.8-0.3-2.5-1
		c-0.6-0.7-0.9-1.7-0.9-3c0-0.5,0.1-1.1,0.2-1.5s0.4-0.9,0.7-1.3c0.3-0.4,0.6-0.7,1.1-0.9c0.4-0.2,0.9-0.3,1.4-0.3
		c0.5,0,1,0.1,1.4,0.3c0.4,0.2,0.7,0.5,1,0.9c0.3,0.4,0.5,0.8,0.6,1.3c0.1,0.5,0.2,1,0.2,1.5c0,0.5-0.1,1-0.2,1.5
		c-0.1,0.5-0.3,0.9-0.6,1.3c-0.3,0.4-0.6,0.7-1,0.9C20.2,29.1,19.7,29.2,19.1,29.2L19.1,29.2z M24.4,29.4v-4.7
		c0-0.5,0.1-0.9,0.2-1.3c0.1-0.4,0.3-0.8,0.6-1.1c0.3-0.3,0.6-0.6,1-0.8c0.4-0.2,0.9-0.3,1.5-0.2v-0.3c-0.5,0-0.9,0-1.3,0.2
		c-0.4,0.1-0.7,0.3-1,0.5c-0.3,0.2-0.5,0.4-0.7,0.7c-0.2,0.3-0.3,0.6-0.4,0.9h0V21h-0.3v8.4L24.4,29.4L24.4,29.4z M28.2,25.3h7
		c0-0.6,0-1.1-0.2-1.7c-0.1-0.5-0.4-1-0.7-1.4c-0.3-0.4-0.7-0.7-1.2-1c-0.5-0.2-1-0.4-1.7-0.4c-0.5,0-0.9,0.1-1.4,0.3
		c-0.4,0.2-0.8,0.5-1.2,0.9c-0.3,0.4-0.6,0.8-0.8,1.4c-0.2,0.5-0.3,1.2-0.3,1.9c0,0.6,0.1,1.2,0.2,1.7c0.1,0.5,0.4,1,0.7,1.4
		c0.3,0.4,0.7,0.7,1.1,0.9c0.5,0.2,1,0.3,1.7,0.3c1,0,1.8-0.3,2.4-0.8c0.7-0.5,1-1.3,1.2-2.3h-0.3c-0.1,0.9-0.5,1.6-1.1,2.1
		c-0.6,0.5-1.3,0.7-2.2,0.7c-0.6,0-1.1-0.1-1.5-0.3c-0.4-0.2-0.7-0.5-1-0.8c-0.3-0.4-0.5-0.8-0.6-1.3C28.3,26.3,28.2,25.8,28.2,25.3
		L28.2,25.3z M34.8,24.9h-6.7c0-0.6,0.1-1.1,0.3-1.6c0.2-0.5,0.4-0.9,0.7-1.2c0.3-0.3,0.6-0.6,1-0.8c0.4-0.2,0.8-0.3,1.3-0.3
		c0.5,0,1,0.1,1.4,0.3c0.4,0.2,0.8,0.5,1,0.8c0.3,0.3,0.5,0.8,0.6,1.2C34.8,23.9,34.8,24.4,34.8,24.9L34.8,24.9z M41.9,23.5h0.3
		c0-0.9-0.3-1.6-0.8-2c-0.5-0.4-1.3-0.6-2.2-0.6c-0.5,0-1,0.1-1.3,0.2c-0.4,0.1-0.6,0.3-0.9,0.5c-0.2,0.2-0.4,0.4-0.5,0.7
		c-0.1,0.2-0.1,0.5-0.1,0.7c0,0.5,0.1,0.8,0.2,1.1c0.2,0.3,0.4,0.5,0.8,0.6c0.2,0.1,0.5,0.2,0.8,0.3c0.3,0.1,0.7,0.2,1.1,0.3
		c0.4,0.1,0.7,0.2,1.1,0.3c0.3,0.1,0.7,0.2,0.9,0.3c0.3,0.1,0.5,0.3,0.6,0.6c0.2,0.2,0.3,0.5,0.3,0.9c0,0.4-0.1,0.7-0.3,0.9
		c-0.2,0.2-0.4,0.5-0.6,0.6c-0.3,0.2-0.5,0.3-0.9,0.3c-0.3,0.1-0.6,0.1-0.9,0.1c-1,0-1.7-0.2-2.3-0.7c-0.5-0.4-0.8-1.1-0.8-2.1h-0.3
		c0,1,0.3,1.8,0.9,2.3c0.6,0.5,1.4,0.7,2.5,0.7c0.4,0,0.7,0,1.1-0.1c0.4-0.1,0.7-0.2,1-0.4c0.3-0.2,0.5-0.4,0.7-0.7
		c0.2-0.3,0.3-0.6,0.3-1.1c0-0.4-0.1-0.7-0.2-1c-0.2-0.2-0.4-0.5-0.6-0.6c-0.3-0.2-0.5-0.3-0.9-0.4c-0.3-0.1-0.6-0.2-1-0.3
		c-0.4-0.1-0.8-0.2-1.2-0.3c-0.3-0.1-0.7-0.2-0.9-0.3c-0.3-0.1-0.5-0.3-0.7-0.5c-0.2-0.2-0.3-0.5-0.3-0.9c0-0.1,0-0.2,0.1-0.4
		c0-0.2,0.1-0.4,0.3-0.6c0.2-0.2,0.4-0.4,0.7-0.5c0.3-0.2,0.8-0.2,1.4-0.2c0.4,0,0.8,0,1.1,0.1c0.3,0.1,0.6,0.2,0.9,0.4
		c0.2,0.2,0.4,0.4,0.6,0.7C41.9,22.7,41.9,23.1,41.9,23.5L41.9,23.5z M49.4,23.5h0.3c0-0.9-0.3-1.6-0.8-2c-0.5-0.4-1.3-0.6-2.2-0.6
		c-0.5,0-1,0.1-1.3,0.2c-0.4,0.1-0.6,0.3-0.9,0.5c-0.2,0.2-0.4,0.4-0.5,0.7c-0.1,0.2-0.1,0.5-0.1,0.7c0,0.5,0.1,0.8,0.2,1.1
		c0.2,0.3,0.4,0.5,0.8,0.6c0.2,0.1,0.5,0.2,0.8,0.3c0.3,0.1,0.7,0.2,1.1,0.3c0.4,0.1,0.7,0.2,1.1,0.3c0.3,0.1,0.7,0.2,0.9,0.3
		c0.3,0.1,0.5,0.3,0.6,0.6c0.2,0.2,0.3,0.5,0.3,0.9c0,0.4-0.1,0.7-0.3,0.9c-0.2,0.2-0.4,0.5-0.6,0.6c-0.3,0.2-0.5,0.3-0.9,0.3
		c-0.3,0.1-0.6,0.1-0.9,0.1c-1,0-1.7-0.2-2.3-0.7c-0.5-0.4-0.8-1.1-0.8-2.1h-0.3c0,1,0.3,1.8,0.9,2.3c0.6,0.5,1.4,0.7,2.5,0.7
		c0.4,0,0.7,0,1.1-0.1c0.4-0.1,0.7-0.2,1-0.4c0.3-0.2,0.5-0.4,0.7-0.7c0.2-0.3,0.3-0.6,0.3-1.1c0-0.4-0.1-0.7-0.2-1
		c-0.2-0.2-0.4-0.5-0.6-0.6c-0.3-0.2-0.5-0.3-0.9-0.4c-0.3-0.1-0.6-0.2-1-0.3c-0.4-0.1-0.8-0.2-1.2-0.3c-0.3-0.1-0.7-0.2-0.9-0.3
		c-0.3-0.1-0.5-0.3-0.7-0.5c-0.2-0.2-0.3-0.5-0.3-0.9c0-0.1,0-0.2,0.1-0.4c0-0.2,0.1-0.4,0.3-0.6c0.2-0.2,0.4-0.4,0.7-0.5
		c0.3-0.2,0.8-0.2,1.4-0.2c0.4,0,0.8,0,1.1,0.1c0.3,0.1,0.6,0.2,0.9,0.4c0.2,0.2,0.4,0.4,0.6,0.7C49.4,22.7,49.4,23.1,49.4,23.5
		L49.4,23.5z" />
	</g>
</svg>
