<svg height="50" 
	width="50" 
	viewBox="0 0 50 50" 
	xmlns="http://www.w3.org/2000/svg">
	<style type="text/css">
	.st0{fill:none;}
	.st1{fill:#2684FF;}
	.st2{fill:url(#SVGID_1_);}
	</style>
	<g>
		<g>
			<path class="st0" 
				d="M19.8,32.3h10.4l2.5-14.7H17L19.8,32.3z" />
			<path class="st1" 
				d="M1.6,2.5C0.7,2.5,0,3.2,0,4.1c0,0.1,0,0.2,0,0.3l6.8,41.3c0.2,1,1.1,1.8,2.1,1.8h32.6c0.8,0,1.5-0.6,1.6-1.3
			L50,4.4c0.1-0.9-0.5-1.7-1.3-1.8c-0.1,0-0.2,0-0.3,0L1.6,2.5z M30.3,32.3H19.8L17,17.6h15.8L30.3,32.3z" />

			<linearGradient id="SVGID_1_" 
				gradientUnits="userSpaceOnUse" 
				x1="-2.571729e-02" 
				y1="50.2843" 
				x2="-3.814907e-02" 
				y2="50.2713" 
				gradientTransform="matrix(1996.6343 0 0 -1480.3047 102.6002 74457.8828)">
				<stop offset="0.18" 
					style="stop-color:#0052CC" />
				<stop offset="1" 
					style="stop-color:#2684FF" />
			</linearGradient>
			<path class="st2" 
				d="M47.8,17.6h-15l-2.5,14.7H19.8L7.5,46.9c0.4,0.3,0.9,0.5,1.4,0.5h32.6c0.8,0,1.5-0.6,1.6-1.3L47.8,17.6z" />
		</g>
	</g>
</svg>
