<svg height="50" 
	width="50" 
	viewBox="0 0 50 50" 
	xmlns="http://www.w3.org/2000/svg">
	<style type="text/css">
	.st0{fill:#53C1DE;}
	.st1{fill:#FFFFFF;}
	</style>
	<path class="st0" 
		d="M2055.5,728c-26.6-9.2-53.4-17.8-80.5-25.6c4.5-18.4,8.6-36.9,12.4-55.4c60.9-298.6,21.1-539.2-114.9-618.4
	c-130.4-75.9-343.7,3.2-559.1,192.5c-21.2,18.7-42,37.9-62.2,57.7c-13.6-13.1-27.4-26-41.4-38.6C984,37.7,757.7-47.5,621.8,31.9
	c-130.3,76.2-168.9,302.3-114,585.3c5.5,28,11.6,55.9,18.5,83.6c-32,9.2-62.9,19-92.5,29.4C169,823.4,0,969.4,0,1120.9
	c0,156.5,181.5,313.4,457.1,408.5c22.4,7.7,44.9,14.8,67.6,21.3c-7.4,29.9-13.9,59.9-19.6,90.1c-52.3,278.1-11.5,498.9,118.5,574.6
	c134.2,78.1,359.5-2.2,578.8-195.8c17.3-15.3,34.7-31.5,52.2-48.6c21.9,21.4,44.5,42.1,67.6,62.3
	c212.5,184.6,422.3,259.2,552.2,183.3c134.1-78.4,177.7-315.6,121.1-604.2c-4.3-22-9.3-44.6-15-67.5c15.8-4.7,31.3-9.6,46.5-14.7
	c286.6-95.9,473.1-250.9,473.1-409.4C2500,968.8,2325.5,821.8,2055.5,728L2055.5,728z" />
	<path class="st1" 
		d="M1996.7,1425.8c-13.7,4.5-27.7,8.9-42.1,13.2c-31.7-100.3-74.5-207-126.8-317.2
	c49.9-107.6,91.1-212.9,121.9-312.6c25.6,7.4,50.5,15.2,74.4,23.5c231.7,79.8,373.1,197.7,373.1,288.6
	C2397.2,1218,2244.6,1343.7,1996.7,1425.8L1996.7,1425.8z M1893.9,1629.6c25.1,126.6,28.6,241,12,330.5
	c-14.9,80.4-44.9,134-82,155.5c-78.9,45.7-247.7-13.7-429.7-170.3c-20.9-18-41.9-37.1-63-57.4c70.6-77.2,141.1-166.9,209.9-266.5
	c121.1-10.7,235.4-28.3,339.2-52.3C1885.4,1589.7,1889.9,1609.9,1893.9,1629.6L1893.9,1629.6z M853.7,2107.7
	c-77.1,27.2-138.5,28-175.6,6.6c-79-45.6-111.8-221.4-67-457.3c5.3-27.9,11.4-55.6,18.3-83.1c102.6,22.7,216.1,39,337.5,48.9
	c69.3,97.5,141.8,187.1,215,265.6c-15.5,15-31.4,29.7-47.7,43.9C1036.9,2017.1,939.6,2077.4,853.7,2107.7L853.7,2107.7z
	 M492.5,1425.2c-122.1-41.7-223-96-292.1-155.2c-62.1-53.2-93.5-106-93.5-148.9c0-91.2,136-207.5,362.7-286.5
	c28.5-9.9,57.2-18.9,86.2-27.1c31.3,101.9,72.4,208.5,122.1,316.3c-50.2,109.4-91.9,217.6-123.6,320.8
	C533.6,1438.6,513,1432.2,492.5,1425.2z M613.6,601c-47.1-240.5-15.8-422,62.8-467.5c83.8-48.5,269,20.7,464.3,194
	c12.5,11.1,25,22.7,37.6,34.7c-72.7,78.1-144.6,167.1-213.3,264c-117.8,10.9-230.5,28.4-334.2,51.9
	C624.4,652.6,618.7,626.9,613.6,601L613.6,601z M1693.8,867.7c-24.5-42.3-49.9-84-76.1-125.2c79.9,10.1,156.5,23.5,228.3,39.9
	c-21.6,69.2-48.5,141.5-80.2,215.6C1742.7,954.1,1718.7,910.7,1693.8,867.7L1693.8,867.7z M1253.3,438.7
	c49.3,53.5,98.8,113.1,147.4,177.9c-98.6-4.7-197.4-4.7-296-0.1C1153.3,552.4,1203.2,492.7,1253.3,438.7L1253.3,438.7z M810,868.5
	c-24.6,42.6-48.1,85.8-70.7,129.5c-31.2-73.9-57.8-146.5-79.6-216.7c71.5-16,147.6-29.1,227-39C860.2,783.7,834.6,825.8,810,868.5z
	 M889,1507.7c-82-9.2-159.4-21.6-230.8-37.1c22.1-71.4,49.4-145.6,81.2-221.1c22.6,43.7,46.3,86.9,71,129.6
	C835.6,1422.6,861.8,1465.5,889,1507.7z M1256.3,1811.3c-50.7-54.7-101.3-115.2-150.7-180.3c47.9,1.9,96.8,2.8,146.5,2.8
	c51,0,101.5-1.1,151.2-3.4C1354.5,1696.7,1305.3,1757.3,1256.3,1811.3z M1766.9,1245.7c33.5,76.3,61.7,150.1,84.1,220.3
	c-72.6,16.6-151,29.9-233.6,39.8c26.5-42,52.1-84.4,76.9-127.4C1719.4,1334.7,1743.6,1290.5,1766.9,1245.7L1766.9,1245.7z
	 M1601.6,1325c-37.9,65.9-78,130.5-120.1,193.8c-74.3,5.3-151.1,8-229.3,8c-77.9,0-153.7-2.4-226.7-7.2
	c-43.2-63.1-84.1-127.9-122.4-194.1c-38.2-65.9-73.8-133.2-106.8-201.8c33-68.6,68.5-135.9,106.5-201.9v0
	c38-65.9,78.5-130.4,121.4-193.3c74.5-5.6,150.8-8.6,228-8.6c77.5,0,154,3,228.4,8.6c42.5,62.8,82.7,127,120.7,192.7
	c38.2,65.8,74.2,132.8,108,200.9C1675.7,1191.1,1639.8,1258.7,1601.6,1325L1601.6,1325z M1822.3,130.3
	c83.9,48.4,116.5,243.4,63.8,499.1c-3.5,16.7-7.2,33.3-11.3,49.8c-103.9-24-216.7-41.8-334.8-52.9c-68.8-98-140.1-187.1-211.7-264.2
	c18.8-18.1,38-35.7,57.6-52.8C1570.7,148.5,1743.5,84.9,1822.3,130.3L1822.3,130.3z" />
	<path class="st0" 
		d="M1252.1,897.6c123.5,0,223.6,100.1,223.6,223.6c0,123.5-100.1,223.6-223.6,223.6
	c-123.5,0-223.6-100.1-223.6-223.6C1028.5,997.7,1128.6,897.6,1252.1,897.6" />
</svg>
