<svg height="50" 
	width="50" 
	viewBox="0 0 50 50" 
	xmlns="http://www.w3.org/2000/svg">
	<style type="text/css">
	.st0{fill:#8CC84B;}
	</style>
	<g>
		<g>
			<path class="st0" 
				d="M22.7,0.5c1.4-0.7,3.1-0.7,4.5,0c6.9,3.5,13.7,7,20.6,10.6c1.3,0.7,2.2,2,2.1,3.3v21.2c0,1.4-0.9,2.7-2.3,3.4
			c-6.8,3.5-13.7,7-20.5,10.5c-1.4,0.7-3.2,0.7-4.6-0.1c-2.1-1.1-4.1-2.2-6.2-3.2c-0.4-0.2-0.9-0.4-1.2-0.8c0.3-0.3,0.7-0.4,1.1-0.5
			c0.9-0.2,1.6-0.6,2.4-1c0.2-0.1,0.4-0.1,0.6,0c1.8,0.9,3.5,1.9,5.3,2.8c0.4,0.2,0.8-0.1,1.1-0.2c6.7-3.4,13.4-6.9,20.2-10.3
			c0.2-0.1,0.4-0.3,0.4-0.6c0-7,0-14,0-21c0-0.3-0.2-0.5-0.4-0.7c-6.8-3.5-13.6-7-20.5-10.5c-0.2-0.2-0.6-0.2-0.8,0
			c-6.8,3.5-13.6,7-20.5,10.5c-0.3,0.1-0.5,0.4-0.4,0.7c0,7,0,14,0,21c0,0.2,0.1,0.5,0.4,0.6c1.8,0.9,3.6,1.9,5.5,2.8
			c1,0.5,2.3,0.8,3.4,0.4c1-0.3,1.7-1.2,1.7-2.2c0-6.9,0-13.9,0-20.8c0-0.3,0.3-0.6,0.6-0.5c0.9,0,1.8,0,2.6,0
			c0.4,0,0.6,0.3,0.6,0.6c0,7,0,14,0,21c0,1.9-0.8,3.9-2.7,4.8c-2.3,1.1-5.2,0.9-7.5-0.2c-2-0.9-3.9-2-5.9-2.9C0.9,38.3,0,37,0,35.6
			V14.4c0-1.4,0.9-2.7,2.2-3.4C9.1,7.5,15.9,4,22.7,0.5z" />
			<path class="st0" 
				d="M28.7,15.2c3-0.2,6.2-0.1,8.9,1.2c2.1,1,3.2,3.2,3.3,5.3c-0.1,0.3-0.4,0.4-0.7,0.4c-0.9,0-1.7,0-2.6,0
			c-0.4,0-0.6-0.3-0.6-0.6c-0.2-1-0.9-2-1.9-2.5c-1.6-0.7-3.4-0.7-5.2-0.7c-1.3,0.1-2.6,0.2-3.7,0.8c-0.8,0.5-1.1,1.6-0.8,2.4
			c0.3,0.6,1,0.8,1.7,1c3.6,0.9,7.4,0.8,10.9,1.9c1.5,0.5,2.9,1.3,3.4,2.7c0.7,1.9,0.4,4.1-1.1,5.6c-1.2,1.2-2.9,1.9-4.6,2.3
			c-2.3,0.5-4.7,0.5-7,0.3c-2.2-0.2-4.5-0.7-6.1-2.1c-1.4-1.1-2.1-2.9-2.1-4.6c0-0.3,0.3-0.5,0.6-0.5c0.9,0,1.7,0,2.6,0
			c0.3,0,0.6,0.3,0.6,0.5c0.2,1,0.6,2,1.5,2.5c1.8,1,4,1,6,1c1.7-0.1,3.6-0.1,4.9-1.1c0.7-0.6,0.9-1.5,0.7-2.4c-0.2-0.7-1-1-1.7-1.2
			c-3.6-1-7.4-0.6-10.9-1.8c-1.4-0.5-2.8-1.3-3.4-2.7c-0.8-1.9-0.4-4.2,1.2-5.7C24.3,16,26.6,15.4,28.7,15.2L28.7,15.2z" />
		</g>
	</g>
</svg>
