<svg height="50" 
	width="50" 
	viewBox="0 0 50 50" 
	xmlns="http://www.w3.org/2000/svg">
	<style type="text/css">
	.st0{fill:url(#b_1_);}
	.st1{fill:url(#e_1_);}
	.st2{fill:url(#h_1_);}
	.st3{fill:#FFFFFF;}
	</style>
	<g>
		<title>Bootstrap</title>
		<g>
			<g transform="translate(75 23)">
				<g>
					<path id="b_3_" 
						d="M-54.6-7.2L-73.1,5.2c-2.5,1.7-2.5,4.5,0,6.2l18.5,12.4c2.5,1.7,6.7,1.7,9.2,0l18.5-12.4
					c2.5-1.7,2.5-4.5,0-6.2L-45.4-7.2C-47.9-8.9-52.1-8.9-54.6-7.2L-54.6-7.2z" />
				</g>
				<g>

					<linearGradient id="b_1_" 
						gradientUnits="userSpaceOnUse" 
						x1="-74.3846" 
						y1="26.27" 
						x2="-74.3846" 
						y2="26.1552" 
						gradientTransform="matrix(435.7063 0 0 -292.809 32359.8496 7683.5894)">
						<stop offset="0" 
							style="stop-color:#5C24AE" />
						<stop offset="1" 
							style="stop-color:#30135A" />
					</linearGradient>
					<path id="b_2_" 
						class="st0" 
						d="M-54.6-7.2L-73.1,5.2c-2.5,1.7-2.5,4.5,0,6.2l18.5,12.4c2.5,1.7,6.7,1.7,9.2,0l18.5-12.4
					c2.5-1.7,2.5-4.5,0-6.2L-45.4-7.2C-47.9-8.9-52.1-8.9-54.6-7.2L-54.6-7.2z" />
				</g>
			</g>
			<g transform="translate(75 23)">
				<g>
					<path id="e_3_" 
						d="M-54.6-13.5L-73.1-1.1c-2.5,1.7-2.5,4.5,0,6.2l18.5,12.4c2.5,1.7,6.7,1.7,9.2,0l18.5-12.4
					c2.5-1.7,2.5-4.5,0-6.2l-18.5-12.4C-47.9-15.2-52.1-15.2-54.6-13.5L-54.6-13.5z" />
				</g>
				<g>

					<linearGradient id="e_1_" 
						gradientUnits="userSpaceOnUse" 
						x1="-74.3846" 
						y1="26.1235" 
						x2="-74.3846" 
						y2="25.9889" 
						gradientTransform="matrix(435.7063 0 0 -292.809 32359.8496 7628.5884)">
						<stop offset="0" 
							style="stop-color:#7331D4" />
						<stop offset="1" 
							style="stop-color:#461B84" />
					</linearGradient>
					<path id="e_2_" 
						class="st1" 
						d="M-54.6-13.5L-73.1-1.1c-2.5,1.7-2.5,4.5,0,6.2l18.5,12.4c2.5,1.7,6.7,1.7,9.2,0l18.5-12.4
					c2.5-1.7,2.5-4.5,0-6.2l-18.5-12.4C-47.9-15.2-52.1-15.2-54.6-13.5L-54.6-13.5z" />
				</g>
			</g>
			<g transform="translate(75 23)">
				<g>
					<path id="h_3_" 
						d="M-54.6-19.8L-73.1-7.4c-2.5,1.7-2.5,4.5,0,6.2l18.5,12.4c2.5,1.7,6.7,1.7,9.2,0l18.5-12.4
					c2.5-1.7,2.5-4.5,0-6.2l-18.5-12.4C-47.9-21.5-52.1-21.5-54.6-19.8L-54.6-19.8z" />
				</g>
				<g>

					<linearGradient id="h_1_" 
						gradientUnits="userSpaceOnUse" 
						x1="-74.3846" 
						y1="25.9374" 
						x2="-74.3846" 
						y2="25.8226" 
						gradientTransform="matrix(435.7063 0 0 -292.809 32359.8496 7573.5884)">
						<stop offset="0" 
							style="stop-color:#905BDD" />
						<stop offset="1" 
							style="stop-color:#5521A0" />
					</linearGradient>
					<path id="h_2_" 
						class="st2" 
						d="M-54.6-19.8L-73.1-7.4c-2.5,1.7-2.5,4.5,0,6.2l18.5,12.4c2.5,1.7,6.7,1.7,9.2,0l18.5-12.4
					c2.5-1.7,2.5-4.5,0-6.2l-18.5-12.4C-47.9-21.5-52.1-21.5-54.6-19.8L-54.6-19.8z" />
				</g>
			</g>
			<path class="st3" 
				d="M27.7,26.2l-14.4-9.6l5.6-3.8c2.5-1.7,5.6-1.8,7.7-0.4c1.5,1,1.8,2.7,0.7,3.8l0.1,0.1
			c2.2-1.1,4.8-1.1,6.7,0.2c2.5,1.7,2.2,3.9-0.8,6L27.7,26.2L27.7,26.2z M21.3,19.5l2.9-1.9c2.1-1.4,2.4-2.8,0.9-3.8
			c-1.4-1-3.2-0.8-4.9,0.3l-3.4,2.3L21.3,19.5z M31.4,21.6c2.2-1.5,2.4-2.8,0.8-3.9c-1.7-1.1-3.7-0.9-6,0.6l-3.4,2.3l5,3.4
			L31.4,21.6L31.4,21.6z" />
		</g>
	</g>
</svg>
