<?xml version="1.0" encoding="utf-8"?>
<!-- Generator: Adobe Illustrator 24.0.2, SVG Export Plug-In . SVG Version: 6.00 Build 0)  -->
<svg version="1.1" id="Layer_1" xmlns="http://www.w3.org/2000/svg" xmlns:xlink="http://www.w3.org/1999/xlink" x="0px" y="0px"
	 viewBox="0 0 50 50" style="enable-background:new 0 0 50 50;" xml:space="preserve">
<style type="text/css">
	.st0{fill:#53C1DE;}
	.st1{fill:#FFFFFF;}
</style>
<g>
	<path class="st0" d="M41.1,17.1c-0.5-0.2-1.1-0.4-1.6-0.5c0.1-0.4,0.2-0.7,0.2-1.1c1.2-6,0.4-10.8-2.3-12.4
		C34.8,1.6,30.6,3.2,26.3,7c-0.4,0.4-0.8,0.8-1.2,1.2c-0.3-0.3-0.5-0.5-0.8-0.8c-4.5-4-9-5.8-11.8-4.2c-2.6,1.5-3.4,6-2.3,11.7
		c0.1,0.6,0.2,1.1,0.4,1.7c-0.6,0.2-1.3,0.4-1.8,0.6C3.4,19,0,21.9,0,25c0,3.1,3.6,6.3,9.1,8.2c0.4,0.2,0.9,0.3,1.4,0.4
		c-0.1,0.6-0.3,1.2-0.4,1.8c-1,5.6-0.2,10,2.4,11.5c2.7,1.6,7.2,0,11.6-3.9c0.3-0.3,0.7-0.6,1-1c0.4,0.4,0.9,0.8,1.4,1.2
		c4.2,3.7,8.4,5.2,11,3.7c2.7-1.6,3.6-6.3,2.4-12.1c-0.1-0.4-0.2-0.9-0.3-1.3c0.3-0.1,0.6-0.2,0.9-0.3c5.7-1.9,9.5-5,9.5-8.2
		C50,21.9,46.5,19,41.1,17.1L41.1,17.1z"/>
	<path class="st1" d="M39.9,31.1c-0.3,0.1-0.6,0.2-0.8,0.3c-0.6-2-1.5-4.1-2.5-6.3c1-2.2,1.8-4.3,2.4-6.3c0.5,0.1,1,0.3,1.5,0.5
		c4.6,1.6,7.5,4,7.5,5.8C47.9,26.9,44.9,29.4,39.9,31.1L39.9,31.1z M37.9,35.1c0.5,2.5,0.6,4.8,0.2,6.6c-0.3,1.6-0.9,2.7-1.6,3.1
		c-1.6,0.9-5-0.3-8.6-3.4c-0.4-0.4-0.8-0.7-1.3-1.1c1.4-1.5,2.8-3.3,4.2-5.3c2.4-0.2,4.7-0.6,6.8-1C37.7,34.3,37.8,34.7,37.9,35.1
		L37.9,35.1z M17.1,44.7c-1.5,0.5-2.8,0.6-3.5,0.1c-1.6-0.9-2.2-4.4-1.3-9.1c0.1-0.6,0.2-1.1,0.4-1.7c2.1,0.5,4.3,0.8,6.7,1
		c1.4,1.9,2.8,3.7,4.3,5.3c-0.3,0.3-0.6,0.6-1,0.9C20.7,42.9,18.8,44.1,17.1,44.7L17.1,44.7z M9.8,31c-2.4-0.8-4.5-1.9-5.8-3.1
		c-1.2-1.1-1.9-2.1-1.9-3c0-1.8,2.7-4.1,7.3-5.7c0.6-0.2,1.1-0.4,1.7-0.5c0.6,2,1.4,4.2,2.4,6.3c-1,2.2-1.8,4.4-2.5,6.4
		C10.7,31.3,10.3,31.2,9.8,31z M12.3,14.6c-0.9-4.8-0.3-8.4,1.3-9.3c1.7-1,5.4,0.4,9.3,3.9c0.2,0.2,0.5,0.5,0.8,0.7
		c-1.5,1.6-2.9,3.3-4.3,5.3c-2.4,0.2-4.6,0.6-6.7,1C12.5,15.6,12.4,15.1,12.3,14.6L12.3,14.6z M33.9,19.9c-0.5-0.8-1-1.7-1.5-2.5
		c1.6,0.2,3.1,0.5,4.6,0.8c-0.4,1.4-1,2.8-1.6,4.3C34.9,21.6,34.4,20.8,33.9,19.9L33.9,19.9z M25.1,11.3c1,1.1,2,2.3,2.9,3.6
		c-2-0.1-3.9-0.1-5.9,0C23.1,13.6,24.1,12.4,25.1,11.3L25.1,11.3z M16.2,19.9c-0.5,0.9-1,1.7-1.4,2.6c-0.6-1.5-1.2-2.9-1.6-4.3
		c1.4-0.3,3-0.6,4.5-0.8C17.2,18.2,16.7,19.1,16.2,19.9z M17.8,32.7c-1.6-0.2-3.2-0.4-4.6-0.7c0.4-1.4,1-2.9,1.6-4.4
		c0.5,0.9,0.9,1.7,1.4,2.6C16.7,31,17.2,31.8,17.8,32.7z M25.1,38.8c-1-1.1-2-2.3-3-3.6c1,0,1.9,0.1,2.9,0.1c1,0,2,0,3-0.1
		C27.1,36.5,26.1,37.7,25.1,38.8z M35.3,27.5c0.7,1.5,1.2,3,1.7,4.4c-1.5,0.3-3,0.6-4.7,0.8c0.5-0.8,1-1.7,1.5-2.5
		C34.4,29.2,34.9,28.3,35.3,27.5L35.3,27.5z M32,29c-0.8,1.3-1.6,2.6-2.4,3.9c-1.5,0.1-3,0.2-4.6,0.2c-1.6,0-3.1,0-4.5-0.1
		c-0.9-1.3-1.7-2.6-2.4-3.9c-0.8-1.3-1.5-2.7-2.1-4c0.7-1.4,1.4-2.7,2.1-4l0,0c0.8-1.3,1.6-2.6,2.4-3.9c1.5-0.1,3-0.2,4.6-0.2
		c1.5,0,3.1,0.1,4.6,0.2c0.8,1.3,1.7,2.5,2.4,3.9c0.8,1.3,1.5,2.7,2.2,4C33.5,26.4,32.8,27.7,32,29L32,29z M36.4,5.1
		c1.7,1,2.3,4.9,1.3,10c-0.1,0.3-0.1,0.7-0.2,1c-2.1-0.5-4.3-0.8-6.7-1.1c-1.4-2-2.8-3.7-4.2-5.3c0.4-0.4,0.8-0.7,1.2-1.1
		C31.4,5.5,34.9,4.2,36.4,5.1L36.4,5.1z"/>
	<path class="st0" d="M25,20.5c2.5,0,4.5,2,4.5,4.5s-2,4.5-4.5,4.5s-4.5-2-4.5-4.5S22.6,20.5,25,20.5"/>
</g>
</svg>
