<svg height="50" 
	width="50" 
	viewBox="0 0 50 50" 
	xmlns="http://www.w3.org/2000/svg">
	<style type="text/css">
	.st0{fill:#FBA919;}
	.st1{fill:#E78724;}
	.st2{fill:#FDC168;}
	.st3{fill:#FFFFFF;}
	.st4{fill:#C9C9C9;}
	.st5{fill:#463014;}
	</style>
	<g>
		<path class="st0" 
			d="M8.9,12.2c0,0,0.9,3.3,1,4.4c0.1,1.1-2.2,3.5-2.2,4.8c0,1.2,0.5,3.4,3.2,4.5c2.7,1.1,3.1,3.9,3.1,5.6
		c0,1.7-1,5-1,5s-0.6,8.2,2.7,9.7c3.3,1.5,2.6,1.5,3.3,1.5c0.7,0,6.1,2.2,9.3,1.3c3.2-0.9,4-1.8,4-1.8s3.2,0.2,4.2-2.6
		c1-2.8,1.6-8.7,1.2-11.4c-0.4-2.7-0.9-6.2,1.3-7.5c2.2-1.2,4.5-2.7,4.2-3.9c-0.4-1.2-2.3-2.9-2.3-2.9s-0.5-3.1-0.1-3.8
		c0.4-0.7,2.6-2.6,1.3-3.9c-1.2-1.3-3.4-1.3-3.4-1.3l-2.8,0.2c0,0-4.8-4.3-11-4c-6.2,0.2-10.2,4-10.2,4s-2.1-0.7-3.9,0
		C8.9,10.8,8.5,10.1,8.9,12.2z" />
		<path class="st1" 
			d="M20,30.4c0,0-2.4,3.7-4.2,6.3c-0.3,0.4,1.8,0.4,1.8,0.4L20,30.4L20,30.4z M21.2,22.7c0,0-0.7,1.8-1.1,2.8
		C19.6,26.5,18,27,18,27s0.9-0.9,0.9-3.2c0-1,1.2-1.3,1.2-1.3L21.2,22.7L21.2,22.7z" />
		<path class="st1" 
			d="M20.4,23.7c0,0-1.5,1.8-4.3,0.8c-2.8-1-3.1-4.6-3.1-5.6s5.3,1,6,1.4C19.8,20.8,21.2,22.5,20.4,23.7L20.4,23.7z
		 M10,4.7c0,0,2.6-0.5,4.3,0.9C15.9,6.9,16.4,8,16.4,8l-2.9,2.3c0,0-1.4-0.6-1.8-2.5C11.3,5.9,11.6,5,10,4.7L10,4.7z" />
		<path class="st1" 
			d="M19.7,18.6c-1.1-1.6-2.9-2.3-4.4-2.4c-2.5-0.2-3.7,0.7-3.7,0.7s4.1,0.2,5.2,1.7c2.2,2.9,5.4,3.1,5.9,2.5
		c-0.6,0-1.2-0.3-1.9-0.9C20.4,19.7,20,19.1,19.7,18.6z M12.9,24.1c0,0-4.5-1.5-3.6-3.1c0.9-1.6,0.2-2.4,0.2-2.4s-2.5,1.9-1.9,3.9
		c0.4,1.2,1.1,2.1,4.7,3.8c1.7,3.2,0.4,9,0.4,9.1c0.1,0,2.4-1.1,2.3-6.6C14.9,27.1,14.7,24.8,12.9,24.1L12.9,24.1z M18.7,7.5
		c-1.9,1-4.5,2.3-4.5,2.3l1,0.5c-0.1,0.2-0.1,0.3-0.1,0.3l1,0.5c0,0,2.5,1.8,4.1,3c-0.5-1.6-2-4.1-2-4.1S17.8,8.8,18.7,7.5L18.7,7.5
		z M25,46.6c-5.8,0-7.8-2.9-7.8-2.9l0.9,2.2c0.3,1,4,3.9,6.9,3.9" />
		<path class="st1" 
			d="M17.9,41.6c0,0,0.5,3.3,2.7,3.3c1.8,0,2.4-2.8,2.4-3.3L17.9,41.6L17.9,41.6z M14.3,36.7
		c0.2-0.5,0.9-2.6,1.1-4.6c0.3-2.3,0.2-5.7,0.2-5.7S15,28.7,14.5,29c-0.5,0.4-1.4,2.8-1.4,2.8s-0.5,3.6-0.7,4.8
		C13,36.8,13.5,36.4,14.3,36.7L14.3,36.7z M9.2,22.4c0,0,1.2-0.4,1.6-3.1c0.4-2.6-0.4-4.9-0.4-4.9s0.1,3.6-0.4,4.3
		c-0.4,0.7-0.8,0.9-1.3,1.9C8.2,21.6,8.9,22.1,9.2,22.4L9.2,22.4z" />
		<path class="st2" 
			d="M10.6,5.3l-0.2-0.2C9.6,5.2,10.6,5.3,10.6,5.3z" />
		<path class="st0" 
			d="M19.7,6.7c0,0-1.1-0.2-1.7-1c-0.6-0.9-2.2-2.6-4.8-2.6c-2.6,0-5.1,0.7-5.1,0.7l2.2,1.4c0.2,0,0.6,0,1.3,0
		C14.5,5.3,14.9,8,14.9,8l9.8-1.4" />
		<path class="st3" 
			d="M20.7,21.9c0,0-1.3,1.3-3.4,0.9c-2-0.4-3.3-1.3-3.4-2.9c-0.1-1.6,0.4-2.2,0.4-2.2s2.3,0.7,3.4,1.7
		C18.8,20.4,19.6,21.9,20.7,21.9L20.7,21.9z" />
		<path class="st4" 
			d="M19.1,21.5c0,0-1.2,0.5-2.4,0.1c-1.7-0.6-1.8-2.3-1.8-2.3s-1,3,1.9,3.6c2.3,0.5,3.7-0.9,3.7-0.9L19.1,21.5
		L19.1,21.5z" />
		<path class="st5" 
			d="M19.9,6c-0.1-2.6,2-4.7,2.8-4.8c0,0.4,0,2.2,0.7,2.7c0.2-1.4,0.9-3,3.8-4c-0.6,1.6-0.1,3,0.2,3.6
		c2-1.8,3.3-1.5,3.3-1.5S29.3,4.5,29.8,6C25.8,5.7,19.9,6.5,19.9,6L19.9,6z M11.5,10c-0.9-0.8-0.2-1.5-0.3-2.4
		c0-0.5-0.1-0.9-0.2-1.2c-0.9-1.4-2.9-1.8-2.9-1.8l-1-0.2l0.6-0.7c0.1-0.1,2.7-2.6,6.7-1.3c2.8,0.9,4.9,4,5,4.1L18,7.3
		c0,0-1.7-2.9-4.1-3.7c-2-0.6-3.8,0-4.5,0.4c0.8,0.3,1.9,0.9,2.5,1.9c0.3,0.5,0.4,1.1,0.4,1.7c0.1,0.8,0.1,1.5,0.7,2L11.5,10z
		 M9,21.4c0,0,1.2-1.5,1.5-4.3c0.1-1.1-0.1-3.3-0.5-4.2c0.1,2.1-0.5,4.2-0.5,4.2S9.2,21,9,21.4L9,21.4z" />
		<path class="st5" 
			d="M15.3,8.5c0,0-0.4-1.7-1.4-2.5c-1.5-1.2-3.3-0.6-3.3-0.5l-0.3-0.8c0.1,0,2.2-0.7,4.1,0.7
		c1.9,1.4,2.2,2.6,2.2,2.7L15.3,8.5L15.3,8.5z M12.7,20.4c0,0-0.6-0.9-0.5-1.9c0.1-0.5,0.3-1,0.7-1.2c0.7-0.3,1.1,0.5,1.1,0.5
		S12.9,18.1,12.7,20.4L12.7,20.4z" />
		<path class="st5" 
			d="M19.6,21.7C19.6,21.8,19.6,21.8,19.6,21.7c0,0.1-1.9,1.5-3.9,0.1c-1.1-0.8-1-2.7-0.6-3.6
		c0.8,0.2,1.6,0.5,2.2,0.9c-0.8-0.7-1.4-1.2-1.4-1.2l-0.9-0.2l-1.7-0.6c0,0.1-0.6,3,1.1,5c0.8,0.9,4.5,2.8,6.2-0.5L19.6,21.7
		L19.6,21.7z" />
		<path class="st5" 
			d="M19.4,21.9c1.1,1.7,3.8,0.7,3.8-1c0,0-1.8,1-3.5-0.9c-0.9-1.1-4-4.1-8.1-3.1C14.5,17.6,18.2,20.2,19.4,21.9
		L19.4,21.9z" />
		<path class="st5" 
			d="M11.2,26.6c0.3,0.2,1.2,1.1,1.2,2.5c0,0.7-0.1,4.3-0.4,6.5c0.5,0.3,0.9,0.4,1.4,0.8c0.3-2.6,0.5-6.3,0.4-7.8
		c-0.1-1.7-1-2.9-1.9-3.3c-0.3-0.2-0.5-0.3-0.8-0.5c-1.5-0.8-3-1.6-3-3c0-1.1,0.4-1.4,0.9-1.8l0,0c0.3-0.2,0.6-0.5,0.8-1
		c0.5-1.2,0.6-4.3,0-5.1c-0.3-0.4-1.2-1.7-0.9-2.6c0.1-0.3,0.3-0.6,0.7-0.8c0.4-0.2,0.9-0.3,1.5-0.3c1.2,0,2.5,0.4,3.2,0.6
		c2.5,0.8,5.4,3,6.3,3.7c0,0,0,0,0,0l0.5,0.4l-0.3-0.6c0,0-2.2-3.6-6-4.9C14.1,9.4,12.6,9,11.2,9C10.3,9,9.6,9.1,9,9.4
		c-0.7,0.4-1.2,0.9-1.4,1.7c-0.5,1.8,1.1,3.8,1.1,3.8c0.2,0.3,0.3,2.7-0.2,3.7c-0.1,0.1-0.2,0.3-0.4,0.4C8.1,19.1,8,19.1,8,19.2
		c-0.6,0.5-1.5,1.1-1.5,2.7c0,2.2,2.2,3.3,3.9,4.3C10.7,26.3,11,26.5,11.2,26.6z" />
		<path class="st5" 
			d="M11.5,10c-0.9-0.8-0.2-1.5-0.3-2.4c0-0.5-0.1-0.9-0.2-1.2c-0.9-1.4-2.9-1.8-2.9-1.8l-1-0.2l0.6-0.7
		c0.1-0.1,2.7-2.6,6.7-1.3c2.8,0.9,4.9,4,5,4.1L18,7.3c0,0-1.7-2.9-4.1-3.7c-2-0.6-3.8,0-4.5,0.4c0.8,0.3,1.9,0.9,2.5,1.9
		c0.3,0.5,0.4,1.1,0.4,1.7c0.1,0.8,0.1,1.5,0.7,2L11.5,10z" />
		<path class="st5" 
			d="M11.5,10.2L11.5,10.2C10.7,9.5,10.9,9,11,8.4c0.1-0.3,0.1-0.5,0.1-0.8c0-0.5-0.1-0.9-0.2-1.1
		C10,5.2,8,4.8,8,4.8L6.8,4.6l0.8-0.9c0,0,1.7-1.7,4.5-1.7c0.8,0,1.6,0.1,2.4,0.4c2.9,0.9,5,4.1,5.1,4.2l0.1,0.1L18,7.4l-0.1-0.1
		c-0.2-0.3-1.8-2.9-4-3.6c-0.6-0.2-1.1-0.3-1.7-0.3c-1.1,0-1.9,0.3-2.4,0.5c0.8,0.3,1.7,0.9,2.3,1.9c0.3,0.5,0.4,1.1,0.4,1.7
		c0.1,0.8,0.1,1.5,0.6,1.9l0.2,0.2L11.5,10.2L11.5,10.2z" />
		<path class="st5" 
			d="M15.3,8.5c0,0-0.4-1.7-1.4-2.5c-1.5-1.2-3.3-0.6-3.3-0.5l-0.3-0.8c0.1,0,2.2-0.7,4.1,0.7
		c1.9,1.4,2.2,2.6,2.2,2.7L15.3,8.5L15.3,8.5z" />
		<path class="st5" 
			d="M15.2,8.7l0-0.2c0,0-0.4-1.6-1.4-2.4c-0.6-0.5-1.3-0.7-2.1-0.7c-0.6,0-1.1,0.1-1.1,0.2l-0.1,0l-0.4-1.1l0.1,0
		c0.1,0,0.6-0.2,1.4-0.2c1,0,2,0.3,2.8,0.9c2,1.4,2.2,2.7,2.2,2.8l0,0.1L15.2,8.7L15.2,8.7z M11.7,5.2c0.8,0,1.6,0.3,2.2,0.7
		c0.9,0.7,1.3,2,1.4,2.4l1-0.4c-0.1-0.3-0.5-1.4-2.1-2.5c-0.8-0.5-1.7-0.8-2.6-0.8c-0.5,0-1,0.1-1.2,0.1l0.2,0.5
		C10.8,5.3,11.2,5.2,11.7,5.2z M20.5,44.1c-0.4,0-0.9-0.2-1.1-0.4c-0.2-0.2-1-0.9-1.3-1.8c-0.1-0.3-0.1-0.6,0.1-0.8
		c0.1-0.1,0.4-0.3,0.9-0.3h0.4c0.5,0,1.2,0,1.9,0h0.6c0.4,0,0.7,0.1,0.9,0.2c0.2,0.2,0.1,0.5,0.1,0.7c-0.1,0.3-0.5,1.1-1.3,1.9
		C21.3,43.9,20.9,44.1,20.5,44.1L20.5,44.1z M20.9,22l-1.5-0.1c0,0,0.4,0.7,0.6,1.6c0.3,1-0.3,2.5-0.3,2.5S21.8,23.7,20.9,22z
		 M19,48.1c-5.4-0.4-7.3-5.5-7.3-6.6l1.4,0l-0.7,0h0.7c0,0.5,1.4,4.8,6,5.2L19,48.1L19,48.1z" />
		<path class="st3" 
			d="M17.5,39c-0.1-0.5-0.1-1,0-1.4c-0.4-0.3-1.1-0.4-1.7-0.6c-0.5-0.3-2.8,0.3-4.4-1.7c-2.1-2.5-1.7-4.1-1.7-4.1
		c-0.5,0.6-1.1,0.4-1.9,3.2C7,37.1,8.2,39.1,10.4,41c1.1,0.9,2.6,1.3,3.9,1.5c-0.4-0.4,0.7-0.5,1.6-0.8c-0.1-0.7,0-1.3,0.5-1.8
		c0.3-0.3,0.7-0.5,1.1-0.6c0-0.1,0-0.1,0.1-0.1C17.5,39.1,17.5,39,17.5,39z" />
		<path class="st4" 
			d="M15.9,41.7c0-0.1-0.1-0.3-0.1-0.4c0-0.2-0.2-0.6,0-0.1c-0.1-0.1-0.1-0.3-0.1-0.4c-3.7,0-6.8-2.5-6.2-7.8
		c-0.5-0.6-1.1,1.3-1.1,1.3s-1.8,5.3,2.9,7.4c1.6,0.7,3,1.2,3.3,1c0.7,0.1,1.3-0.3,1.5-0.7C15.9,41.9,15.9,41.8,15.9,41.7L15.9,41.7
		z" />
		<path class="st5" 
			d="M17.4,38.2c0-0.4,0.1-0.9,0.3-1.3c0,0,0-0.1,0-0.1c-1.4,0-3-0.1-4.4-0.7c-1.5-0.6-3.4-2.7-3.7-5.1
		c0,0-2.9,2.2-2,6.9c0.8,4.4,4.5,5.9,8.7,6.1c0,0-0.5-1-0.3-1.6c-2.4,0.2-5.1-0.8-6.4-2.9c-1.2-2-0.9-5.3-0.4-5.8
		C10.5,37.5,14.7,38.3,17.4,38.2z" />
		<path class="st5" 
			d="M17.9,35.5c-0.8,2.2-2.3,4-2.3,4s2.1-0.1,2.3-0.5c0.1-0.3,1.9-4.6,2.6-9.6C19.8,30.5,17.9,35.3,17.9,35.5
		L17.9,35.5z" />
		<path class="st1" 
			d="M30,30.4c0,0,2.4,3.7,4.2,6.3c0.3,0.4-1.8,0.4-1.8,0.4L30,30.4L30,30.4z M28.8,22.7c0,0,0.7,1.8,1.1,2.8
		c0.4,1,2.1,1.6,2.1,1.6s-0.9-0.9-0.9-3.2c0-1-1.2-1.3-1.2-1.3L28.8,22.7L28.8,22.7z" />
		<path class="st1" 
			d="M29.6,23.7c0,0,1.5,1.8,4.3,0.8c2.8-1,3.1-4.6,3.1-5.6s-5.3,1-6,1.4C30.2,20.8,28.8,22.5,29.6,23.7L29.6,23.7z
		 M40,4.7c0,0-2.6-0.5-4.3,0.9C34.1,6.9,33.6,8,33.6,8l2.9,2.3c0,0,1.4-0.6,1.8-2.5C38.7,5.9,38.4,5,40,4.7L40,4.7z" />
		<path class="st1" 
			d="M30.3,18.6c1.1-1.6,2.9-2.3,4.4-2.4c2.5-0.2,3.7,0.7,3.7,0.7s-4.1,0.2-5.2,1.7c-2.2,2.9-5.4,3.1-5.9,2.5
		c0.6,0,1.2-0.3,1.9-0.9C29.6,19.7,30,19.1,30.3,18.6z M37.2,24.1c0,0,4.5-1.5,3.6-3.1c-0.9-1.6-0.2-2.4-0.2-2.4s2.5,1.9,1.9,3.9
		c-0.4,1.2-1.1,2.1-4.7,3.8c-1.7,3.2-0.4,9-0.4,9.1c-0.1,0-2.4-1.1-2.3-6.6C35.1,27.1,35.3,24.8,37.2,24.1z M31.3,7.5
		c1.9,1,4.5,2.3,4.5,2.3l-1,0.5c0.1,0.2,0.1,0.3,0.1,0.3l-1,0.5c0,0-2.5,1.8-4.1,3c0.5-1.6,2-4.1,2-4.1S32.2,8.8,31.3,7.5z M25,46.6
		c5.8,0,7.8-2.9,7.8-2.9l-0.9,2.2c-0.3,1-4,3.9-6.9,3.9" />
		<path class="st1" 
			d="M32.1,41.6c0,0-0.5,3.3-2.7,3.3c-1.8,0-2.4-2.8-2.4-3.3L32.1,41.6z M35.7,36.7c-0.2-0.5-0.9-2.6-1.1-4.6
		c-0.3-2.3-0.2-5.7-0.2-5.7s0.6,2.2,1.1,2.6c0.5,0.4,1.4,2.8,1.4,2.8s0.5,3.6,0.7,4.8C37,36.8,36.5,36.4,35.7,36.7L35.7,36.7z
		 M40.8,22.4c0,0-1.2-0.4-1.6-3.1c-0.4-2.6,0.4-4.9,0.4-4.9s-0.1,3.6,0.4,4.3c0.4,0.7,0.8,0.9,1.3,1.9
		C41.8,21.6,41.1,22.1,40.8,22.4z" />
		<path class="st2" 
			d="M39.4,5.3l0.2-0.2C40.4,5.2,39.4,5.3,39.4,5.3z" />
		<path class="st0" 
			d="M30.3,6.7c0,0,1.1-0.2,1.7-1c0.6-0.9,2.2-2.6,4.8-2.6c2.6,0,5.1,0.7,5.1,0.7l-2.2,1.4c-0.2,0-0.6,0-1.3,0
		C35.5,5.3,35.1,8,35.1,8l-9.8-1.4" />
		<path class="st3" 
			d="M29.3,21.9c0,0,1.3,1.3,3.4,0.9c2-0.4,3.3-1.3,3.4-2.9c0.1-1.6-0.4-2.2-0.4-2.2s-2.3,0.7-3.4,1.7
		C31.2,20.4,30.4,21.9,29.3,21.9z" />
		<path class="st4" 
			d="M30.9,21.5c0,0,1.2,0.5,2.4,0.1c1.7-0.6,1.8-2.3,1.8-2.3s1,3-1.9,3.6C31,23.3,29.6,22,29.6,22L30.9,21.5
		L30.9,21.5z" />
		<path class="st5" 
			d="M38.5,10c0.9-0.8,0.2-1.5,0.3-2.4c0-0.5,0.1-0.9,0.2-1.2c0.9-1.4,2.9-1.8,2.9-1.8l1-0.2l-0.6-0.7
		c-0.1-0.1-2.7-2.6-6.7-1.3c-2.8,0.9-4.9,4-5,4.1L32,7.3c0,0,1.7-2.9,4.1-3.7c2-0.6,3.8,0,4.5,0.4c-0.8,0.3-1.9,0.9-2.5,1.9
		c-0.3,0.5-0.4,1.1-0.4,1.7c-0.1,0.8-0.1,1.5-0.7,2L38.5,10L38.5,10z M41,21.4c0,0-1.2-1.5-1.5-4.3c-0.1-1.1,0.1-3.3,0.5-4.2
		c-0.1,2.1,0.5,4.2,0.5,4.2S40.8,21,41,21.4z" />
		<path class="st5" 
			d="M34.7,8.5c0,0,0.4-1.7,1.4-2.5c1.5-1.2,3.3-0.6,3.3-0.5l0.3-0.8c-0.1,0-2.2-0.7-4.1,0.7
		c-1.9,1.4-2.2,2.6-2.2,2.7L34.7,8.5z M37.3,20.4c0,0,0.6-0.9,0.5-1.9c-0.1-0.5-0.3-1-0.7-1.2C36.3,17,36,17.8,36,17.8
		S37.1,18.1,37.3,20.4L37.3,20.4z" />
		<path class="st5" 
			d="M30.4,21.7C30.4,21.8,30.4,21.8,30.4,21.7c0,0.1,1.9,1.5,3.9,0.1c1.1-0.8,1-2.7,0.6-3.6
		c-0.8,0.2-1.6,0.5-2.2,0.9c0.8-0.7,1.4-1.2,1.4-1.2l0.9-0.2l1.7-0.6c0,0.1,0.6,3-1.1,5c-0.8,0.9-4.5,2.8-6.2-0.5L30.4,21.7
		L30.4,21.7z" />
		<path class="st5" 
			d="M30.6,21.9c-1.1,1.7-3.8,0.7-3.8-1c0,0,1.8,1,3.5-0.9c0.9-1.1,4-4.1,8.1-3.1C35.5,17.6,31.8,20.2,30.6,21.9
		L30.6,21.9z" />
		<path class="st5" 
			d="M38.8,26.6c-0.3,0.2-1.2,1.1-1.2,2.5c0,0.7,0.1,4.3,0.4,6.5c-0.5,0.3-0.9,0.4-1.4,0.8
		c-0.3-2.6-0.5-6.3-0.4-7.8c0.1-1.7,1-2.9,1.9-3.3c0.3-0.2,0.5-0.3,0.8-0.5c1.5-0.8,3-1.6,3-3c0-1.1-0.4-1.4-0.9-1.8l0,0
		c-0.3-0.2-0.6-0.5-0.8-1c-0.5-1.2-0.6-4.3,0-5.1c0.3-0.4,1.2-1.7,0.9-2.6c-0.1-0.3-0.3-0.6-0.7-0.8c-0.4-0.2-0.9-0.3-1.5-0.3
		c-1.2,0-2.5,0.4-3.2,0.6c-2.5,0.8-5.4,3-6.3,3.7c0,0,0,0,0,0l-0.5,0.4l0.3-0.6c0,0,2.2-3.6,6-4.9C35.9,9.4,37.4,9,38.8,9
		c0.9,0,1.6,0.2,2.2,0.4c0.7,0.4,1.2,0.9,1.4,1.7c0.5,1.8-1.1,3.8-1.1,3.8c-0.2,0.3-0.3,2.7,0.2,3.7c0.1,0.1,0.2,0.3,0.4,0.4
		c0.1,0.1,0.1,0.1,0.2,0.2c0.6,0.5,1.5,1.1,1.5,2.7c0,2.2-2.2,3.3-3.9,4.3C39.3,26.3,39,26.5,38.8,26.6L38.8,26.6z" />
		<path class="st5" 
			d="M36.2,9.8C35.8,9.2,34.9,8,32.9,7c-2.3-1.1-4.9-1.7-7.9-1.7v0h0v0c-2.9,0-5.6,0.6-7.9,1.7
		c-2.1,1-2.9,2.1-3.3,2.7L13.7,10l1.8,0.4l0.1-0.1l0-0.1c0-0.1,0.3-0.7,2.2-1.7C19.8,7.5,22.3,7,25,7c2.7,0,5.2,0.5,7.3,1.5
		c2,1,2.2,1.6,2.2,1.7l0,0.1l0.1,0.1l1.8-0.4L36.2,9.8L36.2,9.8z" />
		<path class="st5" 
			d="M38.5,10c0.9-0.8,0.2-1.5,0.3-2.4c0-0.5,0.1-0.9,0.2-1.2c0.9-1.4,2.9-1.8,2.9-1.8l1-0.2l-0.6-0.7
		c-0.1-0.1-2.7-2.6-6.7-1.3c-2.8,0.9-4.9,4-5,4.1L32,7.3c0,0,1.7-2.9,4.1-3.7c2-0.6,3.8,0,4.5,0.4c-0.8,0.3-1.9,0.9-2.5,1.9
		c-0.3,0.5-0.4,1.1-0.4,1.7c-0.1,0.8-0.1,1.5-0.7,2L38.5,10L38.5,10z" />
		<path class="st5" 
			d="M36.7,9.6l0.2-0.2c0.5-0.4,0.6-1.1,0.6-1.9c0.1-0.6,0.1-1.2,0.4-1.7c0.6-0.9,1.5-1.5,2.3-1.9
		c-0.5-0.2-1.3-0.5-2.4-0.5c-0.6,0-1.2,0.1-1.7,0.3c-2.2,0.7-3.8,3.3-4,3.6L32,7.4l-1.7-0.8l0.1-0.1c0,0,2.1-3.2,5.1-4.2
		c0.8-0.3,1.6-0.4,2.4-0.4c2.8,0,4.5,1.7,4.5,1.7l0.8,0.9L42,4.8c0,0-2,0.4-2.8,1.7C39,6.8,39,7.2,38.9,7.6c0,0.3,0,0.5,0.1,0.8
		c0.1,0.6,0.2,1.1-0.5,1.7l-0.1,0.1L36.7,9.6L36.7,9.6z" />
		<path class="st5" 
			d="M34.7,8.5c0,0,0.4-1.7,1.4-2.5c1.5-1.2,3.3-0.6,3.3-0.5l0.3-0.8c-0.1,0-2.2-0.7-4.1,0.7
		c-1.9,1.4-2.2,2.6-2.2,2.7L34.7,8.5z" />
		<path class="st5" 
			d="M33.3,8.1l0-0.1c0-0.1,0.3-1.4,2.2-2.8c0.8-0.6,1.8-0.9,2.8-0.9c0.8,0,1.3,0.2,1.4,0.2l0.1,0l-0.4,1.1l-0.1,0
		c-0.1,0-0.5-0.2-1.1-0.2c-0.8,0-1.5,0.2-2.1,0.7c-1,0.8-1.4,2.4-1.4,2.4l0,0.2L33.3,8.1L33.3,8.1z M39.4,5.3l0.2-0.5
		c-0.2-0.1-0.6-0.1-1.2-0.1c-1,0-1.9,0.3-2.6,0.8c-1.6,1.1-2,2.2-2.1,2.5l1,0.4c0.1-0.5,0.5-1.7,1.4-2.4c0.6-0.5,1.4-0.7,2.2-0.7
		C38.8,5.2,39.2,5.3,39.4,5.3L39.4,5.3z M28.5,43.7c-0.7-0.8-1.2-1.6-1.3-1.9c-0.1-0.1-0.1-0.4,0.1-0.7c0.2-0.2,0.5-0.3,0.9-0.3h0.6
		c0.7,0,1.4,0,1.9,0H31c0.5,0,0.8,0.1,0.9,0.3c0.2,0.2,0.2,0.4,0.1,0.8c-0.3,0.9-1.1,1.6-1.3,1.8c-0.3,0.3-0.7,0.4-1.1,0.4
		C29.1,44.1,28.7,43.9,28.5,43.7L28.5,43.7z M29.1,22l1.5-0.1c0,0-0.4,0.7-0.6,1.6c-0.3,1,0.3,2.5,0.3,2.5S28.2,23.7,29.1,22z" />
		<path class="st1" 
			d="M25,16.6c-1,0-2.2,0-3.2-0.7c0,0,1.2,2.2,3.2,2.2l0-0.3v0.3c1.9,0,3.2-2.2,3.2-2.2C27.2,16.6,26,16.6,25,16.6z
		" />
		<path class="st5" 
			d="M27.7,16.6c-1,0.6-1.8,0.8-2.7,0.8c-0.8,0-1.7-0.2-2.7-0.8c0,0,1.4,1.7,2.7,1.7v0c0,0,0,0,0,0c0,0,0,0,0,0v0
		C26.3,18.3,27.7,16.6,27.7,16.6z M31,48.1l-0.1-1.4c4.6-0.4,6-4.7,6-5.2h1.4C38.3,42.6,36.4,47.7,31,48.1z" />
		<path class="st3" 
			d="M32.5,39c0.1-0.5,0.1-1,0-1.4c0.4-0.3,1.1-0.4,1.7-0.6c0.5-0.3,2.8,0.3,4.4-1.7c2.1-2.5,1.7-4.1,1.7-4.1
		c0.5,0.6,1.1,0.4,1.9,3.2c0.8,2.8-0.4,4.7-2.6,6.7c-1.1,0.9-2.6,1.3-3.9,1.5c0.4-0.4-0.7-0.5-1.6-0.8c0.1-0.7,0-1.3-0.5-1.8
		c-0.3-0.3-0.7-0.5-1.1-0.6c0-0.1,0-0.1-0.1-0.1C32.5,39.1,32.5,39,32.5,39L32.5,39z" />
		<path class="st4" 
			d="M34.1,41.7c0-0.1,0.1-0.3,0.1-0.4c0-0.2,0.2-0.6,0-0.1c0.1-0.1,0.1-0.3,0.1-0.4c3.7,0,6.8-2.5,6.2-7.8
		c0.5-0.6,1.1,1.3,1.1,1.3s1.8,5.3-2.9,7.4c-1.6,0.7-3,1.2-3.3,1c-0.7,0.1-1.3-0.3-1.5-0.7C34.1,41.9,34.1,41.8,34.1,41.7L34.1,41.7
		z" />
		<path class="st5" 
			d="M32.6,38.2c0-0.4-0.1-0.9-0.3-1.3c0,0,0-0.1,0-0.1c1.4,0,3-0.1,4.4-0.7c1.5-0.6,3.4-2.7,3.7-5.1
		c0,0,2.9,2.2,2,6.9c-0.8,4.4-4.5,5.9-8.7,6.1c0,0,0.5-1,0.3-1.6c2.4,0.2,5.1-0.8,6.4-2.9c1.2-2,0.9-5.3,0.4-5.8
		C39.5,37.5,35.3,38.3,32.6,38.2L32.6,38.2z" />
		<path class="st5" 
			d="M34.3,39.3c-0.5-0.5-1.4-1.2-3.6-1.2l-5.7,0h0c-1.6,0-5.7,0-5.7,0c-2.1,0-3.1,0.7-3.6,1.2
		c-0.7,0.8-0.9,1.9-0.3,3.3c1.4,3.7,3.3,7.4,9.6,7.4v0c0,0,0,0,0,0c0,0,0,0,0,0v0c6.4,0,8.3-3.7,9.6-7.4
		C35.1,41.2,35,40.1,34.3,39.3L34.3,39.3z M33.3,42.3c-0.6,1.8-2.4,6.3-8.3,6.3c-5.9,0-7.6-4.5-8.3-6.3c-0.4-1-0.3-1.8,0.1-2.2
		c0.3-0.3,0.9-0.7,2.4-0.7h1.5c0,0,2.6,0,4.3,0c1.7,0,4.3,0,4.3,0l1.6,0c1.5,0,2.1,0.4,2.4,0.7C33.6,40.5,33.6,41.3,33.3,42.3
		L33.3,42.3z" />
		<path class="st5" 
			d="M32.1,35.5c0.8,2.2,2.3,4,2.3,4s-2.1-0.1-2.3-0.5c-0.1-0.3-1.9-4.6-2.6-9.6C30.2,30.5,32.1,35.3,32.1,35.5
		L32.1,35.5z" />
	</g>
</svg>
