<svg height="50" 
	width="50" 
	viewBox="0 0 50 50" 
	xmlns="http://www.w3.org/2000/svg">
	<style type="text/css">
	.st0{fill:#25C7B7;}
	</style>
	<g>
		<path class="st0" 
			d="M29.9,32.4l-12.3-2.6c-0.1,0.1-0.1,0.2-0.2,0.3l11.2,16.3l0.7-0.7l1.9-11.8C30.5,33.6,30.1,33,29.9,32.4
		L29.9,32.4z M25.4,16.3c-0.5,0.7-1.3,1.2-2.2,1.2c-0.1,0-0.3,0-0.4,0l-5.6,8.8l14.9-6.4c0-0.1,0-0.1,0-0.2c0-0.1,0-0.2,0-0.4
		L25.4,16.3L25.4,16.3z M25.8,14.7l7.2,3.1c0.2-0.2,0.5-0.3,0.8-0.4L35,10l-4.5-4.5l-5.1,8C25.7,13.9,25.8,14.3,25.8,14.7L25.8,14.7
		z M41,16l-4.5-4.5l-1,6.1c0.3,0.1,0.5,0.3,0.7,0.5L41,16z M30.1,30.7c0.4-0.7,1-1.1,1.8-1.1l1.3-8.1c-0.1-0.1-0.2-0.1-0.3-0.2
		l-15,6.5c0,0.2,0.1,0.3,0.1,0.5L30.1,30.7z M42.2,17.2L37,19.5L50,25l0,0L42.2,17.2L42.2,17.2z M32.8,33.9l-1.6,9.8l9.2-9.2
		l-6.6-1.4C33.6,33.5,33.2,33.8,32.8,33.9z M15,31.4c-0.3,0-0.6-0.1-0.9-0.2L11,36l-1.2-1.2l2.9-4.5c-0.1-0.1-0.1-0.2-0.2-0.3
		l-5.2,2.3L6.1,31l5.7-2.5L1.4,26.4L0,25l0.4-0.4L12.4,27c0.1-0.3,0.3-0.5,0.5-0.7l-5.8-8.4l1.2-1.2l6,8.8c0.2-0.1,0.4-0.1,0.7-0.1
		c0.3,0,0.5,0,0.7,0.1l5.7-8.9c-0.5-0.5-0.7-1.1-0.7-1.8c0-0.2,0-0.4,0.1-0.6l-7.1-3l1.2-1.2l6.7,2.9c0.7-0.6,1.6-0.7,2.5-0.4
		l5.2-8.2L25,0L0,25l25,25l2.5-2.5L16.2,31.1C15.8,31.3,15.4,31.4,15,31.4L15,31.4z M34.8,21.8l-1.3,8.2c0.5,0.4,0.8,0.9,0.8,1.5
		l7.5,1.6l6.9-6.9L36.3,21C35.9,21.4,35.4,21.8,34.8,21.8L34.8,21.8z" />
	</g>
</svg>
