<svg height="50" 
	width="50" 
	viewBox="0 0 50 50" 
	xmlns="http://www.w3.org/2000/svg">
	<style type="text/css">
	.st0{fill:#53C1DE;}
	</style>
	<g>
		<path class="st0" 
			d="M41.1,17.1c-0.5-0.2-1.1-0.4-1.6-0.5c0.1-0.4,0.2-0.7,0.2-1.1c1.2-6,0.4-10.8-2.3-12.4
		C34.8,1.6,30.6,3.2,26.3,7c-0.4,0.4-0.8,0.8-1.2,1.2c-0.3-0.3-0.5-0.5-0.8-0.8c-4.5-4-9-5.8-11.8-4.2c-2.6,1.5-3.4,6-2.3,11.7
		c0.1,0.6,0.2,1.1,0.4,1.7C10,16.8,9.3,17,8.8,17.2C3.4,19,0,21.9,0,25s3.6,6.3,9.1,8.2c0.4,0.2,0.9,0.3,1.4,0.4
		c-0.1,0.6-0.3,1.2-0.4,1.8c-1,5.6-0.2,10,2.4,11.5c2.7,1.6,7.2,0,11.6-3.9c0.3-0.3,0.7-0.6,1-1c0.4,0.4,0.9,0.8,1.4,1.2
		c4.2,3.7,8.4,5.2,11,3.7c2.7-1.6,3.6-6.3,2.4-12.1c-0.1-0.4-0.2-0.9-0.3-1.3c0.3-0.1,0.6-0.2,0.9-0.3c5.7-1.9,9.5-5,9.5-8.2
		C50,21.9,46.5,19,41.1,17.1z M27.8,8.6c3.6-3.1,7.1-4.4,8.6-3.5c1.7,1,2.3,4.9,1.3,10c-0.1,0.3-0.1,0.7-0.2,1
		c-2.1-0.5-4.3-0.8-6.7-1.1c-1.4-2-2.8-3.7-4.2-5.3C27,9.3,27.4,9,27.8,8.6z M16.2,30.2c0.5,0.8,1,1.6,1.6,2.5
		c-1.6-0.2-3.2-0.4-4.6-0.7c0.4-1.4,1-2.9,1.6-4.4C15.3,28.5,15.7,29.3,16.2,30.2z M13.2,18.2c1.4-0.3,3-0.6,4.5-0.8
		c-0.5,0.8-1,1.7-1.5,2.5c-0.5,0.9-1,1.7-1.4,2.6C14.2,21,13.6,19.6,13.2,18.2z M16,25.1c0.7-1.4,1.4-2.7,2.1-4
		c0.8-1.3,1.6-2.6,2.4-3.9c1.5-0.1,3-0.2,4.6-0.2c1.5,0,3.1,0.1,4.6,0.2c0.8,1.3,1.7,2.5,2.4,3.9c0.8,1.3,1.5,2.7,2.2,4
		c-0.8,1.3-1.5,2.6-2.3,3.9s-1.6,2.6-2.4,3.9c-1.5,0.1-3,0.2-4.6,0.2s-3.1,0-4.5-0.1c-0.9-1.3-1.7-2.6-2.4-3.9
		C17.3,27.8,16.6,26.4,16,25.1z M33.8,30.2c0.6-1,1.1-1.9,1.5-2.7c0.7,1.5,1.2,3,1.7,4.4c-1.5,0.3-3,0.6-4.7,0.8
		C32.8,31.9,33.3,31,33.8,30.2z M33.9,19.9c-0.5-0.8-1-1.7-1.5-2.5c1.6,0.2,3.1,0.5,4.6,0.8c-0.4,1.4-1,2.8-1.6,4.3
		C34.9,21.6,34.4,20.8,33.9,19.9z M25.1,11.3c1,1.1,2,2.3,2.9,3.6c-2-0.1-3.9-0.1-5.9,0C23.1,13.6,24.1,12.4,25.1,11.3z M13.6,5.3
		c1.7-1,5.4,0.4,9.3,3.9c0.2,0.2,0.5,0.5,0.8,0.7c-1.5,1.6-2.9,3.3-4.3,5.3c-2.4,0.2-4.6,0.6-6.7,1c-0.2-0.6-0.3-1.1-0.4-1.6
		C11.4,9.8,12,6.2,13.6,5.3z M11,31.4c-0.3-0.1-0.7-0.2-1.2-0.4c-2.4-0.8-4.5-1.9-5.8-3.1c-1.2-1.1-1.9-2.1-1.9-3
		c0-1.8,2.7-4.1,7.3-5.7c0.6-0.2,1.1-0.4,1.7-0.5c0.6,2,1.4,4.2,2.4,6.3C12.5,27.2,11.7,29.4,11,31.4z M22.7,41.2
		c-2,1.7-3.9,2.9-5.6,3.5c-1.5,0.5-2.8,0.6-3.5,0.1c-1.6-0.9-2.2-4.4-1.3-9.1c0.1-0.6,0.2-1.1,0.4-1.7c2.1,0.5,4.3,0.8,6.7,1
		c1.4,1.9,2.8,3.7,4.3,5.3C23.4,40.6,23.1,40.9,22.7,41.2z M25.1,38.8c-1-1.1-2-2.3-3-3.6c1,0,1.9,0.1,2.9,0.1s2,0,3-0.1
		C27.1,36.5,26.1,37.7,25.1,38.8z M38.1,41.7c-0.3,1.6-0.9,2.7-1.6,3.1c-1.6,0.9-5-0.3-8.6-3.4c-0.4-0.4-0.8-0.7-1.3-1.1
		c1.4-1.5,2.8-3.3,4.2-5.3c2.4-0.2,4.7-0.6,6.8-1c0.1,0.3,0.2,0.7,0.3,1.1C38.4,37.6,38.5,39.9,38.1,41.7z M39.9,31.1
		c-0.3,0.1-0.6,0.2-0.8,0.3c-0.6-2-1.5-4.1-2.5-6.3c1-2.2,1.8-4.3,2.4-6.3c0.5,0.1,1,0.3,1.5,0.5c4.6,1.6,7.5,4,7.5,5.8
		C47.9,26.9,44.9,29.4,39.9,31.1z" />
		<path class="st0" 
			d="M25,20.5c2.5,0,4.5,2,4.5,4.5s-2,4.5-4.5,4.5s-4.5-2-4.5-4.5S22.6,20.5,25,20.5" />
	</g>
</svg>
