<svg height="50" 
	width="50" 
	viewBox="0 0 50 50" 
	xmlns="http://www.w3.org/2000/svg">
	<style type="text/css">
	.st0{fill:#DC395F;}
	.st1{fill:#FFFFFF;}
	</style>
	<g>
		<path class="st0" 
			d="M45.5,0H4.5C2,0,0,2,0,4.5v40.9C0,48,2,50,4.5,50h40.9c2.5,0,4.5-2,4.5-4.5V4.5C50,2,48,0,45.5,0" />
		<path class="st1" 
			d="M16.7,15.7c1.7,0,3.1-1.3,3.1-3c0-1.7-1.4-3-3.1-3s-3.1,1.3-3.1,3C13.7,14.4,15,15.7,16.7,15.7 M10.4,31.8
		c-0.2,0.8-0.3,1.6-0.3,2.3c0,2.7,1.4,4.4,4.5,4.4c2.5,0,4.6-1.5,6.1-3.9l-0.9,3.6h5l2.9-11.5c0.7-2.9,2.1-4.4,4.2-4.4
		c1.7,0,2.7,1,2.7,2.7c0,0.5,0,1-0.2,1.6l-1.5,5.3c-0.2,0.8-0.3,1.5-0.3,2.2c0,2.5,1.5,4.4,4.6,4.4c2.7,0,4.8-1.7,5.9-5.8l-2-0.8
		c-1,2.7-1.8,3.2-2.5,3.2c-0.7,0-1-0.4-1-1.3c0-0.4,0.1-0.9,0.2-1.4l1.4-5.2c0.4-1.2,0.5-2.3,0.5-3.3c0-3.9-2.3-5.9-5.2-5.9
		c-2.7,0-5.3,2.4-6.7,4.9l1-4.5h-7.7l-1.1,4h3.6l-2.2,8.9c-1.7,3.9-4.9,3.9-5.3,3.8C15.5,35,15,34.8,15,33.9c0-0.5,0.1-1.2,0.3-2.1
		l3.4-13.4h-8.5l-1.1,4h3.6L10.4,31.8" />
	</g>
</svg>
