<svg height="50" 
	width="50" 
	viewBox="0 0 50 50" 
	xmlns="http://www.w3.org/2000/svg">
	<style type="text/css">
	.st0{fill:url(#SVGID_1_);}
	.st1{fill:#FF7F18;}
	</style>
	<g>

		<radialGradient id="SVGID_1_" 
			cx="-183.9347" 
			cy="-278.8502" 
			r="1.520183e-02" 
			gradientTransform="matrix(2291.6716 0 0 -2275.1792 421535.0938 -634421.8125)" 
			gradientUnits="userSpaceOnUse">
			<stop offset="0" 
				style="stop-color:#423325;stop-opacity:0.98" />
			<stop offset="1" 
				style="stop-color:#1C0A00" />
		</radialGradient>
		<path class="st0" 
			d="M2.1,2.2h45.8v45.7H2.1V2.2z" />
		<path class="st1" 
			d="M2.1,2.2h45.8v45.7H2.1V2.2z M0,50h50V0H0V50z M32.7,17.8c0-0.2,0.1-0.2,0.2-0.2h3.3c0.2,0,0.3,0.1,0.3,0.3
		v16.9c0,0.2,0,0.3-0.3,0.3H33c-0.2,0-0.3-0.1-0.3-0.3L32.7,17.8L32.7,17.8L32.7,17.8z M32.5,13c0-1.4,0.9-2.2,2.1-2.2
		c1.3,0,2.1,0.9,2.1,2.2c0,1.4-0.9,2.2-2.2,2.2C33.4,15.2,32.5,14.4,32.5,13z M23.1,24.9c-0.6-2.4-2-7.5-2.5-10h0
		c-0.4,2.5-1.5,6.7-2.4,10H23.1z M17.3,28.3l-1.6,6.4c0,0.2-0.1,0.2-0.3,0.2h-3.1c-0.2,0-0.3-0.1-0.2-0.3L18,13.4
		c0.1-0.4,0.2-0.7,0.2-1.8c0-0.1,0.1-0.2,0.2-0.2h4.4c0.1,0,0.2,0,0.3,0.2l6.6,23.1c0,0.2,0,0.3-0.2,0.3H26c-0.2,0-0.3,0-0.3-0.2
		L24,28.3H17.3L17.3,28.3z" />
	</g>
</svg>
