<svg height="50" 
	width="50" 
	viewBox="0 0 50 50" 
	xmlns="http://www.w3.org/2000/svg">
	<style type="text/css">
	.st0{fill-rule:evenodd;clip-rule:evenodd;fill:#E535AB;}
	</style>
	<g>
		<path class="st0" 
			d="M29.3,5.7l10.3,5.9c0.3-0.3,0.6-0.6,1-0.8c2.1-1.2,4.9-0.5,6.1,1.6c1.2,2.1,0.5,4.9-1.6,6.1
		c-0.4,0.2-0.8,0.4-1.2,0.5v11.9c0.4,0.1,0.8,0.3,1.2,0.5c2.1,1.2,2.9,4,1.6,6.1c-1.2,2.1-4,2.9-6.1,1.6c-0.4-0.2-0.8-0.5-1.1-0.9
		l-10.2,5.9c0.1,0.5,0.2,0.9,0.2,1.4c0,2.5-2,4.5-4.5,4.5c-2.4,0-4.4-2-4.4-4.4c0-0.4,0.1-0.9,0.2-1.3l-10.3-5.9
		c-0.3,0.3-0.6,0.6-1,0.8c-2.1,1.2-4.9,0.5-6.1-1.6c-1.2-2.1-0.5-4.9,1.6-6.1c0.4-0.2,0.8-0.4,1.2-0.5V19.1C5.8,19,5.4,18.8,5,18.6
		c-2.1-1.2-2.9-4-1.6-6.1s4-2.9,6.1-1.6c0.4,0.2,0.7,0.5,1,0.8l10.3-5.9c-0.1-0.4-0.2-0.8-0.2-1.3c0-2.5,2.1-4.6,4.7-4.5
		c2.2,0.1,4.1,2,4.2,4.3C29.5,4.8,29.4,5.3,29.3,5.7L29.3,5.7z M28.2,7.6l10.3,6c-0.3,1.2-0.2,2.4,0.4,3.4c0.6,1.1,1.6,1.8,2.8,2.1
		v11.9c-0.1,0-0.1,0-0.2,0L28.1,7.7C28.1,7.6,28.2,7.6,28.2,7.6L28.2,7.6z M21.9,7.7L8.5,31c-0.1,0-0.1,0-0.2,0V19.1
		c1.1-0.3,2.2-1,2.8-2.1c0.6-1,0.8-2.3,0.4-3.5l10.3-5.9C21.8,7.6,21.9,7.6,21.9,7.7L21.9,7.7z M26.3,8.7L39.7,32
		c-0.3,0.3-0.6,0.6-0.8,1c-0.2,0.4-0.4,0.8-0.5,1.2H11.6c-0.1-0.4-0.3-0.8-0.5-1.2c-0.2-0.4-0.5-0.7-0.8-1L23.8,8.7
		c0.4,0.1,0.8,0.2,1.2,0.2C25.4,8.9,25.9,8.8,26.3,8.7z M28.3,42.5l10.2-5.9c0-0.1-0.1-0.2-0.1-0.3H11.6c0,0.1,0,0.1,0,0.2l10.3,5.9
		c0.8-0.9,2-1.4,3.2-1.4C26.3,41.1,27.5,41.6,28.3,42.5L28.3,42.5z" />
	</g>
</svg>
