<svg height="50"
	width="50"
	viewBox="0 0 50 50"
	xmlns="http://www.w3.org/2000/svg">
	<style type="text/css">
	.st0{fill:#444444;}
	</style>
	<g>
		<path class="st0"
			d="M45.5,48.9h-8.1l0.6-6.8h-4l-0.6,6.8H16.6L16,42h-4l0.6,6.8H4.5L0,19.3L11.4,1.1h27.3L50,19.3L45.5,48.9z
		 M36.4,10.2H29l0.5,3.4h-9.1l0.5-3.4h-7.3l-4.5,9.1l2.3,18.2h27.3l2.3-18.2L36.4,10.2L36.4,10.2z M32.4,31.5
		c-0.6,0-1.1-1.9-1.1-4.2c0-2.3,0.5-4.2,1.1-4.2s1.1,1.9,1.1,4.2C33.5,29.6,33,31.5,32.4,31.5z M18,31.8c-0.6,0-1.1-1.9-1.1-4.2
		c0-2.3,0.5-4.2,1.1-4.2c0.6,0,1.1,1.9,1.1,4.2C19.2,29.9,18.7,31.8,18,31.8z" />
	</g>
</svg>
