<svg height="50" 
	width="50" 
	viewBox="0 0 50 50" 
	xmlns="http://www.w3.org/2000/svg">
	<style type="text/css">
	.st0{fill:#430098;}
	</style>
	<g>
		<g id="Page-1_1_">
			<g id="main_1_" 
				transform="translate(-25 -23)">
				<g id="nav_1_" 
					transform="translate(25 23)">
					<path id="logo_1_" 
						class="st0" 
						d="M42.9,0H7.1C4.6,0,2.6,2,2.6,4.5v41c0,2.5,2,4.5,4.5,4.5h35.8c2.5,0,4.5-2,4.5-4.5v-41
					C47.4,2,45.4,0,42.9,0z M42.9,47.5H7.1c-1.1,0-2-0.9-2-2v-41c0-1.1,0.9-2,2-2h35.8c1.1,0,2,0.9,2,2v41v0
					C44.9,46.6,44,47.5,42.9,47.5z M13.8,42.5l5.6-5l-5.6-5V42.5z M34.1,22.3c-1-1-2.9-2.2-6-2.2c-3.4,0-6.9,0.9-9.4,1.7V7.5h-4.9
					v21.6l3.5-1.6c0,0,5.8-2.6,10.8-2.6c2.5,0,3.1,1.4,3.1,2.6v15h5v-15C36.2,27.1,36.2,24.4,34.1,22.3z M27.4,15.7h5
					c2.3-2.6,3.4-5.3,3.8-8.2h-5C30.7,10.4,29.4,13,27.4,15.7z" />
				</g>
			</g>
		</g>
	</g>
</svg>
