<svg height="50" 
	width="50" 
	viewBox="0 0 50 50" 
	xmlns="http://www.w3.org/2000/svg">
	<style type="text/css">
	.st0{fill-rule:evenodd;clip-rule:evenodd;fill:#1A1918;}
	.st1{fill-rule:evenodd;clip-rule:evenodd;fill:#21609B;}
	</style>
	<g>
		<g>
			<path class="st0" 
				d="M47.9,20.2l2.1,0c0,0-3.9,5.3-4.2,5.7c-0.1,0.1-0.3,0.3-0.3,0.5c-0.2,0.5-0.4,1.5-0.4,1.5l-1.9,0
			c0,0,0.3-1.1,0.3-1.6c0-0.5-0.3-1-0.4-1.5c-0.1-0.5-0.3-1.5-0.3-1.5h2l0.3,1.1L47.9,20.2" />
			<path class="st0" 
				d="M43.9,21.3c0.4,0.2,0.6,1.5,0.6,1.5l-3.1,0h-1l-1.2,5h-1.8c0,0,1.1-5.5,1.4-6.5c0.1-0.3,0.6-0.3,1.4-0.3h1.3
			C42.5,21.1,43.5,21,43.9,21.3 M35.7,23.7c0,0,0.1-0.3-0.2-0.7c-0.2-0.3-0.4-0.4-0.9-0.4c-1.5,0-1.5,1.1-1.5,1.1L35.7,23.7z
			 M37.3,22.4c0.2,0.8-0.2,2.7-0.2,2.7s-2.2,0-3.5,0c-0.4,0-0.8,0-1,0.1c-0.2,0.2,0.1,0.6,0.2,0.8c0.2,0.2,0.6,0.2,0.8,0.2
			c1,0.1,3.1,0,3.1,0l-0.4,1.6c0,0-3,0.1-4.4-0.2c-0.3-0.1-0.6-0.2-0.7-0.4c-0.1-0.1-0.1-0.1-0.1-0.2c0-0.1-0.1-0.2-0.2-0.4
			c-0.3-0.9,0-2.6,0.4-3.5c0-0.1,0.1-0.2,0.2-0.4c0.1-0.1,0.1-0.3,0.2-0.4c0-0.1,0.1-0.1,0.1-0.2c0-0.1,0.1-0.1,0.1-0.2
			c0.1-0.2,0.3-0.3,0.5-0.4c0.6-0.5,1.7-0.8,3.1-0.7c0.5,0.1,1.3,0.2,1.6,0.7C37.2,22,37.3,22.2,37.3,22.4L37.3,22.4z M29.2,21.1
			l1.7,0c0,0-1,4.5-1.4,6.8h-2c-1.4,0-2.6,0.2-3.1-0.8c-0.5-1,0-2.5,0.2-3.6c0.2-0.8,0.5-2.3,0.5-2.3l1.8,0c0,0-0.5,2.4-0.7,3.6
			c-0.1,0.4-0.2,0.8-0.1,1.2c0.2,0.3,0.4,0.3,1,0.3c0.2,0,0.9,0,0.9,0L29.2,21.1 M21.2,24.4c0.2-0.6,0.4-1.3,0.4-1.9
			c0-0.6-0.6-1.2-0.9-1.3c-1-0.4-1.9,0.1-2.3,0.5c-0.5,0.5-0.6,1.1-0.8,2c-0.1,0.6-0.2,1.3,0,1.8c0.4,0.9,1.7,0.7,3.1,0.7
			C20.9,25.6,21,25,21.2,24.4L21.2,24.4z M23.6,21.9c0.2,1.4-0.6,3-1.1,4.4c0.5,0,1,0,1,0c0,0.1-0.4,1.6-0.5,1.6c-0.4,0-1.8,0-2.4,0
			c-1.9,0-3.7,0.1-4.6-0.8c-0.4-0.4-0.6-1-0.7-1.5c-0.1-0.8,0-1.6,0.2-2.3c0.2-0.6,0.4-1.2,0.7-1.8c0.8-1.4,2.2-2.4,4.5-2.2
			c0.4,0,1.1,0.2,1.5,0.5c0,0,0.1,0.1,0.1,0.1C23,20.3,23.5,21.1,23.6,21.9L23.6,21.9z M15.2,21.1c-0.1,0.5-0.2,1.1-0.3,1.6H13
			c0.1-0.6,0.3-1.1,0.4-1.6C14,21.1,15.2,21.1,15.2,21.1 M12.9,23.2h1.8c-0.2,1.3-0.7,3.5-1.1,5c-0.2,0.9-0.4,1.6-1,2.1
			c-0.1,0-0.1,0-0.1,0.1c-0.1,0.1-0.7,0.2-1,0.3c-0.5,0.1-1,0-1.6,0c0.2-0.6,0.3-1.3,0.5-1.8c1.5,0.2,1.5-1.2,1.8-2.5
			C12.3,25.6,12.8,23.5,12.9,23.2" />
			<g>
				<path class="st1" 
					d="M8.6,26.7l0,0.1C7.9,28.1,6.7,28.9,5,29c-0.8,0-1.5-0.2-2-0.4c-1.1-0.5-2-1.4-2.5-2.3
				c-0.7-1.4-0.8-3.3,0.6-4.7c0,0-0.2,0.3-0.2,0.3l0,0.1c-1.1,3.3,2.2,6.1,5.3,5.8C7,27.7,8,27.3,8.6,26.7" />
				<path class="st1" 
					d="M6.7,25.3c0.8,0,1.6-0.4,2.1-0.9c-0.4,1.1-1.7,1.8-3.3,1.6c-1.4-0.2-2.7-1.6-2.9-3c-0.1-1,0.3-1.6,0.8-2.4
				c-0.2,0.4-0.3,0.7-0.3,0.9C2.9,23.7,4.9,25.3,6.7,25.3" />
				<path class="st1" 
					d="M8.7,22.6c-0.1,0.3-0.8,0.8-1.1,0.9c-1.2,0.3-2-0.3-2.5-1c-0.1-0.1-0.2-0.4-0.2-0.4
				c-0.2-0.5-0.1-1.4,0.4-1.8c-0.1,0.4-0.2,0.9-0.1,1.2c0,0.2,0.2,0.5,0.3,0.7c0.3,0.4,0.4,0.5,0.7,0.7C6.5,22.9,6.6,23,6.7,23
				C7,23.1,7.7,23.3,8.7,22.6" />
			</g>
		</g>
	</g>
</svg>
