<svg height="50" 
	width="50" 
	viewBox="0 0 50 50" 
	xmlns="http://www.w3.org/2000/svg">
	<style type="text/css">
	.st0{fill:#F9DC3E;}
	</style>
	<g>
		<path d="M34.3,17l0-0.1l-0.2,0l0,0.1C34.1,17,34.3,17,34.3,17z M35.5,19.8L35.5,19.8l0.1,0c0,0,0-0.1,0-0.2l0-0.1
		C35.6,19.6,35.5,19.7,35.5,19.8L35.5,19.8z M30.9,23.3c0-0.1-0.3-0.5-0.9-1.2c0-0.1,0.2-0.3,0.6-0.6l1.2-1.1
		c0.3-0.4,0.4-0.9,0.5-1.7l0-0.2c0-0.5-0.4-1-1.2-1.3c-0.4-0.3-1.2-0.5-2.4-0.5c-1,0.1-2.2,0.4-3.7,1c-0.4,0.3-0.9,0.6-1.4,0.9
		l0,0.1c0,0,0.1,0,0.1-0.1c0.1,0,0.1,0,0.1,0.1l0.1,0l0,0l0,0c0,0-0.3,0.3-1,0.8l0.1,0.1l0,0l-0.1,0c0,0,0,0.1-0.1,0.1l0,0l0.1,0.1
		c0,0-0.1,0-0.2,0c-0.2,0-0.3,0.1-0.5,0.3l0.1-0.3c0.2-1,0.4-1.8,0.5-2.6l0,0c-0.2-0.1-0.3-0.2-0.4-0.4c0-0.1,0-0.2,0-0.2l0,0l0,0
		c-0.5,0.7-1.4,2-2.8,3.7c-1.1,1.3-1.6,2-1.6,2.1c-0.4,0.4-0.6,0.7-0.6,0.8C17,23.3,17,23.4,17,23.5c0,0-0.1,0-0.1,0
		c-0.2,0.3-0.5,0.5-0.8,0.6l-0.4,0.1c-0.1,0-0.1,0-0.1,0.1l0,0l0.1,0l0,0l-0.3,0.1l-0.6,0.1l-0.3,0c0,0,0.2,0,0.1,0l-0.4,0.1
		c-0.2,0.1-0.4,0-0.4-0.1l0,0c0,0,0,0.1,0,0.1l0-0.1l-0.3,0.1c0-0.1-0.4-0.6-1.2-1.5c0-0.2,0.3-0.4,0.8-0.7l1.6-1.4
		c0.4-0.5,0.6-1.2,0.6-2.2l0-0.2c-0.1-0.7-0.6-1.3-1.6-1.8c-0.6-0.4-1.6-0.6-3.1-0.6c-1.3,0.1-2.9,0.6-4.9,1.3
		c-0.6,0.4-1.2,0.8-1.9,1.2l0,0.1c0,0,0.1,0,0.2-0.1c0.1,0,0.1,0,0.1,0.1l0.1-0.1l0.1,0l0,0.1c0,0.1-0.4,0.4-1.3,1l0.1,0.1l-0.1,0
		l-0.1,0c0,0-0.1,0.1-0.2,0.1l0,0.1L3,20.2c0,0-0.1,0-0.2,0c-0.3,0-0.6,0.2-0.8,0.6L2,20.9c0.2-0.2,0.4-0.3,0.4-0.3l0,0.2
		c0,0-0.1,0-0.2,0.1L2.4,21c0.3-0.3,0.6-0.6,1-0.8c0.2,0,0.3,0.1,0.3,0.2l0.1,0c1-0.7,1.9-1.2,2.8-1.5l0,0.1
		c-0.2,0.3-0.3,0.4-0.4,0.4c0,0.1,0,0.2,0.1,0.2c0,0.2-0.4,1.2-1.3,3.2c-2,4.6-3.6,8-4.9,10.2c0,0,0,0.1,0.1,0.2
		C0.6,33.1,0.8,33,0.9,33l0.1,0l0,0.1l0.1,0L1.2,33c0,0,0,0.1,0.1,0l0,0.1c0,0.1-0.1,0.3-0.2,0.6c-0.1,0.2-0.3,0.5-0.4,1l0,0.1
		l0.1,0C1.4,34.1,1.8,33.5,2,33c1.6-0.5,2.7-0.9,3.6-1.3C6.4,31.6,7,31.3,7.5,31l0-0.1L7.2,31l-0.1,0l0-0.1c0.6-0.1,1-0.2,1.3-0.4
		c1.2-0.9,2.1-1.6,2.7-1.9c1.2-0.9,2-1.8,2.4-2.7c0.1,0,0.1,0,0.2,0c0.2,0,0.3,0,0.3,0c0,0,0-0.1,0-0.1c0.3,0,0.1,0,0.3,0l0.5-0.1
		c0,0,0,0,0,0.1l0.1,0c0,0,0,0,0,0l0.1,0l0,0c0.1,0,0.1,0,0.2,0l0,0.1l-2.1,3.4l-0.5,0.6l-0.2,0.8l0,0l0.2-0.1l-0.1,0.3l0,0.1
		l0.1,0.1c0,0,0,0,0,0.1l0,0l0.1,0c0.1-0.1,0.2-0.2,0.2-0.3c0.2,0,0.3,0,0.3,0l0,0c-0.1,0-0.1,0.1-0.1,0.2l0,0l0.1,0
		c0.8-0.8,2.7-3.7,4.2-5.7c0-0.2,0.7-0.5,2.4-0.9l0.1,0c0.1,0.3-0.1,0.9-0.4,1.9c-0.2,0.6-0.3,0.9-0.3,1c-0.3,0.8-0.4,1.2-0.4,1.3
		l-0.6,1.9c-0.4,1-0.7,2-0.9,3.1c0,0,0.1,0,0.2,0l0.1-0.1c0,0,0,0,0.1,0l0-0.1l0.3,0c0.1,0,0.1-0.1,0.2-0.3c0-0.3,0-0.4,0.2-0.4
		c0.2-0.6,0.3-0.9,0.3-0.9c0.1-0.6,0.3-0.9,0.3-1c0.2-0.8,0.4-1.2,0.5-1.2l0,0.1L18.9,30c-0.3,1.2-0.6,2.2-0.8,2.9l0.1,0.4l0.1,0
		c0.7-1.5,1.7-4.4,3-8.8c0-0.4,0.2-0.7,0.6-0.9l-0.1-0.1l0,0c0.1,0,0.3-0.1,0.3-0.2c0,0-0.1-0.1-0.4-0.1l0.6-2.8
		c0.1-0.1,0.2-0.2,0.2-0.2l0,0.1c0,0-0.1,0-0.1,0.1l0.1,0.2c0.2-0.2,0.5-0.4,0.7-0.6c0.1,0,0.2,0.1,0.2,0.1l0.1,0
		c0.7-0.5,1.4-0.9,2.2-1.2l0,0.1c-0.1,0.2-0.2,0.3-0.3,0.3c0,0.1,0,0.1,0.1,0.2c0,0.1-0.3,0.9-1,2.4c-1.5,3.5-2.7,6.1-3.7,7.7
		c0,0,0,0.1,0.1,0.1c0.2-0.1,0.4-0.1,0.5-0.2l0,0l0,0.1l0.1,0l0.1,0c0,0,0,0,0.1,0l0,0.1c0,0.1,0,0.2-0.2,0.4
		c-0.1,0.1-0.2,0.4-0.3,0.7l0,0l0.1,0c0.4-0.5,0.7-0.9,0.9-1.3c1.2-0.3,2.1-0.7,2.7-1c0.6-0.1,1.1-0.2,1.4-0.5l0,0L26,28.1l-0.1,0
		l0,0c0.5-0.1,0.8-0.2,1-0.3c0.9-0.7,1.6-1.2,2-1.5C30.3,25.3,31,24.3,30.9,23.3L30.9,23.3z M30.7,23.4l0,0.4c0,0.1-0.1,0.1-0.1,0.1
		l-0.1-0.6C30.6,23.3,30.7,23.4,30.7,23.4L30.7,23.4z M2.7,20.4L2.7,20.4l-0.1-0.1l0.3,0l0,0.1C2.8,20.3,2.8,20.3,2.7,20.4L2.7,20.4
		z M1.5,32.8c-0.1-0.1-0.3-0.1-0.4-0.1l0-0.2c0-0.1,0-0.1,0.1-0.1c0.1,0,0.1,0.1,0.1,0.2c0.2-0.3,0.3-0.4,0.4-0.4l0.1,0.1
		C1.8,32.6,1.6,32.8,1.5,32.8z M14.8,18.9c-0.1,0-0.2-0.2-0.4-0.6l0-0.1c0.1,0,0.2,0.2,0.4,0.6L14.8,18.9z M14.6,17.5l-0.1,0.1
		l-1.8-0.8C13.9,17,14.5,17.2,14.6,17.5z M6.9,24.1l-0.3,0l0-0.1l0.3,0L6.9,24.1z M6.7,20.2L6.7,20.2l0.1,0.2
		c-0.1,0-0.1,0.1-0.2,0.3l0-0.1C6.7,20.3,6.8,20.2,6.7,20.2L6.7,20.2z M6.2,21.4l0,0.2l-0.1,0L6.2,21.4L6.2,21.4z M5.9,21.9l0.1,0
		c0,0.2-0.1,0.3-0.2,0.3l-0.1,0C5.9,22.1,5.9,21.9,5.9,21.9z M5.7,22.5L5.7,22.5L5.7,22.5l0,0.2l-0.1,0l0-0.1
		C5.7,22.7,5.7,22.6,5.7,22.5L5.7,22.5z M5.5,23.1l0,0.3l-0.1,0l0-0.3L5.5,23.1z M3.4,29c-0.1,0.4-0.2,0.6-0.3,0.6l0-0.1
		C3.1,29.3,3.2,29.1,3.4,29L3.4,29z M3.1,29.8L3.1,29.8C3.1,29.9,3,30,3,30l0-0.1C2.9,29.8,3,29.8,3.1,29.8z M2.9,31.5l0.2,0l0,0.1
		c0,0-0.1,0-0.2,0.1l-0.1,0C2.8,31.6,2.9,31.5,2.9,31.5L2.9,31.5L2.9,31.5z M8.4,29.8c-1.1,0.5-1.7,0.9-1.9,1.1
		c-1.2,0.4-1.7,0.7-1.7,0.8c-1,0.4-1.7,0.7-2,0.9c-0.1,0-0.2,0-0.3-0.1c0-0.2,0.1-0.4,0.3-0.5c0.2,0,0.4,0,0.5,0.1
		c0.2-0.1,0.5-0.2,1-0.3l0-0.1l-0.4,0c0-0.1,0.4-0.2,1.1-0.5l0.2,0l0,0.1c-0.3,0-0.5,0.1-0.6,0.3c0,0.1,0.1,0.1,0.1,0.1
		c0.2-0.2,0.4-0.2,0.4-0.3c0.5-0.1,1.8-0.8,3.9-2l0,0.1C9,29.4,8.8,29.5,8.4,29.8L8.4,29.8z M5.2,30.9c0.3,0,0.6-0.2,0.8-0.4
		c0.1,0,0.1,0,0.1,0.1c-0.2,0-0.4,0.1-0.9,0.4l-0.1,0L5.2,30.9L5.2,30.9z M10.4,26.8l-1.6,1.3c-1.2,0.8-1.9,1.2-2,1.2
		c-1.9,1.1-3.1,1.6-3.6,1.7l-0.1,0c0.1-0.2,0.9-2,2.6-5.3c0.7-0.1,1.9-0.4,3.5-1l0.4,0c0.8-0.1,1.4,0.1,1.8,0.5l0,0.2
		C11.1,26.2,10.8,26.7,10.4,26.8L10.4,26.8z M7.2,25l0.3,0l0,0.1L7.2,25L7.2,25z M10.9,24.4l0.2,0c0.2,0.1,0.3,0.2,0.3,0.2l0,0.1
		C11.2,24.7,11.1,24.6,10.9,24.4z M11.4,21.5c-0.2,0.2-0.6,0.6-1.4,1c-0.3,0-1.2,0.4-2.8,1.1c-0.1,0-0.2-0.1-0.3,0l0-0.1
		c0-0.2,0.1-0.5,0.3-0.9c0.1-0.7,0.3-1,0.4-1.1l1.3-3c0-0.2,0.3-0.3,0.9-0.4l0.2,0l0,0.2C10.7,18,11,18,11.2,18
		c1.1-0.1,1.6,0.1,1.7,0.6l0.1,0l0-0.3l0.1,0c0.3,0.2,0.5,0.4,0.5,0.6c0,0.2-0.1,0.4-0.3,0.6c-0.1,0-0.1-0.1-0.1-0.2l-0.1,0l0,0.4
		c-0.5,0.8-0.9,1.2-1.2,1.3C11.6,21.3,11.5,21.5,11.4,21.5z M12.3,23.6c-0.1-0.1-0.2-0.1-0.3-0.1l0-0.2l0.1,0l0.3,0.2
		C12.4,23.5,12.3,23.6,12.3,23.6L12.3,23.6z M13.1,24.6c0.1,0,0.2,0.1,0.2,0.1l-0.1,0l0,0c0,0,0,0,0,0l-0.1,0.1L13.1,24.6z
		 M13.2,25.1L13.2,25.1l0.1-0.1l0,0L13.2,25.1z M13.6,25.5c0.2,0,0.2,0,0.5-0.1l0,0L13.6,25.5C13.6,25.6,13.6,25.5,13.6,25.5z
		 M14.1,25.8c-0.2,0-0.2,0-0.6,0.1l0,0l0.5-0.2l0.2-0.1l0,0.1C14.2,25.7,14.2,25.7,14.1,25.8z M14.6,25.6c-0.1,0-0.1,0-0.1-0.1
		l0.1,0c0.1,0,0.1,0,0.1,0.1L14.6,25.6L14.6,25.6z M16,24.2L16,24.2l0.2-0.1l0,0.1L16,24.2z M17.4,33c0-0.1,0-0.1,0-0.1l0.1,0
		c0.1,0,0.1,0,0.1,0.1l0,0L17.4,33L17.4,33z M18.4,24.6l-0.1,0c-0.2,0.1-0.3,0.1-0.4,0.1l-0.1,0c-0.1,0-0.1,0-0.1-0.1L18.4,24.6
		l0.2-0.2l0.1,0.1C18.5,24.5,18.5,24.5,18.4,24.6L18.4,24.6z M18.9,24.4L18.9,24.4c0-0.1,0.1-0.1,0.1-0.1l0.5-0.1l0,0
		C19.3,24.3,19.1,24.3,18.9,24.4L18.9,24.4z M19,23.4c0,0-0.1,0-0.1,0.1c0,0-0.1,0-0.2,0c0-0.1,0.3-0.2,1.1-0.4l0.1,0l0,0.1
		C19.4,23.3,19.1,23.4,19,23.4L19,23.4z M20.3,22c-0.1,0.6-0.3,0.9-0.6,1l0,0l-0.3,0.1l-0.1,0c-0.1,0-0.1,0-0.2,0l0-0.1
		c0,0,0.5-0.7,1.4-1.9l0.1,0C20.5,21.3,20.5,21.6,20.3,22L20.3,22z M22.6,20.1L22.6,20.1L22.6,20.1l0.1-0.1l0,0
		C22.7,20,22.7,20,22.6,20.1L22.6,20.1z M21.7,29.5c-0.1-0.1-0.2-0.1-0.3-0.1l0-0.1c0,0,0-0.1,0.1-0.1c0.1,0,0.1,0,0.1,0.1
		c0.2-0.2,0.2-0.3,0.3-0.3l0.1,0C21.9,29.4,21.8,29.5,21.7,29.5L21.7,29.5z M31.7,19c0,0-0.1-0.1-0.3-0.4l0-0.1
		c0.1,0,0.2,0.1,0.3,0.4L31.7,19L31.7,19z M31.6,17.9L31.6,17.9l-1.4-0.5C31.1,17.5,31.6,17.6,31.6,17.9z M25.8,22.9l-0.2,0l0-0.1
		L25.8,22.9L25.8,22.9L25.8,22.9z M25.7,19.9L25.7,19.9l0.1,0.1c0,0-0.1,0.1-0.2,0.2l0-0.1C25.6,20,25.7,20,25.7,19.9L25.7,19.9z
		 M25.3,20.9l0,0.2l-0.1,0L25.3,20.9L25.3,20.9z M25,21.2L25,21.2c0.1,0.1,0,0.2,0,0.2l-0.1,0C25,21.3,25,21.3,25,21.2L25,21.2z
		 M24.9,21.7L24.9,21.7L24.9,21.7l0,0.2l-0.1,0l0,0C24.8,21.8,24.9,21.8,24.9,21.7L24.9,21.7z M24.7,22.1l0,0.2l0,0L24.7,22.1
		L24.7,22.1L24.7,22.1z M23.2,26.6c-0.1,0.3-0.1,0.5-0.2,0.5l0,0C22.9,26.9,23,26.7,23.2,26.6z M22.9,27.2L22.9,27.2
		c0,0.1,0,0.1-0.1,0.1L22.9,27.2C22.8,27.3,22.8,27.2,22.9,27.2L22.9,27.2z M22.8,28.5l0.1,0l0,0C22.9,28.6,22.8,28.6,22.8,28.5
		L22.8,28.5C22.7,28.6,22.7,28.5,22.8,28.5L22.8,28.5z M26.9,27.2c-0.8,0.4-1.3,0.7-1.4,0.8c-0.9,0.3-1.3,0.5-1.3,0.6
		c-0.8,0.3-1.3,0.5-1.5,0.7c-0.1,0-0.1,0-0.3-0.1c0-0.2,0.1-0.3,0.2-0.4c0.1,0,0.3,0,0.4,0.1c0.1-0.1,0.4-0.2,0.8-0.2l0-0.1l-0.3,0
		c0-0.1,0.3-0.2,0.8-0.4l0.1,0l0,0c-0.3,0-0.4,0.1-0.4,0.2c0,0.1,0,0.1,0.1,0.1c0.2-0.1,0.3-0.2,0.3-0.2c0.4-0.1,1.3-0.6,3-1.5
		l0,0.1C27.3,26.9,27.2,27,26.9,27.2L26.9,27.2z M24.5,28c0.2,0,0.4-0.1,0.6-0.3c0.1,0,0.1,0,0.1,0.1C25.1,27.9,24.8,27.9,24.5,28
		L24.5,28L24.5,28L24.5,28z M28.4,25l-1.2,1c-0.9,0.6-1.4,0.9-1.5,0.9c-1.5,0.8-2.4,1.2-2.7,1.3l-0.1,0c0-0.2,0.7-1.5,2-4
		c0.6,0,1.4-0.3,2.6-0.8l0.3,0c0.6-0.1,1.1,0.1,1.3,0.4l0,0.2C29,24.5,28.7,24.9,28.4,25L28.4,25z M26,23.6l0.2,0l0,0L26,23.6
		L26,23.6z M28.8,23.1l0.1,0c0.1,0.1,0.2,0.1,0.2,0.2l0,0C29.1,23.4,28.9,23.3,28.8,23.1z M29.2,20.9c-0.1,0.2-0.5,0.4-1.1,0.8
		c-0.2,0-0.9,0.3-2.1,0.8c-0.1,0-0.1,0-0.2,0l0-0.1c0-0.2,0.1-0.4,0.2-0.7c0.1-0.5,0.2-0.8,0.3-0.9l1-2.3c0-0.1,0.2-0.2,0.6-0.3
		l0.1,0l0,0.1c0.4-0.1,0.7-0.1,0.8-0.1c0.8-0.1,1.2,0.1,1.3,0.5l0.1,0l0-0.2l0.1,0c0.2,0.1,0.4,0.3,0.4,0.5c0,0.1-0.1,0.3-0.2,0.5
		c-0.1,0-0.1,0-0.1-0.1l-0.1,0l0,0.3c-0.4,0.6-0.7,0.9-0.9,1C29.4,20.8,29.3,20.9,29.2,20.9L29.2,20.9z M29.6,22.4l0-0.1l0.1,0
		l0.2,0.1c0,0.1,0,0.1-0.1,0.1C29.8,22.4,29.7,22.4,29.6,22.4L29.6,22.4z M12.5,31.4L12.5,31.4l-0.2,0.1c0,0.1,0.1,0.1,0.1,0.1
		C12.5,31.5,12.5,31.5,12.5,31.4L12.5,31.4z M12.1,30.7L12.1,30.7C12.2,30.7,12.2,30.7,12.1,30.7l0.1-0.1
		C12.1,30.6,12.1,30.6,12.1,30.7L12.1,30.7z M14.7,24.5l0.1,0l0-0.1L14.7,24.5L14.7,24.5L14.7,24.5z M48.2,27.3
		c-1.1,0.3-1.3,0.2-1.5,0.2l0,0.1l0.1,0l0.1,0l0,0l0.1,0C48.1,27.4,48.2,27.5,48.2,27.3L48.2,27.3z M42.2,28.1L42.2,28.1L42.2,28.1
		L42.2,28.1L42.2,28.1L42.2,28.1z M41.5,25.7L41.5,25.7c-0.2,0.2-0.2,0.3-0.2,0.4l0,0C41.3,26.1,41.4,25.9,41.5,25.7z M48.4,27.3
		L48.4,27.3l0.2,0.1l0-0.1L48.4,27.3L48.4,27.3z M40.8,28.2l-0.3,0l0,0.1l0,0l1.5-0.1l0-0.1L40.8,28.2L40.8,28.2z M40.1,24.9
		L40.1,24.9L40.1,24.9L40,25L40,25C40.1,25,40.1,25,40.1,24.9L40.1,24.9z M49.1,26.6L49.1,26.6c0.1,0,0.1,0,0.1-0.1l0-0.1
		c-0.3,0-0.4,0-0.6,0.1l0,0l-0.3,0c0-0.1,0-0.1-0.1-0.1l-0.2,0c-0.2,0-0.3,0-0.4,0.1c0,0,0,0,0,0l-0.2,0l-0.1,0.1c0,0,0,0,0,0
		l-0.1,0.1l0,0l-0.2,0l-0.1,0l0,0.1l0.1,0l0.1,0c0,0,0.1,0,0.1,0l0.1-0.1l0,0c-0.6,0.1-0.6,0.1-1,0.2c0,0-0.1,0-0.1,0l0,0
		c0,0-0.1,0-0.1-0.1l0.2,0c0,0,0,0,0.1,0c0.2-0.1,0.2-0.1,0.3-0.1l0-0.1c-0.6,0.1-0.3,0-1.1,0.1l0,0l0-0.1c0.9-0.1,0.6,0,0.9-0.1
		c0,0,0,0,0,0c0,0,0.1-0.1,0.1-0.1l0.1,0c0.3,0,0.4,0,1.1-0.1l0,0l0.1-0.1l0.1,0c0-0.1,0.1-0.1,0.2-0.1l0-0.1
		c-1.1,0.2-1.4,0.2-1.7,0.3l0,0c-0.3,0.1-0.3,0-0.4,0c0,0-0.1,0-0.1,0.1c0,0,0,0,0,0c0,0,0,0,0,0l-0.9,0.2c0,0,0,0,0,0
		c-0.5,0.1-0.4,0.1-1,0.2c0,0-0.1,0-0.1,0.1c0,0,0,0-0.1,0l-0.4,0l-0.3,0.1c0,0,0,0-0.1,0c-0.2,0-0.3,0.1-0.4,0.1h0c-0.1,0,0,0,0,0
		l-0.1,0c-0.1,0-0.1,0-0.5,0c-0.7,0.1-0.6,0.1-0.7,0.1l-0.3,0c0,0,0,0,0,0c-0.3,0-0.5-0.1-0.5-0.1c0-0.3,0.1-0.4,0.2-0.4l0.1,0
		l0,0.1l0.1,0c0.1-0.1,0.1-0.1,0.1-0.1l0-0.1l-0.1,0l0-0.1c0-0.1,0-0.1,0-0.2l0.2-0.4l0,0.1l0.1,0l0-0.1l-0.1-0.1
		c0.1-0.1,0.1-0.1,0.2-0.1l0,0l-0.1,0l0-0.1c0.3-0.6,0.4-0.9,0.4-1l0.1,0c0.1,0,0.1,0,0.1-0.1L42,24l0,0c0-0.1,0-0.1,0-0.2
		c0.2-0.2,0.2-0.3,0.2-0.5c0,0,0,0,0,0c0.1-0.1,0.2-0.3,0.3-0.6c0.2-0.4,0.6-1.2,1-2.5c0.8-2.2,0.8-2.4,0.9-2.9l-0.1,0
		c0,0.1,0,0.1,0,0.2c-0.1,0-0.1,0-0.2,0l0,0c0-0.2,0.1-0.4,0.2-0.7l0,0l0.1,0.3l0.1,0c0,0,0-0.1,0.1-0.4c0,0,0-0.1-0.1-0.1l-0.1,0.1
		c0-0.1,0-0.2,0-0.5l0,0c-0.1-0.1-0.1-0.1-0.1-0.2L43.8,16c0,0,0-0.1-0.1-0.2c0,0,0.1-0.1,0.4-0.1l0.1,0l0.1-0.1c0,0,0,0,0.1,0
		l0.1-0.1c0,0,0,0,0.1,0l0,0l0-0.1c-0.1,0-0.3,0-0.6,0l-0.1,0.1l0-0.1c-2.5,0.2-3.9,0.3-4.2,0.4c0,0-0.2,0-0.5,0c0,0,0,0.1-0.1,0.1
		l-0.1,0L38.5,16c-0.1,0-0.2,0-0.4,0c-0.1,0-0.1,0.1-0.2,0.1c0,0,0.5,0,1.1-0.1c-0.1,0-0.1,0.1-0.3,0.1c-0.1,0-0.2,0-0.2,0
		c-0.1,0-0.3,0.1-0.8,0.2l-0.1,0l-1.7,0.3c-0.1,0-0.1,0-0.2,0c-0.1,0-0.2,0-0.5,0.1l-0.8,0.3l0.1,0.1c0,0,0.1,0,0.2-0.1l0.3,0l0,0.3
		c-0.3,0.1-0.4,0.3-0.5,0.5c-0.4,0.2-0.6,0.3-0.6,0.4l0,0l0.1,0l0.1-0.1l0.1,0.2l0,0.2c0,0.1-0.7,1.5-2.1,4.4
		c-1.2,2.7-1.8,4.2-1.9,4.5c-0.4,0.1-0.6,0.3-0.7,0.5c0,0.1,0.1,0.1,0.4,0.1l0,0.1l-0.1,0.2l0,0.2c0,0.1,0.3,0.2,0.9,0.3
		c0,0,0-0.1,0.1-0.1c0,0.1,0,0.4-0.1,0.8l0.1,0c0.2-0.3,0.4-0.6,0.3-0.7l0.1,0c0.1,0,0.1,0.1,0.2,0.2c-0.1,0-0.3,0.6-0.8,1.8
		l0.1,0.1l0.1,0c0.5-1.4,0.9-2.1,1-2.3c0.7-0.1,1.9-0.2,3.7-0.4l0.1-0.1c0,0,0,0.1,0.1,0.1l0.1,0l0.1-0.1c0,0,0,0.1,0.1,0.1l1.3-0.1
		c0.4,0,0.5-0.1,0.5-0.3c0,0,0.2-0.1,0.6-0.2c0,0,0.1,0,0.2,0c0,0,0.2-0.1,0.6-0.1c0-0.2,0.1-0.3,0.2-0.4l0-0.1
		c-0.1,0-0.3,0-0.4,0.1c-0.3,0-0.5,0-0.5-0.1c-0.1,0-0.1,0.1-0.2,0.1l-0.9,0l-0.1,0.1c0,0,0,0-0.1,0l-0.1,0l-0.1,0.1
		c0,0-0.1-0.1-0.3-0.1l-0.1,0.1l-0.2,0l0-0.1c1.2-0.1,1.8-0.3,1.8-0.5c0.1,0,0.1,0,0.1,0.1l0.3-0.1l0-0.1l-2.8,0.1
		c0,0,0,0.1-0.1,0.1l-0.3,0c-0.1,0-0.2,0-0.2,0.1l-0.1,0c-0.4,0-0.6,0.1-0.8,0.1c-0.2,0-0.5,0-0.8,0l-0.6,0.1l-0.3,0
		c0-0.2,0.4-1.1,1.1-2.8c0.2-0.6,0.4-0.9,0.6-1c0,0,0.1,0,0.2,0l0.5-0.2l0.2,0c0.4,0,0.8-0.1,1.4-0.3c0.1,0,0.2,0,0.3,0l0.3-0.1
		l1-0.1c0.4,0,0.9-0.1,1.4-0.3l0-0.1c-0.2,0-0.3,0-0.3-0.1c0-0.1-0.2-0.2-0.4-0.2l0-0.1l0.3-0.1l0.7-0.1l0-0.1c0,0-0.2,0-0.5,0
		l0-0.1l0.3,0c0.1,0,0.1,0,0.1-0.1c-0.4,0-0.6,0-0.6-0.1c-2.7,0.1-4.1,0.2-4.1,0.1c0,0-0.1,0-0.2,0.1l-0.1-0.1
		c0.7-1.5,1.1-2.3,1.3-2.3c0,0.1,0,0.2-0.1,0.3l0,0l0.1,0c0.3-0.7,0.5-1,0.7-1c0.8-0.1-0.1-0.1,1.7-0.4c0.1,0,0.1,0,0.2,0
		c0.7-0.1,1.7-0.3,3-0.5l0-0.1l-0.7,0.1l0-0.1c0.1,0,0.1,0,0.2-0.1l0,0.1c0,0,0.1,0,0.2-0.1c0.1,0,0.2,0,0.3,0
		c0.2-0.1,0.4-0.1,0.6-0.1l0.4,0c0.1-0.1,0.2-0.1,0.1-0.2l0,0c-0.1,0-0.2,0-0.4,0c0-0.1,0-0.1,0.1-0.1l0.8-0.1l0.4-0.1
		c0,0,0,0.1,0.1,0.1c0,0,0.1,0,0.2-0.1c0,0,0,0,0.1,0c0,0.1-0.1,0.2-0.2,0.4l-0.1,0c0-0.1,0-0.1-0.1-0.2l-0.1,0
		c-1,2.7-1.4,3.9-2.3,6c-0.2,0.5-0.3,0.8-0.4,0.9c0,0.1,0,0.1,0.1,0.1c0,0.3,0,0.5-0.2,0.8c-0.4,1.2-0.7,1.8-0.8,1.9l0.1,0.6
		c0,0.1,0,0.1-0.1,0.1l-0.1,0c0-0.2-0.1-0.2-0.2-0.2l-0.1,0c-0.1,0.2-0.2,0.4-0.3,0.7l0.1,0c0.1-0.1,0.2-0.2,0.2-0.3l0.2,0l0.1,0
		c-0.1,0.1-0.1,0.3-0.1,0.3l0.1,0.1l-0.1,0.3l0,0c0.1,0,0.2,0,0.4,0.1c0.1,0,0.2,0,0.3-0.1c0.1,0,0.5,0,1.2,0l0.4-0.1
		c0.4,0,0.5,0,0.9,0l0.2,0l0.1-0.1l0,0c0.4,0,0.4,0,0.7,0l0,0l-0.2,0l0,0.1c0.1,0,0.1,0,0.2-0.1c0.1,0,0.1,0,0.1,0.1
		c-0.1,0-0.2,0-0.3,0.1l-0.1,0c-0.2,0-0.1,0.1-0.2,0.1l-0.2,0c0,0,0,0,0,0c0,0.1,0,0.1,0.1,0.1l0.2,0l0.8-0.1l0.3-0.1c0,0,0,0,0,0
		l0.1-0.1l0.3,0c0.2,0,0.2,0,0.7-0.1c0,0,0,0,0,0l0,0c0.8-0.1,0.8-0.1,0.9-0.2l0,0c0.2,0,0.1,0,0.1-0.1c0,0,0,0,0,0l0.1,0l0-0.1
		h-0.3l0,0c0,0,0,0,0,0h0v0c0,0-0.2,0-0.3,0l-0.7,0l0,0l0.4-0.1l0.1,0l0.1-0.1l0,0c0.5,0,0.7,0.1,3.2-0.4c0.1,0,0.1-0.1,0.2-0.4
		C49.2,26.7,49.2,26.7,49.1,26.6c-0.2,0.2-0.3,0.1-0.7,0.2c0,0-0.1,0-0.1-0.1l0,0l0.4,0C48.8,26.7,49,26.7,49.1,26.6
		C49.2,26.6,49.1,26.6,49.1,26.6L49.1,26.6z M31,26.9l-0.2,0c0-0.1,0.1-0.3,0.3-0.8l0.1,0C31.2,26.2,31.1,26.5,31,26.9z M31.2,26
		L31.2,26c0-0.1,0-0.1,0.1-0.2l0,0C31.3,26,31.2,26,31.2,26z M33.5,27.8L33.5,27.8l-0.3,0.1l0,0L33.5,27.8L33.5,27.8z M33.1,27.8
		c0,0.1-0.1,0.1-0.3,0.2l-0.4,0l-0.1,0l0-0.1L33.1,27.8L33.1,27.8z M35.5,17.1l-0.2,0l0-0.1c0-0.1,0-0.1,0.1-0.1l0.1,0l0.1,0
		C35.6,17,35.5,17.1,35.5,17.1z M38.1,16.5L38.1,16.5l0.1,0.1l-0.2,0C38,16.6,38,16.6,38.1,16.5z M37.4,16.8l-0.3,0l0,0
		c0.3,0,0.5-0.1,0.7-0.1c0,0,0,0.1,0.1,0l0,0.1l-0.1,0c-0.1,0-0.2,0-0.2,0C37.6,16.7,37.5,16.8,37.4,16.8L37.4,16.8z M37.8,17.7
		L37.8,17.7l0.4-0.1l0,0L37.8,17.7z M38.2,17.4L38.2,17.4l0.2-0.1l0,0.1L38.2,17.4z M38.3,16.6L38.3,16.6l0-0.1l0.5,0l0,0.1
		C38.6,16.6,38.5,16.6,38.3,16.6z M38.5,17.7l0-0.1l0.2,0c0.1,0,0.1,0,0.1,0.1L38.5,17.7L38.5,17.7z M39.8,16L39.5,16l0,0
		c-0.1,0-0.3,0-0.5,0C39.3,16,39.6,16,39.8,16L39.8,16z M39.5,17.1L39.5,17.1l-0.4,0.1l0,0C39.1,17.2,39.5,17.1,39.5,17.1z
		 M40.1,17.4c0,0-0.1-0.1-0.2-0.1l-0.4,0.1l-0.3,0c-0.1,0-0.1-0.1-0.1-0.1l0.3,0l0.7-0.1l0.4,0l0,0.1C40.4,17.3,40.2,17.4,40.1,17.4
		z M43.8,16.4C43.9,16.4,43.9,16.4,43.8,16.4c0.2-0.1,0.4-0.2,0.5-0.3c-0.1,0.6-0.3,1-0.6,1.3l-0.2-0.1
		C43.7,16.9,43.8,16.6,43.8,16.4L43.8,16.4z M43.2,17.5L43.2,17.5c0,0.1-0.1,0.2-0.1,0.2l0-0.1C43.1,17.6,43.1,17.6,43.2,17.5z
		 M42.8,18.5c0.1-0.4,0.2-0.6,0.3-0.7l0,0C43,18.2,42.9,18.4,42.8,18.5l0.1,0.2c-0.1,0.1-0.1,0.2-0.1,0.3l-0.1,0l0-0.3
		C42.7,18.7,42.8,18.6,42.8,18.5L42.8,18.5z M42.6,19c0,0.1,0,0.2-0.1,0.4l-0.1,0l0-0.1C42.5,19.1,42.6,19,42.6,19L42.6,19z
		 M39.7,27.7L39.7,27.7L39.7,27.7l0.1,0.1C39.7,27.8,39.7,27.8,39.7,27.7z M43.9,27.8C43.9,27.8,43.9,27.8,43.9,27.8l-0.3,0l0,0h0
		l0.6,0l0,0C44,27.7,43.9,27.8,43.9,27.8z M43.6,27.7C43.6,27.7,43.6,27.7,43.6,27.7C43.6,27.7,43.6,27.7,43.6,27.7z M43.7,27
		l-0.3,0l0,0L43.7,27l0.2-0.1c0,0,0,0,0.1,0c0.3-0.1,0.3-0.1,0.4-0.1c0,0,0.1,0,0.1,0.1L43.7,27L43.7,27z M44.8,26.9
		c-0.2,0-0.2,0-0.3,0l0,0L44.8,26.9L44.8,26.9C44.7,26.9,44.8,26.9,44.8,26.9L44.8,26.9z M44.8,26.9L44.8,26.9l0.2-0.1l0,0
		L44.8,26.9z M45.1,26.9L45.1,26.9c0-0.1,0.1-0.1,0.1-0.1c0.1,0,0.1,0,0.1,0.1L45.1,26.9L45.1,26.9z M45.6,26.8L45.6,26.8l0.2-0.1
		l0,0L45.6,26.8z M45.8,26.8C45.8,26.7,45.9,26.7,45.8,26.8l0.1,0c0,0,0,0,0,0l0,0.1L45.8,26.8L45.8,26.8z M43,28L43,28L43,28L43,28
		L43,28z M49.5,26.3C49.6,26.3,49.6,26.3,49.5,26.3C49.5,26.3,49.5,26.3,49.5,26.3L49.5,26.3C49.5,26.3,49.5,26.3,49.5,26.3
		L49.5,26.3L49.5,26.3l-0.1,0.1L49.5,26.3L49.5,26.3L49.5,26.3L49.5,26.3z M49.8,26.5L49.8,26.5L49.8,26.5l0.2,0.1
		C50,26.5,49.9,26.5,49.8,26.5L49.8,26.5z M49.5,26.3L49.5,26.3L49.5,26.3C49.5,26.3,49.5,26.3,49.5,26.3L49.5,26.3z" />
		<path class="st0" 
			d="M35.3,19.5L35.3,19.5l0.1,0c0,0,0-0.1,0-0.2l0-0.1C35.4,19.3,35.3,19.4,35.3,19.5L35.3,19.5z M34.1,16.7l0-0.1
		l-0.2,0l0,0.1L34.1,16.7z M30.7,23c0-0.1-0.3-0.5-0.9-1.2c0-0.1,0.2-0.3,0.6-0.6l1.2-1.1c0.3-0.4,0.4-0.9,0.5-1.7l0-0.2
		c0-0.5-0.4-1-1.2-1.3c-0.4-0.3-1.2-0.5-2.4-0.5c-1,0.1-2.2,0.4-3.7,1c-0.4,0.3-0.9,0.6-1.4,0.9l0,0.1c0,0,0.1,0,0.1-0.1
		c0.1,0,0.1,0,0.1,0.1l0.1,0l0,0l0,0c0,0-0.3,0.3-1,0.8l0.1,0.1l0,0l-0.1,0c0,0,0,0.1-0.1,0.1l0,0l0.1,0.1c0,0-0.1,0-0.2,0
		c-0.2,0-0.3,0.1-0.5,0.3l0.1-0.3c0.2-1,0.4-1.8,0.5-2.6l0,0c-0.2-0.1-0.3-0.2-0.4-0.4c0-0.1,0-0.2,0-0.2l0,0l0,0
		c-0.5,0.7-1.4,2-2.8,3.7c-1.1,1.3-1.6,2-1.6,2.1c-0.4,0.4-0.6,0.7-0.6,0.8c-0.1,0.1-0.2,0.1-0.1,0.2c0,0-0.1,0-0.1,0
		c-0.2,0.3-0.5,0.5-0.8,0.6l-0.4,0.1c-0.1,0-0.1,0-0.1,0.1l0,0l0.1,0l0,0l-0.3,0.1l-0.6,0.1l-0.3,0c0,0,0.2,0,0.1,0l-0.4,0.1
		c-0.2,0.1-0.4,0-0.4-0.1l0,0c0,0,0,0.1,0,0.1l0-0.1l-0.3,0.1c0-0.1-0.4-0.6-1.2-1.5c0-0.2,0.3-0.4,0.8-0.7l1.6-1.4
		c0.4-0.5,0.6-1.2,0.6-2.2l0-0.2c-0.1-0.7-0.6-1.3-1.6-1.8c-0.6-0.4-1.6-0.6-3.1-0.6c-1.3,0.1-2.9,0.6-4.9,1.3
		c-0.6,0.4-1.2,0.8-1.9,1.2l0,0.1c0,0,0.1,0,0.2-0.1c0.1,0,0.1,0,0.1,0.1l0.1-0.1l0.1,0l0,0.1c0,0.1-0.4,0.4-1.3,1l0.1,0.1l-0.1,0
		l-0.1,0c0,0-0.1,0.1-0.2,0.1l0,0.1l0.1,0.2c0,0-0.1,0-0.2,0c-0.3,0-0.6,0.2-0.8,0.6l0.1,0.1c0.2-0.2,0.4-0.3,0.4-0.3l0,0.2
		c0,0-0.1,0-0.2,0.1l0.2,0.2c0.3-0.3,0.6-0.6,1-0.8c0.2,0,0.3,0.1,0.3,0.2l0.1,0c1-0.7,1.9-1.2,2.8-1.5l0,0.1
		c-0.2,0.3-0.3,0.4-0.4,0.4c0,0.1,0,0.2,0.1,0.2c0,0.2-0.4,1.2-1.3,3.2c-2,4.6-3.6,8-4.9,10.2c0,0,0,0.1,0.1,0.2
		c0.3-0.1,0.5-0.2,0.6-0.2l0.1,0l0,0.1l0.1,0L1,32.7c0,0,0,0.1,0.1,0l0,0.1c0,0.1-0.1,0.3-0.2,0.6c-0.1,0.2-0.3,0.5-0.4,1l0,0.1
		l0.1,0c0.5-0.6,0.9-1.2,1.2-1.7c1.6-0.5,2.7-0.9,3.6-1.3c0.8-0.1,1.5-0.3,1.9-0.6l0-0.1L7,30.7l-0.1,0l0-0.1c0.6-0.1,1-0.2,1.3-0.4
		c1.2-0.9,2.1-1.6,2.7-1.9c1.2-0.9,2-1.8,2.4-2.7c0.1,0,0.1,0,0.2,0c0.2,0,0.3,0,0.3,0c0,0,0-0.1,0-0.1c0.3,0,0.1,0,0.3,0l0.5-0.1
		l0.1,0l0,0c0.1,0,0.1,0,0.2,0l0,0.1l-2.1,3.4l-0.5,0.6L12,30.3l0,0l0.2-0.1l-0.1,0.3l0,0.1l0.1,0.1c0,0,0,0,0,0.1l0,0l0.1,0
		c0.1-0.1,0.2-0.2,0.2-0.3c0.2,0,0.3,0,0.3,0l0,0c-0.1,0-0.1,0.1-0.1,0.2l0,0l0.1,0c0.8-0.8,2.7-3.7,4.2-5.7c0-0.2,0.7-0.5,2.4-0.9
		l0.1,0c0.1,0.3-0.1,0.9-0.4,1.9c-0.2,0.6-0.3,0.9-0.3,1c-0.3,0.8-0.4,1.2-0.4,1.3l-0.6,1.9c-0.4,1-0.7,2-0.9,3.1c0,0,0.1,0,0.2,0
		l0.1-0.1c0,0,0,0,0.1,0l0-0.1l0.3,0c0.1,0,0.1-0.1,0.2-0.3c0-0.3,0-0.4,0.2-0.4c0.2-0.6,0.3-0.9,0.3-0.9c0.1-0.6,0.3-0.9,0.3-1
		c0.2-0.8,0.4-1.2,0.5-1.2l0,0.1l-0.2,0.4c-0.3,1.2-0.6,2.2-0.8,2.9l0.1,0.4l0.1,0c0.7-1.5,1.7-4.4,3-8.8c0-0.4,0.2-0.7,0.6-0.9
		l-0.1-0.1l0,0c0.1,0,0.3-0.1,0.3-0.2c0,0-0.1-0.1-0.4-0.1l0.6-2.8c0.1-0.1,0.2-0.2,0.2-0.2l0,0.1c0,0-0.1,0-0.1,0.1l0.1,0.2
		c0.2-0.2,0.5-0.4,0.7-0.6c0.1,0,0.2,0.1,0.2,0.1l0.1,0c0.7-0.5,1.4-0.9,2.2-1.2l0,0.1c-0.1,0.2-0.2,0.3-0.3,0.3
		c0,0.1,0,0.1,0.1,0.2c0,0.1-0.3,0.9-1,2.4c-1.5,3.5-2.7,6.1-3.7,7.7c0,0,0,0.1,0.1,0.1c0.2-0.1,0.4-0.1,0.5-0.2l0,0l0,0.1l0.1,0
		l0.1,0c0,0,0,0,0.1,0l0,0.1c0,0.1,0,0.2-0.2,0.4c-0.1,0.1-0.2,0.4-0.3,0.7l0,0l0.1,0c0.4-0.5,0.7-0.9,0.9-1.3
		c1.2-0.3,2.1-0.7,2.7-1c0.6-0.1,1.1-0.2,1.4-0.5l0,0l-0.2,0.1l-0.1,0l0,0c0.5-0.1,0.8-0.2,1-0.3c0.9-0.7,1.6-1.2,2-1.5
		C30.2,25,30.8,24,30.7,23L30.7,23z M30.5,23.1l0,0.4c0,0.1-0.1,0.1-0.1,0.1L30.3,23C30.4,23,30.5,23.1,30.5,23.1L30.5,23.1z
		 M2.5,20.1L2.5,20.1L2.5,20l0.3,0l0,0.1C2.7,20,2.6,20,2.5,20.1L2.5,20.1z M1.3,32.5c-0.1-0.1-0.3-0.1-0.4-0.1l0-0.2
		c0-0.1,0-0.1,0.1-0.1c0.1,0,0.1,0.1,0.1,0.2c0.2-0.3,0.3-0.4,0.4-0.4L1.6,32C1.6,32.3,1.5,32.5,1.3,32.5z M14.6,18.6
		c-0.1,0-0.2-0.2-0.4-0.6l0-0.1c0.1,0,0.2,0.2,0.4,0.6L14.6,18.6z M14.4,17.3l-0.1,0.1l-1.8-0.8C13.8,16.7,14.4,16.9,14.4,17.3z
		 M6.8,23.8l-0.3,0l0-0.1l0.3,0L6.8,23.8z M6.6,19.9L6.6,19.9L6.7,20c-0.1,0-0.1,0.1-0.2,0.3l0-0.1C6.5,20,6.6,19.9,6.6,19.9
		L6.6,19.9z M6,21.1l0,0.2l-0.1,0L6,21.1L6,21.1z M5.8,21.6l0.1,0c0,0.2-0.1,0.3-0.2,0.3l-0.1,0C5.7,21.8,5.8,21.7,5.8,21.6z
		 M5.6,22.2L5.6,22.2L5.6,22.2l0,0.2l-0.1,0l0-0.1C5.5,22.4,5.6,22.3,5.6,22.2L5.6,22.2z M5.3,22.8l0,0.3l-0.1,0l0-0.3L5.3,22.8z
		 M3.3,28.7c-0.1,0.4-0.2,0.6-0.3,0.6l0-0.1C3,29,3.1,28.8,3.3,28.7L3.3,28.7z M2.9,29.5L2.9,29.5c0,0.1,0,0.2-0.1,0.2l0-0.1
		C2.8,29.6,2.8,29.5,2.9,29.5z M2.8,31.2l0.2,0l0,0.1c0,0-0.1,0-0.2,0.1l-0.1,0C2.7,31.3,2.7,31.2,2.8,31.2L2.8,31.2z M8.2,29.5
		c-1.1,0.5-1.7,0.9-1.9,1.1c-1.2,0.4-1.7,0.7-1.7,0.8c-1,0.4-1.7,0.7-2,0.9c-0.1,0-0.2,0-0.3-0.1c0-0.2,0.1-0.4,0.3-0.5
		c0.2,0,0.4,0,0.5,0.1c0.2-0.1,0.5-0.2,1-0.3l0-0.1l-0.4,0c0-0.1,0.4-0.2,1.1-0.5l0.2,0l0,0.1c-0.3,0-0.5,0.1-0.6,0.3
		c0,0.1,0.1,0.1,0.1,0.1C4.8,31.1,4.9,31,4.9,31c0.5-0.1,1.8-0.8,3.9-2l0,0.1C8.8,29.1,8.6,29.2,8.2,29.5z M5,30.6
		c0.3,0,0.6-0.2,0.8-0.4c0.1,0,0.1,0,0.1,0.1c-0.2,0-0.4,0.1-0.9,0.4l-0.1,0L5,30.6L5,30.6z M10.2,26.5l-1.6,1.3
		c-1.2,0.8-1.9,1.2-2,1.2c-1.9,1.1-3.1,1.6-3.6,1.7l-0.1,0c0.1-0.2,0.9-2,2.6-5.3c0.7-0.1,1.9-0.4,3.5-1l0.4,0
		c0.8-0.1,1.4,0.1,1.8,0.5l0,0.2C10.9,25.9,10.6,26.4,10.2,26.5L10.2,26.5z M7.1,24.8l0.3,0l0,0.1L7.1,24.8L7.1,24.8z M10.7,24.1
		l0.2,0c0.2,0.1,0.3,0.2,0.3,0.2l0,0.1C11,24.4,10.9,24.3,10.7,24.1z M11.3,21.2c-0.2,0.2-0.6,0.6-1.4,1c-0.3,0-1.2,0.4-2.8,1.1
		c-0.1,0-0.2-0.1-0.3,0l0-0.1c0-0.2,0.1-0.5,0.3-0.9c0.1-0.7,0.3-1,0.4-1.1l1.3-3c0-0.2,0.3-0.3,0.9-0.4l0.2,0l0,0.2
		c0.6-0.1,0.9-0.1,1.1-0.2c1.1-0.1,1.6,0.1,1.7,0.6l0.1,0l0-0.3l0.1,0c0.3,0.2,0.5,0.4,0.5,0.6c0,0.2-0.1,0.4-0.3,0.6
		c-0.1,0-0.1-0.1-0.1-0.2l-0.1,0l0,0.4c-0.5,0.8-0.9,1.2-1.2,1.3C11.5,21,11.3,21.2,11.3,21.2L11.3,21.2z M12.1,23.3
		c-0.1-0.1-0.2-0.1-0.3-0.1l0-0.2l0.1,0l0.3,0.2C12.2,23.2,12.2,23.3,12.1,23.3L12.1,23.3z M12.9,24.3c0.1,0,0.2,0.1,0.2,0.1l-0.1,0
		l0,0c0,0,0,0,0,0L13,24.5L12.9,24.3L12.9,24.3z M13,24.8L13,24.8l0.1-0.1l0,0L13,24.8L13,24.8z M13.4,25.2c0.2,0,0.2,0,0.5-0.1l0,0
		L13.4,25.2C13.4,25.3,13.4,25.3,13.4,25.2L13.4,25.2z M13.9,25.5c-0.2,0-0.2,0-0.6,0.1l0,0l0.5-0.2l0.2-0.1l0,0.1
		C14,25.4,14.1,25.4,13.9,25.5z M14.4,25.3c-0.1,0-0.1,0-0.1-0.1l0.1,0c0.1,0,0.1,0,0.1,0.1L14.4,25.3L14.4,25.3z M15.8,23.9
		L15.8,23.9l0.2-0.1l0,0.1L15.8,23.9z M17.2,32.7c0-0.1,0-0.1,0-0.1l0.1,0c0.1,0,0.1,0,0.1,0.1l0,0L17.2,32.7L17.2,32.7z M18.3,24.3
		l-0.1,0c-0.2,0.1-0.3,0.1-0.4,0.1l-0.1,0c-0.1,0-0.1,0-0.1-0.1L18.3,24.3l0.2-0.2l0.1,0.1C18.4,24.2,18.3,24.2,18.3,24.3L18.3,24.3
		z M18.8,24.1L18.8,24.1c0-0.1,0.1-0.1,0.1-0.1l0.5-0.1l0,0C19.1,24,18.9,24,18.8,24.1z M18.8,23.1c0,0-0.1,0-0.1,0.1
		c0,0-0.1,0-0.2,0c0-0.1,0.3-0.2,1.1-0.4l0.1,0l0,0.1C19.2,23,18.9,23.1,18.8,23.1L18.8,23.1z M20.1,21.7c-0.1,0.6-0.3,0.9-0.6,1
		l0,0l-0.3,0.1l-0.1,0c-0.1,0-0.1,0-0.2,0l0-0.1c0,0,0.5-0.7,1.4-1.9l0.1,0C20.4,21,20.3,21.3,20.1,21.7L20.1,21.7z M22.4,19.8
		L22.4,19.8L22.4,19.8l0.1-0.1l0,0C22.5,19.7,22.5,19.7,22.4,19.8z M21.5,29.2c-0.1-0.1-0.2-0.1-0.3-0.1l0-0.1c0,0,0-0.1,0.1-0.1
		c0.1,0,0.1,0,0.1,0.1c0.2-0.2,0.2-0.3,0.3-0.3l0.1,0C21.7,29.1,21.6,29.2,21.5,29.2z M31.6,18.7c0,0-0.1-0.1-0.3-0.4l0-0.1
		c0.1,0,0.2,0.1,0.3,0.4L31.6,18.7L31.6,18.7z M31.4,17.6L31.4,17.6L30,17.1C30.9,17.2,31.4,17.3,31.4,17.6z M25.7,22.6l-0.2,0
		l0-0.1L25.7,22.6L25.7,22.6z M25.5,19.6L25.5,19.6l0.1,0.1c0,0-0.1,0.1-0.2,0.2l0-0.1C25.5,19.7,25.5,19.7,25.5,19.6L25.5,19.6z
		 M25.1,20.6l0,0.2l-0.1,0L25.1,20.6L25.1,20.6z M24.9,20.9L24.9,20.9c0.1,0.1,0,0.2,0,0.2l-0.1,0C24.9,21,24.9,21,24.9,20.9
		L24.9,20.9z M24.7,21.4L24.7,21.4L24.7,21.4l0,0.2l-0.1,0l0,0C24.7,21.5,24.7,21.5,24.7,21.4L24.7,21.4z M24.6,21.8l0,0.2l0,0
		L24.6,21.8L24.6,21.8L24.6,21.8z M23,26.3c-0.1,0.3-0.1,0.5-0.2,0.5l0,0C22.8,26.6,22.8,26.4,23,26.3L23,26.3z M22.7,26.9
		L22.7,26.9c0,0.1,0,0.1-0.1,0.1L22.7,26.9C22.6,27,22.6,26.9,22.7,26.9L22.7,26.9z M22.6,28.2l0.1,0l0,0
		C22.7,28.3,22.7,28.3,22.6,28.2L22.6,28.2C22.5,28.3,22.6,28.2,22.6,28.2L22.6,28.2z M26.8,26.9c-0.8,0.4-1.3,0.7-1.4,0.8
		c-0.9,0.3-1.3,0.5-1.3,0.6c-0.8,0.3-1.3,0.5-1.5,0.7c-0.1,0-0.1,0-0.3-0.1c0-0.2,0.1-0.3,0.2-0.4c0.1,0,0.3,0,0.4,0.1
		c0.1-0.1,0.4-0.2,0.8-0.2l0-0.1l-0.3,0c0-0.1,0.3-0.2,0.8-0.4l0.1,0l0,0c-0.3,0-0.4,0.1-0.4,0.2c0,0.1,0,0.1,0.1,0.1
		c0.2-0.1,0.3-0.2,0.3-0.2c0.4-0.1,1.3-0.6,3-1.5l0,0.1C27.2,26.6,27,26.7,26.8,26.9L26.8,26.9z M24.3,27.7c0.2,0,0.4-0.1,0.6-0.3
		c0.1,0,0.1,0,0.1,0.1C24.9,27.6,24.7,27.7,24.3,27.7L24.3,27.7L24.3,27.7L24.3,27.7z M28.3,24.7l-1.2,1c-0.9,0.6-1.4,0.9-1.5,0.9
		c-1.5,0.8-2.4,1.2-2.7,1.3l-0.1,0c0-0.2,0.7-1.5,2-4c0.6,0,1.4-0.3,2.6-0.8l0.3,0c0.6-0.1,1.1,0.1,1.3,0.4l0,0.2
		C28.8,24.2,28.5,24.6,28.3,24.7L28.3,24.7z M25.9,23.3l0.2,0l0,0L25.9,23.3L25.9,23.3z M28.7,22.8l0.1,0C28.9,22.9,29,23,29,23l0,0
		C28.9,23.1,28.8,23,28.7,22.8z M29.1,20.6c-0.1,0.2-0.5,0.4-1.1,0.8c-0.2,0-0.9,0.3-2.1,0.8c-0.1,0-0.1,0-0.2,0l0-0.1
		c0-0.2,0.1-0.4,0.2-0.7c0.1-0.5,0.2-0.8,0.3-0.9l1-2.3c0-0.1,0.2-0.2,0.6-0.3l0.1,0l0,0.1c0.4-0.1,0.7-0.1,0.8-0.1
		c0.8-0.1,1.2,0.1,1.3,0.5l0.1,0l0-0.2l0.1,0c0.2,0.1,0.4,0.3,0.4,0.5c0,0.1-0.1,0.3-0.2,0.5c-0.1,0-0.1,0-0.1-0.1l-0.1,0l0,0.3
		c-0.4,0.6-0.7,0.9-0.9,1C29.2,20.5,29.1,20.6,29.1,20.6L29.1,20.6z M29.5,22.1l0-0.1l0.1,0l0.2,0.1c0,0.1,0,0.1-0.1,0.1
		C29.6,22.2,29.5,22.1,29.5,22.1L29.5,22.1z M12.3,31.1L12.3,31.1l-0.2,0.1c0,0.1,0.1,0.1,0.1,0.1C12.3,31.2,12.3,31.2,12.3,31.1
		L12.3,31.1L12.3,31.1z M11.9,30.4L11.9,30.4C12,30.4,12,30.4,11.9,30.4l0.1-0.1C11.9,30.3,11.9,30.3,11.9,30.4L11.9,30.4z
		 M14.5,25.5L14.5,25.5C14.6,25.4,14.6,25.4,14.5,25.5C14.5,25.4,14.5,25.4,14.5,25.5z M14.5,24.2l0.1,0l0-0.1L14.5,24.2L14.5,24.2z
		 M40.6,27.9l-0.3,0l0,0.1l0,0l1.5-0.1l0-0.1L40.6,27.9z M42,27.8l0,0.1h0L42,27.8L42,27.8z M48.3,27L48.3,27l0.2,0.1l0-0.1L48.3,27
		z M48,27c-1.1,0.3-1.3,0.2-1.5,0.2l0,0.1l0.1,0l0.1,0l0,0l0.1,0C47.9,27.1,48.1,27.2,48,27L48,27z M41.3,25.4L41.3,25.4
		c-0.2,0.2-0.2,0.3-0.2,0.4l0,0C41.2,25.8,41.2,25.6,41.3,25.4z M39.9,24.6L39.9,24.6L39.9,24.6l-0.1,0l0.1,0.1
		C39.9,24.7,40,24.7,39.9,24.6L39.9,24.6z M42.9,27.7L42.9,27.7L42.9,27.7L42.9,27.7L42.9,27.7L42.9,27.7z M49,26.3L49,26.3
		c0.1,0,0.1,0,0.1-0.1l0-0.1c-0.3,0-0.4,0-0.6,0.1l0,0l-0.3,0c0-0.1,0-0.1-0.1-0.1l-0.2,0c-0.2,0-0.3,0-0.4,0.1c0,0,0,0,0,0l-0.2,0
		l-0.1,0.1c0,0,0,0,0,0l-0.1,0.1l0,0l-0.2,0l-0.1,0l0,0.1l0.1,0l0.1,0c0,0,0.1,0,0.1,0l0.1-0.1l0,0c-0.6,0.1-0.6,0.1-1,0.2
		c0,0-0.1,0-0.1,0l0,0c0,0-0.1,0-0.1-0.1l0.2,0c0,0,0,0,0.1,0c0.2-0.1,0.2-0.1,0.3-0.1l0-0.1c-0.6,0.1-0.3,0-1.1,0.1l0,0l0-0.1
		c0.9-0.1,0.6,0,0.9-0.1c0,0,0,0,0,0c0,0,0.1-0.1,0.1-0.1l0.1,0c0.3,0,0.4,0,1.1-0.1l0,0l0.1-0.1l0.1,0c0-0.1,0.1-0.1,0.2-0.1l0-0.1
		c-1.1,0.2-1.4,0.2-1.7,0.3l0,0c-0.3,0.1-0.3,0-0.4,0c0,0-0.1,0-0.1,0.1c0,0,0,0,0,0c0,0,0,0,0,0l-0.9,0.2c0,0,0,0,0,0
		c-0.5,0.1-0.4,0.1-1,0.2c0,0-0.1,0-0.1,0.1c0,0,0,0-0.1,0l-0.4,0l-0.3,0.1c0,0,0,0-0.1,0c-0.2,0-0.4,0.1-0.4,0.1h0c0,0,0,0,0,0
		l-0.1,0c-0.1,0-0.1,0-0.5,0c-0.7,0.1-0.6,0.1-0.7,0.1l-0.3,0c0,0,0,0,0,0c-0.3,0-0.5-0.1-0.5-0.1c0-0.3,0.1-0.4,0.2-0.4l0.1,0
		l0,0.1l0.1,0c0.1-0.1,0.1-0.1,0.1-0.1l0-0.1l-0.1,0l0-0.1c0-0.1,0-0.1,0-0.2l0.2-0.4l0,0.1l0.1,0l0-0.1L41.3,25
		c0.1-0.1,0.1-0.1,0.2-0.1l0,0l-0.1,0l0-0.1c0.3-0.6,0.4-0.9,0.4-1l0.1,0c0.1,0,0.1,0,0.1-0.1l-0.1,0l0,0c0-0.1,0-0.1,0-0.2
		c0.2-0.2,0.2-0.3,0.2-0.5c0,0,0,0,0,0c0.1-0.1,0.2-0.3,0.3-0.6c0.2-0.4,0.6-1.2,1-2.5c0.8-2.2,0.8-2.4,0.9-2.9l-0.1,0
		c0,0.1,0,0.1,0,0.2c-0.1,0-0.1,0-0.2,0l0,0c0-0.2,0.1-0.4,0.2-0.7l0,0l0.1,0.3l0.1,0c0,0,0-0.1,0.1-0.4c0,0,0-0.1-0.1-0.1l-0.1,0.1
		c0-0.1,0-0.2,0-0.5l0,0c-0.1-0.1-0.1-0.1-0.1-0.2l-0.5,0.1c0,0,0-0.1-0.1-0.2c0,0,0.1-0.1,0.4-0.1l0.1,0l0.1-0.1c0,0,0,0,0.1,0
		l0.1-0.1c0,0,0,0,0.1,0l0,0l0-0.1c-0.1,0-0.3,0-0.6,0l-0.1,0.1l0-0.1c-2.5,0.2-3.9,0.3-4.2,0.4c0,0-0.2,0-0.5,0c0,0,0,0.1-0.1,0.1
		l-0.1,0l-0.4,0.1c-0.1,0-0.2,0-0.4,0c-0.1,0-0.1,0.1-0.2,0.1c0,0,0.5,0,1.1-0.1c-0.1,0-0.1,0.1-0.3,0.1c-0.1,0-0.2,0-0.2,0
		c-0.1,0-0.3,0.1-0.8,0.2l-0.1,0l-1.7,0.3c-0.1,0-0.1,0-0.2,0c-0.1,0-0.2,0-0.5,0.1l-0.8,0.3l0.1,0.1c0,0,0.1,0,0.2-0.1l0.3,0l0,0.3
		c-0.3,0.1-0.4,0.3-0.5,0.5c-0.4,0.2-0.6,0.3-0.6,0.4l0,0l0.1,0l0.1-0.1l0.1,0.2l0,0.2c0,0.1-0.7,1.5-2.1,4.4
		c-1.2,2.7-1.8,4.2-1.9,4.5c-0.4,0.1-0.6,0.3-0.7,0.5c0,0.1,0.1,0.1,0.4,0.1l0,0.1L29.5,28l0,0.2c0,0.1,0.3,0.2,0.9,0.3
		c0,0,0-0.1,0.1-0.1c0,0.1,0,0.4-0.1,0.8l0.1,0c0.2-0.3,0.4-0.6,0.3-0.7l0.1,0c0.1,0,0.1,0.1,0.2,0.2c-0.1,0-0.3,0.6-0.8,1.8
		l0.1,0.1l0.1,0c0.5-1.4,0.9-2.1,1-2.3c0.7-0.1,1.9-0.2,3.7-0.4l0.1-0.1c0,0,0,0.1,0.1,0.1l0.1,0l0.1-0.1c0,0,0,0.1,0.1,0.1l1.3-0.1
		c0.4,0,0.5-0.1,0.5-0.3c0,0,0.2-0.1,0.6-0.2c0,0,0.1,0,0.2,0c0,0,0.2-0.1,0.6-0.1c0-0.2,0.1-0.3,0.2-0.4l0-0.1
		c-0.1,0-0.3,0-0.4,0.1c-0.3,0-0.5,0-0.5-0.1c-0.1,0-0.1,0.1-0.2,0.1l-0.9,0l-0.1,0.1c0,0,0,0-0.1,0l-0.1,0l-0.1,0.1
		c0,0-0.1-0.1-0.3-0.1l-0.1,0.1l-0.2,0l0-0.1c1.2-0.1,1.8-0.3,1.8-0.5c0.1,0,0.1,0,0.1,0.1l0.3-0.1l0-0.1l-2.8,0.1
		c0,0,0,0.1-0.1,0.1l-0.3,0c-0.1,0-0.2,0-0.2,0.1l-0.1,0c-0.4,0-0.6,0.1-0.8,0.1c-0.2,0-0.5,0-0.8,0l-0.6,0.1l-0.3,0
		c0-0.2,0.4-1.1,1.1-2.8c0.2-0.6,0.4-0.9,0.6-1c0,0,0.1,0,0.2,0l0.5-0.2l0.2,0c0.4,0,0.8-0.1,1.4-0.3c0.1,0,0.2,0,0.3,0l0.3-0.1
		l1-0.1c0.4,0,0.9-0.1,1.4-0.3l0-0.1c-0.2,0-0.3,0-0.3-0.1c0-0.1-0.2-0.2-0.4-0.2l0-0.1l0.3-0.1l0.7-0.1l0-0.1c0,0-0.2,0-0.5,0
		l0-0.1l0.3,0c0.1,0,0.1,0,0.1-0.1c-0.4,0-0.6,0-0.6-0.1c-2.7,0.1-4.1,0.2-4.1,0.1c0,0-0.1,0-0.2,0.1l-0.1-0.1
		c0.7-1.5,1.1-2.3,1.3-2.3c0,0.1,0,0.2-0.1,0.3l0,0l0.1,0c0.3-0.7,0.5-1,0.7-1c0.8-0.1-0.1-0.1,1.7-0.4c0.1,0,0.1,0,0.2,0
		c0.7-0.1,1.7-0.3,3-0.5l0-0.1L40.6,17l0-0.1c0.1,0,0.1,0,0.2-0.1l0,0.1c0,0,0.1,0,0.2-0.1c0.1,0,0.2,0,0.3,0
		c0.2-0.1,0.4-0.1,0.6-0.1l0.4,0c0.1-0.1,0.2-0.1,0.1-0.2l0,0c-0.1,0-0.2,0-0.4,0c0-0.1,0-0.1,0.1-0.1l0.8-0.1l0.4-0.1
		c0,0,0,0.1,0.1,0.1c0,0,0.1,0,0.2-0.1c0,0,0,0,0.1,0c0,0.1-0.1,0.2-0.2,0.4l-0.1,0c0-0.1,0-0.1-0.1-0.2l-0.1,0
		c-1,2.7-1.4,3.9-2.3,6c-0.2,0.5-0.3,0.8-0.4,0.9c0,0.1,0,0.1,0.1,0.1c0,0.3,0,0.5-0.2,0.8c-0.4,1.2-0.7,1.8-0.8,1.9l0.1,0.6
		c0,0.1,0,0.1-0.1,0.1l-0.1,0c0-0.2-0.1-0.2-0.2-0.2l-0.1,0c-0.1,0.2-0.2,0.4-0.3,0.7l0.1,0c0.1-0.1,0.2-0.2,0.2-0.3l0.2,0l0.1,0
		c-0.1,0.1-0.1,0.3-0.1,0.3l0.1,0.1l-0.1,0.3l0,0c0.1,0,0.2,0,0.4,0.1c0.1,0,0.2,0,0.3-0.1c0.1,0,0.5,0,1.2,0l0.4-0.1
		c0.4,0,0.5,0,0.9,0l0.2,0l0.1-0.1l0,0c0.4,0,0.4,0,0.7,0l0,0l-0.2,0l0,0.1c0.1,0,0.1,0,0.2-0.1c0.1,0,0.1,0,0.1,0.1
		c-0.1,0-0.2,0-0.3,0.1l-0.1,0c-0.2,0-0.1,0.1-0.2,0.1l-0.2,0c0,0,0,0,0,0c0,0.1,0,0.1,0.1,0.1l0.2,0l0.8-0.1l0.3-0.1c0,0,0,0,0,0
		l0.1-0.1l0.3,0c0.2,0,0.2,0,0.7-0.1c0,0,0,0,0,0l0,0c0.8-0.1,0.8-0.1,0.9-0.2l0,0c0.2,0,0.1,0,0.1-0.1c0,0,0,0,0,0l0.1,0l0-0.1
		h-0.3l0,0c0,0,0,0,0,0h0v0c0,0-0.2,0-0.3,0l-0.7,0l0,0l0.4-0.1l0.1,0l0.1-0.1l0,0c0.5,0,0.7,0.1,3.2-0.4c0.1,0,0.1-0.1,0.2-0.4
		C49.1,26.4,49,26.4,49,26.3c-0.2,0.2-0.3,0.1-0.7,0.2c0,0-0.1,0-0.1-0.1l0,0l0.4,0C48.7,26.4,48.8,26.4,49,26.3
		C49,26.3,48.9,26.3,49,26.3L49,26.3L49,26.3z M30.8,26.6l-0.2,0c0-0.1,0.1-0.3,0.3-0.8l0.1,0C31,25.9,30.9,26.2,30.8,26.6z
		 M31,25.8L31,25.8c0-0.1,0-0.1,0.1-0.2l0,0C31.1,25.7,31.1,25.7,31,25.8z M33.3,27.5L33.3,27.5L33,27.6l0,0L33.3,27.5z M33,27.5
		c0,0.1-0.1,0.1-0.3,0.2l-0.4,0l-0.1,0l0-0.1L33,27.5z M35.3,16.8l-0.2,0l0-0.1c0-0.1,0-0.1,0.1-0.1l0.1,0l0.1,0
		C35.4,16.7,35.4,16.8,35.3,16.8z M37.9,16.2L37.9,16.2l0.1,0.1l-0.2,0C37.8,16.3,37.9,16.3,37.9,16.2L37.9,16.2z M37.3,16.5l-0.3,0
		l0,0c0.3,0,0.5-0.1,0.7-0.1c0,0,0,0.1,0.1,0l0,0.1l-0.1,0c-0.1,0-0.2,0-0.2,0C37.4,16.4,37.3,16.5,37.3,16.5z M37.6,17.4L37.6,17.4
		l0.4-0.1l0,0L37.6,17.4z M38.1,17.1L38.1,17.1l0.2-0.1l0,0.1L38.1,17.1z M38.1,16.3L38.1,16.3l0-0.1l0.5,0l0,0.1
		C38.4,16.3,38.3,16.3,38.1,16.3z M38.3,17.4l0-0.1l0.2,0c0.1,0,0.1,0,0.1,0.1L38.3,17.4L38.3,17.4z M39.6,15.7l-0.3,0.1l0,0
		c-0.1,0-0.3,0-0.5,0C39.1,15.7,39.5,15.7,39.6,15.7L39.6,15.7z M39.3,16.8L39.3,16.8l-0.4,0.1l0,0C38.9,16.9,39.3,16.8,39.3,16.8z
		 M39.9,17.1c0,0-0.1-0.1-0.2-0.1l-0.4,0.1l-0.3,0c-0.1,0-0.1-0.1-0.1-0.1l0.3,0L40,17l0.4,0l0,0.1C40.2,17,40,17.1,39.9,17.1
		L39.9,17.1z M43.7,16.2C43.7,16.2,43.7,16.2,43.7,16.2c0.2-0.1,0.4-0.2,0.5-0.3c-0.1,0.6-0.3,1-0.6,1.3L43.4,17
		C43.5,16.6,43.6,16.3,43.7,16.2z M43,17.2L43,17.2c0,0.1-0.1,0.2-0.1,0.2l0-0.1C42.9,17.3,43,17.3,43,17.2L43,17.2z M42.6,18.2
		c0.1-0.4,0.2-0.6,0.3-0.7l0,0C42.9,18,42.8,18.1,42.6,18.2l0.1,0.2c-0.1,0.1-0.1,0.2-0.1,0.3l-0.1,0l0-0.3
		C42.5,18.4,42.6,18.3,42.6,18.2z M42.5,18.7c0,0.1,0,0.2-0.1,0.4l-0.1,0l0-0.1C42.4,18.8,42.4,18.7,42.5,18.7L42.5,18.7L42.5,18.7z
		 M39.5,27.4L39.5,27.4L39.5,27.4l0.1,0.1C39.5,27.5,39.5,27.5,39.5,27.4L39.5,27.4z M43.7,27.5C43.7,27.5,43.7,27.5,43.7,27.5
		l-0.3,0l0,0h0l0.6,0l0,0C43.9,27.4,43.8,27.5,43.7,27.5z M43.5,27.4C43.5,27.4,43.5,27.4,43.5,27.4C43.4,27.4,43.4,27.4,43.5,27.4z
		 M43.5,26.7l-0.3,0l0,0L43.5,26.7l0.2-0.1c0,0,0,0,0.1,0c0.3-0.1,0.3-0.1,0.4-0.1c0,0,0.1,0,0.1,0.1L43.5,26.7L43.5,26.7z
		 M44.6,26.6c-0.2,0-0.2,0-0.3,0l0,0L44.6,26.6L44.6,26.6C44.5,26.6,44.6,26.6,44.6,26.6z M44.6,26.6L44.6,26.6l0.2-0.1l0,0
		L44.6,26.6z M45,26.6L45,26.6c0-0.1,0.1-0.1,0.1-0.1c0.1,0,0.1,0,0.1,0.1H45L45,26.6z M45.4,26.5L45.4,26.5l0.2-0.1l0,0L45.4,26.5z
		 M45.7,26.5C45.7,26.4,45.7,26.4,45.7,26.5l0.1,0c0,0,0,0,0,0l0,0.1L45.7,26.5L45.7,26.5z M49.3,26L49.3,26L49.3,26
		C49.3,26,49.3,26,49.3,26L49.3,26z M49.4,26C49.4,26,49.4,26,49.4,26C49.3,26,49.4,26,49.4,26L49.4,26C49.3,26,49.3,26,49.4,26
		L49.4,26L49.4,26l-0.1,0.1L49.4,26L49.4,26L49.4,26L49.4,26z M49.6,26.2L49.6,26.2L49.6,26.2l0.2,0.1
		C49.8,26.2,49.7,26.2,49.6,26.2z" />
	</g>
</svg>
