<svg height="50" 
	width="50" 
	viewBox="0 0 50 50" 
	xmlns="http://www.w3.org/2000/svg">
	<style type="text/css">
	.st0{fill:#F7DF1E;}
	</style>
	<g>
		<path class="st0" 
			d="M0,0h50v50H0V0z" />
		<path d="M13.2,41.8l3.8-2.3c0.7,1.3,1.4,2.4,3,2.4c1.5,0,2.5-0.6,2.5-3V23h4.7v16c0,4.9-2.9,7.1-7,7.1
		C16.4,46.1,14.3,44.1,13.2,41.8 M29.8,41.3l3.8-2.2c1,1.6,2.3,2.9,4.6,2.9c1.9,0,3.2-1,3.2-2.3c0-1.6-1.3-2.2-3.4-3.1L36.8,36
		c-3.4-1.4-5.6-3.3-5.6-7.1c0-3.5,2.7-6.2,6.9-6.2c3,0,5.1,1,6.7,3.8l-3.7,2.3c-0.8-1.4-1.7-2-3-2c-1.4,0-2.2,0.9-2.2,2
		c0,1.4,0.9,2,2.9,2.9l1.2,0.5c4,1.7,6.2,3.5,6.2,7.4c0,4.2-3.3,6.5-7.8,6.5C34,46.1,31.1,44,29.8,41.3" />
	</g>
</svg>
