<?xml version="1.0" encoding="utf-8"?>
<!-- Generator: Adobe Illustrator 24.0.2, SVG Export Plug-In . SVG Version: 6.00 Build 0)  -->
<svg version="1.1" id="Layer_1" xmlns="http://www.w3.org/2000/svg" xmlns:xlink="http://www.w3.org/1999/xlink" x="0px" y="0px"
	 viewBox="0 0 50 50" style="enable-background:new 0 0 50 50;" xml:space="preserve">
<style type="text/css">
	.st0{fill-rule:evenodd;clip-rule:evenodd;fill:#EA6C00;}
	.st1{fill-rule:evenodd;clip-rule:evenodd;fill:#FDAD00;}
	.st2{fill-rule:evenodd;clip-rule:evenodd;fill:#FDD231;}
	.st3{fill-rule:evenodd;clip-rule:evenodd;fill:#FEEEB7;}
</style>
<g>
	<title>logo-symbol</title>
	<desc>Created using Figma</desc>
	<g transform="translate(.17 30.901)">
		<path id="a_1_" class="st0" d="M10.1,18.5L25,47.6L0,18.5H10.1z"/>
	</g>
	<g transform="matrix(-1 0 0 1 94.64 30.901)">
		<path id="b_1_" class="st0" d="M39.9,18.5L25,47.6l25-29.1H39.9z"/>
	</g>
	<g transform="translate(19.3 30.901)">
		<path id="c_1_" class="st1" d="M10.1,18.5h29.7L25,47.6L10.1,18.5z"/>
	</g>
	<g transform="translate(19.3 .42)">
		<path id="d_1_" class="st2" d="M25,2.4L10.9,3.9l-0.8,14.6L25,2.4z"/>
	</g>
	<g transform="matrix(-1 0 0 1 75.5 .42)">
		<path id="e_1_" class="st2" d="M25,2.4l14.1,1.5l0.8,14.6L25,2.4z"/>
	</g>
	<g transform="matrix(-1 0 0 1 94.64 3.234)">
		<path id="f_1_" class="st1" d="M50,18.5L39.1,3.9l0.8,14.6H50z"/>
	</g>
	<g transform="translate(.17 3.234)">
		<path id="g_1_" class="st1" d="M0,18.5L10.9,3.9l-0.8,14.6H0z"/>
	</g>
	<g transform="translate(19.3 .42)">
		<path id="h_1_" class="st3" d="M25,2.4L10.1,18.5h29.7L25,2.4z"/>
	</g>
</g>
</svg>
