<svg height="50" 
	width="50" 
	viewBox="0 0 50 50" 
	xmlns="http://www.w3.org/2000/svg">
	<style type="text/css">
	.st0{fill:#F4815B;}
	.st1{fill-rule:evenodd;clip-rule:evenodd;fill:#FF6C37;}
	.st2{display:none;fill-rule:evenodd;clip-rule:evenodd;fill:#FF6C37;}
	</style>
	<g>
		<path class="st0" 
			d="M25,48.1c12.8,0,23.1-10.4,23.1-23.1S37.8,1.9,25,1.9S1.9,12.2,1.9,25S12.2,48.1,25,48.1z M25,50
		C11.2,50,0,38.8,0,25S11.2,0,25,0s25,11.2,25,25S38.8,50,25,50z" />
		<g>
			<g>
				<path class="st1" 
					d="M36.6,15.5c-0.1,0.1-0.2,0.2-0.1,0.3c0.1,0.3,0.1,0.6-0.1,0.8c-0.1,0.1-0.1,0.3,0,0.3c0,0,0.1,0.1,0.2,0.1
				c0.1,0,0.1,0,0.2-0.1c0.3-0.4,0.4-0.9,0.2-1.3C36.9,15.5,36.7,15.4,36.6,15.5z" />
				<path class="st1" 
					d="M41.7,12.3c-7-9.1-20.1-10.8-29.2-3.7c-9.1,7-10.8,20.1-3.7,29.2c7,9.1,20.1,10.8,29.2,3.7
				C47,34.5,48.7,21.4,41.7,12.3z M29.3,18c1-0.5,1.5-0.3,2.1,0.1c-0.3,0.1-0.6,0.2-0.9,0.4l-7.7,7.7l-0.4-0.4l-1.1-1.1
				C25.3,20.8,27.8,18.7,29.3,18z M23.3,26.7L31,19c0.4-0.4,1-0.4,1.4,0c0.2,0.2,0.3,0.4,0.3,0.7c0,0.3-0.1,0.5-0.3,0.7l-8.1,7.1
				L23.3,26.7z M23.7,27.9l-1.8,0.2c0,0,0,0,0,0h0l1-1L23.7,27.9z M19,27.1l2-2l1.3,1.3L19,27.1C19,27.2,19,27.2,19,27.1
				C19,27.2,19,27.1,19,27.1z M12.6,37.5C12.6,37.5,12.6,37.5,12.6,37.5C12.6,37.4,12.6,37.4,12.6,37.5l1.6-1.6l1.9,1.9L12.6,37.5z
				 M16.7,35.3C16.7,35.3,16.7,35.3,16.7,35.3c-0.2,0.1-0.3,0.3-0.3,0.6l0.4,1.5c0,0.1,0,0.1-0.1,0.1c0,0-0.1,0-0.1,0l-2.1-2.1
				L21,29l3.2-0.5l1.2,1.2C23.3,31.6,20.4,33.5,16.7,35.3z M26,29.3c-0.2-0.2-0.6-0.6-1.3-1.3l8-7C32.1,23.2,29.1,26.3,26,29.3z
				 M32.4,18.2c-0.6-0.6-0.9-1.3-0.9-2.2c0-0.8,0.3-1.6,0.9-2.2c0.6-0.6,1.4-0.9,2.2-0.9c0.7,0,1.3,0.2,1.9,0.6l-2.7,2.7
				c-0.1,0.1-0.1,0.1-0.1,0.2c0,0.1,0,0.2,0.1,0.2l2.1,2.1C34.6,19.3,33.3,19.1,32.4,18.2z M36.7,18.2c-0.1,0.1-0.2,0.2-0.4,0.3
				l-2-2l2.5-2.5c0.5,0.6,0.7,1.3,0.7,2C37.6,16.8,37.3,17.6,36.7,18.2z" />
			</g>
			<path class="st2" 
				d="M36.9,15.6c-0.1-0.1-0.2-0.2-0.3-0.1c-0.1,0.1-0.2,0.2-0.1,0.3c0.1,0.3,0.1,0.6-0.1,0.8
			c-0.1,0.1-0.1,0.3,0,0.3c0,0,0.1,0.1,0.2,0.1c0.1,0,0.1,0,0.2-0.1C37.1,16.6,37.1,16,36.9,15.6" />
		</g>
	</g>
</svg>
