<svg height="50" 
	width="50" 
	viewBox="0 0 50 50" 
	xmlns="http://www.w3.org/2000/svg">
	<style type="text/css">
	.st0{fill:#131313;}
	.st1{fill:#1572B6;}
	.st2{fill:#33A9DC;}
	.st3{fill:#FFFFFF;}
	.st4{fill:#EBEBEB;}
	</style>
	<g>
		<path class="st0" 
			d="M35,1.9h-2.9l3.1,3.3v1.6h-6.3V4.9h3.1l-3.1-3.3V0H35L35,1.9z M27.6,1.9h-2.9l3.1,3.3v1.6h-6.3V4.9h3.1
		l-3.1-3.3V0h6.2V1.9z M20.3,1.9h-3.2v2.9h3.2v1.9h-5.4V0h5.4V1.9z" />
		<path class="st1" 
			d="M10.5,46L7.3,9.8h35.4L39.5,46L25,50L10.5,46z" />
		<path class="st2" 
			d="M25,46.9l11.7-3.2l2.8-30.9H25L25,46.9z" />
		<path class="st3" 
			d="M25,25.9h5.9l0.4-4.5H25v-4.4h11.1L36,18.1l-1.1,12.2H25L25,25.9z" />
		<path class="st4" 
			d="M25,37.4L25,37.4l-4.9-1.3l-0.3-3.5h-4.4l0.6,7L25,42h0L25,37.4L25,37.4z" />
		<path class="st3" 
			d="M30.5,30.1L30,36.1L25,37.4V42l9.1-2.5l0.1-0.7l0.8-8.6L30.5,30.1L30.5,30.1z" />
		<path class="st4" 
			d="M25,16.9v4.4H14.3l-0.1-1L14,18.1l-0.1-1.2L25,16.9z M25,25.9v4.4h-4.9l-0.1-1l-0.2-2.3l-0.1-1.2L25,25.9
		L25,25.9z" />
	</g>
</svg>
