<svg height="50" 
	width="50" 
	viewBox="0 0 50 50" 
	xmlns="http://www.w3.org/2000/svg">
	<style type="text/css">
	.st0{fill:#336791;}
	.st1{fill:#FFFFFF;}
	</style>
	<g>
		<path d="M49.1,30c-0.3-0.9-1.1-1.5-2-1.6c-0.5-0.1-1,0-1.6,0.1c-1.1,0.2-1.9,0.3-2.5,0.3c2.2-3.8,4.1-8.1,5.1-12.2
		c1.7-6.6,0.8-9.6-0.3-10.9C45,2,40.9,0.1,35.9,0c-2.6,0-5,0.5-6.2,0.9c-1.1-0.2-2.3-0.3-3.6-0.3c-2.4,0-4.5,0.5-6.3,1.5
		c-1-0.3-2.6-0.8-4.4-1.1C11.1,0.3,7.6,0.8,5,2.6C2,4.8,0.5,8.6,0.8,13.9c0.1,1.7,1,6.8,2.5,11.7c0.9,2.8,1.8,5.1,2.7,6.9
		c1.3,2.5,2.8,4,4.4,4.6c0.9,0.3,2.5,0.5,4.2-0.9c0.2,0.3,0.5,0.5,0.9,0.8c0.5,0.3,1.1,0.6,1.7,0.7c2.2,0.5,4.2,0.4,5.9-0.4
		c0,0.3,0,0.6,0,0.9c0,0.4,0,0.8,0,1.2c0.1,2.5,0.3,4.5,0.8,5.9c0,0.1,0.1,0.2,0.1,0.3c0.3,0.8,0.7,2.1,1.8,3.1
		c1.1,1.1,2.5,1.4,3.7,1.4c0.6,0,1.2-0.1,1.7-0.2c1.9-0.4,4-1,5.5-3.2c1.4-2.1,2.2-5.2,2.3-10.1c0-0.1,0-0.3,0-0.4l0-0.3l0.3,0
		l0.1,0c1.9,0.1,4.2-0.3,5.6-1C46.4,34.4,50,32.5,49.1,30" />
		<path class="st0" 
			d="M45.9,30.4c-5.6,1.2-6-0.7-6-0.7c6-8.8,8.5-20.1,6.3-22.8c-5.9-7.5-16-4-16.2-3.9l-0.1,0
		c-1.1-0.2-2.4-0.4-3.8-0.4c-2.6,0-4.5,0.7-6,1.8c0,0-18.1-7.5-17.3,9.4c0.2,3.6,5.1,27.1,11.1,20c2.2-2.6,4.3-4.8,4.3-4.8
		c1,0.7,2.3,1,3.6,0.9l0.1-0.1c0,0.3,0,0.6,0,1c-1.5,1.7-1.1,2-4.1,2.6c-3.1,0.6-1.3,1.8-0.1,2.1c1.4,0.4,4.7,0.9,7-2.3l-0.1,0.4
		c0.6,0.5,1,3.1,0.9,5.5c-0.1,2.4-0.1,4,0.4,5.3c0.5,1.3,0.9,4.2,4.9,3.3c3.3-0.7,5.1-2.6,5.3-5.7c0.2-2.2,0.6-1.9,0.6-3.8l0.3-0.9
		c0.4-3,0.1-4,2.1-3.5l0.5,0c1.5,0.1,3.5-0.2,4.7-0.8C46.9,31.9,48.3,29.9,45.9,30.4L45.9,30.4" />
		<path class="st1" 
			d="M21.2,15.4c-0.5-0.1-1,0-1.2,0.2c-0.1,0.1-0.2,0.2-0.2,0.3c0,0.2,0.1,0.4,0.2,0.6c0.3,0.3,0.6,0.6,1,0.6
		c0.1,0,0.1,0,0.2,0c0.6,0,1.2-0.5,1.2-0.8C22.5,15.8,21.8,15.5,21.2,15.4 M38.1,15.4c0-0.3-0.7-0.4-1.3-0.4
		c-0.6,0.1-1.2,0.3-1.1,0.7c0,0.3,0.5,0.7,1.1,0.7c0,0,0.1,0,0.1,0c0.4-0.1,0.7-0.3,0.8-0.4C38,15.8,38.1,15.6,38.1,15.4" />
		<path class="st1" 
			d="M47.8,30.3c-0.2-0.7-0.9-0.9-2.1-0.6c-3.4,0.7-4.6,0.2-5-0.1c2.7-4,4.8-8.9,6-13.5c0.6-2.2,0.9-4.2,0.9-5.8
		c0-1.8-0.3-3.1-0.9-3.9c-2.5-3.3-6.3-5-10.8-5c-3.1,0-5.7,0.8-6.2,1c-1.1-0.3-2.2-0.4-3.5-0.5c-2.3,0-4.4,0.5-6,1.7
		c-0.7-0.3-2.6-0.9-4.9-1.3c-4-0.6-7.1-0.2-9.4,1.4C3.1,5.6,1.9,9,2.1,13.8c0.1,1.6,1,6.6,2.5,11.3c1.9,6.3,4,9.8,6.2,10.5
		c0.3,0.1,0.6,0.1,0.9,0.1c0.8,0,1.8-0.4,2.8-1.6c1.2-1.5,2.5-2.9,3.8-4.4c0.9,0.5,1.8,0.7,2.8,0.7c0,0,0,0.1,0,0.1
		c-0.2,0.2-0.3,0.4-0.5,0.6c-0.7,0.8-0.8,1-3,1.5c-0.6,0.1-2.2,0.5-2.3,1.6c0,1.2,1.9,1.8,2.1,1.8c0.8,0.2,1.5,0.3,2.2,0.3
		c1.7,0,3.2-0.6,4.5-1.7c0,4.4,0.1,8.8,0.7,10.2c0.4,1.1,1.5,3.8,4.9,3.8c0.5,0,1-0.1,1.6-0.2c3.5-0.8,5-2.3,5.6-5.7
		c0.3-1.8,0.9-6.2,1.1-8.6c0.5,0.2,1.2,0.2,2,0.2c1.6,0,3.4-0.3,4.5-0.9C45.9,33,48.2,31.6,47.8,30.3L47.8,30.3z M39.4,14.5
		c0,0.7-0.1,1.3-0.2,2c-0.1,0.7-0.2,1.4-0.2,2.3c0,0.9,0.1,1.8,0.2,2.6c0.2,1.8,0.4,3.6-0.4,5.3c-0.1-0.2-0.3-0.5-0.4-0.8
		c-0.1-0.3-0.3-0.7-0.6-1.2c-1.2-2.2-4.1-7.3-2.6-9.4C35.5,14.8,36.6,14.1,39.4,14.5L39.4,14.5z M36,2.7c4.1,0.1,7.3,1.6,9.5,4.5
		c1.7,2.2-0.2,12.3-5.7,21.1c-0.1-0.1-0.1-0.1-0.2-0.2L39.6,28c1.4-2.4,1.2-4.7,0.9-6.8c-0.1-0.9-0.2-1.7-0.2-2.4
		c0-0.8,0.1-1.5,0.2-2.2c0.1-0.8,0.3-1.7,0.2-2.7c0-0.1,0-0.2,0-0.4c-0.1-1-1.2-3.8-3.4-6.4c-1.2-1.4-3-3-5.4-4.1
		C33,2.9,34.4,2.7,36,2.7L36,2.7z M13.4,33.3c-1.1,1.3-1.9,1.1-2.1,1c-1.7-0.6-3.6-4.1-5.3-9.6c-1.5-4.8-2.3-9.6-2.4-11
		C3.3,9.4,4.4,6.4,6.6,4.8c3.7-2.6,9.7-1,12.2-0.3c0,0-0.1,0.1-0.1,0.1c-4,4-3.9,10.9-3.9,11.3c0,0.2,0,0.4,0,0.7
		c0.1,1.2,0.2,3.3-0.1,5.8c-0.3,2.3,0.4,4.5,1.9,6.1c0.2,0.2,0.3,0.3,0.5,0.5C16.4,29.8,14.9,31.4,13.4,33.3L13.4,33.3z M17.6,27.6
		c-1.2-1.3-1.8-3.1-1.5-4.9c0.4-2.6,0.2-4.8,0.2-6c0-0.2,0-0.3,0-0.4c0.6-0.5,3.3-2,5.2-1.5c0.9,0.2,1.4,0.8,1.6,1.8
		c1.2,5.3,0.2,7.6-0.7,9.3c-0.2,0.4-0.3,0.7-0.5,1.1l-0.1,0.3c-0.3,0.7-0.5,1.4-0.7,2C19.9,29.2,18.6,28.6,17.6,27.6L17.6,27.6z
		 M17.8,34.8c-0.4-0.1-0.7-0.3-0.9-0.4c0.2-0.1,0.5-0.2,1-0.3c2.5-0.5,2.9-0.9,3.8-2c0.2-0.2,0.4-0.5,0.7-0.9l0,0
		c0.5-0.5,0.7-0.4,1-0.3c0.3,0.1,0.6,0.5,0.7,0.9c0.1,0.2,0.1,0.6-0.1,0.9C22.3,35.3,19.7,35.3,17.8,34.8z M31.1,47.1
		c-3.1,0.7-4.2-0.9-4.9-2.7c-0.5-1.2-0.7-6.4-0.5-12.2c0-0.1,0-0.2,0-0.2c0-0.1,0-0.3-0.1-0.4c-0.2-0.8-0.8-1.6-1.5-1.8
		c-0.3-0.1-0.8-0.3-1.4-0.2c0.1-0.5,0.4-1.2,0.6-1.8l0.1-0.3c0.1-0.3,0.3-0.6,0.4-1c0.8-1.9,2-4.4,0.7-10.2c-0.5-2.2-2-3.2-4.4-3
		c-1.4,0.1-2.7,0.7-3.4,1.1c-0.1,0.1-0.3,0.1-0.4,0.2c0.2-2.2,0.9-6.3,3.4-8.8c1.6-1.6,3.8-2.4,6.4-2.4c5.2,0.1,8.5,2.7,10.3,4.9
		c1.6,1.9,2.5,3.8,2.8,4.8c-2.6-0.3-4.4,0.2-5.3,1.5c-2,2.8,1.1,8.2,2.5,10.8c0.3,0.5,0.5,0.9,0.6,1.1c0.5,1.1,1.1,1.9,1.5,2.5
		c0.1,0.2,0.3,0.3,0.4,0.5c-0.8,0.2-2.2,0.8-2.1,3.4c-0.1,1.3-0.8,7.5-1.2,9.7C35.1,45.4,34.1,46.5,31.1,47.1L31.1,47.1z M44,32.3
		c-0.8,0.4-2.2,0.7-3.4,0.7c-1.4,0.1-2.1-0.2-2.3-0.3c-0.1-1.6,0.5-1.8,1.2-2c0.1,0,0.2-0.1,0.3-0.1c0.1,0,0.1,0.1,0.2,0.1
		c1.1,0.8,3.2,0.8,6.1,0.2l0,0C45.6,31.4,45,31.9,44,32.3L44,32.3z" />
	</g>
</svg>
