<svg height="50" 
	width="50" 
	viewBox="0 0 50 50" 
	xmlns="http://www.w3.org/2000/svg">
	<style type="text/css">
	.st0{fill-rule:evenodd;clip-rule:evenodd;fill:#FFFFFF;}
	.st1{fill:#FDB300;}
	.st2{filter:url(#Adobe_OpacityMaskFilter);}
	.st3{mask:url(#logo-light-d_1_);}
	.st4{fill:#EA6C00;}
	.st5{fill:#FDAD00;}
	.st6{filter:url(#Adobe_OpacityMaskFilter_1_);}
	.st7{mask:url(#logo-light-f_1_);}
	.st8{fill:#FDD231;}
	.st9{fill:#FEEEB7;}
	</style>
	<g>
		<g>
			<polygon id="logo-light-e_3_" 
				class="st0" 
				points="10.9,4 25,2.6 39.1,4 50,18.6 25,47.4 0,18.6 		" />
		</g>
		<g>
			<polygon id="logo-light-c_3_" 
				class="st0" 
				points="10.9,4 25,2.6 39.1,4 50,18.6 25,47.4 0,18.6 		" />
		</g>
		<g>
			<g transform="translate(48 63)">
				<polygon class="st1" 
					points="-37.1,-59 -23,-60.4 -8.9,-59 2,-44.4 -23,-15.6 -48,-44.4 			" />
				<defs>
					<filter id="Adobe_OpacityMaskFilter" 
						filterUnits="userSpaceOnUse" 
						x="-48" 
						y="-44.4" 
						width="50" 
						height="28.9">
						<feColorMatrix type="matrix" 
							values="1 0 0 0 0  0 1 0 0 0  0 0 1 0 0  0 0 0 1 0" />
					</filter>
				</defs>
				<mask maskUnits="userSpaceOnUse" 
					x="-48" 
					y="-44.4" 
					width="50" 
					height="28.9" 
					id="logo-light-d_1_">
					<g class="st2">
						<polygon id="logo-light-c_1_" 
							class="st0" 
							points="-37.1,-59 -23,-60.4 -8.9,-59 2,-44.4 -23,-15.6 -48,-44.4 					" />
					</g>
				</mask>
				<g class="st3">
					<g transform="translate(0 17.675)">
						<polygon class="st4" 
							points="-37.9,-62.1 -23,-33.2 -48,-62.1 					" />
						<polygon class="st4" 
							points="-8.1,-62.1 -23,-33.2 2,-62.1 					" />
						<polygon class="st5" 
							points="-37.9,-62.1 -8.1,-62.1 -23,-33.2 					" />
					</g>
				</g>
				<defs>
					<filter id="Adobe_OpacityMaskFilter_1_" 
						filterUnits="userSpaceOnUse" 
						x="-48" 
						y="-60.4" 
						width="50" 
						height="16">
						<feColorMatrix type="matrix" 
							values="1 0 0 0 0  0 1 0 0 0  0 0 1 0 0  0 0 0 1 0" />
					</filter>
				</defs>
				<mask maskUnits="userSpaceOnUse" 
					x="-48" 
					y="-60.4" 
					width="50" 
					height="16" 
					id="logo-light-f_1_">
					<g class="st6">
						<polygon id="logo-light-e_1_" 
							class="st0" 
							points="-37.1,-59 -23,-60.4 -8.9,-59 2,-44.4 -23,-15.6 -48,-44.4 					" />
					</g>
				</mask>
				<g class="st7">
					<polygon class="st8" 
						points="-23,-60.4 -37.1,-59 -37.9,-44.4 				" />
					<polygon class="st8" 
						points="-23,-60.4 -8.9,-59 -8.1,-44.4 				" />
					<polygon class="st5" 
						points="2,-44.4 -8.9,-59 -8.1,-44.4 				" />
					<polygon class="st5" 
						points="-48,-44.4 -37.1,-59 -37.9,-44.4 				" />
					<polygon class="st9" 
						points="-23,-60.4 -37.9,-44.4 -8.1,-44.4 				" />
				</g>
			</g>
		</g>
	</g>
</svg>
