<svg fill="currentColor"
    height="50"
    width="50"
    viewBox="0 0 50 50"
    xmlns="http://www.w3.org/2000/svg">
    <path d="M49.4988,21.4985c-.0028-.02-.0272-.1358-.0742-.3676-.3668-1.8117-.5525-2.7244-.6646-3.0609a7.69,7.69,0,0,0-.99-1.98,6.8888,6.8888,0,0,0-1.3931-1.4688,6.3988,6.3988,0,0,0-1.9744-1.022c-3.3736-1.75-7.0309.5711-9.8784,3.7267.0234-2.0811-.53-3.9685-2.351-4.9647-3.9636-2.1676-8.01,2.8705-10.3409,5.3314-.7355.7766-1.9935,2.1023-3.4179,3.7352-.5-.1865-1.0078-.3569-1.53-.4944C14.9713,20.43,8.0831,20.7852,7.19,19.63c-3.76-4.8619,11.2823-6.2808,12.8235-6.3876,1.8963-.1314,1.9108-3.1024,0-2.97-3.9612.2745-9.7348.8207-13.6057,3.38A21.7754,21.7754,0,0,1,40.9259,10.15H44.8l-.001-.0013c-.2634-.3506-.5377-.6924-.8189-1.0282-.0732-.0873-.15-.1719-.2238-.2583q-.32-.3716-.6532-.7312c-.0945-.1012-.1906-.2009-.2867-.3006q-.3213-.3333-.6547-.6544c-.1-.0964-.2-.1929-.3017-.2877-.2381-.2217-.4816-.4375-.7283-.65-.0879-.0757-.174-.1534-.263-.2279a24.8163,24.8163,0,0,0-2.13-1.5972c-.0867-.058-.1762-.1122-.2636-.169-.2816-.1832-.5659-.3623-.8552-.5342-.1241-.0737-.25-.1444-.3756-.2159q-.3906-.223-.79-.4326-.2062-.1079-.4144-.2122c-.268-.1339-.5394-.2618-.8128-.3861-.1344-.0611-.268-.1237-.4036-.1825-.315-.1364-.6345-.2644-.9562-.3879-.0952-.0366-.1886-.0768-.2844-.1122q-.6306-.2332-1.2768-.4332c-.0843-.0261-.1707-.0474-.2555-.0726-.3448-.1023-.6919-.1991-1.0428-.2867-.15-.0373-.3017-.07-.4526-.1044-.2912-.0669-.5838-.13-.8789-.1866-.1688-.0323-.3385-.062-.5086-.0909q-.4309-.0731-.867-.1307c-.17-.0226-.34-.0456-.5105-.0648-.3118-.035-.6262-.0616-.9414-.0849C26.7.315,26.5523.3,26.4025.292,25.938.266,25.4709.25,25,.25a24.75,24.75,0,0,0,0,49.5c.4954,0,.9863-.0188,1.4744-.0475.149-.0088.2966-.0224.4449-.0338q.5194-.04,1.0329-.1c.1586-.0188.317-.0385.4747-.06q.5421-.0752,1.0763-.1746c.1162-.0214.2335-.0394.3492-.0623q.7106-.1414,1.4069-.3216c.0576-.015.1138-.0332.1711-.0486q.6086-.1634,1.2043-.3569c.12-.0389.2384-.08.3574-.1209q.5232-.1787,1.0358-.38c.1065-.0417.2133-.0826.319-.1257.4269-.1745.8494-.3576,1.264-.5549l.0192-.0087q.6762-.3225,1.3288-.6847c.0306-.0169.06-.0351.0908-.0521q.5832-.3261,1.1461-.683.0971-.0613.1933-.124.5544-.3578,1.089-.7429c.03-.0214.06-.0422.09-.0638a24.9074,24.9074,0,0,0,2.3008-1.9l.0084-.008q.5349-.4995,1.0391-1.03l.051-.0535a24.8822,24.8822,0,0,0,2.7859-3.5326A24.6261,24.6261,0,0,0,49.75,25,24.9424,24.9424,0,0,0,49.4988,21.4985ZM19.1441,25.1792a6.931,6.931,0,0,1,3.4059,7.863c-1.21,5.2531-10.7178,7.1639-8.1506-.2729A26.3114,26.3114,0,0,1,19.1441,25.1792ZM25,46.78A21.771,21.771,0,0,1,3.5163,21.4294c2.4393,2.063,8.8571,1.6482,11.16,2.0719a14.4394,14.4394,0,0,1,1.6561.4087C11.557,29.8517,6.7688,37.7819,13.3,40.0809c8.2177,2.8927,15.1131-5.4427,11.4316-13.186A10.1021,10.1021,0,0,0,21.17,22.8318c.5708-.6405,1.1259-1.2524,1.6417-1.8254,1.0987-1.22,3.1016-4.1188,4.6625-4.6777,6.55-2.3453,3.4358,4.9366,2.7248,7.56-.4262,1.5729,1.9765,2.7071,2.7142,1.1443a19.9279,19.9279,0,0,1,5.3439-7.3545c3.7984-2.97,7.0923-.0572,8.0736,3.7832a16.8824,16.8824,0,0,1,.3982,2.1418c.0294.4622.0508.9266.0508,1.3962A21.78,21.78,0,0,1,25,46.78Z" />
</svg>
