<svg fill="#ffffff" 
    height="50" 
    width="50" 
    viewBox="0 0 50 50" 
    xmlns="http://www.w3.org/2000/svg">
    <path d="M2.3389,49.9959V44.5746c.1136-.0079.22-.0219.3271-.0219q10.5927,0,21.1852.0021c3.4137,0,6.8275.01,10.2411-.0039a10.2536,10.2536,0,0,0,6.7464-2.5077,11.3286,11.3286,0,0,0,2.9119-3.975,10.6329,10.6329,0,0,0,.9218-4.7493c-.013-1.144.0323-2.2946-.0727-3.43a10.1356,10.1356,0,0,0-.5642-2.6141,10.8363,10.8363,0,0,0-2.8737-4.3944,10.4518,10.4518,0,0,0-7.1182-2.7721q-13.1455,0-26.291-.0012c-.0887,0-.1774.0095-.3114.0171a2.6339,2.6339,0,0,0,.1537.2242q2.0364,2.3443,4.0756,4.6861,1.4524,1.6662,2.91,3.3272c.8054.9189,1.62,1.829,2.4173,2.7554a2.1608,2.1608,0,0,1,.4245,2.2387,1.9689,1.9689,0,0,1-1.7137,1.3987A2.0342,2.0342,0,0,1,13.843,34.01c-.53-.6211-1.06-1.2433-1.5957-1.86q-1.5629-1.7987-3.1324-3.591Q7.7429,26.99,6.367,25.4245,4.8085,23.643,3.2527,21.8586C2.4,20.8841,1.5294,19.9254.6934,18.9349A2.0561,2.0561,0,0,1,.102,16.8454a3.5453,3.5453,0,0,1,.6071-1.017c.6893-.8444,1.4062-1.6643,2.12-2.4862Q4.33,11.6145,5.843,9.8977,7.2166,8.33,8.5909,6.7627q1.5384-1.7574,3.0752-3.5164c.7435-.8477,1.4847-1.6978,2.239-2.5348a2.06,2.06,0,0,1,3.4057.4363,2.0331,2.0331,0,0,1-.1384,2.2677c-.7807.9954-1.6478,1.9161-2.4744,2.8721-.6641.7683-1.319,1.5455-1.9847,2.3123q-1.799,2.0726-3.6067,4.1366c-.488.5572-.9867,1.104-1.4792,1.6567-.061.0683-.1145.144-.2088.2636.1458.0088.2414.02.3371.02q12.9927.0007,25.9854-.0055a15.1393,15.1393,0,0,1,7.0812,1.5663,26.4055,26.4055,0,0,1,2.6084,1.5872,14.5151,14.5151,0,0,1,3.2166,3.2111,16.4685,16.4685,0,0,1,3.0312,6.9493,16.0884,16.0884,0,0,1,.3046,3.4291,26.4844,26.4844,0,0,1-.1757,4.6745,17.045,17.045,0,0,1-2.8436,7.1495,16.3384,16.3384,0,0,1-2.8271,3.0887,15.443,15.443,0,0,1-9.8691,3.6569c-6.42.0293-12.8393.01-19.259.0112q-6.1294.0009-12.2589.0011Z" />
</svg>
